<?xml version="1.0" encoding="utf-8"?>
<!-- Generator: Adobe Illustrator 16.0.0, SVG Export Plug-In . SVG Version: 6.00 Build 0)  -->
<!DOCTYPE svg PUBLIC "-//W3C//DTD SVG 1.1//EN" "http://www.w3.org/Graphics/SVG/1.1/DTD/svg11.dtd">
<svg version="1.1" id="Layer_1" xmlns="http://www.w3.org/2000/svg" xmlns:xlink="http://www.w3.org/1999/xlink" x="0px" y="0px"
	 width="126px" height="50px" viewBox="0.5 0.5 126 50" enable-background="new 0.5 0.5 126 50" xml:space="preserve">
<path fill="#5EACDF" d="M125.5,49.5v-48H1.5v48H125.5 M126.5,50.5H0.5v-50h126V50.5L126.5,50.5L126.5,50.5z"/>
<g>
	<path fill="#5EACDF" d="M48.428,37.354l-2.695-6.12h-9.416l-2.76,6.12h-4.059l11.51-24.709l11.494,24.709H48.428z M37.745,28.02
		h6.624l-2.436-5.422c-0.141-0.346-0.287-0.744-0.438-1.193c-0.151-0.449-0.304-0.95-0.454-1.502
		c-0.13,0.52-0.268,1.004-0.415,1.453c-0.146,0.449-0.295,0.863-0.446,1.242L37.745,28.02z"/>
</g>
<g>
	<path fill="#5FABDE" d="M56.5,9.5v31h-31v-31H56.5 M59.5,6.5h-37v37h37V6.5L59.5,6.5z"/>
</g>
<rect x="63.5" y="8.5" fill="#5EACDF" fill-opacity="0.4" width="38" height="2"/>
<rect x="63.5" y="14.5" fill="#5EACDF" fill-opacity="0.4" width="38" height="2"/>
<rect x="63.5" y="20.5" fill="#5EACDF" fill-opacity="0.4" width="38" height="2"/>
<rect x="63.5" y="26.5" fill="#5EACDF" fill-opacity="0.4" width="38" height="2"/>
<rect x="63.5" y="32.5" fill="#5EACDF" fill-opacity="0.4" width="38" height="2"/>
<rect x="63.5" y="38.5" fill="#5EACDF" fill-opacity="0.4" width="38" height="2"/>
</svg>
