<svg xmlns="http://www.w3.org/2000/svg" width="146" height="96" viewBox="0 0 146 96"><defs><style>.cls-1{fill:#d8d8d8;}.cls-2{fill:#ccc;}.cls-3{fill:#09090a;opacity:0.9;}.cls-4{fill:#b3b3b3;}.cls-5{fill:#fff;}.cls-6,.cls-7{fill:none;stroke-linecap:round;stroke-linejoin:round;stroke-width:0.5px;}.cls-6{stroke:#1a1a1a;}.cls-7{stroke:#fff;}</style></defs><title>df</title><g id="animated-updown"><path class="cls-1" d="M143,3V79H3V3H143m1-1H2V80H144V2Z"/><rect x="2" y="78" width="142" height="16"/><rect class="cls-2" x="36" y="5" width="74" height="58.08"/><rect class="cls-3" x="36" y="35" width="74" height="28.08"/><path class="cls-4" d="M37,67v.92H36V67Zm0,1v.92H36V68Zm0,1v.92H36V69Zm0,1v.92H36V70Zm0,1v.92H36V71Zm0,1v.92H36V72Zm0,1v.92H36V73Zm1-6v.92H37V67Zm0,3v.92H37V70Zm1-3v.92H38V67Zm0,3v.92H38V70Zm1-3v.92H39V67Zm0,3v.92H39V70Zm1-2v.92H40V68Zm0,1v.92H40V69Z"/><path class="cls-4" d="M43,69v.92H42V69Zm0,1v.92H42V70Zm0,1v.92H42V71Zm0,1v.92H42V72Zm0,1v.92H42V73Zm1-3v.92H43V70Zm1-1v.92H44V69Zm1,0v.92H45V69Z"/><path class="cls-4" d="M47,70v.92H46V70Zm0,1v.92H46V71Zm0,1v.92H46V72Zm1-3v.92H47V69Zm0,4v.92H47V73Zm1-4v.92H48V69Zm0,4v.92H48V73Zm1-4v.92H49V69Zm0,4v.92H49V73Zm1-3v.92H50V70Zm0,1v.92H50V71Zm0,1v.92H50V72Z"/><path class="cls-4" d="M53,70v.92H52V70Zm0,1v.92H52V71Zm0,1v.92H52V72Zm1-3v.92H53V69Zm0,4v.92H53V73Zm1-4v.92H54V69Zm0,4v.92H54V73Zm1-4v.92H55V69Zm0,4v.92H55V73Zm1-7v.92H56V66Zm0,1v.92H56V67Zm0,1v.92H56V68Zm0,1v.92H56V69Zm0,1v.92H56V70Zm0,1v.92H56V71Zm0,1v.92H56V72Zm0,1v.92H56V73Z"/><path class="cls-4" d="M59,69v.92H58V69Zm0,1v.92H58V70Zm0,1v.92H58V71Zm0,1v.92H58V72Zm1,1v.92H59V73Zm1,0v.92H60V73Zm1,0v.92H61V73Zm1-4v.92H62V69Zm0,1v.92H62V70Zm0,1v.92H62V71Zm0,1v.92H62V72Zm0,1v.92H62V73Z"/><path class="cls-4" d="M65,70v.92H64V70Zm0,1v.92H64V71Zm0,1v.92H64V72Zm1-3v.92H65V69Zm0,4v.92H65V73Zm1-4v.92H66V69Zm0,4v.92H66V73Zm1-4v.92H67V69Zm0,4v.92H67V73Zm1-4v.92H68V69Zm0,4v.92H68V73Z"/><path class="cls-4" d="M71,67v.92H70V67Zm0,1v.92H70V68Zm0,1v.92H70V69Zm0,1v.92H70V70Zm0,1v.92H70V71Zm0,1v.92H70V72Zm1-3v.92H71V69Zm0,4v.92H71V73Zm1-4v.92H72V69Zm0,4v.92H72V73Zm1-4v.92H73V69Zm0,4v.92H73V73Z"/><path class="cls-4" d="M78,67v.92H77V67Zm0,1v.92H77V68Zm0,1v.92H77V69Zm0,1v.92H77V70Zm0,1v.92H77V71Zm0,1v.92H77V72Zm0,1v.92H77V73Zm1-4v.92H78V69Zm1,1v.92H79V70Zm1,1v.92H80V71Zm1-4v.92H81V67Zm0,1v.92H81V68Zm0,1v.92H81V69Zm0,1v.92H81V70Zm0,1v.92H81V71Zm0,1v.92H81V72Zm0,1v.92H81V73Z"/><path class="cls-4" d="M84,72v.92H83V72Zm1-3v.92H84V69Zm0,2v.92H84V71Zm0,2v.92H84V73Zm1-4v.92H85V69Zm0,2v.92H85V71Zm0,2v.92H85V73Zm1-4v.92H86V69Zm0,2v.92H86V71Zm0,2v.92H86V73Zm1-3v.92H87V70Zm0,1v.92H87V71Zm0,1v.92H87V72Zm0,1v.92H87V73Z"/><path class="cls-4" d="M90,69v.92H89V69Zm0,1v.92H89V70Zm0,1v.92H89V71Zm0,1v.92H89V72Zm0,1v.92H89V73Zm1-4v.92H90V69Zm1,0v.92H91V69Zm1,0v.92H92V69Zm0,1v.92H92V70Zm0,1v.92H92V71Zm0,1v.92H92V72Zm0,1v.92H92V73Zm1-4v.92H93V69Zm1,0v.92H94V69Zm1,1v.92H95V70Zm0,1v.92H95V71Zm0,1v.92H95V72Zm0,1v.92H95V73Z"/><path class="cls-4" d="M98,70v.92H97V70Zm0,1v.92H97V71Zm0,1v.92H97V72Zm1-3v.92H98V69Zm0,2v.92H98V71Zm0,2v.92H98V73Zm1-4v.92H99V69Zm0,2v.92H99V71Zm0,2v.92H99V73Zm1-4v.92H100V69Zm0,2v.92H100V71Zm0,2v.92H100V73Zm1-3v.92H101V70Zm0,1v.92H101V71Zm0,2v.92H101V73Z"/><path class="cls-4" d="M6,72v.92H5.08V72Zm1-3v.92H6.08V69Zm0,2v.92H6.08V71Zm0,2v.92H6.08V73Zm1-4v.92H7.08V69Zm0,2v.92H7.08V71Zm0,2v.92H7.08V73Zm1-4v.92H8.08V69Zm0,2v.92H8.08V71Zm0,2v.92H8.08V73Zm1-3v.92H9.08V70Zm0,1v.92H9.08V71Zm0,1v.92H9.08V72Zm0,1v.92H9.08V73Z"/><path class="cls-4" d="M12,69v.92h-.92V69Zm0,1v.92h-.92V70Zm0,1v.92h-.92V71Zm0,1v.92h-.92V72Zm0,1v.92h-.92V73Zm1-4v.92h-.92V69Zm1,0v.92h-.92V69Zm1,0v.92h-.92V69Zm0,1v.92h-.92V70Zm0,1v.92h-.92V71Zm0,1v.92h-.92V72Zm0,1v.92h-.92V73Zm1-4v.92h-.92V69Zm1,0v.92h-.92V69Zm1,1v.92h-.92V70Zm0,1v.92h-.92V71Zm0,1v.92h-.92V72Zm0,1v.92h-.92V73Z"/><path class="cls-4" d="M20,70v.92h-.92V70Zm0,1v.92h-.92V71Zm0,1v.92h-.92V72Zm1-3v.92h-.92V69Zm0,2v.92h-.92V71Zm0,2v.92h-.92V73Zm1-4v.92h-.92V69Zm0,2v.92h-.92V71Zm0,2v.92h-.92V73Zm1-4v.92h-.92V69Zm0,2v.92h-.92V71Zm0,2v.92h-.92V73Zm1-3v.92h-.92V70Zm0,1v.92h-.92V71Zm0,2v.92h-.92V73Z"/><path class="cls-4" d="M115,67v.92h-.92V67Zm0,1v.92h-.92V68Zm0,1v.92h-.92V69Zm0,1v.92h-.92V70Zm0,1v.92h-.92V71Zm0,1v.92h-.92V72Zm0,1v.92h-.92V73Zm1-6v.92h-.92V67Zm0,3v.92h-.92V70Zm1-3v.92h-.92V67Zm0,3v.92h-.92V70Zm1-3v.92h-.92V67Zm0,3v.92h-.92V70Zm1-2v.92h-.92V68Zm0,1v.92h-.92V69Z"/><path class="cls-4" d="M121,69v.92h-.92V69Zm0,1v.92h-.92V70Zm0,1v.92h-.92V71Zm0,1v.92h-.92V72Zm0,1v.92h-.92V73Zm1-3v.92h-.92V70Zm1-1v.92h-.92V69Zm1,0v.92h-.92V69Z"/><path class="cls-4" d="M125,70v.92h-.92V70Zm0,1v.92h-.92V71Zm0,1v.92h-.92V72Zm1-3v.92h-.92V69Zm0,4v.92h-.92V73Zm1-4v.92h-.92V69Zm0,4v.92h-.92V73Zm1-4v.92h-.92V69Zm0,4v.92h-.92V73Zm1-3v.92h-.92V70Zm0,1v.92h-.92V71Zm0,1v.92h-.92V72Z"/><path class="cls-4" d="M131,70v.92h-.92V70Zm0,1v.92h-.92V71Zm0,1v.92h-.92V72Zm1-3v.92h-.92V69Zm0,4v.92h-.92V73Zm1-4v.92h-.92V69Zm0,4v.92h-.92V73Zm1-4v.92h-.92V69Zm0,4v.92h-.92V73Zm1-7v.92h-.92V66Zm0,1v.92h-.92V67Zm0,1v.92h-.92V68Zm0,1v.92h-.92V69Zm0,1v.92h-.92V70Zm0,1v.92h-.92V71Zm0,1v.92h-.92V72Zm0,1v.92h-.92V73Z"/><path class="cls-4" d="M137,69v.92h-.92V69Zm0,1v.92h-.92V70Zm0,1v.92h-.92V71Zm0,1v.92h-.92V72Zm1,1v.92h-.92V73Zm1,0v.92h-.92V73Zm1,0v.92h-.92V73Zm1-4v.92h-.92V69Zm0,1v.92h-.92V70Zm0,1v.92h-.92V71Zm0,1v.92h-.92V72Zm0,1v.92h-.92V73Z"/><rect class="cls-2" x="5" y="5" width="25" height="58"/><rect class="cls-2" x="116" y="5" width="25" height="58"/><path class="cls-5" d="M50,83V84H49V83Zm0,1V85H49V84Zm0,1V86H49V85Zm0,1V87H49V86Zm0,1V88H49V87Zm0,1V89H49V88Zm1,1V90H50V89Zm1,0V90H51V89Zm1,0V90H52V89Zm1-6V84H53V83Zm0,1V85H53V84Zm0,1V86H53V85Zm0,1V87H53V86Zm0,1V88H53V87Zm0,1V89H53V88Z"/><path class="cls-5" d="M56,85V86H55V85Zm0,1V87H55V86Zm0,1V88H55V87Zm0,1V89H55V88Zm0,1V90H55V89Zm0,1V91H55V90Zm0,1V92H55V91Zm1-6V86H56V85Zm0,4V90H56V89Zm1-4V86H57V85Zm0,4V90H57V89Zm1-4V86H58V85Zm0,4V90H58V89Zm1-3V87H59V86Zm0,1V88H59V87Zm0,1V89H59V88Z"/><path class="cls-5" d="M64,84V85H63V84Zm0,1V86H63V85Zm0,2V88H63V87Zm0,1V89H63V88Zm1-5V84H64V83Zm0,3V87H64V86Zm0,3V90H64V89Zm1-6V84H65V83Zm0,3V87H65V86Zm0,3V90H65V89Zm1-6V84H66V83Zm0,6V90H66V89Zm1-3V87H67V86Zm0,1V88H67V87Zm0,1V89H67V88Zm1-2V87H68V86Zm1,0V87H69V86Z"/><path class="cls-5" d="M73,83V84H72V83Zm0,1V85H72V84Zm0,1V86H72V85Zm0,1V87H72V86Zm0,1V88H72V87Zm0,1V89H72V88Zm0,1V90H72V89Zm1-6V84H73V83Zm0,6V90H73V89Zm1-6V84H74V83Zm0,6V90H74V89Zm1-5V85H75V84Zm0,4V89H75V88Zm1-3V86H76V85Zm0,1V87H76V86Zm0,1V88H76V87Z"/><path class="cls-5" d="M79,86V87H78V86Zm0,1V88H78V87Zm0,1V89H78V88Zm1-3V86H79V85Zm0,4V90H79V89Zm1-4V86H80V85Zm0,4V90H80V89Zm1-4V86H81V85Zm0,4V90H81V89Zm1-3V87H82V86Zm0,1V88H82V87Zm0,1V89H82V88Z"/><path class="cls-5" d="M85,85V86H84V85Zm0,1V87H84V86Zm0,1V88H84V87Zm0,1V89H84V88Zm1,1V90H85V89Zm1-1V89H86V88Zm1-2V87H87V86Zm0,1V88H87V87Zm1,1V89H88V88Zm1,1V90H89V89Zm1-4V86H90V85Zm0,1V87H90V86Zm0,1V88H90V87Zm0,1V89H90V88Z"/><path class="cls-5" d="M93,85V86H92V85Zm0,1V87H92V86Zm0,1V88H92V87Zm0,1V89H92V88Zm0,1V90H92V89Zm1-4V86H93V85Zm1,0V86H94V85Zm1,0V86H95V85Zm1,1V87H96V86Zm0,1V88H96V87Zm0,1V89H96V88Zm0,1V90H96V89Z"/><polyline class="cls-6" points="75 26.5 73 23.5 71 26.5"/><line class="cls-6" x1="73" y1="23.5" x2="73" y2="30.5"/><polyline class="cls-7" points="75 47.08 73 44.08 71 47.08"/><line class="cls-7" x1="73" y1="44.08" x2="73" y2="51.08"/></g></svg>