<svg xmlns="http://www.w3.org/2000/svg" xmlns:xlink="http://www.w3.org/1999/xlink" width="146" height="96" viewBox="0 0 146 96"><defs><style>.cls-1{fill:#d8d8d8;}.cls-2{fill:#fff;}.cls-3{fill:#09090a;}.cls-3,.cls-4{opacity:0.9;}.cls-4{fill:url(#linear-gradient);}.cls-5{fill:#b3b3b3;}.cls-6{fill:#ccc;}</style><linearGradient id="linear-gradient" x1="52.48" y1="54.65" x2="71.5" y2="35.55" gradientUnits="userSpaceOnUse"><stop offset="0" stop-color="#fff" stop-opacity="0.5"/><stop offset="1" stop-color="#1a1a1a" stop-opacity="0.8"/></linearGradient></defs><title>df</title><g id="animated-fade"><path class="cls-1" d="M143,3V79H3V3H143m1-1H2V80H144V2Z"/><rect x="2" y="78" width="142" height="16"/><path class="cls-2" d="M63,83v.92H62V83Zm0,1v.92H62V84Zm0,1v.92H62V85Zm0,1v.92H62V86Zm0,1v.92H62V87Zm0,1v.92H62V88Zm0,1v.92H62V89Zm1-6v.92H63V83Zm0,3v.92H63V86Zm1-3v.92H64V83Zm0,3v.92H64V86Zm1-3v.92H65V83Zm0,3v.92H65V86Zm1-3v.92H66V83Z"/><path class="cls-2" d="M68,88v.92H67V88Zm1-3v.92H68V85Zm0,2v.92H68V87Zm0,2v.92H68V89Zm1-4v.92H69V85Zm0,2v.92H69V87Zm0,2v.92H69V89Zm1-4v.92H70V85Zm0,2v.92H70V87Zm0,2v.92H70V89Zm1-3v.92H71V86Zm0,1v.92H71V87Zm0,1v.92H71V88Zm0,1v.92H71V89Z"/><path class="cls-2" d="M74,86v.92H73V86Zm0,1v.92H73V87Zm0,1v.92H73V88Zm1-3v.92H74V85Zm0,4v.92H74V89Zm1-4v.92H75V85Zm0,4v.92H75V89Zm1-4v.92H76V85Zm0,4v.92H76V89Zm1-7v.92H77V82Zm0,1v.92H77V83Zm0,1v.92H77V84Zm0,1v.92H77V85Zm0,1v.92H77V86Zm0,1v.92H77V87Zm0,1v.92H77V88Zm0,1v.92H77V89Z"/><path class="cls-2" d="M80,86v.92H79V86Zm0,1v.92H79V87Zm0,1v.92H79V88Zm1-3v.92H80V85Zm0,2v.92H80V87Zm0,2v.92H80V89Zm1-4v.92H81V85Zm0,2v.92H81V87Zm0,2v.92H81V89Zm1-4v.92H82V85Zm0,2v.92H82V87Zm0,2v.92H82V89Zm1-3v.92H83V86Zm0,1v.92H83V87Zm0,2v.92H83V89Z"/><rect class="cls-3" x="36" y="5" width="74" height="58.08"/><rect class="cls-4" x="36" y="5" width="74" height="58.08"/><path class="cls-5" d="M37,67v.92H36V67Zm0,1v.92H36V68Zm0,1v.92H36V69Zm0,1v.92H36V70Zm0,1v.92H36V71Zm0,1v.92H36V72Zm0,1v.92H36V73Zm1-6v.92H37V67Zm0,3v.92H37V70Zm1-3v.92H38V67Zm0,3v.92H38V70Zm1-3v.92H39V67Zm0,3v.92H39V70Zm1-2v.92H40V68Zm0,1v.92H40V69Z"/><path class="cls-5" d="M43,69v.92H42V69Zm0,1v.92H42V70Zm0,1v.92H42V71Zm0,1v.92H42V72Zm0,1v.92H42V73Zm1-3v.92H43V70Zm1-1v.92H44V69Zm1,0v.92H45V69Z"/><path class="cls-5" d="M47,70v.92H46V70Zm0,1v.92H46V71Zm0,1v.92H46V72Zm1-3v.92H47V69Zm0,4v.92H47V73Zm1-4v.92H48V69Zm0,4v.92H48V73Zm1-4v.92H49V69Zm0,4v.92H49V73Zm1-3v.92H50V70Zm0,1v.92H50V71Zm0,1v.92H50V72Z"/><path class="cls-5" d="M53,70v.92H52V70Zm0,1v.92H52V71Zm0,1v.92H52V72Zm1-3v.92H53V69Zm0,4v.92H53V73Zm1-4v.92H54V69Zm0,4v.92H54V73Zm1-4v.92H55V69Zm0,4v.92H55V73Zm1-7v.92H56V66Zm0,1v.92H56V67Zm0,1v.92H56V68Zm0,1v.92H56V69Zm0,1v.92H56V70Zm0,1v.92H56V71Zm0,1v.92H56V72Zm0,1v.92H56V73Z"/><path class="cls-5" d="M59,69v.92H58V69Zm0,1v.92H58V70Zm0,1v.92H58V71Zm0,1v.92H58V72Zm1,1v.92H59V73Zm1,0v.92H60V73Zm1,0v.92H61V73Zm1-4v.92H62V69Zm0,1v.92H62V70Zm0,1v.92H62V71Zm0,1v.92H62V72Zm0,1v.92H62V73Z"/><path class="cls-5" d="M65,70v.92H64V70Zm0,1v.92H64V71Zm0,1v.92H64V72Zm1-3v.92H65V69Zm0,4v.92H65V73Zm1-4v.92H66V69Zm0,4v.92H66V73Zm1-4v.92H67V69Zm0,4v.92H67V73Zm1-4v.92H68V69Zm0,4v.92H68V73Z"/><path class="cls-5" d="M71,67v.92H70V67Zm0,1v.92H70V68Zm0,1v.92H70V69Zm0,1v.92H70V70Zm0,1v.92H70V71Zm0,1v.92H70V72Zm1-3v.92H71V69Zm0,4v.92H71V73Zm1-4v.92H72V69Zm0,4v.92H72V73Zm1-4v.92H73V69Zm0,4v.92H73V73Z"/><path class="cls-5" d="M78,67v.92H77V67Zm0,1v.92H77V68Zm0,1v.92H77V69Zm0,1v.92H77V70Zm0,1v.92H77V71Zm0,1v.92H77V72Zm0,1v.92H77V73Zm1-4v.92H78V69Zm1,1v.92H79V70Zm1,1v.92H80V71Zm1-4v.92H81V67Zm0,1v.92H81V68Zm0,1v.92H81V69Zm0,1v.92H81V70Zm0,1v.92H81V71Zm0,1v.92H81V72Zm0,1v.92H81V73Z"/><path class="cls-5" d="M84,72v.92H83V72Zm1-3v.92H84V69Zm0,2v.92H84V71Zm0,2v.92H84V73Zm1-4v.92H85V69Zm0,2v.92H85V71Zm0,2v.92H85V73Zm1-4v.92H86V69Zm0,2v.92H86V71Zm0,2v.92H86V73Zm1-3v.92H87V70Zm0,1v.92H87V71Zm0,1v.92H87V72Zm0,1v.92H87V73Z"/><path class="cls-5" d="M90,69v.92H89V69Zm0,1v.92H89V70Zm0,1v.92H89V71Zm0,1v.92H89V72Zm0,1v.92H89V73Zm1-4v.92H90V69Zm1,0v.92H91V69Zm1,0v.92H92V69Zm0,1v.92H92V70Zm0,1v.92H92V71Zm0,1v.92H92V72Zm0,1v.92H92V73Zm1-4v.92H93V69Zm1,0v.92H94V69Zm1,1v.92H95V70Zm0,1v.92H95V71Zm0,1v.92H95V72Zm0,1v.92H95V73Z"/><path class="cls-5" d="M98,70v.92H97V70Zm0,1v.92H97V71Zm0,1v.92H97V72Zm1-3v.92H98V69Zm0,2v.92H98V71Zm0,2v.92H98V73Zm1-4v.92H99V69Zm0,2v.92H99V71Zm0,2v.92H99V73Zm1-4v.92H100V69Zm0,2v.92H100V71Zm0,2v.92H100V73Zm1-3v.92H101V70Zm0,1v.92H101V71Zm0,2v.92H101V73Z"/><path class="cls-5" d="M6,72v.92H5.08V72Zm1-3v.92H6.08V69Zm0,2v.92H6.08V71Zm0,2v.92H6.08V73Zm1-4v.92H7.08V69Zm0,2v.92H7.08V71Zm0,2v.92H7.08V73Zm1-4v.92H8.08V69Zm0,2v.92H8.08V71Zm0,2v.92H8.08V73Zm1-3v.92H9.08V70Zm0,1v.92H9.08V71Zm0,1v.92H9.08V72Zm0,1v.92H9.08V73Z"/><path class="cls-5" d="M12,69v.92h-.92V69Zm0,1v.92h-.92V70Zm0,1v.92h-.92V71Zm0,1v.92h-.92V72Zm0,1v.92h-.92V73Zm1-4v.92h-.92V69Zm1,0v.92h-.92V69Zm1,0v.92h-.92V69Zm0,1v.92h-.92V70Zm0,1v.92h-.92V71Zm0,1v.92h-.92V72Zm0,1v.92h-.92V73Zm1-4v.92h-.92V69Zm1,0v.92h-.92V69Zm1,1v.92h-.92V70Zm0,1v.92h-.92V71Zm0,1v.92h-.92V72Zm0,1v.92h-.92V73Z"/><path class="cls-5" d="M20,70v.92h-.92V70Zm0,1v.92h-.92V71Zm0,1v.92h-.92V72Zm1-3v.92h-.92V69Zm0,2v.92h-.92V71Zm0,2v.92h-.92V73Zm1-4v.92h-.92V69Zm0,2v.92h-.92V71Zm0,2v.92h-.92V73Zm1-4v.92h-.92V69Zm0,2v.92h-.92V71Zm0,2v.92h-.92V73Zm1-3v.92h-.92V70Zm0,1v.92h-.92V71Zm0,2v.92h-.92V73Z"/><path class="cls-5" d="M115,67v.92h-.92V67Zm0,1v.92h-.92V68Zm0,1v.92h-.92V69Zm0,1v.92h-.92V70Zm0,1v.92h-.92V71Zm0,1v.92h-.92V72Zm0,1v.92h-.92V73Zm1-6v.92h-.92V67Zm0,3v.92h-.92V70Zm1-3v.92h-.92V67Zm0,3v.92h-.92V70Zm1-3v.92h-.92V67Zm0,3v.92h-.92V70Zm1-2v.92h-.92V68Zm0,1v.92h-.92V69Z"/><path class="cls-5" d="M121,69v.92h-.92V69Zm0,1v.92h-.92V70Zm0,1v.92h-.92V71Zm0,1v.92h-.92V72Zm0,1v.92h-.92V73Zm1-3v.92h-.92V70Zm1-1v.92h-.92V69Zm1,0v.92h-.92V69Z"/><path class="cls-5" d="M125,70v.92h-.92V70Zm0,1v.92h-.92V71Zm0,1v.92h-.92V72Zm1-3v.92h-.92V69Zm0,4v.92h-.92V73Zm1-4v.92h-.92V69Zm0,4v.92h-.92V73Zm1-4v.92h-.92V69Zm0,4v.92h-.92V73Zm1-3v.92h-.92V70Zm0,1v.92h-.92V71Zm0,1v.92h-.92V72Z"/><path class="cls-5" d="M131,70v.92h-.92V70Zm0,1v.92h-.92V71Zm0,1v.92h-.92V72Zm1-3v.92h-.92V69Zm0,4v.92h-.92V73Zm1-4v.92h-.92V69Zm0,4v.92h-.92V73Zm1-4v.92h-.92V69Zm0,4v.92h-.92V73Zm1-7v.92h-.92V66Zm0,1v.92h-.92V67Zm0,1v.92h-.92V68Zm0,1v.92h-.92V69Zm0,1v.92h-.92V70Zm0,1v.92h-.92V71Zm0,1v.92h-.92V72Zm0,1v.92h-.92V73Z"/><path class="cls-5" d="M137,69v.92h-.92V69Zm0,1v.92h-.92V70Zm0,1v.92h-.92V71Zm0,1v.92h-.92V72Zm1,1v.92h-.92V73Zm1,0v.92h-.92V73Zm1,0v.92h-.92V73Zm1-4v.92h-.92V69Zm0,1v.92h-.92V70Zm0,1v.92h-.92V71Zm0,1v.92h-.92V72Zm0,1v.92h-.92V73Z"/><rect class="cls-6" x="5" y="5" width="25" height="58"/><rect class="cls-6" x="116" y="5" width="25" height="58"/></g></svg>