<svg xmlns="http://www.w3.org/2000/svg" width="146" height="96" viewBox="0 0 146 96"><defs><style>.cls-1{fill:#d8d8d8;}.cls-2{fill:#fff;}.cls-3{fill:#ccc;}.cls-4{fill:#b3b3b3;}.cls-5{opacity:0.5;}.cls-6{fill:#09090a;opacity:0.9;}</style></defs><title>df</title><g id="animated-flip"><path class="cls-1" d="M143,3V79H3V3H143m1-1H2V80H144V2Z"/><rect x="2" y="78" width="142" height="16"/><path class="cls-2" d="M67,83v.92H66V83Zm0,1v.92H66V84Zm0,1v.92H66V85Zm0,1v.92H66V86Zm0,1v.92H66V87Zm0,1v.92H66V88Zm0,1v.92H66V89Zm1-6v.92H67V83Zm0,3v.92H67V86Zm1-3v.92H68V83Zm0,3v.92H68V86Zm1-3v.92H69V83Zm0,3v.92H69V86Zm1-3-.92.92V83Z"/><path class="cls-2" d="M72,82v.92H71V82Zm0,1v.92H71V83Zm0,1v.92H71V84Zm0,1v.92H71V85Zm0,1v.92H71V86Zm0,1v.92H71V87Zm0,1v.92H71V88Zm1,1v.92H72V89Zm1,.92H73V89Z"/><path class="cls-2" d="M75,82v.92H74V82Zm0,3v.92H74V85Zm0,1v.92H74V86Zm0,1v.92H74V87Zm0,1v.92H74V88Zm0,1v.92H74V89Z"/><path class="cls-2" d="M77,85v.92H76V85Zm0,1v.92H76V86Zm0,1v.92H76V87Zm0,1v.92H76V88Zm0,1v.92H76V89Zm0,1v.92H76V90Zm0,1v.92H76V91Zm1-6v.92H77V85Zm0,4v.92H77V89Zm1-4v.92H78V85Zm0,4v.92H78V89Zm1-4v.92H79V85Zm0,4v.92H79V89Zm1-3v.92H80V86Zm0,1v.92H80V87Zm0,1v.92H80V88Z"/><rect class="cls-3" x="36" y="5" width="74" height="58.08"/><path class="cls-4" d="M37,67v.92H36V67Zm0,1v.92H36V68Zm0,1v.92H36V69Zm0,1v.92H36V70Zm0,1v.92H36V71Zm0,1v.92H36V72Zm0,1v.92H36V73Zm1-6v.92H37V67Zm0,3v.92H37V70Zm1-3v.92H38V67Zm0,3v.92H38V70Zm1-3v.92H39V67Zm0,3v.92H39V70Zm1-2v.92H40V68Zm0,1v.92H40V69Z"/><path class="cls-4" d="M43,69v.92H42V69Zm0,1v.92H42V70Zm0,1v.92H42V71Zm0,1v.92H42V72Zm0,1v.92H42V73Zm1-3v.92H43V70Zm1-1v.92H44V69Zm1,0v.92H45V69Z"/><path class="cls-4" d="M47,70v.92H46V70Zm0,1v.92H46V71Zm0,1v.92H46V72Zm1-3v.92H47V69Zm0,4v.92H47V73Zm1-4v.92H48V69Zm0,4v.92H48V73Zm1-4v.92H49V69Zm0,4v.92H49V73Zm1-3v.92H50V70Zm0,1v.92H50V71Zm0,1v.92H50V72Z"/><path class="cls-4" d="M53,70v.92H52V70Zm0,1v.92H52V71Zm0,1v.92H52V72Zm1-3v.92H53V69Zm0,4v.92H53V73Zm1-4v.92H54V69Zm0,4v.92H54V73Zm1-4v.92H55V69Zm0,4v.92H55V73Zm1-7v.92H56V66Zm0,1v.92H56V67Zm0,1v.92H56V68Zm0,1v.92H56V69Zm0,1v.92H56V70Zm0,1v.92H56V71Zm0,1v.92H56V72Zm0,1v.92H56V73Z"/><path class="cls-4" d="M59,69v.92H58V69Zm0,1v.92H58V70Zm0,1v.92H58V71Zm0,1v.92H58V72Zm1,1v.92H59V73Zm1,0v.92H60V73Zm1,0v.92H61V73Zm1-4v.92H62V69Zm0,1v.92H62V70Zm0,1v.92H62V71Zm0,1v.92H62V72Zm0,1v.92H62V73Z"/><path class="cls-4" d="M65,70v.92H64V70Zm0,1v.92H64V71Zm0,1v.92H64V72Zm1-3v.92H65V69Zm0,4v.92H65V73Zm1-4v.92H66V69Zm0,4v.92H66V73Zm1-4v.92H67V69Zm0,4v.92H67V73Zm1-4v.92H68V69Zm0,4v.92H68V73Z"/><path class="cls-4" d="M71,67v.92H70V67Zm0,1v.92H70V68Zm0,1v.92H70V69Zm0,1v.92H70V70Zm0,1v.92H70V71Zm0,1v.92H70V72Zm1-3v.92H71V69Zm0,4v.92H71V73Zm1-4v.92H72V69Zm0,4v.92H72V73Zm1-4v.92H73V69Zm0,4v.92H73V73Z"/><path class="cls-4" d="M78,67v.92H77V67Zm0,1v.92H77V68Zm0,1v.92H77V69Zm0,1v.92H77V70Zm0,1v.92H77V71Zm0,1v.92H77V72Zm0,1v.92H77V73Zm1-4v.92H78V69Zm1,1v.92H79V70Zm1,1v.92H80V71Zm1-4v.92H81V67Zm0,1v.92H81V68Zm0,1v.92H81V69Zm0,1v.92H81V70Zm0,1v.92H81V71Zm0,1v.92H81V72Zm0,1v.92H81V73Z"/><path class="cls-4" d="M84,72v.92H83V72Zm1-3v.92H84V69Zm0,2v.92H84V71Zm0,2v.92H84V73Zm1-4v.92H85V69Zm0,2v.92H85V71Zm0,2v.92H85V73Zm1-4v.92H86V69Zm0,2v.92H86V71Zm0,2v.92H86V73Zm1-3v.92H87V70Zm0,1v.92H87V71Zm0,1v.92H87V72Zm0,1v.92H87V73Z"/><path class="cls-4" d="M90,69v.92H89V69Zm0,1v.92H89V70Zm0,1v.92H89V71Zm0,1v.92H89V72Zm0,1v.92H89V73Zm1-4v.92H90V69Zm1,0v.92H91V69Zm1,0v.92H92V69Zm0,1v.92H92V70Zm0,1v.92H92V71Zm0,1v.92H92V72Zm0,1v.92H92V73Zm1-4v.92H93V69Zm1,0v.92H94V69Zm1,1v.92H95V70Zm0,1v.92H95V71Zm0,1v.92H95V72Zm0,1v.92H95V73Z"/><path class="cls-4" d="M98,70v.92H97V70Zm0,1v.92H97V71Zm0,1v.92H97V72Zm1-3v.92H98V69Zm0,2v.92H98V71Zm0,2v.92H98V73Zm1-4v.92H99V69Zm0,2v.92H99V71Zm0,2v.92H99V73Zm1-4v.92H100V69Zm0,2v.92H100V71Zm0,2v.92H100V73Zm1-3v.92H101V70Zm0,1v.92H101V71Zm0,2v.92H101V73Z"/><path class="cls-4" d="M6,72v.92H5.08V72Zm1-3v.92H6.08V69Zm0,2v.92H6.08V71Zm0,2v.92H6.08V73Zm1-4v.92H7.08V69Zm0,2v.92H7.08V71Zm0,2v.92H7.08V73Zm1-4v.92H8.08V69Zm0,2v.92H8.08V71Zm0,2v.92H8.08V73Zm1-3v.92H9.08V70Zm0,1v.92H9.08V71Zm0,1v.92H9.08V72Zm0,1v.92H9.08V73Z"/><path class="cls-4" d="M12,69v.92h-.92V69Zm0,1v.92h-.92V70Zm0,1v.92h-.92V71Zm0,1v.92h-.92V72Zm0,1v.92h-.92V73Zm1-4v.92h-.92V69Zm1,0v.92h-.92V69Zm1,0v.92h-.92V69Zm0,1v.92h-.92V70Zm0,1v.92h-.92V71Zm0,1v.92h-.92V72Zm0,1v.92h-.92V73Zm1-4v.92h-.92V69Zm1,0v.92h-.92V69Zm1,1v.92h-.92V70Zm0,1v.92h-.92V71Zm0,1v.92h-.92V72Zm0,1v.92h-.92V73Z"/><path class="cls-4" d="M20,70v.92h-.92V70Zm0,1v.92h-.92V71Zm0,1v.92h-.92V72Zm1-3v.92h-.92V69Zm0,2v.92h-.92V71Zm0,2v.92h-.92V73Zm1-4v.92h-.92V69Zm0,2v.92h-.92V71Zm0,2v.92h-.92V73Zm1-4v.92h-.92V69Zm0,2v.92h-.92V71Zm0,2v.92h-.92V73Zm1-3v.92h-.92V70Zm0,1v.92h-.92V71Zm0,2v.92h-.92V73Z"/><path class="cls-4" d="M115,67v.92h-.92V67Zm0,1v.92h-.92V68Zm0,1v.92h-.92V69Zm0,1v.92h-.92V70Zm0,1v.92h-.92V71Zm0,1v.92h-.92V72Zm0,1v.92h-.92V73Zm1-6v.92h-.92V67Zm0,3v.92h-.92V70Zm1-3v.92h-.92V67Zm0,3v.92h-.92V70Zm1-3v.92h-.92V67Zm0,3v.92h-.92V70Zm1-2v.92h-.92V68Zm0,1v.92h-.92V69Z"/><path class="cls-4" d="M121,69v.92h-.92V69Zm0,1v.92h-.92V70Zm0,1v.92h-.92V71Zm0,1v.92h-.92V72Zm0,1v.92h-.92V73Zm1-3v.92h-.92V70Zm1-1v.92h-.92V69Zm1,0v.92h-.92V69Z"/><path class="cls-4" d="M125,70v.92h-.92V70Zm0,1v.92h-.92V71Zm0,1v.92h-.92V72Zm1-3v.92h-.92V69Zm0,4v.92h-.92V73Zm1-4v.92h-.92V69Zm0,4v.92h-.92V73Zm1-4v.92h-.92V69Zm0,4v.92h-.92V73Zm1-3v.92h-.92V70Zm0,1v.92h-.92V71Zm0,1v.92h-.92V72Z"/><path class="cls-4" d="M131,70v.92h-.92V70Zm0,1v.92h-.92V71Zm0,1v.92h-.92V72Zm1-3v.92h-.92V69Zm0,4v.92h-.92V73Zm1-4v.92h-.92V69Zm0,4v.92h-.92V73Zm1-4v.92h-.92V69Zm0,4v.92h-.92V73Zm1-7v.92h-.92V66Zm0,1v.92h-.92V67Zm0,1v.92h-.92V68Zm0,1v.92h-.92V69Zm0,1v.92h-.92V70Zm0,1v.92h-.92V71Zm0,1v.92h-.92V72Zm0,1v.92h-.92V73Z"/><path class="cls-4" d="M137,69v.92h-.92V69Zm0,1v.92h-.92V70Zm0,1v.92h-.92V71Zm0,1v.92h-.92V72Zm1,1v.92h-.92V73Zm1,0v.92h-.92V73Zm1,0v.92h-.92V73Zm1-4v.92h-.92V69Zm0,1v.92h-.92V70Zm0,1v.92h-.92V71Zm0,1v.92h-.92V72Zm0,1v.92h-.92V73Z"/><rect class="cls-3" x="5" y="5" width="25" height="58"/><rect class="cls-3" x="116" y="5" width="25" height="58"/><g class="cls-5"><path class="cls-6" d="M35,45.61c-9.94-2-17-7.11-17-13.07,0-7.55,11.32-13.7,25.48-14h-1C27.88,18.54,16,25,16,33c0,6.58,8,12.13,19,13.9v2.6l6-3.45-6-3.45Z"/><path class="cls-6" d="M111,22.47c9.94,2,17,7.11,17,13.07,0,7.55-11.32,13.7-25.48,14h1C118.12,49.54,130,43,130,35c0-6.58-8-12.13-19-13.9v-2.6L105,22l6,3.45Z"/></g><polygon class="cls-6" points="47 5 47 52.28 99 63.08 99 5 47 5"/></g></svg>