<svg xmlns="http://www.w3.org/2000/svg" width="146" height="96" viewBox="0 0 146 96"><defs><style>.cls-1{fill:#d8d8d8;}.cls-2{fill:#09090a;opacity:0.9;}.cls-3{fill:#b3b3b3;}.cls-4{fill:#1a1a1a;}.cls-5{fill:#fff;}</style></defs><title>df</title><g id="after-button"><path class="cls-1" d="M143,3V79H3V3H143m1-1H2V80H144V2Z"/><rect x="2" y="78" width="142" height="16"/><rect class="cls-2" x="5" y="5" width="49" height="71"/><path class="cls-3" d="M62,16v.92h-.92V16Zm0,1v.92h-.92V17Zm0,1v.92h-.92V18Zm0,1v.92h-.92V19Zm0,1v.92h-.92V20Zm0,1v.92h-.92V21Zm0,1v.92h-.92V22Zm1-6v.92h-.92V16Zm0,3v.92h-.92V19Zm1-3v.92h-.92V16Zm0,3v.92h-.92V19Zm1-3v.92h-.92V16Zm0,3v.92h-.92V19Zm1-2v.92h-.92V17Zm0,1v.92h-.92V18Z"/><path class="cls-3" d="M68,18v.92h-.92V18Zm0,1v.92h-.92V19Zm0,1v.92h-.92V20Zm0,1v.92h-.92V21Zm0,1v.92h-.92V22Zm1-3v.92h-.92V19Zm1-1v.92h-.92V18Zm1,0v.92h-.92V18Z"/><path class="cls-3" d="M72,19v.92h-.92V19Zm0,1v.92h-.92V20Zm0,1v.92h-.92V21Zm1-3v.92h-.92V18Zm0,4v.92h-.92V22Zm1-4v.92h-.92V18Zm0,4v.92h-.92V22Zm1-4v.92h-.92V18Zm0,4v.92h-.92V22Zm1-3v.92h-.92V19Zm0,1v.92h-.92V20Zm0,1v.92h-.92V21Z"/><path class="cls-3" d="M78,19v.92h-.92V19Zm0,1v.92h-.92V20Zm0,1v.92h-.92V21Zm1-3v.92h-.92V18Zm0,4v.92h-.92V22Zm1-4v.92h-.92V18Zm0,4v.92h-.92V22Zm1-4v.92h-.92V18Zm0,4v.92h-.92V22Zm1-7v.92h-.92V15Zm0,1v.92h-.92V16Zm0,1v.92h-.92V17Zm0,1v.92h-.92V18Zm0,1v.92h-.92V19Zm0,1v.92h-.92V20Zm0,1v.92h-.92V21Zm0,1v.92h-.92V22Z"/><path class="cls-3" d="M84,18v.92h-.92V18Zm0,1v.92h-.92V19Zm0,1v.92h-.92V20Zm0,1v.92h-.92V21Zm1,1v.92h-.92V22Zm1,0v.92h-.92V22Zm1,0v.92h-.92V22Zm1-4v.92h-.92V18Zm0,1v.92h-.92V19Zm0,1v.92h-.92V20Zm0,1v.92h-.92V21Zm0,1v.92h-.92V22Z"/><path class="cls-3" d="M90,19v.92h-.92V19Zm0,1v.92h-.92V20Zm0,1v.92h-.92V21Zm1-3v.92h-.92V18Zm0,4v.92h-.92V22Zm1-4v.92h-.92V18Zm0,4v.92h-.92V22Zm1-4v.92h-.92V18Zm0,4v.92h-.92V22Zm1-4v.92h-.92V18Zm0,4v.92h-.92V22Z"/><path class="cls-3" d="M96,16v.92h-.92V16Zm0,1v.92h-.92V17Zm0,1v.92h-.92V18Zm0,1v.92h-.92V19Zm0,1v.92h-.92V20Zm0,1v.92h-.92V21Zm1-3v.92h-.92V18Zm0,4v.92h-.92V22Zm1-4v.92h-.92V18Zm0,4v.92h-.92V22Zm1-4v.92h-.92V18Zm0,4v.92h-.92V22Z"/><path class="cls-3" d="M103,16v.92h-.92V16Zm0,1v.92h-.92V17Zm0,1v.92h-.92V18Zm0,1v.92h-.92V19Zm0,1v.92h-.92V20Zm0,1v.92h-.92V21Zm0,1v.92h-.92V22Zm1-4v.92h-.92V18Zm1,1v.92h-.92V19Zm1,1v.92h-.92V20Zm1-4v.92h-.92V16Zm0,1v.92h-.92V17Zm0,1v.92h-.92V18Zm0,1v.92h-.92V19Zm0,1v.92h-.92V20Zm0,1v.92h-.92V21Zm0,1v.92h-.92V22Z"/><path class="cls-3" d="M109,21v.92h-.92V21Zm1-3v.92h-.92V18Zm0,2v.92h-.92V20Zm0,2v.92h-.92V22Zm1-4v.92h-.92V18Zm0,2v.92h-.92V20Zm0,2v.92h-.92V22Zm1-4v.92h-.92V18Zm0,2v.92h-.92V20Zm0,2v.92h-.92V22Zm1-3v.92h-.92V19Zm0,1v.92h-.92V20Zm0,1v.92h-.92V21Zm0,1v.92h-.92V22Z"/><path class="cls-3" d="M115,18v.92h-.92V18Zm0,1v.92h-.92V19Zm0,1v.92h-.92V20Zm0,1v.92h-.92V21Zm0,1v.92h-.92V22Zm1-4v.92h-.92V18Zm1,0v.92h-.92V18Zm1,0v.92h-.92V18Zm0,1v.92h-.92V19Zm0,1v.92h-.92V20Zm0,1v.92h-.92V21Zm0,1v.92h-.92V22Zm1-4v.92h-.92V18Zm1,0v.92h-.92V18Zm1,1v.92h-.92V19Zm0,1v.92h-.92V20Zm0,1v.92h-.92V21Zm0,1v.92h-.92V22Z"/><path class="cls-3" d="M123,19v.92h-.92V19Zm0,1v.92h-.92V20Zm0,1v.92h-.92V21Zm1-3v.92h-.92V18Zm0,2v.92h-.92V20Zm0,2v.92h-.92V22Zm1-4v.92h-.92V18Zm0,2v.92h-.92V20Zm0,2v.92h-.92V22Zm1-4v.92h-.92V18Zm0,2v.92h-.92V20Zm0,2v.92h-.92V22Zm1-3v.92h-.92V19Zm0,1v.92h-.92V20Zm0,2v.92h-.92V22Z"/><rect class="cls-3" x="61" y="11" width="15" height="1"/><rect class="cls-3" x="61" y="54" width="77" height="1"/><rect class="cls-3" x="61" y="57" width="77" height="1"/><rect class="cls-3" x="61" y="60" width="77" height="1"/><rect class="cls-3" x="61" y="63" width="77" height="1"/><rect class="cls-3" x="61" y="66" width="77" height="1"/><rect class="cls-3" x="61" y="69" width="77" height="1"/><rect class="cls-3" x="61" y="72" width="48" height="1"/><rect class="cls-3" x="61" y="49.6" width="14" height="1"/><rect class="cls-2" x="77" y="41" width="40" height="9.6"/><path class="cls-4" d="M62,29V30H61V29Zm0,1V31H61V30Zm0,4V35H61V34Zm1-6V29H62V28Zm0,3V32H62V31Zm0,3V35H62V34Zm1-8V27H63V26Zm0,1V28H63V27Zm0,1V29H63V28Zm0,3V32H63V31Zm0,3V35H63V34Zm0,1V36H63V35Zm0,1V37H63V36Zm1-8V29H64V28Zm0,3V32H64V31Zm0,3V35H64V34Zm1-6V29H65V28Zm0,4V33H65V32Zm0,1V34H65V33Z"/><path class="cls-4" d="M70,31V32H69V31Zm0,1V33H69V32Zm1-2V31H70V30Zm0,2V33H70V32Zm1-3V30H71V29Zm0,3V33H71V32Zm1-4V29H72V28Zm0,4V33H72V32Zm1-4V29H73V28Zm0,1V30H73V29Zm0,1V31H73V30Zm0,1V32H73V31Zm0,1V33H73V32Zm0,1V34H73V33Zm0,1V35H73V34Z"/><path class="cls-4" d="M76,28V29H75V28Zm0,5V34H75V33Zm0,1V35H75V34Zm1-6V29H76V28Zm0,4V33H76V32Zm0,2V35H76V34Zm1-6V29H77V28Zm0,3V32H77V31Zm0,3V35H77V34Zm1-6V29H78V28Zm0,3V32H78V31Zm0,3V35H78V34Zm1-5V30H79V29Zm0,1V31H79V30Zm0,4V35H79V34Z"/><path class="cls-4" d="M82,29V30H81V29Zm0,1V31H81V30Zm0,1V32H81V31Zm0,1V33H81V32Zm0,1V34H81V33Zm1-5V29H82V28Zm0,2V31H82V30Zm0,4V35H82V34Zm1-6V29H83V28Zm0,3V32H83V31Zm0,3V35H83V34Zm1-6V29H84V28Zm0,4V33H84V32Zm0,2V35H84V34Zm1-5V30H85V29Zm0,1V31H85V30Zm0,1V32H85V31Zm0,1V33H85V32Zm0,1V34H85V33Z"/><path class="cls-5" d="M44,84v.92H43V84Zm0,1v.92H43V85Zm0,1v.92H43V86Zm0,1v.92H43V87Zm0,1v.92H43V88Zm0,1v.92H43V89Zm1-6v.92H44V83Zm0,4v.92H44V87Zm1-4v.92H45V83Zm0,4v.92H45V87Zm1-4v.92H46V83Zm0,4v.92H46V87Zm1-3v.92H47V84Zm0,1v.92H47V85Zm0,1v.92H47V86Zm0,1v.92H47V87Zm0,1v.92H47V88Zm0,1v.92H47V89Z"/><path class="cls-5" d="M49,85v.92H48V85Zm1,0v.92H49V85Zm1-2v.92H50V83Zm0,1v.92H50V84Zm0,1v.92H50V85Zm0,1v.92H50V86Zm0,1v.92H50V87Zm0,1v.92H50V88Zm0,1v.92H50V89Zm1-7v.92H51V82Zm0,3v.92H51V85Zm1-3-.92.92V82Zm0,3-.92.92V85Zm1-3v.92H53V82Z"/><path class="cls-5" d="M54,83v.92H53V83Zm0,1v.92H53V84Zm0,1v.92H53V85Zm0,1v.92H53V86Zm0,1v.92H53V87Zm0,1v.92H53V88Zm1-3v.92H54V85Zm0,4v.92H54V89Zm1-4v.92H55V85Zm0,4v.92H55V89Zm1-4v.92H56V85Zm0,4v.92H56V89Z"/><path class="cls-5" d="M59,86v.92H58V86Zm0,1v.92H58V87Zm0,1v.92H58V88Zm1-3v.92H59V85Zm0,2v.92H59V87Zm0,2v.92H59V89Zm1-4v.92H60V85Zm0,2v.92H60V87Zm0,2v.92H60V89Zm1-4v.92H61V85Zm0,2v.92H61V87Zm0,2v.92H61V89Zm1-3v.92H62V86Zm0,1v.92H62V87Zm0,2v.92H62V89Z"/><path class="cls-5" d="M65,85v.92H64V85Zm0,1v.92H64V86Zm0,1v.92H64V87Zm0,1v.92H64V88Zm0,1v.92H64V89Zm1-3v.92H65V86Zm1-1v.92H66V85Zm1,0v.92H67V85Z"/><path class="cls-5" d="M71,83v.92H70V83Zm0,1v.92H70V84Zm0,1v.92H70V85Zm0,1v.92H70V86Zm0,1v.92H70V87Zm0,1v.92H70V88Zm0,1v.92H70V89Zm1-6v.92H71V83Zm0,3v.92H71V86Zm0,3v.92H71V89Zm1-6v.92H72V83Zm0,3v.92H72V86Zm0,3v.92H72V89Zm1-6v.92H73V83Zm0,3v.92H73V86Zm0,3v.92H73V89Zm1-5v.92H74V84Zm0,1v.92H74V85Zm0,2v.92H74V87Zm0,1v.92H74V88Z"/><path class="cls-5" d="M77,85v.92H76V85Zm0,1v.92H76V86Zm0,1v.92H76V87Zm0,1v.92H76V88Zm1,1v.92H77V89Zm1,0v.92H78V89Zm1,0v.92H79V89Zm1-4v.92H80V85Zm0,1v.92H80V86Zm0,1v.92H80V87Zm0,1v.92H80V88Zm0,1v.92H80V89Z"/><path class="cls-5" d="M83,83v.92H82V83Zm0,1v.92H82V84Zm0,1v.92H82V85Zm0,1v.92H82V86Zm0,1v.92H82V87Zm0,1v.92H82V88Zm1-3v.92H83V85Zm0,4v.92H83V89Zm1-4v.92H84V85Zm0,4v.92H84V89Zm1-4v.92H85V85Zm0,4v.92H85V89Z"/><path class="cls-5" d="M88,83v.92H87V83Zm0,1v.92H87V84Zm0,1v.92H87V85Zm0,1v.92H87V86Zm0,1v.92H87V87Zm0,1v.92H87V88Zm1-3v.92H88V85Zm0,4v.92H88V89Zm1-4v.92H89V85Zm0,4v.92H89V89Zm1-4v.92H90V85Zm0,4v.92H90V89Z"/><path class="cls-5" d="M93,86v.92H92V86Zm0,1v.92H92V87Zm0,1v.92H92V88Zm1-3v.92H93V85Zm0,4v.92H93V89Zm1-4v.92H94V85Zm0,4v.92H94V89Zm1-4v.92H95V85Zm0,4v.92H95V89Zm1-3v.92H96V86Zm0,1v.92H96V87Zm0,1v.92H96V88Z"/><path class="cls-5" d="M99,85v.92H98V85Zm0,1v.92H98V86Zm0,1v.92H98V87Zm0,1v.92H98V88Zm0,1v.92H98V89Zm1-4v.92H99V85Zm1,0v.92H100V85Zm1,0v.92H101V85Zm1,1v.92H102V86Zm0,1v.92H102V87Zm0,1v.92H102V88Zm0,1v.92H102V89Z"/></g></svg>