<svg xmlns="http://www.w3.org/2000/svg" width="146" height="96" viewBox="0 0 146 96"><defs><style>.cls-1{fill:#d8d8d8;}.cls-2{fill:#fff;}.cls-3{fill:#09090a;opacity:0.9;}.cls-4{fill:#b3b3b3;}.cls-5{fill:#1a1a1a;}</style></defs><title>df</title><g id="after-title"><path class="cls-1" d="M143,3V79H3V3H143m1-1H2V80H144V2Z"/><rect x="2" y="78" width="142" height="16"/><path class="cls-2" d="M51,84v.92H50V84Zm0,1v.92H50V85Zm0,1v.92H50V86Zm0,1v.92H50V87Zm0,1v.92H50V88Zm0,1v.92H50V89Zm1-6v.92H51V83Zm0,4v.92H51V87Zm1-4v.92H52V83Zm0,4v.92H52V87Zm1-4v.92H53V83Zm0,4v.92H53V87Zm1-3v.92H54V84Zm0,1v.92H54V85Zm0,1v.92H54V86Zm0,1v.92H54V87Zm0,1v.92H54V88Zm0,1v.92H54V89Z"/><path class="cls-2" d="M56,85v.92H55V85Zm1,0v.92H56V85Zm1-2v.92H57V83Zm0,1v.92H57V84Zm0,1v.92H57V85Zm0,1v.92H57V86Zm0,1v.92H57V87Zm0,1v.92H57V88Zm0,1v.92H57V89Zm1-7v.92H58V82Zm0,3v.92H58V85Zm1-3-.92.92V82Zm0,3-.92.92V85Zm1-3v.92H60V82Z"/><path class="cls-2" d="M61,83v.92H60V83Zm0,1v.92H60V84Zm0,1v.92H60V85Zm0,1v.92H60V86Zm0,1v.92H60V87Zm0,1v.92H60V88Zm1-3v.92H61V85Zm0,4v.92H61V89Zm1-4v.92H62V85Zm0,4v.92H62V89Zm1-4v.92H63V85Zm0,4v.92H63V89Z"/><path class="cls-2" d="M66,86v.92H65V86Zm0,1v.92H65V87Zm0,1v.92H65V88Zm1-3v.92H66V85Zm0,2v.92H66V87Zm0,2v.92H66V89Zm1-4v.92H67V85Zm0,2v.92H67V87Zm0,2v.92H67V89Zm1-4v.92H68V85Zm0,2v.92H68V87Zm0,2v.92H68V89Zm1-3v.92H69V86Zm0,1v.92H69V87Zm0,2v.92H69V89Z"/><path class="cls-2" d="M72,85v.92H71V85Zm0,1v.92H71V86Zm0,1v.92H71V87Zm0,1v.92H71V88Zm0,1v.92H71V89Zm1-3v.92H72V86Zm1-1v.92H73V85Zm1,0v.92H74V85Z"/><path class="cls-2" d="M77,83v.92H76V83Zm1,0v.92H77V83Zm1,0v.92H78V83Zm0,1v.92H78V84Zm0,1v.92H78V85Zm0,1v.92H78V86Zm0,1v.92H78V87Zm0,1v.92H78V88Zm0,1v.92H78V89Zm1-6v.92H79V83Zm1,0v.92H80V83Z"/><path class="cls-2" d="M82,82v.92H81V82Zm0,3v.92H81V85Zm0,1v.92H81V86Zm0,1v.92H81V87Zm0,1v.92H81V88Zm0,1v.92H81V89Z"/><path class="cls-2" d="M84,83v.92H83V83Zm0,1v.92H83V84Zm0,1v.92H83V85Zm0,1v.92H83V86Zm0,1v.92H83V87Zm0,1v.92H83V88Zm1-3v.92H84V85Zm0,4v.92H84V89Zm1-4v.92H85V85Zm0,4v.92H85V89Zm1-4v.92H86V85Zm0,4v.92H86V89Z"/><path class="cls-2" d="M89,82v.92H88V82Zm0,1v.92H88V83Zm0,1v.92H88V84Zm0,1v.92H88V85Zm0,1v.92H88V86Zm0,1v.92H88V87Zm0,1v.92H88V88Zm1,1v.92H89V89Zm1,0v.92H90V89Z"/><path class="cls-2" d="M92,86v.92H91V86Zm0,1v.92H91V87Zm0,1v.92H91V88Zm1-3v.92H92V85Zm0,2v.92H92V87Zm0,2v.92H92V89Zm1-4v.92H93V85Zm0,2v.92H93V87Zm0,2v.92H93V89Zm1-4v.92H94V85Zm0,2v.92H94V87Zm0,2v.92H94V89Zm1-3v.92H95V86Zm0,1v.92H95V87Zm0,2v.92H95V89Z"/><rect class="cls-3" x="5" y="5" width="49" height="71"/><path class="cls-4" d="M62,16v.92h-.92V16Zm0,1v.92h-.92V17Zm0,1v.92h-.92V18Zm0,1v.92h-.92V19Zm0,1v.92h-.92V20Zm0,1v.92h-.92V21Zm0,1v.92h-.92V22Zm1-6v.92h-.92V16Zm0,3v.92h-.92V19Zm1-3v.92h-.92V16Zm0,3v.92h-.92V19Zm1-3v.92h-.92V16Zm0,3v.92h-.92V19Zm1-2v.92h-.92V17Zm0,1v.92h-.92V18Z"/><path class="cls-4" d="M68,18v.92h-.92V18Zm0,1v.92h-.92V19Zm0,1v.92h-.92V20Zm0,1v.92h-.92V21Zm0,1v.92h-.92V22Zm1-3v.92h-.92V19Zm1-1v.92h-.92V18Zm1,0v.92h-.92V18Z"/><path class="cls-4" d="M72,19v.92h-.92V19Zm0,1v.92h-.92V20Zm0,1v.92h-.92V21Zm1-3v.92h-.92V18Zm0,4v.92h-.92V22Zm1-4v.92h-.92V18Zm0,4v.92h-.92V22Zm1-4v.92h-.92V18Zm0,4v.92h-.92V22Zm1-3v.92h-.92V19Zm0,1v.92h-.92V20Zm0,1v.92h-.92V21Z"/><path class="cls-4" d="M78,19v.92h-.92V19Zm0,1v.92h-.92V20Zm0,1v.92h-.92V21Zm1-3v.92h-.92V18Zm0,4v.92h-.92V22Zm1-4v.92h-.92V18Zm0,4v.92h-.92V22Zm1-4v.92h-.92V18Zm0,4v.92h-.92V22Zm1-7v.92h-.92V15Zm0,1v.92h-.92V16Zm0,1v.92h-.92V17Zm0,1v.92h-.92V18Zm0,1v.92h-.92V19Zm0,1v.92h-.92V20Zm0,1v.92h-.92V21Zm0,1v.92h-.92V22Z"/><path class="cls-4" d="M84,18v.92h-.92V18Zm0,1v.92h-.92V19Zm0,1v.92h-.92V20Zm0,1v.92h-.92V21Zm1,1v.92h-.92V22Zm1,0v.92h-.92V22Zm1,0v.92h-.92V22Zm1-4v.92h-.92V18Zm0,1v.92h-.92V19Zm0,1v.92h-.92V20Zm0,1v.92h-.92V21Zm0,1v.92h-.92V22Z"/><path class="cls-4" d="M90,19v.92h-.92V19Zm0,1v.92h-.92V20Zm0,1v.92h-.92V21Zm1-3v.92h-.92V18Zm0,4v.92h-.92V22Zm1-4v.92h-.92V18Zm0,4v.92h-.92V22Zm1-4v.92h-.92V18Zm0,4v.92h-.92V22Zm1-4v.92h-.92V18Zm0,4v.92h-.92V22Z"/><path class="cls-4" d="M96,16v.92h-.92V16Zm0,1v.92h-.92V17Zm0,1v.92h-.92V18Zm0,1v.92h-.92V19Zm0,1v.92h-.92V20Zm0,1v.92h-.92V21Zm1-3v.92h-.92V18Zm0,4v.92h-.92V22Zm1-4v.92h-.92V18Zm0,4v.92h-.92V22Zm1-4v.92h-.92V18Zm0,4v.92h-.92V22Z"/><path class="cls-4" d="M103,16v.92h-.92V16Zm0,1v.92h-.92V17Zm0,1v.92h-.92V18Zm0,1v.92h-.92V19Zm0,1v.92h-.92V20Zm0,1v.92h-.92V21Zm0,1v.92h-.92V22Zm1-4v.92h-.92V18Zm1,1v.92h-.92V19Zm1,1v.92h-.92V20Zm1-4v.92h-.92V16Zm0,1v.92h-.92V17Zm0,1v.92h-.92V18Zm0,1v.92h-.92V19Zm0,1v.92h-.92V20Zm0,1v.92h-.92V21Zm0,1v.92h-.92V22Z"/><path class="cls-4" d="M109,21v.92h-.92V21Zm1-3v.92h-.92V18Zm0,2v.92h-.92V20Zm0,2v.92h-.92V22Zm1-4v.92h-.92V18Zm0,2v.92h-.92V20Zm0,2v.92h-.92V22Zm1-4v.92h-.92V18Zm0,2v.92h-.92V20Zm0,2v.92h-.92V22Zm1-3v.92h-.92V19Zm0,1v.92h-.92V20Zm0,1v.92h-.92V21Zm0,1v.92h-.92V22Z"/><path class="cls-4" d="M115,18v.92h-.92V18Zm0,1v.92h-.92V19Zm0,1v.92h-.92V20Zm0,1v.92h-.92V21Zm0,1v.92h-.92V22Zm1-4v.92h-.92V18Zm1,0v.92h-.92V18Zm1,0v.92h-.92V18Zm0,1v.92h-.92V19Zm0,1v.92h-.92V20Zm0,1v.92h-.92V21Zm0,1v.92h-.92V22Zm1-4v.92h-.92V18Zm1,0v.92h-.92V18Zm1,1v.92h-.92V19Zm0,1v.92h-.92V20Zm0,1v.92h-.92V21Zm0,1v.92h-.92V22Z"/><path class="cls-4" d="M123,19v.92h-.92V19Zm0,1v.92h-.92V20Zm0,1v.92h-.92V21Zm1-3v.92h-.92V18Zm0,2v.92h-.92V20Zm0,2v.92h-.92V22Zm1-4v.92h-.92V18Zm0,2v.92h-.92V20Zm0,2v.92h-.92V22Zm1-4v.92h-.92V18Zm0,2v.92h-.92V20Zm0,2v.92h-.92V22Zm1-3v.92h-.92V19Zm0,1v.92h-.92V20Zm0,2v.92h-.92V22Z"/><rect class="cls-4" x="61" y="11" width="15" height="1"/><rect class="cls-4" x="61" y="41" width="77" height="1"/><rect class="cls-4" x="61" y="44" width="77" height="1"/><rect class="cls-4" x="61" y="47" width="77" height="1"/><rect class="cls-4" x="61" y="50" width="77" height="1"/><rect class="cls-4" x="61" y="53" width="77" height="1"/><rect class="cls-4" x="61" y="56" width="77" height="1"/><rect class="cls-4" x="61" y="59" width="48" height="1"/><rect class="cls-4" x="61" y="72" width="14" height="1"/><rect class="cls-3" x="77" y="63.4" width="40" height="9.6"/><path class="cls-5" d="M62,29V30H61V29Zm0,1V31H61V30Zm0,4V35H61V34Zm1-6V29H62V28Zm0,3V32H62V31Zm0,3V35H62V34Zm1-8V27H63V26Zm0,1V28H63V27Zm0,1V29H63V28Zm0,3V32H63V31Zm0,3V35H63V34Zm0,1V36H63V35Zm0,1V37H63V36Zm1-8V29H64V28Zm0,3V32H64V31Zm0,3V35H64V34Zm1-6V29H65V28Zm0,4V33H65V32Zm0,1V34H65V33Z"/><path class="cls-5" d="M70,31V32H69V31Zm0,1V33H69V32Zm1-2V31H70V30Zm0,2V33H70V32Zm1-3V30H71V29Zm0,3V33H71V32Zm1-4V29H72V28Zm0,4V33H72V32Zm1-4V29H73V28Zm0,1V30H73V29Zm0,1V31H73V30Zm0,1V32H73V31Zm0,1V33H73V32Zm0,1V34H73V33Zm0,1V35H73V34Z"/><path class="cls-5" d="M76,28V29H75V28Zm0,5V34H75V33Zm0,1V35H75V34Zm1-6V29H76V28Zm0,4V33H76V32Zm0,2V35H76V34Zm1-6V29H77V28Zm0,3V32H77V31Zm0,3V35H77V34Zm1-6V29H78V28Zm0,3V32H78V31Zm0,3V35H78V34Zm1-5V30H79V29Zm0,1V31H79V30Zm0,4V35H79V34Z"/><path class="cls-5" d="M82,29V30H81V29Zm0,1V31H81V30Zm0,1V32H81V31Zm0,1V33H81V32Zm0,1V34H81V33Zm1-5V29H82V28Zm0,2V31H82V30Zm0,4V35H82V34Zm1-6V29H83V28Zm0,3V32H83V31Zm0,3V35H83V34Zm1-6V29H84V28Zm0,4V33H84V32Zm0,2V35H84V34Zm1-5V30H85V29Zm0,1V31H85V30Zm0,1V32H85V31Zm0,1V33H85V32Zm0,1V34H85V33Z"/></g></svg>