<svg xmlns="http://www.w3.org/2000/svg" width="96" height="96" viewBox="0 0 96 96"><defs><style>.cls-1{fill:#d8d8d8;}.cls-2{fill:#b3b3b3;}.cls-3{fill:#ccc;}.cls-4{fill:#fff;}</style></defs><title>df</title><g id="brand-cat-category"><path class="cls-1" d="M93,3V79H3V3H93m1-1H2V80H94V2Z"/><rect x="2" y="78" width="92" height="16"/><path class="cls-2" d="M7,59V60H6V59Zm0,1V61H6V60Zm0,1V62H6V61Zm0,1V63H6V62Zm0,1V64H6V63Zm0,1V65H6V64Zm0,1V66H6V65Zm1-6V60H7V59Zm0,3V63H7V62Zm1-3V60H8V59Zm0,3V63H8V62Zm1-3V60H9V59Zm0,3V63H9V62Zm1-2V61H10V60Zm0,1V62H10V61Z"/><path class="cls-2" d="M13,61V62H12V61Zm0,1V63H12V62Zm0,1V64H12V63Zm0,1V65H12V64Zm0,1V66H12V65Zm1-3V63H13V62Zm1-1V62H14V61Zm1,0V62H15V61Z"/><path class="cls-2" d="M17,62V63H16V62Zm0,1V64H16V63Zm0,1V65H16V64Zm1-3V62H17V61Zm0,4V66H17V65Zm1-4V62H18V61Zm0,4V66H18V65Zm1-4V62H19V61Zm0,4V66H19V65Zm1-3V63H20V62Zm0,1V64H20V63Zm0,1V65H20V64Z"/><path class="cls-2" d="M23,62V63H22V62Zm0,1V64H22V63Zm0,1V65H22V64Zm1-3V62H23V61Zm0,4V66H23V65Zm1-4V62H24V61Zm0,4V66H24V65Zm1-4V62H25V61Zm0,4V66H25V65Zm1-7V59H26V58Zm0,1V60H26V59Zm0,1V61H26V60Zm0,1V62H26V61Zm0,1V63H26V62Zm0,1V64H26V63Zm0,1V65H26V64Zm0,1V66H26V65Z"/><path class="cls-2" d="M29,61V62H28V61Zm0,1V63H28V62Zm0,1V64H28V63Zm0,1V65H28V64Zm1,1V66H29V65Zm1,0V66H30V65Zm1,0V66H31V65Zm1-4V62H32V61Zm0,1V63H32V62Zm0,1V64H32V63Zm0,1V65H32V64Zm0,1V66H32V65Z"/><path class="cls-2" d="M35,62V63H34V62Zm0,1V64H34V63Zm0,1V65H34V64Zm1-3V62H35V61Zm0,4V66H35V65Zm1-4V62H36V61Zm0,4V66H36V65Zm1-4V62H37V61Zm0,4V66H37V65Zm1-4V62H38V61Zm0,4V66H38V65Z"/><path class="cls-2" d="M41,59V60H40V59Zm0,1V61H40V60Zm0,1V62H40V61Zm0,1V63H40V62Zm0,1V64H40V63Zm0,1V65H40V64Zm1-3V62H41V61Zm0,4V66H41V65Zm1-4V62H42V61Zm0,4V66H42V65Zm1-4V62H43V61Zm0,4V66H43V65Z"/><path class="cls-2" d="M48,59V60H47V59Zm0,1V61H47V60Zm0,1V62H47V61Zm0,1V63H47V62Zm0,1V64H47V63Zm0,1V65H47V64Zm0,1V66H47V65Zm1-4V62H48V61Zm1,1V63H49V62Zm1,1V64H50V63Zm1-4V60H51V59Zm0,1V61H51V60Zm0,1V62H51V61Zm0,1V63H51V62Zm0,1V64H51V63Zm0,1V65H51V64Zm0,1V66H51V65Z"/><path class="cls-2" d="M54,64V65H53V64Zm1-3V62H54V61Zm0,2V64H54V63Zm0,2V66H54V65Zm1-4V62H55V61Zm0,2V64H55V63Zm0,2V66H55V65Zm1-4V62H56V61Zm0,2V64H56V63Zm0,2V66H56V65Zm1-3V63H57V62Zm0,1V64H57V63Zm0,1V65H57V64Zm0,1V66H57V65Z"/><path class="cls-2" d="M60,61V62H59V61Zm0,1V63H59V62Zm0,1V64H59V63Zm0,1V65H59V64Zm0,1V66H59V65Zm1-4V62H60V61Zm1,0V62H61V61Zm1,0V62H62V61Zm0,1V63H62V62Zm0,1V64H62V63Zm0,1V65H62V64Zm0,1V66H62V65Zm1-4V62H63V61Zm1,0V62H64V61Zm1,1V63H65V62Zm0,1V64H65V63Zm0,1V65H65V64Zm0,1V66H65V65Z"/><path class="cls-2" d="M68,62V63H67V62Zm0,1V64H67V63Zm0,1V65H67V64Zm1-3V62H68V61Zm0,2V64H68V63Zm0,2V66H68V65Zm1-4V62H69V61Zm0,2V64H69V63Zm0,2V66H69V65Zm1-4V62H70V61Zm0,2V64H70V63Zm0,2V66H70V65Zm1-3V63H71V62Zm0,1V64H71V63Zm0,2V66H71V65Z"/><rect class="cls-3" x="6" y="6" width="84" height="36"/><rect class="cls-2" x="6" y="70" width="28" height="2"/><path class="cls-4" d="M26,84V85H25V84Zm0,1V86H25V85Zm0,1V87H25V86Zm0,1V88H25V87Zm0,1V89H25V88Zm1-5V84H26V83Zm0,6V90H26V89Zm1-6V84H27V83Zm0,6V90H27V89Zm1-6V84H28V83Zm0,6V90H28V89Zm1-6V84H29V83Zm0,1V85H29V84Zm0,5V90H29V89Z"/><path class="cls-4" d="M32,88V89H31V88Zm1-3V86H32V85Zm0,2V88H32V87Zm0,2V90H32V89Zm1-4V86H33V85Zm0,2V88H33V87Zm0,2V90H33V89Zm1-4V86H34V85Zm0,2V88H34V87Zm0,2V90H34V89Zm1-3V87H35V86Zm0,1V88H35V87Zm0,1V89H35V88Zm0,1V90H35V89Z"/><path class="cls-4" d="M38,83V84H37V83Zm0,1V85H37V84Zm0,1V86H37V85Zm0,1V87H37V86Zm0,1V88H37V87Zm0,1V89H37V88Zm1-3V86H38V85Zm0,4V90H38V89Zm1-4V86H39V85Zm0,4V90H39V89Zm1-4V86H40V85Zm0,4V90H40V89Z"/><path class="cls-4" d="M43,86V87H42V86Zm0,1V88H42V87Zm0,1V89H42V88Zm1-3V86H43V85Zm0,2V88H43V87Zm0,2V90H43V89Zm1-4V86H44V85Zm0,2V88H44V87Zm0,2V90H44V89Zm1-4V86H45V85Zm0,2V88H45V87Zm0,2V90H45V89Zm1-3V87H46V86Zm0,1V88H46V87Zm0,2V90H46V89Z"/><path class="cls-4" d="M49,86V87H48V86Zm0,1V88H48V87Zm0,1V89H48V88Zm0,3V92H48V91Zm1-6V86H49V85Zm0,4V90H49V89Zm0,2V92H49V91Zm1-6V86H50V85Zm0,4V90H50V89Zm0,2V92H50V91Zm1-6V86H51V85Zm0,4V90H51V89Zm0,2V92H51V91Zm1-6V86H52V85Zm0,1V87H52V86Zm0,1V88H52V87Zm0,1V89H52V88Zm0,1V90H52V89Zm0,1V91H52V90Z"/><path class="cls-4" d="M55,86V87H54V86Zm0,1V88H54V87Zm0,1V89H54V88Zm1-3V86H55V85Zm0,4V90H55V89Zm1-4V86H56V85Zm0,4V90H56V89Zm1-4V86H57V85Zm0,4V90H57V89Zm1-3V87H58V86Zm0,1V88H58V87Zm0,1V89H58V88Z"/><path class="cls-4" d="M61,85V86H60V85Zm0,1V87H60V86Zm0,1V88H60V87Zm0,1V89H60V88Zm0,1V90H60V89Zm1-3V87H61V86Zm1-1V86H62V85Zm1,0V86H63V85Z"/><path class="cls-4" d="M64,91V92H63V91Zm1-6V86H64V85Zm0,1V87H64V86Zm0,1V88H64V87Zm0,4V92H64V91Zm1-3V89H65V88Zm0,2V91H65V90Zm1-1V90H66V89Zm1-1V89H67V88Zm1-3V86H68V85Zm0,1V87H68V86Zm0,1V88H68V87Z"/><path d="M6.92,48v.92H6V48Zm0,1v.92H6V49Zm0,1v.92H6V50Zm0,1v.92H6V51Zm0,1v.92H6V52Zm1-5v.92H7V47Zm0,6v.92H7V53Zm1-6v.92H8V47Zm0,6v.92H8V53Zm1-6v.92H9V47Zm0,6v.92H9V53Zm1-6v.92H10V47Zm0,1v.92H10V48Zm0,5v.92H10V53Z"/><path d="M12.92,52v.92H12V52Zm1-3v.92H13V49Zm0,2v.92H13V51Zm0,2v.92H13V53Zm1-4v.92H14V49Zm0,2v.92H14V51Zm0,2v.92H14V53Zm1-4v.92H15V49Zm0,2v.92H15V51Zm0,2v.92H15V53Zm1-3v.92H16V50Zm0,1v.92H16V51Zm0,1v.92H16V52Zm0,1v.92H16V53Z"/><path d="M18.92,47v.92H18V47Zm0,1v.92H18V48Zm0,1v.92H18V49Zm0,1v.92H18V50Zm0,1v.92H18V51Zm0,1v.92H18V52Zm1-3v.92H19V49Zm0,4v.92H19V53Zm1-4v.92H20V49Zm0,4v.92H20V53Zm1-4v.92H21V49Zm0,4v.92H21V53Z"/><path d="M23.92,50v.92H23V50Zm0,1v.92H23V51Zm0,1v.92H23V52Zm1-3v.92H24V49Zm0,2v.92H24V51Zm0,2v.92H24V53Zm1-4v.92H25V49Zm0,2v.92H25V51Zm0,2v.92H25V53Zm1-4v.92H26V49Zm0,2v.92H26V51Zm0,2v.92H26V53Zm1-3v.92H27V50Zm0,1v.92H27V51Zm0,2v.92H27V53Z"/><path d="M29.92,50v.92H29V50Zm0,1v.92H29V51Zm0,1v.92H29V52Zm0,3v.92H29V55Zm1-6v.92H30V49Zm0,4v.92H30V53Zm0,2v.92H30V55Zm1-6v.92H31V49Zm0,4v.92H31V53Zm0,2v.92H31V55Zm1-6v.92H32V49Zm0,4v.92H32V53Zm0,2v.92H32V55Zm1-6v.92H33V49Zm0,1v.92H33V50Zm0,1v.92H33V51Zm0,1v.92H33V52Zm0,1v.92H33V53Zm0,1v.92H33V54Z"/><path d="M35.92,50v.92H35V50Zm0,1v.92H35V51Zm0,1v.92H35V52Zm1-3v.92H36V49Zm0,4v.92H36V53Zm1-4v.92H37V49Zm0,4v.92H37V53Zm1-4v.92H38V49Zm0,4v.92H38V53Zm1-3v.92H39V50Zm0,1v.92H39V51Zm0,1v.92H39V52Z"/><path d="M41.92,49v.92H41V49Zm0,1v.92H41V50Zm0,1v.92H41V51Zm0,1v.92H41V52Zm0,1v.92H41V53Zm1-3v.92H42V50Zm1-1v.92H43V49Zm1,0v.92H44V49Z"/><path d="M44.92,55v.92H44V55Zm1-6v.92H45V49Zm0,1v.92H45V50Zm0,1v.92H45V51Zm0,4v.92H45V55Zm1-3v.92H46V52Zm0,2v.92H46V54Zm1-1v.92H47V53Zm1-1v.92H48V52Zm1-3v.92H49V49Zm0,1v.92H49V50Zm0,1v.92H49V51Z"/></g></svg>