<svg xmlns="http://www.w3.org/2000/svg" width="96" height="96" viewBox="0 0 96 96"><defs><style>.cls-1{fill:#d8d8d8;}.cls-2{fill:#b3b3b3;}.cls-3{fill:#ccc;}.cls-4{fill:#fff;}</style></defs><title>df</title><g id="brand-cat-brand"><path class="cls-1" d="M93,3V79H3V3H93m1-1H2V80H94V2Z"/><rect x="2" y="78" width="92" height="16"/><path class="cls-2" d="M7,59V60H6V59Zm0,1V61H6V60Zm0,1V62H6V61Zm0,1V63H6V62Zm0,1V64H6V63Zm0,1V65H6V64Zm0,1V66H6V65Zm1-6V60H7V59Zm0,3V63H7V62Zm1-3V60H8V59Zm0,3V63H8V62Zm1-3V60H9V59Zm0,3V63H9V62Zm1-2V61H10V60Zm0,1V62H10V61Z"/><path class="cls-2" d="M13,61V62H12V61Zm0,1V63H12V62Zm0,1V64H12V63Zm0,1V65H12V64Zm0,1V66H12V65Zm1-3V63H13V62Zm1-1V62H14V61Zm1,0V62H15V61Z"/><path class="cls-2" d="M17,62V63H16V62Zm0,1V64H16V63Zm0,1V65H16V64Zm1-3V62H17V61Zm0,4V66H17V65Zm1-4V62H18V61Zm0,4V66H18V65Zm1-4V62H19V61Zm0,4V66H19V65Zm1-3V63H20V62Zm0,1V64H20V63Zm0,1V65H20V64Z"/><path class="cls-2" d="M23,62V63H22V62Zm0,1V64H22V63Zm0,1V65H22V64Zm1-3V62H23V61Zm0,4V66H23V65Zm1-4V62H24V61Zm0,4V66H24V65Zm1-4V62H25V61Zm0,4V66H25V65Zm1-7V59H26V58Zm0,1V60H26V59Zm0,1V61H26V60Zm0,1V62H26V61Zm0,1V63H26V62Zm0,1V64H26V63Zm0,1V65H26V64Zm0,1V66H26V65Z"/><path class="cls-2" d="M29,61V62H28V61Zm0,1V63H28V62Zm0,1V64H28V63Zm0,1V65H28V64Zm1,1V66H29V65Zm1,0V66H30V65Zm1,0V66H31V65Zm1-4V62H32V61Zm0,1V63H32V62Zm0,1V64H32V63Zm0,1V65H32V64Zm0,1V66H32V65Z"/><path class="cls-2" d="M35,62V63H34V62Zm0,1V64H34V63Zm0,1V65H34V64Zm1-3V62H35V61Zm0,4V66H35V65Zm1-4V62H36V61Zm0,4V66H36V65Zm1-4V62H37V61Zm0,4V66H37V65Zm1-4V62H38V61Zm0,4V66H38V65Z"/><path class="cls-2" d="M41,59V60H40V59Zm0,1V61H40V60Zm0,1V62H40V61Zm0,1V63H40V62Zm0,1V64H40V63Zm0,1V65H40V64Zm1-3V62H41V61Zm0,4V66H41V65Zm1-4V62H42V61Zm0,4V66H42V65Zm1-4V62H43V61Zm0,4V66H43V65Z"/><path class="cls-2" d="M48,59V60H47V59Zm0,1V61H47V60Zm0,1V62H47V61Zm0,1V63H47V62Zm0,1V64H47V63Zm0,1V65H47V64Zm0,1V66H47V65Zm1-4V62H48V61Zm1,1V63H49V62Zm1,1V64H50V63Zm1-4V60H51V59Zm0,1V61H51V60Zm0,1V62H51V61Zm0,1V63H51V62Zm0,1V64H51V63Zm0,1V65H51V64Zm0,1V66H51V65Z"/><path class="cls-2" d="M54,64V65H53V64Zm1-3V62H54V61Zm0,2V64H54V63Zm0,2V66H54V65Zm1-4V62H55V61Zm0,2V64H55V63Zm0,2V66H55V65Zm1-4V62H56V61Zm0,2V64H56V63Zm0,2V66H56V65Zm1-3V63H57V62Zm0,1V64H57V63Zm0,1V65H57V64Zm0,1V66H57V65Z"/><path class="cls-2" d="M60,61V62H59V61Zm0,1V63H59V62Zm0,1V64H59V63Zm0,1V65H59V64Zm0,1V66H59V65Zm1-4V62H60V61Zm1,0V62H61V61Zm1,0V62H62V61Zm0,1V63H62V62Zm0,1V64H62V63Zm0,1V65H62V64Zm0,1V66H62V65Zm1-4V62H63V61Zm1,0V62H64V61Zm1,1V63H65V62Zm0,1V64H65V63Zm0,1V65H65V64Zm0,1V66H65V65Z"/><path class="cls-2" d="M68,62V63H67V62Zm0,1V64H67V63Zm0,1V65H67V64Zm1-3V62H68V61Zm0,2V64H68V63Zm0,2V66H68V65Zm1-4V62H69V61Zm0,2V64H69V63Zm0,2V66H69V65Zm1-4V62H70V61Zm0,2V64H70V63Zm0,2V66H70V65Zm1-3V63H71V62Zm0,1V64H71V63Zm0,2V66H71V65Z"/><rect class="cls-3" x="6" y="6" width="84" height="36"/><rect class="cls-2" x="6" y="70" width="28" height="2"/><path class="cls-4" d="M35,83V84H34V83Zm0,1V85H34V84Zm0,1V86H34V85Zm0,1V87H34V86Zm0,1V88H34V87Zm0,1V89H34V88Zm0,1V90H34V89Zm1-6V84H35V83Zm0,3V87H35V86Zm0,3V90H35V89Zm1-6V84H36V83Zm0,3V87H36V86Zm0,3V90H36V89Zm1-6V84H37V83Zm0,3V87H37V86Zm0,3V90H37V89Zm1-5V85H38V84Zm0,1V86H38V85Zm0,2V88H38V87Zm0,1V89H38V88Z"/><path class="cls-4" d="M41,85V86H40V85Zm0,1V87H40V86Zm0,1V88H40V87Zm0,1V89H40V88Zm0,1V90H40V89Zm1-3V87H41V86Zm1-1V86H42V85Zm1,0V86H43V85Z"/><path class="cls-4" d="M45,88V89H44V88Zm1-3V86H45V85Zm0,2V88H45V87Zm0,2V90H45V89Zm1-4V86H46V85Zm0,2V88H46V87Zm0,2V90H46V89Zm1-4V86H47V85Zm0,2V88H47V87Zm0,2V90H47V89Zm1-3V87H48V86Zm0,1V88H48V87Zm0,1V89H48V88Zm0,1V90H48V89Z"/><path class="cls-4" d="M51,85V86H50V85Zm0,1V87H50V86Zm0,1V88H50V87Zm0,1V89H50V88Zm0,1V90H50V89Zm1-4V86H51V85Zm1,0V86H52V85Zm1,0V86H53V85Zm1,1V87H54V86Zm0,1V88H54V87Zm0,1V89H54V88Zm0,1V90H54V89Z"/><path class="cls-4" d="M57,86V87H56V86Zm0,1V88H56V87Zm0,1V89H56V88Zm1-3V86H57V85Zm0,4V90H57V89Zm1-4V86H58V85Zm0,4V90H58V89Zm1-4V86H59V85Zm0,4V90H59V89Zm1-7V83H60V82Zm0,1V84H60V83Zm0,1V85H60V84Zm0,1V86H60V85Zm0,1V87H60V86Zm0,1V88H60V87Zm0,1V89H60V88Zm0,1V90H60V89Z"/><path d="M7,47.08V48H6.08v-.92Zm0,1V49H6.08v-.92Zm0,1V50H6.08v-.92Zm0,1V51H6.08v-.92Zm0,1V52H6.08v-.92Zm0,1V53H6.08v-.92Zm0,1V54H6.08v-.92Zm1-6V48H7.08v-.92Zm0,3V51H7.08v-.92Zm0,3V54H7.08v-.92Zm1-6V48H8.08v-.92Zm0,3V51H8.08v-.92Zm0,3V54H8.08v-.92Zm1-6V48H9.08v-.92Zm0,3V51H9.08v-.92Zm0,3V54H9.08v-.92Zm1-5V49h-.92v-.92Zm0,1V50h-.92v-.92Zm0,2V52h-.92v-.92Zm0,1V53h-.92v-.92Z"/><path d="M13,49.08V50h-.92v-.92Zm0,1V51h-.92v-.92Zm0,1V52h-.92v-.92Zm0,1V53h-.92v-.92Zm0,1V54h-.92v-.92Zm1-3V51h-.92v-.92Zm1-1V50h-.92v-.92Zm1,0V50h-.92v-.92Z"/><path d="M17,52.08V53h-.92v-.92Zm1-3V50h-.92v-.92Zm0,2V52h-.92v-.92Zm0,2V54h-.92v-.92Zm1-4V50h-.92v-.92Zm0,2V52h-.92v-.92Zm0,2V54h-.92v-.92Zm1-4V50h-.92v-.92Zm0,2V52h-.92v-.92Zm0,2V54h-.92v-.92Zm1-3V51h-.92v-.92Zm0,1V52h-.92v-.92Zm0,1V53h-.92v-.92Zm0,1V54h-.92v-.92Z"/><path d="M23,49.08V50h-.92v-.92Zm0,1V51h-.92v-.92Zm0,1V52h-.92v-.92Zm0,1V53h-.92v-.92Zm0,1V54h-.92v-.92Zm1-4V50h-.92v-.92Zm1,0V50h-.92v-.92Zm1,0V50h-.92v-.92Zm1,1V51h-.92v-.92Zm0,1V52h-.92v-.92Zm0,1V53h-.92v-.92Zm0,1V54h-.92v-.92Z"/><path d="M29,50.08V51h-.92v-.92Zm0,1V52h-.92v-.92Zm0,1V53h-.92v-.92Zm1-3V50h-.92v-.92Zm0,4V54h-.92v-.92Zm1-4V50h-.92v-.92Zm0,4V54h-.92v-.92Zm1-4V50h-.92v-.92Zm0,4V54h-.92v-.92Zm1-7V47h-.92v-.92Zm0,1V48h-.92v-.92Zm0,1V49h-.92v-.92Zm0,1V50h-.92v-.92Zm0,1V51h-.92v-.92Zm0,1V52h-.92v-.92Zm0,1V53h-.92v-.92Zm0,1V54h-.92v-.92Z"/></g></svg>