<svg xmlns="http://www.w3.org/2000/svg" width="146" height="96" viewBox="0 0 146 96"><defs><style>.cls-1{fill:#d8d8d8;}.cls-2{fill:#fff;}.cls-3{fill:#ccc;}.cls-4{fill:gray;}.cls-5{fill:#b3b3b3;}</style></defs><title>df</title><g id="catgeories-style-4"><path class="cls-1" d="M143,3V79H3V3H143m1-1H2V80H144V2Z"/><rect x="2" y="78" width="142" height="16"/><path class="cls-2" d="M58,84v.92H57V84Zm0,1v.92H57V85Zm0,4v.92H57V89Zm1-6v.92H58V83Zm0,3v.92H58V86Zm0,3v.92H58V89Zm1-6v.92H59V83Zm0,3v.92H59V86Zm0,3v.92H59V89Zm1-6v.92H60V83Zm0,3v.92H60V86Zm0,3v.92H60V89Zm1-6v.92H61V83Zm0,4v.92H61V87Zm0,1v.92H61V88Z"/><path class="cls-2" d="M64,83v.92H63V83Zm0,1v.92H63V84Zm0,1v.92H63V85Zm0,1v.92H63V86Zm0,1v.92H63V87Zm0,1v.92H63V88Zm1-3v.92H64V85Zm0,4v.92H64V89Zm1-4v.92H65V85Zm0,4v.92H65V89Zm1-4v.92H66V85Zm0,4v.92H66V89Z"/><path class="cls-2" d="M68,91v.92H67V91Zm1-6v.92H68V85Zm0,1v.92H68V86Zm0,1v.92H68V87Zm0,4v.92H68V91Zm1-3v.92H69V88Zm0,2v.92H69V90Zm1-1v.92H70V89Zm1-1v.92H71V88Zm1-3v.92H72V85Zm0,1v.92H72V86Zm0,1v.92H72V87Z"/><path class="cls-2" d="M75,82v.92H74V82Zm0,1v.92H74V83Zm0,1v.92H74V84Zm0,1v.92H74V85Zm0,1v.92H74V86Zm0,1v.92H74V87Zm0,1v.92H74V88Zm1,1v.92H75V89Zm1,0v.92H76V89Z"/><path class="cls-2" d="M78,86v.92H77V86Zm0,1v.92H77V87Zm0,1v.92H77V88Zm1-3v.92H78V85Zm0,2v.92H78V87Zm0,2v.92H78V89Zm1-4v.92H79V85Zm0,2v.92H79V87Zm0,2v.92H79V89Zm1-4v.92H80V85Zm0,2v.92H80V87Zm0,2v.92H80V89Zm1-3v.92H81V86Zm0,1v.92H81V87Zm0,2v.92H81V89Z"/><path class="cls-2" d="M86,86v.92H85V86Zm0,1v.92H85V87Zm1-2v.92H86V85Zm0,2v.92H86V87Zm1-3v.92H87V84Zm0,3v.92H87V87Zm1-4v.92H88V83Zm0,4v.92H88V87Zm1-4v.92H89V83Zm0,1v.92H89V84Zm0,1v.92H89V85Zm0,1v.92H89V86Zm0,1v.92H89V87Zm0,1v.92H89V88Zm0,1v.92H89V89Z"/><path class="cls-3" d="M44,19V60H7V19H44m2-2H5V62H46V17Z"/><path d="M41,22V57H10V22H41m1-1H9V58H42V21Z"/><rect class="cls-4" x="16.5" y="37.5" width="18" height="4"/><rect class="cls-5" x="19.5" y="43" width="12" height="1"/><path class="cls-3" d="M91,19V60H54V19H91m2-2H52V62H93V17Z"/><rect class="cls-4" x="63.5" y="37.5" width="18" height="4"/><rect class="cls-5" x="66.5" y="43" width="12" height="1"/><path class="cls-3" d="M138,19V60H101V19h37m2-2H99V62h41V17Z"/><rect class="cls-4" x="110.5" y="37.5" width="18" height="4"/><rect class="cls-5" x="113.5" y="43" width="12" height="1"/></g></svg>