<svg xmlns="http://www.w3.org/2000/svg" width="146" height="96" viewBox="0 0 146 96"><defs><style>.cls-1{fill:#d8d8d8;}.cls-2{fill:#1a1a1a;}.cls-3{fill:#fff;}</style></defs><title>df</title><g id="desc-accordion"><path class="cls-1" d="M143,3V79H3V3H143m1-1H2V80H144V2Z"/><rect x="2" y="78" width="142" height="16"/><rect class="cls-1" x="9" y="74" width="128" height="1"/><path class="cls-2" d="M20,14v.92h-.92V14Zm0,1v.92h-.92V15Zm0,1v.92h-.92V16Zm0,1v.92h-.92V17Zm0,1v.92h-.92V18Zm0,1v.92h-.92V19Zm0,1v.92h-.92V20Zm1-6v.92h-.92V14Zm0,6v.92h-.92V20Zm1-6v.92h-.92V14Zm0,6v.92h-.92V20Zm1-5v.92h-.92V15Zm0,4v.92h-.92V19Zm1-3v.92h-.92V16Zm0,1v.92h-.92V17Zm0,1v.92h-.92V18Z"/><path class="cls-2" d="M26,17v.92h-.92V17Zm0,1v.92h-.92V18Zm0,1v.92h-.92V19Zm1-3v.92h-.92V16Zm0,2v.92h-.92V18Zm0,2v.92h-.92V20Zm1-4v.92h-.92V16Zm0,2v.92h-.92V18Zm0,2v.92h-.92V20Zm1-4v.92h-.92V16Zm0,2v.92h-.92V18Zm0,2v.92h-.92V20Zm1-3v.92h-.92V17Zm0,1v.92h-.92V18Zm0,2v.92h-.92V20Z"/><path class="cls-2" d="M32,17v.92h-.92V17Zm0,3v.92h-.92V20Zm1-4v.92h-.92V16Zm0,2v.92h-.92V18Zm0,2v.92h-.92V20Zm1-4v.92h-.92V16Zm0,2v.92h-.92V18Zm0,2v.92h-.92V20Zm1-4v.92h-.92V16Zm0,3v.92h-.92V19Z"/><path class="cls-2" d="M37,17v.92h-.92V17Zm0,1v.92h-.92V18Zm0,1v.92h-.92V19Zm1-3v.92h-.92V16Zm0,4v.92h-.92V20Zm1-4v.92h-.92V16Zm0,4v.92h-.92V20Zm1-4v.92h-.92V16Zm0,4v.92h-.92V20Zm1-4v.92h-.92V16Zm0,4v.92h-.92V20Z"/><path class="cls-2" d="M43,16v.92h-.92V16Zm0,1v.92h-.92V17Zm0,1v.92h-.92V18Zm0,1v.92h-.92V19Zm0,1v.92h-.92V20Zm1-3v.92h-.92V17Zm1-1v.92h-.92V16Zm1,0v.92h-.92V16Z"/><path class="cls-2" d="M47,13v.92h-.92V13Zm0,3v.92h-.92V16Zm0,1v.92h-.92V17Zm0,1v.92h-.92V18Zm0,1v.92h-.92V19Zm0,1v.92h-.92V20Z"/><path class="cls-2" d="M49,16v.92h-.92V16Zm0,1v.92h-.92V17Zm0,1v.92h-.92V18Zm0,1v.92h-.92V19Zm0,1v.92h-.92V20Zm0,1v.92h-.92V21Zm0,1v.92h-.92V22Zm1-6v.92h-.92V16Zm0,4v.92h-.92V20Zm1-4v.92h-.92V16Zm0,4v.92h-.92V20Zm1-4v.92h-.92V16Zm0,4v.92h-.92V20Zm1-3v.92h-.92V17Zm0,1v.92h-.92V18Zm0,1v.92h-.92V19Z"/><path class="cls-2" d="M55,14v.92h-.92V14Zm0,1v.92h-.92V15Zm0,1v.92h-.92V16Zm0,1v.92h-.92V17Zm0,1v.92h-.92V18Zm0,1v.92h-.92V19Zm1-3v.92h-.92V16Zm0,4v.92h-.92V20Zm1-4v.92h-.92V16Zm0,4v.92h-.92V20Zm1-4v.92h-.92V16Zm0,4v.92h-.92V20Z"/><path class="cls-2" d="M60,13v.92h-.92V13Zm0,3v.92h-.92V16Zm0,1v.92h-.92V17Zm0,1v.92h-.92V18Zm0,1v.92h-.92V19Zm0,1v.92h-.92V20Z"/><path class="cls-2" d="M62,17v.92h-.92V17Zm0,1v.92h-.92V18Zm0,1v.92h-.92V19Zm1-3v.92h-.92V16Zm0,4v.92h-.92V20Zm1-4v.92h-.92V16Zm0,4v.92h-.92V20Zm1-4v.92h-.92V16Zm0,4v.92h-.92V20Zm1-3v.92h-.92V17Zm0,1v.92h-.92V18Zm0,1v.92h-.92V19Z"/><path class="cls-2" d="M68,16v.92h-.92V16Zm0,1v.92h-.92V17Zm0,1v.92h-.92V18Zm0,1v.92h-.92V19Zm0,1v.92h-.92V20Zm1-4v.92h-.92V16Zm1,0v.92h-.92V16Zm1,0v.92h-.92V16Zm1,1v.92h-.92V17Zm0,1v.92h-.92V18Zm0,1v.92h-.92V19Zm0,1v.92h-.92V20Z"/><rect class="cls-1" x="9" y="25" width="128" height="1"/><rect class="cls-1" x="9" y="30" width="128" height="28"/><path class="cls-2" d="M20,64V65h-.92V64Zm0,1V66h-.92V65Zm0,1V67h-.92V66Zm0,1V68h-.92V67Zm0,1V69h-.92V68Zm0,1V70h-.92V69Zm1-6V64h-.92V63Zm0,4V68h-.92V67Zm1-4V64h-.92V63Zm0,4V68h-.92V67Zm1-4V64h-.92V63Zm0,4V68h-.92V67Zm1-3V65h-.92V64Zm0,1V66h-.92V65Zm0,1V67h-.92V66Zm0,1V68h-.92V67Zm0,1V69h-.92V68Zm0,1V70h-.92V69Z"/><path class="cls-2" d="M26,66V67h-.92V66Zm0,1V68h-.92V67Zm0,1V69h-.92V68Zm1-3V66h-.92V65Zm0,4V70h-.92V69Zm1-4V66h-.92V65Zm0,4V70h-.92V69Zm1-4V66h-.92V65Zm0,4V70h-.92V69Zm1-7V63h-.92V62Zm0,1V64h-.92V63Zm0,1V65h-.92V64Zm0,1V66h-.92V65Zm0,1V67h-.92V66Zm0,1V68h-.92V67Zm0,1V69h-.92V68Zm0,1V70h-.92V69Z"/><path class="cls-2" d="M32,66V67h-.92V66Zm0,1V68h-.92V67Zm0,1V69h-.92V68Zm1-3V66h-.92V65Zm0,4V70h-.92V69Zm1-4V66h-.92V65Zm0,4V70h-.92V69Zm1-4V66h-.92V65Zm0,4V70h-.92V69Zm1-7V63h-.92V62Zm0,1V64h-.92V63Zm0,1V65h-.92V64Zm0,1V66h-.92V65Zm0,1V67h-.92V66Zm0,1V68h-.92V67Zm0,1V69h-.92V68Zm0,1V70h-.92V69Z"/><path class="cls-2" d="M38,62V63h-.92V62Zm0,3V66h-.92V65Zm0,1V67h-.92V66Zm0,1V68h-.92V67Zm0,1V69h-.92V68Zm0,1V70h-.92V69Z"/><path class="cls-2" d="M40,63V64h-.92V63Zm0,1V65h-.92V64Zm0,1V66h-.92V65Zm0,1V67h-.92V66Zm0,1V68h-.92V67Zm0,1V69h-.92V68Zm1-3V66h-.92V65Zm0,4V70h-.92V69Zm1-4V66h-.92V65Zm0,4V70h-.92V69Zm1-4V66h-.92V65Zm0,4V70h-.92V69Z"/><path class="cls-2" d="M45,62V63h-.92V62Zm0,3V66h-.92V65Zm0,1V67h-.92V66Zm0,1V68h-.92V67Zm0,1V69h-.92V68Zm0,1V70h-.92V69Z"/><path class="cls-2" d="M47,66V67h-.92V66Zm0,1V68h-.92V67Zm0,1V69h-.92V68Zm1-3V66h-.92V65Zm0,4V70h-.92V69Zm1-4V66h-.92V65Zm0,4V70h-.92V69Zm1-4V66h-.92V65Zm0,4V70h-.92V69Zm1-3V67h-.92V66Zm0,1V68h-.92V67Zm0,1V69h-.92V68Z"/><path class="cls-2" d="M53,65V66h-.92V65Zm0,1V67h-.92V66Zm0,1V68h-.92V67Zm0,1V69h-.92V68Zm0,1V70h-.92V69Zm1-4V66h-.92V65Zm1,0V66h-.92V65Zm1,0V66h-.92V65Zm1,1V67h-.92V66Zm0,1V68h-.92V67Zm0,1V69h-.92V68Zm0,1V70h-.92V69Z"/><path class="cls-2" d="M59,68V69h-.92V68Zm1-3V66h-.92V65Zm0,2V68h-.92V67Zm0,2V70h-.92V69Zm1-4V66h-.92V65Zm0,2V68h-.92V67Zm0,2V70h-.92V69Zm1-4V66h-.92V65Zm0,2V68h-.92V67Zm0,2V70h-.92V69Zm1-3V67h-.92V66Zm0,1V68h-.92V67Zm0,1V69h-.92V68Zm0,1V70h-.92V69Z"/><path class="cls-2" d="M65,62V63h-.92V62Zm0,1V64h-.92V63Zm0,1V65h-.92V64Zm0,1V66h-.92V65Zm0,1V67h-.92V66Zm0,1V68h-.92V67Zm0,1V69h-.92V68Zm1,1V70h-.92V69Zm1,0V70h-.92V69Z"/><path class="cls-2" d="M70,63V64h-.92V63Zm0,6V70h-.92V69Zm1-6V64h-.92V63Zm0,1V65h-.92V64Zm0,1V66h-.92V65Zm0,1V67h-.92V66Zm0,1V68h-.92V67Zm0,1V69h-.92V68Zm0,1V70h-.92V69Zm1-6V64h-.92V63Zm0,6V70h-.92V69Z"/><path class="cls-2" d="M74,65V66h-.92V65Zm0,1V67h-.92V66Zm0,1V68h-.92V67Zm0,1V69h-.92V68Zm0,1V70h-.92V69Zm1-4V66h-.92V65Zm1,0V66h-.92V65Zm1,0V66h-.92V65Zm1,1V67h-.92V66Zm0,1V68h-.92V67Zm0,1V69h-.92V68Zm0,1V70h-.92V69Z"/><path class="cls-2" d="M79,65V66h-.92V65Zm1,0V66h-.92V65Zm1-2V64h-.92V63Zm0,1V65h-.92V64Zm0,1V66h-.92V65Zm0,1V67h-.92V66Zm0,1V68h-.92V67Zm0,1V69h-.92V68Zm0,1V70h-.92V69Zm1-7V63h-.92V62Zm0,3V66h-.92V65Zm1-3V63h-.92V62Zm0,3V66h-.92V65Zm1-3V63h-.92V62Z"/><path class="cls-2" d="M84,66V67h-.92V66Zm0,1V68h-.92V67Zm0,1V69h-.92V68Zm1-3V66h-.92V65Zm0,4V70h-.92V69Zm1-4V66h-.92V65Zm0,4V70h-.92V69Zm1-4V66h-.92V65Zm0,4V70h-.92V69Zm1-3V67h-.92V66Zm0,1V68h-.92V67Zm0,1V69h-.92V68Z"/><path class="cls-3" d="M55,84V85H54V84Zm0,1V86H54V85Zm0,1V87H54V86Zm0,1V88H54V87Zm0,1V89H54V88Zm1-5V84H55V83Zm0,6V90H55V89Zm1-6V84H56V83Zm0,6V90H56V89Zm1-6V84H57V83Zm0,6V90H57V89Zm1-5V85H58V84Zm0,1V86H58V85Zm0,1V87H58V86Zm0,1V88H58V87Zm0,1V89H58V88Z"/><path class="cls-3" d="M61,85V86H60V85Zm0,1V87H60V86Zm0,1V88H60V87Zm0,1V89H60V88Zm0,1V90H60V89Zm0,1V91H60V90Zm0,1V92H60V91Zm1-6V86H61V85Zm0,4V90H61V89Zm1-4V86H62V85Zm0,4V90H62V89Zm1-4V86H63V85Zm0,4V90H63V89Zm1-3V87H64V86Zm0,1V88H64V87Zm0,1V89H64V88Z"/><path class="cls-3" d="M67,86V87H66V86Zm0,1V88H66V87Zm0,1V89H66V88Zm1-3V86H67V85Zm0,2V88H67V87Zm0,2V90H67V89Zm1-4V86H68V85Zm0,2V88H68V87Zm0,2V90H68V89Zm1-4V86H69V85Zm0,2V88H69V87Zm0,2V90H69V89Zm1-3V87H70V86Zm0,1V88H70V87Zm0,2V90H70V89Z"/><path class="cls-3" d="M73,85V86H72V85Zm0,1V87H72V86Zm0,1V88H72V87Zm0,1V89H72V88Zm0,1V90H72V89Zm1-4V86H73V85Zm1,0V86H74V85Zm1,0V86H75V85Zm1,1V87H76V86Zm0,1V88H76V87Zm0,1V89H76V88Zm0,1V90H76V89Z"/><path class="cls-3" d="M81,84V85H80V84Zm0,1V86H80V85Zm0,1V87H80V86Zm0,1V88H80V87Zm0,1V89H80V88Zm0,1V90H80V89Zm1-6V84H81V83Zm0,4V88H81V87Zm1-4V84H82V83Zm0,4V88H82V87Zm1-4V84H83V83Zm0,4V88H83V87Zm1-3V85H84V84Zm0,1V86H84V85Zm0,1V87H84V86Zm0,1V88H84V87Zm0,1V89H84V88Zm0,1V90H84V89Z"/><path class="cls-3" d="M87,82V83H86V82Zm0,1V84H86V83Zm0,1V85H86V84Zm0,1V86H86V85Zm0,1V87H86V86Zm0,1V88H86V87Zm0,1V89H86V88Zm1,1V90H87V89Zm1,0V90H88V89Z"/><path class="cls-3" d="M90,82V83H89V82Zm0,1V84H89V83Zm0,1V85H89V84Zm0,1V86H89V85Zm0,1V87H89V86Zm0,1V88H89V87Zm0,1V89H89V88Zm1,1V90H90V89Zm1,0V90H91V89Z"/><circle class="cls-2" cx="11.5" cy="17.5" r="2.5"/><circle class="cls-2" cx="11.5" cy="66.5" r="2.5"/></g></svg>