<svg xmlns="http://www.w3.org/2000/svg" width="146" height="96" viewBox="0 0 146 96"><defs><style>.cls-1{fill:#d8d8d8;}.cls-2{fill:#1a1a1a;}.cls-3{fill:#fff;}</style></defs><title>df</title><g id="desc-accordion"><path class="cls-1" d="M143,3V79H3V3H143m1-1H2V80H144V2Z"/><rect x="2" y="78" width="142" height="16"/><rect class="cls-1" x="9" y="74" width="128" height="1"/><path class="cls-2" d="M10,14v.92H9V14Zm0,1v.92H9V15Zm0,1v.92H9V16Zm0,1v.92H9V17Zm0,1v.92H9V18Zm0,1v.92H9V19Zm0,1v.92H9V20Zm1-6v.92H10V14Zm0,6v.92H10V20Zm1-6v.92H11V14Zm0,6v.92H11V20Zm1-5v.92H12V15Zm0,4v.92H12V19Zm1-3v.92H13V16Zm0,1v.92H13V17Zm0,1v.92H13V18Z"/><path class="cls-2" d="M16,17v.92H15V17Zm0,1v.92H15V18Zm0,1v.92H15V19Zm1-3v.92H16V16Zm0,2v.92H16V18Zm0,2v.92H16V20Zm1-4v.92H17V16Zm0,2v.92H17V18Zm0,2v.92H17V20Zm1-4v.92H18V16Zm0,2v.92H18V18Zm0,2v.92H18V20Zm1-3v.92H19V17Zm0,1v.92H19V18Zm0,2v.92H19V20Z"/><path class="cls-2" d="M22,17v.92H21V17Zm0,3v.92H21V20Zm1-4v.92H22V16Zm0,2v.92H22V18Zm0,2v.92H22V20Zm1-4v.92H23V16Zm0,2v.92H23V18Zm0,2v.92H23V20Zm1-4v.92H24V16Zm0,3v.92H24V19Z"/><path class="cls-2" d="M27,17v.92H26V17Zm0,1v.92H26V18Zm0,1v.92H26V19Zm1-3v.92H27V16Zm0,4v.92H27V20Zm1-4v.92H28V16Zm0,4v.92H28V20Zm1-4v.92H29V16Zm0,4v.92H29V20Zm1-4v.92H30V16Zm0,4v.92H30V20Z"/><path class="cls-2" d="M33,16v.92H32V16Zm0,1v.92H32V17Zm0,1v.92H32V18Zm0,1v.92H32V19Zm0,1v.92H32V20Zm1-3v.92H33V17Zm1-1v.92H34V16Zm1,0v.92H35V16Z"/><path class="cls-2" d="M37,13v.92H36V13Zm0,3v.92H36V16Zm0,1v.92H36V17Zm0,1v.92H36V18Zm0,1v.92H36V19Zm0,1v.92H36V20Z"/><path class="cls-2" d="M39,16v.92H38V16Zm0,1v.92H38V17Zm0,1v.92H38V18Zm0,1v.92H38V19Zm0,1v.92H38V20Zm0,1v.92H38V21Zm0,1v.92H38V22Zm1-6v.92H39V16Zm0,4v.92H39V20Zm1-4v.92H40V16Zm0,4v.92H40V20Zm1-4v.92H41V16Zm0,4v.92H41V20Zm1-3v.92H42V17Zm0,1v.92H42V18Zm0,1v.92H42V19Z"/><path class="cls-2" d="M45,14v.92H44V14Zm0,1v.92H44V15Zm0,1v.92H44V16Zm0,1v.92H44V17Zm0,1v.92H44V18Zm0,1v.92H44V19Zm1-3v.92H45V16Zm0,4v.92H45V20Zm1-4v.92H46V16Zm0,4v.92H46V20Zm1-4v.92H47V16Zm0,4v.92H47V20Z"/><path class="cls-2" d="M50,13v.92H49V13Zm0,3v.92H49V16Zm0,1v.92H49V17Zm0,1v.92H49V18Zm0,1v.92H49V19Zm0,1v.92H49V20Z"/><path class="cls-2" d="M52,17v.92H51V17Zm0,1v.92H51V18Zm0,1v.92H51V19Zm1-3v.92H52V16Zm0,4v.92H52V20Zm1-4v.92H53V16Zm0,4v.92H53V20Zm1-4v.92H54V16Zm0,4v.92H54V20Zm1-3v.92H55V17Zm0,1v.92H55V18Zm0,1v.92H55V19Z"/><path class="cls-2" d="M58,16v.92H57V16Zm0,1v.92H57V17Zm0,1v.92H57V18Zm0,1v.92H57V19Zm0,1v.92H57V20Zm1-4v.92H58V16Zm1,0v.92H59V16Zm1,0v.92H60V16Zm1,1v.92H61V17Zm0,1v.92H61V18Zm0,1v.92H61V19Zm0,1v.92H61V20Z"/><rect class="cls-2" x="9" y="25" width="128" height="2"/><rect class="cls-1" x="9" y="30" width="128" height="29"/><path class="cls-1" d="M10,64V65H9.05V64Zm0,1V66H9.05V65Zm0,1V67H9.05V66Zm0,1V68H9.05V67Zm0,1V69H9.05V68Zm0,1V70H9.05V69Zm1-6V64h-.92V63Zm0,4V68h-.92V67Zm1-4V64h-.92V63Zm0,4V68h-.92V67Zm1-4V64h-.92V63Zm0,4V68h-.92V67Zm1-3V65h-.92V64Zm0,1V66h-.92V65Zm0,1V67h-.92V66Zm0,1V68h-.92V67Zm0,1V69h-.92V68Zm0,1V70h-.92V69Z"/><path class="cls-1" d="M16,66V67h-.92V66Zm0,1V68h-.92V67Zm0,1V69h-.92V68Zm1-3V66h-.92V65Zm0,4V70h-.92V69Zm1-4V66h-.92V65Zm0,4V70h-.92V69Zm1-4V66h-.92V65Zm0,4V70h-.92V69Zm1-7V63h-.92V62Zm0,1V64h-.92V63Zm0,1V65h-.92V64Zm0,1V66h-.92V65Zm0,1V67h-.92V66Zm0,1V68h-.92V67Zm0,1V69h-.92V68Zm0,1V70h-.92V69Z"/><path class="cls-1" d="M22,66V67h-.92V66Zm0,1V68h-.92V67Zm0,1V69h-.92V68Zm1-3V66h-.92V65Zm0,4V70h-.92V69Zm1-4V66h-.92V65Zm0,4V70h-.92V69Zm1-4V66h-.92V65Zm0,4V70h-.92V69Zm1-7V63h-.92V62Zm0,1V64h-.92V63Zm0,1V65h-.92V64Zm0,1V66h-.92V65Zm0,1V67h-.92V66Zm0,1V68h-.92V67Zm0,1V69h-.92V68Zm0,1V70h-.92V69Z"/><path class="cls-1" d="M28,62V63h-.92V62Zm0,3V66h-.92V65Zm0,1V67h-.92V66Zm0,1V68h-.92V67Zm0,1V69h-.92V68Zm0,1V70h-.92V69Z"/><path class="cls-1" d="M30,63V64h-.92V63Zm0,1V65h-.92V64Zm0,1V66h-.92V65Zm0,1V67h-.92V66Zm0,1V68h-.92V67Zm0,1V69h-.92V68Zm1-3V66h-.92V65Zm0,4V70h-.92V69Zm1-4V66h-.92V65Zm0,4V70h-.92V69Zm1-4V66h-.92V65Zm0,4V70h-.92V69Z"/><path class="cls-1" d="M35,62V63h-.92V62Zm0,3V66h-.92V65Zm0,1V67h-.92V66Zm0,1V68h-.92V67Zm0,1V69h-.92V68Zm0,1V70h-.92V69Z"/><path class="cls-1" d="M37,66V67h-.92V66Zm0,1V68h-.92V67Zm0,1V69h-.92V68Zm1-3V66h-.92V65Zm0,4V70h-.92V69Zm1-4V66h-.92V65Zm0,4V70h-.92V69Zm1-4V66h-.92V65Zm0,4V70h-.92V69Zm1-3V67h-.92V66Zm0,1V68h-.92V67Zm0,1V69h-.92V68Z"/><path class="cls-1" d="M43,65V66h-.92V65Zm0,1V67h-.92V66Zm0,1V68h-.92V67Zm0,1V69h-.92V68Zm0,1V70h-.92V69Zm1-4V66h-.92V65Zm1,0V66h-.92V65Zm1,0V66h-.92V65Zm1,1V67h-.92V66Zm0,1V68h-.92V67Zm0,1V69h-.92V68Zm0,1V70h-.92V69Z"/><path class="cls-1" d="M49,68V69h-.92V68Zm1-3V66h-.92V65Zm0,2V68h-.92V67Zm0,2V70h-.92V69Zm1-4V66h-.92V65Zm0,2V68h-.92V67Zm0,2V70h-.92V69Zm1-4V66h-.92V65Zm0,2V68h-.92V67Zm0,2V70h-.92V69Zm1-3V67h-.92V66Zm0,1V68h-.92V67Zm0,1V69h-.92V68Zm0,1V70h-.92V69Z"/><path class="cls-1" d="M55,62V63h-.92V62Zm0,1V64h-.92V63Zm0,1V65h-.92V64Zm0,1V66h-.92V65Zm0,1V67h-.92V66Zm0,1V68h-.92V67Zm0,1V69h-.92V68Zm1,1V70h-.92V69Zm1,0V70h-.92V69Z"/><path class="cls-1" d="M60,63V64h-.92V63Zm0,6V70h-.92V69Zm1-6V64h-.92V63Zm0,1V65h-.92V64Zm0,1V66h-.92V65Zm0,1V67h-.92V66Zm0,1V68h-.92V67Zm0,1V69h-.92V68Zm0,1V70h-.92V69Zm1-6V64h-.92V63Zm0,6V70h-.92V69Z"/><path class="cls-1" d="M64,65V66h-.92V65Zm0,1V67h-.92V66Zm0,1V68h-.92V67Zm0,1V69h-.92V68Zm0,1V70h-.92V69Zm1-4V66h-.92V65Zm1,0V66h-.92V65Zm1,0V66h-.92V65Zm1,1V67h-.92V66Zm0,1V68h-.92V67Zm0,1V69h-.92V68Zm0,1V70h-.92V69Z"/><path class="cls-1" d="M69,65V66h-.92V65Zm1,0V66h-.92V65Zm1-2V64h-.92V63Zm0,1V65h-.92V64Zm0,1V66h-.92V65Zm0,1V67h-.92V66Zm0,1V68h-.92V67Zm0,1V69h-.92V68Zm0,1V70h-.92V69Zm1-7V63h-.92V62Zm0,3V66h-.92V65Zm1-3V63h-.92V62Zm0,3V66h-.92V65Zm1-3V63h-.92V62Z"/><path class="cls-1" d="M74,66V67h-.92V66Zm0,1V68h-.92V67Zm0,1V69h-.92V68Zm1-3V66h-.92V65Zm0,4V70h-.92V69Zm1-4V66h-.92V65Zm0,4V70h-.92V69Zm1-4V66h-.92V65Zm0,4V70h-.92V69Zm1-3V67h-.92V66Zm0,1V68h-.92V67Zm0,1V69h-.92V68Z"/><path class="cls-3" d="M50,84V85H49V84Zm0,1V86H49V85Zm0,1V87H49V86Zm0,1V88H49V87Zm0,1V89H49V88Zm0,1V90H49V89Zm1-6V84H50V83Zm0,4V88H50V87Zm1-4V84H51V83Zm0,4V88H51V87Zm1-4V84H52V83Zm0,4V88H52V87Zm1-3V85H53V84Zm0,1V86H53V85Zm0,1V87H53V86Zm0,1V88H53V87Zm0,1V89H53V88Zm0,1V90H53V89Z"/><path class="cls-3" d="M56,86V87H55V86Zm0,1V88H55V87Zm0,1V89H55V88Zm1-3V86H56V85Zm0,4V90H56V89Zm1-4V86H57V85Zm0,4V90H57V89Zm1-4V86H58V85Zm0,4V90H58V89Zm1-4V86H59V85Zm0,4V90H59V89Z"/><path class="cls-3" d="M62,86V87H61V86Zm0,1V88H61V87Zm0,1V89H61V88Zm1-3V86H62V85Zm0,4V90H62V89Zm1-4V86H63V85Zm0,4V90H63V89Zm1-4V86H64V85Zm0,4V90H64V89Zm1-4V86H65V85Zm0,4V90H65V89Z"/><path class="cls-3" d="M68,86V87H67V86Zm0,1V88H67V87Zm0,1V89H67V88Zm1-3V86H68V85Zm0,4V90H68V89Zm1-4V86H69V85Zm0,4V90H69V89Zm1-4V86H70V85Zm0,4V90H70V89Zm1-3V87H71V86Zm0,1V88H71V87Zm0,1V89H71V88Z"/><path class="cls-3" d="M74,85V86H73V85Zm0,1V87H73V86Zm0,1V88H73V87Zm0,1V89H73V88Zm0,1V90H73V89Zm1-3V87H74V86Zm1-1V86H75V85Zm1,0V86H76V85Z"/><path class="cls-3" d="M78,86V87H77V86Zm0,1V88H77V87Zm0,1V89H77V88Zm1-3V86H78V85Zm0,4V90H78V89Zm1-4V86H79V85Zm0,4V90H79V89Zm1-4V86H80V85Zm0,4V90H80V89Zm1-7V83H81V82Zm0,1V84H81V83Zm0,1V85H81V84Zm0,1V86H81V85Zm0,1V87H81V86Zm0,1V88H81V87Zm0,1V89H81V88Zm0,1V90H81V89Z"/><path class="cls-3" d="M84,82V83H83V82Zm0,3V86H83V85Zm0,1V87H83V86Zm0,1V88H83V87Zm0,1V89H83V88Zm0,1V90H83V89Z"/><path class="cls-3" d="M86,86V87H85V86Zm0,1V88H85V87Zm0,1V89H85V88Zm1-3V86H86V85Zm0,4V90H86V89Zm1-4V86H87V85Zm0,4V90H87V89Zm1-4V86H88V85Zm0,4V90H88V89Zm1-3V87H89V86Zm0,1V88H89V87Zm0,1V89H89V88Z"/><path class="cls-3" d="M92,85V86H91V85Zm0,1V87H91V86Zm0,1V88H91V87Zm0,1V89H91V88Zm0,1V90H91V89Zm1-4V86H92V85Zm1,0V86H93V85Zm1,0V86H94V85Zm1,1V87H95V86Zm0,1V88H95V87Zm0,1V89H95V88Zm0,1V90H95V89Z"/></g></svg>