<svg xmlns="http://www.w3.org/2000/svg" width="146" height="96" viewBox="0 0 146 96"><defs><style>.cls-1{fill:#d8d8d8;}.cls-2{fill:#1a1a1a;}.cls-3{fill:#fff;}</style></defs><title>df</title><g id="desc-vertical-tab"><path class="cls-1" d="M143,3V79H3V3H143m1-1H2V80H144V2Z"/><rect x="2" y="78" width="142" height="16"/><rect class="cls-1" x="62" y="25" width="36" height="1"/><rect class="cls-1" x="9" y="44" width="89" height="1"/><rect class="cls-1" x="9" y="64" width="89" height="1"/><path class="cls-2" d="M10,14v.92H9V14Zm0,1v.92H9V15Zm0,1v.92H9V16Zm0,1v.92H9V17Zm0,1v.92H9V18Zm0,1v.92H9V19Zm0,1v.92H9V20Zm1-6v.92H10V14Zm0,6v.92H10V20Zm1-6v.92H11V14Zm0,6v.92H11V20Zm1-5v.92H12V15Zm0,4v.92H12V19Zm1-3v.92H13V16Zm0,1v.92H13V17Zm0,1v.92H13V18Z"/><path class="cls-2" d="M16,17v.92H15V17Zm0,1v.92H15V18Zm0,1v.92H15V19Zm1-3v.92H16V16Zm0,2v.92H16V18Zm0,2v.92H16V20Zm1-4v.92H17V16Zm0,2v.92H17V18Zm0,2v.92H17V20Zm1-4v.92H18V16Zm0,2v.92H18V18Zm0,2v.92H18V20Zm1-3v.92H19V17Zm0,1v.92H19V18Zm0,2v.92H19V20Z"/><path class="cls-2" d="M22,17v.92H21V17Zm0,3v.92H21V20Zm1-4v.92H22V16Zm0,2v.92H22V18Zm0,2v.92H22V20Zm1-4v.92H23V16Zm0,2v.92H23V18Zm0,2v.92H23V20Zm1-4v.92H24V16Zm0,3v.92H24V19Z"/><path class="cls-2" d="M27,17v.92H26V17Zm0,1v.92H26V18Zm0,1v.92H26V19Zm1-3v.92H27V16Zm0,4v.92H27V20Zm1-4v.92H28V16Zm0,4v.92H28V20Zm1-4v.92H29V16Zm0,4v.92H29V20Zm1-4v.92H30V16Zm0,4v.92H30V20Z"/><path class="cls-2" d="M33,16v.92H32V16Zm0,1v.92H32V17Zm0,1v.92H32V18Zm0,1v.92H32V19Zm0,1v.92H32V20Zm1-3v.92H33V17Zm1-1v.92H34V16Zm1,0v.92H35V16Z"/><path class="cls-2" d="M37,13v.92H36V13Zm0,3v.92H36V16Zm0,1v.92H36V17Zm0,1v.92H36V18Zm0,1v.92H36V19Zm0,1v.92H36V20Z"/><path class="cls-2" d="M39,16v.92H38V16Zm0,1v.92H38V17Zm0,1v.92H38V18Zm0,1v.92H38V19Zm0,1v.92H38V20Zm0,1v.92H38V21Zm0,1v.92H38V22Zm1-6v.92H39V16Zm0,4v.92H39V20Zm1-4v.92H40V16Zm0,4v.92H40V20Zm1-4v.92H41V16Zm0,4v.92H41V20Zm1-3v.92H42V17Zm0,1v.92H42V18Zm0,1v.92H42V19Z"/><path class="cls-2" d="M45,14v.92H44V14Zm0,1v.92H44V15Zm0,1v.92H44V16Zm0,1v.92H44V17Zm0,1v.92H44V18Zm0,1v.92H44V19Zm1-3v.92H45V16Zm0,4v.92H45V20Zm1-4v.92H46V16Zm0,4v.92H46V20Zm1-4v.92H47V16Zm0,4v.92H47V20Z"/><path class="cls-2" d="M50,13v.92H49V13Zm0,3v.92H49V16Zm0,1v.92H49V17Zm0,1v.92H49V18Zm0,1v.92H49V19Zm0,1v.92H49V20Z"/><path class="cls-2" d="M52,17v.92H51V17Zm0,1v.92H51V18Zm0,1v.92H51V19Zm1-3v.92H52V16Zm0,4v.92H52V20Zm1-4v.92H53V16Zm0,4v.92H53V20Zm1-4v.92H54V16Zm0,4v.92H54V20Zm1-3v.92H55V17Zm0,1v.92H55V18Zm0,1v.92H55V19Z"/><path class="cls-2" d="M58,16v.92H57V16Zm0,1v.92H57V17Zm0,1v.92H57V18Zm0,1v.92H57V19Zm0,1v.92H57V20Zm1-4v.92H58V16Zm1,0v.92H59V16Zm1,0v.92H60V16Zm1,1v.92H61V17Zm0,1v.92H61V18Zm0,1v.92H61V19Zm0,1v.92H61V20Z"/><rect class="cls-2" x="9" y="25" width="53" height="2"/><rect class="cls-1" x="103" y="5" width="38" height="71"/><path class="cls-3" d="M45.95,83V84H45V83Zm0,1V85H45V84Zm0,1V86H45V85Zm0,1V87H45V86Zm0,1V88H45V87Zm1,1V89H46V88Zm1,1V90H47V89Zm1-1V89H48V88Zm1-5V84H49V83Zm0,1V85H49V84Zm0,1V86H49V85Zm0,1V87H49V86Zm0,1V88H49V87Z"/><path class="cls-3" d="M51.95,86V87H51V86Zm0,1V88H51V87Zm0,1V89H51V88Zm1-3V86H52V85Zm0,2V88H52V87Zm0,2V90H52V89Zm1-4V86H53V85Zm0,2V88H53V87Zm0,2V90H53V89Zm1-4V86H54V85Zm0,2V88H54V87Zm0,2V90H54V89Zm1-3V87H55V86Zm0,1V88H55V87Zm0,2V90H55V89Z"/><path class="cls-3" d="M57.95,85V86H57V85Zm0,1V87H57V86Zm0,1V88H57V87Zm0,1V89H57V88Zm0,1V90H57V89Zm1-3V87H58V86Zm1-1V86H59V85Zm1,0V86H60V85Z"/><path class="cls-3" d="M61.95,83V84H61V83Zm0,1V85H61V84Zm0,1V86H61V85Zm0,1V87H61V86Zm0,1V88H61V87Zm0,1V89H61V88Zm1-3V86H62V85Zm0,4V90H62V89Zm1-4V86H63V85Zm0,4V90H63V89Zm1-4V86H64V85Zm0,4V90H64V89Z"/><path class="cls-3" d="M66.95,82V83H66V82Zm0,3V86H66V85Zm0,1V87H66V86Zm0,1V88H66V87Zm0,1V89H66V88Zm0,1V90H66V89Z"/><path class="cls-3" d="M68.95,86V87H68V86Zm0,1V88H68V87Zm0,1V89H68V88Zm1-3V86H69V85Zm0,4V90H69V89Zm1-4V86H70V85Zm0,4V90H70V89Zm1-4V86H71V85Zm0,4V90H71V89Zm1-4V86H72V85Zm0,4V90H72V89Z"/><path class="cls-3" d="M74.95,88V89H74V88Zm1-3V86H75V85Zm0,2V88H75V87Zm0,2V90H75V89Zm1-4V86H76V85Zm0,2V88H76V87Zm0,2V90H76V89Zm1-4V86H77V85Zm0,2V88H77V87Zm0,2V90H77V89Zm1-3V87H78V86Zm0,1V88H78V87Zm0,1V89H78V88Zm0,1V90H78V89Z"/><path class="cls-3" d="M80.95,82V83H80V82Zm0,1V84H80V83Zm0,1V85H80V84Zm0,1V86H80V85Zm0,1V87H80V86Zm0,1V88H80V87Zm0,1V89H80V88Zm1,1V90H81V89Zm1,0V90H82V89Z"/><path class="cls-3" d="M84.95,83V84H84V83Zm1,0V84H85V83Zm1,0V84H86V83Zm0,1V85H86V84Zm0,1V86H86V85Zm0,1V87H86V86Zm0,1V88H86V87Zm0,1V89H86V88Zm0,1V90H86V89Zm1-6V84H87V83Zm1,0V84H88V83Z"/><path class="cls-3" d="M89.95,88V89H89V88Zm1-3V86H90V85Zm0,2V88H90V87Zm0,2V90H90V89Zm1-4V86H91V85Zm0,2V88H91V87Zm0,2V90H91V89Zm1-4V86H92V85Zm0,2V88H92V87Zm0,2V90H92V89Zm1-3V87H93V86Zm0,1V88H93V87Zm0,1V89H93V88Zm0,1V90H93V89Z"/><path class="cls-3" d="M95.95,82V83H95V82Zm0,1V84H95V83Zm0,1V85H95V84Zm0,1V86H95V85Zm0,1V87H95V86Zm0,1V88H95V87Zm0,1V89H95V88Zm0,1V90H95V89Zm1-4V86H96V85Zm0,4V90H96V89Zm1-4V86H97V85Zm0,4V90H97V89Zm1-4V86H98V85Zm0,4V90H98V89Zm1-3V87H99V86Zm0,1V88H99V87Zm0,1V89H99V88Z"/><path class="cls-1" d="M10,34V35H9.05V34Zm0,1V36H9.05V35Zm0,1V37H9.05V36Zm0,1V38H9.05V37Zm0,1V39H9.05V38Zm0,1V40H9.05V39Zm1-6V34h-.92V33Zm0,4V38h-.92V37Zm1-4V34h-.92V33Zm0,4V38h-.92V37Zm1-4V34h-.92V33Zm0,4V38h-.92V37Zm1-3V35h-.92V34Zm0,1V36h-.92V35Zm0,1V37h-.92V36Zm0,1V38h-.92V37Zm0,1V39h-.92V38Zm0,1V40h-.92V39Z"/><path class="cls-1" d="M16,36V37h-.92V36Zm0,1V38h-.92V37Zm0,1V39h-.92V38Zm1-3V36h-.92V35Zm0,4V40h-.92V39Zm1-4V36h-.92V35Zm0,4V40h-.92V39Zm1-4V36h-.92V35Zm0,4V40h-.92V39Zm1-7V33h-.92V32Zm0,1V34h-.92V33Zm0,1V35h-.92V34Zm0,1V36h-.92V35Zm0,1V37h-.92V36Zm0,1V38h-.92V37Zm0,1V39h-.92V38Zm0,1V40h-.92V39Z"/><path class="cls-1" d="M22,36V37h-.92V36Zm0,1V38h-.92V37Zm0,1V39h-.92V38Zm1-3V36h-.92V35Zm0,4V40h-.92V39Zm1-4V36h-.92V35Zm0,4V40h-.92V39Zm1-4V36h-.92V35Zm0,4V40h-.92V39Zm1-7V33h-.92V32Zm0,1V34h-.92V33Zm0,1V35h-.92V34Zm0,1V36h-.92V35Zm0,1V37h-.92V36Zm0,1V38h-.92V37Zm0,1V39h-.92V38Zm0,1V40h-.92V39Z"/><path class="cls-1" d="M28,32V33h-.92V32Zm0,3V36h-.92V35Zm0,1V37h-.92V36Zm0,1V38h-.92V37Zm0,1V39h-.92V38Zm0,1V40h-.92V39Z"/><path class="cls-1" d="M30,33V34h-.92V33Zm0,1V35h-.92V34Zm0,1V36h-.92V35Zm0,1V37h-.92V36Zm0,1V38h-.92V37Zm0,1V39h-.92V38Zm1-3V36h-.92V35Zm0,4V40h-.92V39Zm1-4V36h-.92V35Zm0,4V40h-.92V39Zm1-4V36h-.92V35Zm0,4V40h-.92V39Z"/><path class="cls-1" d="M35,32V33h-.92V32Zm0,3V36h-.92V35Zm0,1V37h-.92V36Zm0,1V38h-.92V37Zm0,1V39h-.92V38Zm0,1V40h-.92V39Z"/><path class="cls-1" d="M37,36V37h-.92V36Zm0,1V38h-.92V37Zm0,1V39h-.92V38Zm1-3V36h-.92V35Zm0,4V40h-.92V39Zm1-4V36h-.92V35Zm0,4V40h-.92V39Zm1-4V36h-.92V35Zm0,4V40h-.92V39Zm1-3V37h-.92V36Zm0,1V38h-.92V37Zm0,1V39h-.92V38Z"/><path class="cls-1" d="M43,35V36h-.92V35Zm0,1V37h-.92V36Zm0,1V38h-.92V37Zm0,1V39h-.92V38Zm0,1V40h-.92V39Zm1-4V36h-.92V35Zm1,0V36h-.92V35Zm1,0V36h-.92V35Zm1,1V37h-.92V36Zm0,1V38h-.92V37Zm0,1V39h-.92V38Zm0,1V40h-.92V39Z"/><path class="cls-1" d="M49,38V39h-.92V38Zm1-3V36h-.92V35Zm0,2V38h-.92V37Zm0,2V40h-.92V39Zm1-4V36h-.92V35Zm0,2V38h-.92V37Zm0,2V40h-.92V39Zm1-4V36h-.92V35Zm0,2V38h-.92V37Zm0,2V40h-.92V39Zm1-3V37h-.92V36Zm0,1V38h-.92V37Zm0,1V39h-.92V38Zm0,1V40h-.92V39Z"/><path class="cls-1" d="M55,32V33h-.92V32Zm0,1V34h-.92V33Zm0,1V35h-.92V34Zm0,1V36h-.92V35Zm0,1V37h-.92V36Zm0,1V38h-.92V37Zm0,1V39h-.92V38Zm1,1V40h-.92V39Zm1,0V40h-.92V39Z"/><path class="cls-1" d="M60,33V34h-.92V33Zm0,6V40h-.92V39Zm1-6V34h-.92V33Zm0,1V35h-.92V34Zm0,1V36h-.92V35Zm0,1V37h-.92V36Zm0,1V38h-.92V37Zm0,1V39h-.92V38Zm0,1V40h-.92V39Zm1-6V34h-.92V33Zm0,6V40h-.92V39Z"/><path class="cls-1" d="M64,35V36h-.92V35Zm0,1V37h-.92V36Zm0,1V38h-.92V37Zm0,1V39h-.92V38Zm0,1V40h-.92V39Zm1-4V36h-.92V35Zm1,0V36h-.92V35Zm1,0V36h-.92V35Zm1,1V37h-.92V36Zm0,1V38h-.92V37Zm0,1V39h-.92V38Zm0,1V40h-.92V39Z"/><path class="cls-1" d="M69,35V36h-.92V35Zm1,0V36h-.92V35Zm1-2V34h-.92V33Zm0,1V35h-.92V34Zm0,1V36h-.92V35Zm0,1V37h-.92V36Zm0,1V38h-.92V37Zm0,1V39h-.92V38Zm0,1V40h-.92V39Zm1-7V33h-.92V32Zm0,3V36h-.92V35Zm1-3V33h-.92V32Zm0,3V36h-.92V35Zm1-3V33h-.92V32Z"/><path class="cls-1" d="M74,36V37h-.92V36Zm0,1V38h-.92V37Zm0,1V39h-.92V38Zm1-3V36h-.92V35Zm0,4V40h-.92V39Zm1-4V36h-.92V35Zm0,4V40h-.92V39Zm1-4V36h-.92V35Zm0,4V40h-.92V39Zm1-3V37h-.92V36Zm0,1V38h-.92V37Zm0,1V39h-.92V38Z"/><path class="cls-1" d="M10,53v.92H9.05V53Zm0,1v.92H9.05V54Zm0,1v.92H9.05V55Zm0,1v.92H9.05V56Zm0,1v.92H9.05V57Zm0,1v.92H9.05V58Zm0,1v.92H9.05V59Zm1-6v.92h-.92V53Zm0,3v.92h-.92V56Zm1-3v.92h-.92V53Zm0,3v.92h-.92V56Zm0,1v.92h-.92V57Zm1-4v.92h-.92V53Zm0,3v.92h-.92V56Zm0,2v.92h-.92V58Zm1-4v.92h-.92V54Zm0,1v.92h-.92V55Zm0,4v.92h-.92V59Z"/><path class="cls-1" d="M16,56v.92h-.92V56Zm0,1v.92h-.92V57Zm0,1v.92h-.92V58Zm1-3v.92h-.92V55Zm0,2v.92h-.92V57Zm0,2v.92h-.92V59Zm1-4v.92h-.92V55Zm0,2v.92h-.92V57Zm0,2v.92h-.92V59Zm1-4v.92h-.92V55Zm0,2v.92h-.92V57Zm0,2v.92h-.92V59Zm1-3v.92h-.92V56Zm0,1v.92h-.92V57Zm0,2v.92h-.92V59Z"/><path class="cls-1" d="M22,55v.92h-.92V55Zm0,1v.92h-.92V56Zm0,1v.92h-.92V57Zm1,1v.92h-.92V58Zm1,1v.92h-.92V59Zm1-1v.92h-.92V58Zm1-3v.92h-.92V55Zm0,1v.92h-.92V56Zm0,1v.92h-.92V57Z"/><path class="cls-1" d="M28,52v.92h-.92V52Zm0,3v.92h-.92V55Zm0,1v.92h-.92V56Zm0,1v.92h-.92V57Zm0,1v.92h-.92V58Zm0,1v.92h-.92V59Z"/><path class="cls-1" d="M30,56v.92h-.92V56Zm0,1v.92h-.92V57Zm0,1v.92h-.92V58Zm1-3v.92h-.92V55Zm0,2v.92h-.92V57Zm0,2v.92h-.92V59Zm1-4v.92h-.92V55Zm0,2v.92h-.92V57Zm0,2v.92h-.92V59Zm1-4v.92h-.92V55Zm0,2v.92h-.92V57Zm0,2v.92h-.92V59Zm1-3v.92h-.92V56Zm0,1v.92h-.92V57Zm0,2v.92h-.92V59Z"/><path class="cls-1" d="M36,55v.92h-.92V55Zm0,1v.92h-.92V56Zm0,1v.92h-.92V57Zm0,1v.92h-.92V58Zm1,1v.92h-.92V59Zm1-1v.92h-.92V58Zm1-2v.92h-.92V56Zm0,1v.92h-.92V57Zm1,1v.92h-.92V58Zm1,1v.92h-.92V59Zm1-4v.92h-.92V55Zm0,1v.92h-.92V56Zm0,1v.92h-.92V57Zm0,1v.92h-.92V58Z"/></g></svg>