<svg xmlns="http://www.w3.org/2000/svg" width="146" height="96" viewBox="0 0 146 96"><defs><style>.cls-1{fill:#d8d8d8;}.cls-2{fill:#fff;}.cls-3{fill:#1a1a1a;}</style></defs><title>df</title><g id="desc-horizontal-tab"><path class="cls-1" d="M143,3V79H3V3H143m1-1H2V80H144V2Z"/><rect x="2" y="78" width="142" height="16"/><path class="cls-2" d="M39.95,83V84H39V83Zm0,1V85H39V84Zm0,1V86H39V85Zm0,1V87H39V86Zm0,1V88H39V87Zm0,1V89H39V88Zm0,1V90H39V89Zm1-3V87H40V86Zm1,0V87H41V86Zm1,0V87H42V86Zm1-3V84H43V83Zm0,1V85H43V84Zm0,1V86H43V85Zm0,1V87H43V86Zm0,1V88H43V87Zm0,1V89H43V88Zm0,1V90H43V89Z"/><path class="cls-2" d="M45.95,86V87H45V86Zm0,1V88H45V87Zm0,1V89H45V88Zm1-3V86H46V85Zm0,4V90H46V89Zm1-4V86H47V85Zm0,4V90H47V89Zm1-4V86H48V85Zm0,4V90H48V89Zm1-3V87H49V86Zm0,1V88H49V87Zm0,1V89H49V88Z"/><path class="cls-2" d="M51.95,85V86H51V85Zm0,1V87H51V86Zm0,1V88H51V87Zm0,1V89H51V88Zm0,1V90H51V89Zm1-3V87H52V86Zm1-1V86H53V85Zm1,0V86H54V85Z"/><path class="cls-2" d="M55.95,82V83H55V82Zm0,3V86H55V85Zm0,1V87H55V86Zm0,1V88H55V87Zm0,1V89H55V88Zm0,1V90H55V89Z"/><path class="cls-2" d="M57.95,85V86H57V85Zm0,4V90H57V89Zm1-4V86H58V85Zm0,3V89H58V88Zm0,1V90H58V89Zm1-4V86H59V85Zm0,2V88H59V87Zm0,2V90H59V89Zm1-4V86H60V85Zm0,1V87H60V86Zm0,3V90H60V89Zm1-4V86H61V85Zm0,4V90H61V89Z"/><path class="cls-2" d="M63.95,86V87H63V86Zm0,1V88H63V87Zm0,1V89H63V88Zm1-3V86H64V85Zm0,4V90H64V89Zm1-4V86H65V85Zm0,4V90H65V89Zm1-4V86H66V85Zm0,4V90H66V89Zm1-3V87H67V86Zm0,1V88H67V87Zm0,1V89H67V88Z"/><path class="cls-2" d="M69.95,85V86H69V85Zm0,1V87H69V86Zm0,1V88H69V87Zm0,1V89H69V88Zm0,1V90H69V89Zm1-4V86H70V85Zm1,0V86H71V85Zm1,0V86H72V85Zm1,1V87H73V86Zm0,1V88H73V87Zm0,1V89H73V88Zm0,1V90H73V89Z"/><path class="cls-2" d="M75.95,83V84H75V83Zm0,1V85H75V84Zm0,1V86H75V85Zm0,1V87H75V86Zm0,1V88H75V87Zm0,1V89H75V88Zm1-3V86H76V85Zm0,4V90H76V89Zm1-4V86H77V85Zm0,4V90H77V89Zm1-4V86H78V85Zm0,4V90H78V89Z"/><path class="cls-2" d="M80.95,88V89H80V88Zm1-3V86H81V85Zm0,2V88H81V87Zm0,2V90H81V89Zm1-4V86H82V85Zm0,2V88H82V87Zm0,2V90H82V89Zm1-4V86H83V85Zm0,2V88H83V87Zm0,2V90H83V89Zm1-3V87H84V86Zm0,1V88H84V87Zm0,1V89H84V88Zm0,1V90H84V89Z"/><path class="cls-2" d="M86.95,82V83H86V82Zm0,1V84H86V83Zm0,1V85H86V84Zm0,1V86H86V85Zm0,1V87H86V86Zm0,1V88H86V87Zm0,1V89H86V88Zm1,1V90H87V89Zm1,0V90H88V89Z"/><path class="cls-2" d="M90.95,83V84H90V83Zm1,0V84H91V83Zm1,0V84H92V83Zm0,1V85H92V84Zm0,1V86H92V85Zm0,1V87H92V86Zm0,1V88H92V87Zm0,1V89H92V88Zm0,1V90H92V89Zm1-6V84H93V83Zm1,0V84H94V83Z"/><path class="cls-2" d="M95.95,88V89H95V88Zm1-3V86H96V85Zm0,2V88H96V87Zm0,2V90H96V89Zm1-4V86H97V85Zm0,2V88H97V87Zm0,2V90H97V89Zm1-4V86H98V85Zm0,2V88H98V87Zm0,2V90H98V89Zm1-3V87H99V86Zm0,1V88H99V87Zm0,1V89H99V88Zm0,1V90H99V89Z"/><path class="cls-2" d="M101.95,82V83H101V82Zm0,1V84H101V83Zm0,1V85H101V84Zm0,1V86H101V85Zm0,1V87H101V86Zm0,1V88H101V87Zm0,1V89H101V88Zm0,1V90H101V89Zm1-4V86H102V85Zm0,4V90H102V89Zm1-4V86H103V85Zm0,4V90H103V89Zm1-4V86H104V85Zm0,4V90H104V89Zm1-3V87H105V86Zm0,1V88H105V87Zm0,1V89H105V88Z"/><path class="cls-3" d="M17.93,17V18H17V17Zm0,1V19H17V18Zm0,1V20H17V19Zm0,1V21H17V20Zm0,1V22H17V21Zm0,1V23H17V22Zm0,1V24H17V23Zm1-6V18H18V17Zm0,6V24H18V23Zm1-6V18H19V17Zm0,6V24H19V23Zm1-5V19H20V18Zm0,4V23H20V22Zm1-3V20H21V19Zm0,1V21H21V20Zm0,1V22H21V21Z"/><path class="cls-3" d="M23.93,20V21H23V20Zm0,1V22H23V21Zm0,1V23H23V22Zm1-3V20H24V19Zm0,2V22H24V21Zm0,2V24H24V23Zm1-4V20H25V19Zm0,2V22H25V21Zm0,2V24H25V23Zm1-4V20H26V19Zm0,2V22H26V21Zm0,2V24H26V23Zm1-3V21H27V20Zm0,1V22H27V21Zm0,2V24H27V23Z"/><path class="cls-3" d="M29.93,20V21H29V20Zm0,3V24H29V23Zm1-4V20H30V19Zm0,2V22H30V21Zm0,2V24H30V23Zm1-4V20H31V19Zm0,2V22H31V21Zm0,2V24H31V23Zm1-4V20H32V19Zm0,3V23H32V22Z"/><path class="cls-3" d="M34.93,20V21H34V20Zm0,1V22H34V21Zm0,1V23H34V22Zm1-3V20H35V19Zm0,4V24H35V23Zm1-4V20H36V19Zm0,4V24H36V23Zm1-4V20H37V19Zm0,4V24H37V23Zm1-4V20H38V19Zm0,4V24H38V23Z"/><path class="cls-3" d="M40.93,19V20H40V19Zm0,1V21H40V20Zm0,1V22H40V21Zm0,1V23H40V22Zm0,1V24H40V23Zm1-3V21H41V20Zm1-1V20H42V19Zm1,0V20H43V19Z"/><path class="cls-3" d="M44.93,16V17H44V16Zm0,3V20H44V19Zm0,1V21H44V20Zm0,1V22H44V21Zm0,1V23H44V22Zm0,1V24H44V23Z"/><path class="cls-3" d="M46.93,19V20H46V19Zm0,1V21H46V20Zm0,1V22H46V21Zm0,1V23H46V22Zm0,1V24H46V23Zm0,1V25H46V24Zm0,1V26H46V25Zm1-6V20H47V19Zm0,4V24H47V23Zm1-4V20H48V19Zm0,4V24H48V23Zm1-4V20H49V19Zm0,4V24H49V23Zm1-3V21H50V20Zm0,1V22H50V21Zm0,1V23H50V22Z"/><path class="cls-3" d="M52.93,17V18H52V17Zm0,1V19H52V18Zm0,1V20H52V19Zm0,1V21H52V20Zm0,1V22H52V21Zm0,1V23H52V22Zm1-3V20H53V19Zm0,4V24H53V23Zm1-4V20H54V19Zm0,4V24H54V23Zm1-4V20H55V19Zm0,4V24H55V23Z"/><path class="cls-3" d="M57.93,16V17H57V16Zm0,3V20H57V19Zm0,1V21H57V20Zm0,1V22H57V21Zm0,1V23H57V22Zm0,1V24H57V23Z"/><path class="cls-3" d="M59.93,20V21H59V20Zm0,1V22H59V21Zm0,1V23H59V22Zm1-3V20H60V19Zm0,4V24H60V23Zm1-4V20H61V19Zm0,4V24H61V23Zm1-4V20H62V19Zm0,4V24H62V23Zm1-3V21H63V20Zm0,1V22H63V21Zm0,1V23H63V22Z"/><path class="cls-3" d="M65.93,19V20H65V19Zm0,1V21H65V20Zm0,1V22H65V21Zm0,1V23H65V22Zm0,1V24H65V23Zm1-4V20H66V19Zm1,0V20H67V19Zm1,0V20H68V19Zm1,1V21H69V20Zm0,1V22H69V21Zm0,1V23H69V22Zm0,1V24H69V23Z"/><path class="cls-1" d="M81,18V19h-.92V18Zm0,1V20h-.92V19Zm0,1V21h-.92V20Zm0,1V22h-.92V21Zm0,1V23h-.92V22Zm0,1V24h-.92V23Zm1-6V18h-.92V17Zm0,4V22h-.92V21Zm1-4V18h-.92V17Zm0,4V22h-.92V21Zm1-4V18h-.92V17Zm0,4V22h-.92V21Zm1-3V19h-.92V18Zm0,1V20h-.92V19Zm0,1V21h-.92V20Zm0,1V22h-.92V21Zm0,1V23h-.92V22Zm0,1V24h-.92V23Z"/><path class="cls-1" d="M87,20V21h-.92V20Zm0,1V22h-.92V21Zm0,1V23h-.92V22Zm1-3V20h-.92V19Zm0,4V24h-.92V23Zm1-4V20h-.92V19Zm0,4V24h-.92V23Zm1-4V20h-.92V19Zm0,4V24h-.92V23Zm1-7V17h-.92V16Zm0,1V18h-.92V17Zm0,1V19h-.92V18Zm0,1V20h-.92V19Zm0,1V21h-.92V20Zm0,1V22h-.92V21Zm0,1V23h-.92V22Zm0,1V24h-.92V23Z"/><path class="cls-1" d="M93,20V21h-.92V20Zm0,1V22h-.92V21Zm0,1V23h-.92V22Zm1-3V20h-.92V19Zm0,4V24h-.92V23Zm1-4V20h-.92V19Zm0,4V24h-.92V23Zm1-4V20h-.92V19Zm0,4V24h-.92V23Zm1-7V17h-.92V16Zm0,1V18h-.92V17Zm0,1V19h-.92V18Zm0,1V20h-.92V19Zm0,1V21h-.92V20Zm0,1V22h-.92V21Zm0,1V23h-.92V22Zm0,1V24h-.92V23Z"/><path class="cls-1" d="M99,16V17h-.92V16Zm0,3V20h-.92V19Zm0,1V21h-.92V20Zm0,1V22h-.92V21Zm0,1V23h-.92V22Zm0,1V24h-.92V23Z"/><path class="cls-1" d="M101,17V18h-.92V17Zm0,1V19h-.92V18Zm0,1V20h-.92V19Zm0,1V21h-.92V20Zm0,1V22h-.92V21Zm0,1V23h-.92V22Zm1-3V20h-.92V19Zm0,4V24h-.92V23Zm1-4V20h-.92V19Zm0,4V24h-.92V23Zm1-4V20h-.92V19Zm0,4V24h-.92V23Z"/><path class="cls-1" d="M106,16V17h-.92V16Zm0,3V20h-.92V19Zm0,1V21h-.92V20Zm0,1V22h-.92V21Zm0,1V23h-.92V22Zm0,1V24h-.92V23Z"/><path class="cls-1" d="M108,20V21h-.92V20Zm0,1V22h-.92V21Zm0,1V23h-.92V22Zm1-3V20h-.92V19Zm0,4V24h-.92V23Zm1-4V20h-.92V19Zm0,4V24h-.92V23Zm1-4V20h-.92V19Zm0,4V24h-.92V23Zm1-3V21h-.92V20Zm0,1V22h-.92V21Zm0,1V23h-.92V22Z"/><path class="cls-1" d="M114,19V20h-.92V19Zm0,1V21h-.92V20Zm0,1V22h-.92V21Zm0,1V23h-.92V22Zm0,1V24h-.92V23Zm1-4V20h-.92V19Zm1,0V20h-.92V19Zm1,0V20h-.92V19Zm1,1V21h-.92V20Zm0,1V22h-.92V21Zm0,1V23h-.92V22Zm0,1V24h-.92V23Z"/><path class="cls-1" d="M120,22V23h-.92V22Zm1-3V20h-.92V19Zm0,2V22h-.92V21Zm0,2V24h-.92V23Zm1-4V20h-.92V19Zm0,2V22h-.92V21Zm0,2V24h-.92V23Zm1-4V20h-.92V19Zm0,2V22h-.92V21Zm0,2V24h-.92V23Zm1-3V21h-.92V20Zm0,1V22h-.92V21Zm0,1V23h-.92V22Zm0,1V24h-.92V23Z"/><path class="cls-1" d="M126,16V17h-.92V16Zm0,1V18h-.92V17Zm0,1V19h-.92V18Zm0,1V20h-.92V19Zm0,1V21h-.92V20Zm0,1V22h-.92V21Zm0,1V23h-.92V22Zm1,1V24h-.92V23Zm1,0V24h-.92V23Z"/><path class="cls-1" d="M131,17V18h-.92V17Zm0,6V24h-.92V23Zm1-6V18h-.92V17Zm0,1V19h-.92V18Zm0,1V20h-.92V19Zm0,1V21h-.92V20Zm0,1V22h-.92V21Zm0,1V23h-.92V22Zm0,1V24h-.92V23Zm1-6V18h-.92V17Zm0,6V24h-.92V23Z"/><path class="cls-1" d="M135,19V20h-.92V19Zm0,1V21h-.92V20Zm0,1V22h-.92V21Zm0,1V23h-.92V22Zm0,1V24h-.92V23Zm1-4V20h-.92V19Zm1,0V20h-.92V19Zm1,0V20h-.92V19Zm1,1V21h-.92V20Zm0,1V22h-.92V21Zm0,1V23h-.92V22Zm0,1V24h-.92V23Z"/><rect class="cls-3" x="16.98" y="28" width="53" height="2"/><rect class="cls-1" x="5" y="35" width="136" height="41"/></g></svg>