<svg xmlns="http://www.w3.org/2000/svg" width="146" height="96" viewBox="0 0 146 96"><defs><style>.cls-1,.cls-6{fill:#d8d8d8;}.cls-2{fill:#f2f2f2;}.cls-3{fill:gray;}.cls-4{fill:#b3b3b3;}.cls-5{fill:#262626;}.cls-6{opacity:0.8;}.cls-7{fill:#fff;}</style></defs><title>df</title><g id="product-archive-style-1-elaina"><path class="cls-1" d="M143,3V79H3V3H143m1-1H2V80H144V2Z"/><rect x="2" y="78" width="142" height="16"/><path class="cls-2" d="M57,84V85H56V84Zm0,1V86H56V85Zm0,4V90H56V89Zm1-6V84H57V83Zm0,3V87H57V86Zm0,3V90H57V89Zm1-6V84H58V83Zm0,3V87H58V86Zm0,3V90H58V89Zm1-6V84H59V83Zm0,3V87H59V86Zm0,3V90H59V89Zm1-6V84H60V83Zm0,4V88H60V87Zm0,1V89H60V88Z"/><path class="cls-2" d="M63,83V84H62V83Zm0,1V85H62V84Zm0,1V86H62V85Zm0,1V87H62V86Zm0,1V88H62V87Zm0,1V89H62V88Zm1-3V86H63V85Zm0,4V90H63V89Zm1-4V86H64V85Zm0,4V90H64V89Zm1-4V86H65V85Zm0,4V90H65V89Z"/><path class="cls-2" d="M67,91V92H66V91Zm1-6V86H67V85Zm0,1V87H67V86Zm0,1V88H67V87Zm0,4V92H67V91Zm1-3V89H68V88Zm0,2V91H68V90Zm1-1V90H69V89Zm1-1V89H70V88Zm1-3V86H71V85Zm0,1V87H71V86Zm0,1V88H71V87Z"/><path class="cls-2" d="M74,82V83H73V82Zm0,1V84H73V83Zm0,1V85H73V84Zm0,1V86H73V85Zm0,1V87H73V86Zm0,1V88H73V87Zm0,1V89H73V88Zm1,1V90H74V89Zm1,0V90H75V89Z"/><path class="cls-2" d="M77,86V87H76V86Zm0,1V88H76V87Zm0,1V89H76V88Zm1-3V86H77V85Zm0,2V88H77V87Zm0,2V90H77V89Zm1-4V86H78V85Zm0,2V88H78V87Zm0,2V90H78V89Zm1-4V86H79V85Zm0,2V88H79V87Zm0,2V90H79V89Zm1-3V87H80V86Zm0,1V88H80V87Zm0,2V90H80V89Z"/><path class="cls-2" d="M85,83V84H84V83Zm0,6V90H84V89Zm1-6V84H85V83Zm0,6V90H85V89Zm1-6V84H86V83Zm0,1V85H86V84Zm0,1V86H86V85Zm0,1V87H86V86Zm0,1V88H86V87Zm0,1V89H86V88Zm0,1V90H86V89Zm1,0V90H87V89Zm1,0V90H88V89Z"/><rect class="cls-1" x="24" y="7" width="30" height="38"/><rect class="cls-1" x="24" y="57" width="30" height="17"/><rect class="cls-1" x="58" y="57" width="30" height="17"/><rect class="cls-1" x="92" y="57" width="30" height="17"/><rect class="cls-3" x="24" y="49" width="16" height="2"/><rect class="cls-4" x="24" y="52" width="10" height="1"/><rect class="cls-4" x="24" y="47" width="6" height="1"/><rect class="cls-1" x="92" y="7" width="30" height="38"/><rect class="cls-3" x="92" y="49" width="16" height="2"/><rect class="cls-4" x="92" y="52" width="10" height="1"/><rect class="cls-4" x="92" y="47" width="6" height="1"/><rect class="cls-4" x="58" y="47" width="6" height="1"/><rect class="cls-5" x="58" y="7" width="30" height="38"/><rect class="cls-3" x="58" y="49" width="16" height="2"/><rect class="cls-4" x="58" y="52" width="10" height="1"/><rect class="cls-6" x="58" y="40" width="30" height="5"/><rect class="cls-7" x="64" y="42" width="18" height="1"/><polygon class="cls-1" points="82 42 64 42 64 43 82 43 82 42 82 42"/><circle class="cls-7" cx="85" cy="10" r="2"/><circle class="cls-4" cx="87" cy="48" r="1"/><circle class="cls-4" cx="84" cy="48" r="1"/><circle class="cls-4" cx="81" cy="48" r="1"/></g></svg>