<svg xmlns="http://www.w3.org/2000/svg" width="146" height="96" viewBox="0 0 146 96"><defs><style>.cls-1{fill:#d8d8d8;}.cls-2{fill:#262626;}.cls-3,.cls-4{fill:#fff;}.cls-3{opacity:0.9;}.cls-5{fill:#b3b3b3;}.cls-6{fill:gray;}.cls-7{fill:#f2f2f2;}</style></defs><title>df</title><g id="product-archive-style-4-ella"><path class="cls-1" d="M143,3V79H3V3H143m1-1H2V80H144V2Z"/><rect x="2" y="78" width="142" height="16"/><rect class="cls-1" x="24" y="7" width="30" height="38"/><rect class="cls-1" x="24" y="49" width="30" height="25"/><rect class="cls-1" x="58" y="49" width="30" height="25"/><rect class="cls-1" x="92" y="49" width="30" height="25"/><rect class="cls-1" x="92" y="7" width="30" height="38"/><rect class="cls-2" x="58" y="7" width="30" height="38"/><rect class="cls-3" x="58" y="35" width="30" height="10"/><circle class="cls-4" cx="85" cy="10" r="2"/><rect class="cls-5" x="60" y="37" width="6" height="1"/><rect class="cls-6" x="60" y="39" width="16" height="2"/><rect class="cls-5" x="60" y="42" width="10" height="1"/><circle class="cls-5" cx="85" cy="38" r="1"/><circle class="cls-5" cx="82" cy="38" r="1"/><circle class="cls-5" cx="79" cy="38" r="1"/><path class="cls-7" d="M57,84V85H56V84Zm0,1V86H56V85Zm0,4V90H56V89Zm1-6V84H57V83Zm0,3V87H57V86Zm0,3V90H57V89Zm1-6V84H58V83Zm0,3V87H58V86Zm0,3V90H58V89Zm1-6V84H59V83Zm0,3V87H59V86Zm0,3V90H59V89Zm1-6V84H60V83Zm0,4V88H60V87Zm0,1V89H60V88Z"/><path class="cls-7" d="M63,83V84H62V83Zm0,1V85H62V84Zm0,1V86H62V85Zm0,1V87H62V86Zm0,1V88H62V87Zm0,1V89H62V88Zm1-3V86H63V85Zm0,4V90H63V89Zm1-4V86H64V85Zm0,4V90H64V89Zm1-4V86H65V85Zm0,4V90H65V89Z"/><path class="cls-7" d="M67,91V92H66V91Zm1-6V86H67V85Zm0,1V87H67V86Zm0,1V88H67V87Zm0,4V92H67V91Zm1-3V89H68V88Zm0,2V91H68V90Zm1-1V90H69V89Zm1-1V89H70V88Zm1-3V86H71V85Zm0,1V87H71V86Zm0,1V88H71V87Z"/><path class="cls-7" d="M74,82V83H73V82Zm0,1V84H73V83Zm0,1V85H73V84Zm0,1V86H73V85Zm0,1V87H73V86Zm0,1V88H73V87Zm0,1V89H73V88Zm1,1V90H74V89Zm1,0V90H75V89Z"/><path class="cls-7" d="M77,86V87H76V86Zm0,1V88H76V87Zm0,1V89H76V88Zm1-3V86H77V85Zm0,2V88H77V87Zm0,2V90H77V89Zm1-4V86H78V85Zm0,2V88H78V87Zm0,2V90H78V89Zm1-4V86H79V85Zm0,2V88H79V87Zm0,2V90H79V89Zm1-3V87H80V86Zm0,1V88H80V87Zm0,2V90H80V89Z"/><path class="cls-7" d="M85,86V87H84V86Zm0,1V88H84V87Zm1-2V86H85V85Zm0,2V88H85V87Zm1-3V85H86V84Zm0,3V88H86V87Zm1-4V84H87V83Zm0,4V88H87V87Zm1-4V84H88V83Zm0,1V85H88V84Zm0,1V86H88V85Zm0,1V87H88V86Zm0,1V88H88V87Zm0,1V89H88V88Zm0,1V90H88V89Z"/></g></svg>