<svg xmlns="http://www.w3.org/2000/svg" width="146" height="96" viewBox="0 0 146 96"><defs><style>.cls-1{fill:#09090a;opacity:0.5;}.cls-2{fill:#d8d8d8;}.cls-3{fill:#ccc;}.cls-4{fill:#f2f2f2;}</style></defs><title>df</title><g id="product-style-2"><rect class="cls-1" x="5" y="5" width="136" height="62"/><path class="cls-2" d="M143,3V79H3V3H143m1-1H2V80H144V2Z"/><rect x="2" y="78" width="142" height="16"/><rect class="cls-3" x="65" y="61" width="35" height="15"/><rect class="cls-3" x="29" y="59" width="35" height="17"/><rect class="cls-3" x="104" y="44" width="23" height="1"/><rect class="cls-3" x="104" y="47" width="9" height="1"/><rect class="cls-3" x="104" y="41" width="23" height="1"/><rect class="cls-3" x="104" y="38" width="23" height="1"/><rect class="cls-3" x="104" y="35" width="23" height="1"/><rect class="cls-3" x="104" y="32" width="23" height="1"/><rect class="cls-3" x="104" y="27" width="15" height="1"/><rect class="cls-3" x="104" y="22" width="16" height="3"/><rect class="cls-3" x="104" y="55" width="6" height="1"/><path class="cls-4" d="M57,84.08V85h-.92v-.92Zm0,1V86h-.92v-.92Zm0,4V90h-.92v-.92Zm1-6V84h-.92v-.92Zm0,3V87h-.92v-.92Zm0,3V90h-.92v-.92Zm1-6V84h-.92v-.92Zm0,3V87h-.92v-.92Zm0,3V90h-.92v-.92Zm1-6V84h-.92v-.92Zm0,3V87h-.92v-.92Zm0,3V90h-.92v-.92Zm1-6V84h-.92v-.92Zm0,4V88h-.92v-.92Zm0,1V89h-.92v-.92Z"/><path class="cls-4" d="M63,83.08V84h-.92v-.92Zm0,1V85h-.92v-.92Zm0,1V86h-.92v-.92Zm0,1V87h-.92v-.92Zm0,1V88h-.92v-.92Zm0,1V89h-.92v-.92Zm1-3V86h-.92v-.92Zm0,4V90h-.92v-.92Zm1-4V86h-.92v-.92Zm0,4V90h-.92v-.92Zm1-4V86h-.92v-.92Zm0,4V90h-.92v-.92Z"/><path class="cls-4" d="M67,91.08V92h-.92v-.92Zm1-6V86h-.92v-.92Zm0,1V87h-.92v-.92Zm0,1V88h-.92v-.92Zm0,4V92h-.92v-.92Zm1-3V89h-.92v-.92Zm0,2V91h-.92v-.92Zm1-1V90h-.92v-.92Zm1-1V89h-.92v-.92Zm1-3V86h-.92v-.92Zm0,1V87h-.92v-.92Zm0,1V88h-.92v-.92Z"/><path class="cls-4" d="M74,82.08V83h-.92v-.92Zm0,1V84h-.92v-.92Zm0,1V85h-.92v-.92Zm0,1V86h-.92v-.92Zm0,1V87h-.92v-.92Zm0,1V88h-.92v-.92Zm0,1V89h-.92v-.92Zm1,1V90h-.92v-.92Zm1,0V90h-.92v-.92Z"/><path class="cls-4" d="M77,86.08V87h-.92v-.92Zm0,1V88h-.92v-.92Zm0,1V89h-.92v-.92Zm1-3V86h-.92v-.92Zm0,2V88h-.92v-.92Zm0,2V90h-.92v-.92Zm1-4V86h-.92v-.92Zm0,2V88h-.92v-.92Zm0,2V90h-.92v-.92Zm1-4V86h-.92v-.92Zm0,2V88h-.92v-.92Zm0,2V90h-.92v-.92Zm1-3V87h-.92v-.92Zm0,1V88h-.92v-.92Zm0,2V90h-.92v-.92Z"/><path class="cls-4" d="M85,83.08V84h-.92v-.92Zm0,5V89h-.92v-.92Zm0,1V90h-.92v-.92Zm1-6V84h-.92v-.92Zm0,4V88h-.92v-.92Zm0,2V90h-.92v-.92Zm1-6V84h-.92v-.92Zm0,3V87h-.92v-.92Zm0,3V90h-.92v-.92Zm1-6V84h-.92v-.92Zm0,3V87h-.92v-.92Zm0,3V90h-.92v-.92Zm1-5V85h-.92v-.92Zm0,1V86h-.92v-.92Zm0,4V90h-.92v-.92Z"/></g></svg>