<svg xmlns="http://www.w3.org/2000/svg" width="96" height="96" viewBox="0 0 96 96"><defs><style>.cls-1{fill:#d8d8d8;}.cls-2{fill:#ccc;}.cls-3{fill:#fff;}</style></defs><title>df</title><g id="single-shop-sidebar-right"><path class="cls-1" d="M93,3V79H3V3H93m1-1H2V80H94V2Z"/><rect x="2" y="78" width="92" height="16"/><rect x="71" y="6" width="19" height="48"/><rect class="cls-2" x="6" y="73" width="84" height="1"/><rect class="cls-2" x="6" y="70" width="84" height="1"/><rect class="cls-2" x="6" y="6" width="35" height="48"/><rect class="cls-2" x="6" y="55" width="8" height="10"/><rect class="cls-2" x="15" y="55" width="8" height="10"/><rect class="cls-2" x="24" y="55" width="8" height="10"/><rect class="cls-2" x="33" y="55" width="8" height="10"/><rect class="cls-2" x="45" y="34" width="23" height="1"/><rect class="cls-2" x="45" y="37" width="9" height="1"/><rect class="cls-2" x="45" y="31" width="23" height="1"/><rect class="cls-2" x="45" y="28" width="23" height="1"/><rect class="cls-2" x="45" y="25" width="23" height="1"/><rect class="cls-2" x="45" y="22" width="23" height="1"/><rect class="cls-2" x="45" y="17" width="15" height="1"/><rect class="cls-2" x="45" y="12" width="16" height="3"/><rect class="cls-2" x="45" y="45" width="6" height="1"/><path class="cls-3" d="M18,83v.92H17V83Zm0,1v.92H17V84Zm0,1v.92H17V85Zm0,1v.92H17V86Zm0,1v.92H17V87Zm0,1v.92H17V88Zm0,1v.92H17V89Zm1-6v.92H18V83Zm0,3v.92H18V86Zm1-3v.92H19V83Zm0,3v.92H19V86Zm0,1v.92H19V87Zm1-4v.92H20V83Zm0,3v.92H20V86Zm0,2v.92H20V88Zm1-4v.92H21V84Zm0,1v.92H21V85Zm0,4v.92H21V89Z"/><path class="cls-3" d="M24,82v.92H23V82Zm0,3v.92H23V85Zm0,1v.92H23V86Zm0,1v.92H23V87Zm0,1v.92H23V88Zm0,1v.92H23V89Z"/><path class="cls-3" d="M26,86v.92H25V86Zm0,1v.92H25V87Zm0,1v.92H25V88Zm0,3v.92H25V91Zm1-6v.92H26V85Zm0,4v.92H26V89Zm0,2v.92H26V91Zm1-6v.92H27V85Zm0,4v.92H27V89Zm0,2v.92H27V91Zm1-6v.92H28V85Zm0,4v.92H28V89Zm0,2v.92H28V91Zm1-6v.92H29V85Zm0,1v.92H29V86Zm0,1v.92H29V87Zm0,1v.92H29V88Zm0,1v.92H29V89Zm0,1v.92H29V90Z"/><path class="cls-3" d="M32,82v.92H31V82Zm0,1v.92H31V83Zm0,1v.92H31V84Zm0,1v.92H31V85Zm0,1v.92H31V86Zm0,1v.92H31V87Zm0,1v.92H31V88Zm0,1v.92H31V89Zm1-4v.92H32V85Zm1,0v.92H33V85Zm1,0v.92H34V85Zm1,1v.92H35V86Zm0,1v.92H35V87Zm0,1v.92H35V88Zm0,1v.92H35V89Z"/><path class="cls-3" d="M38,83v.92H37V83Zm0,1v.92H37V84Zm0,1v.92H37V85Zm0,1v.92H37V86Zm0,1v.92H37V87Zm0,1v.92H37V88Zm1-3v.92H38V85Zm0,4v.92H38V89Zm1-4v.92H39V85Zm0,4v.92H39V89Zm1-4v.92H40V85Zm0,4v.92H40V89Z"/><path class="cls-3" d="M45,84v.92H44V84Zm0,1v.92H44V85Zm0,4v.92H44V89Zm1-6v.92H45V83Zm0,3v.92H45V86Zm0,3v.92H45V89Zm1-6v.92H46V83Zm0,3v.92H46V86Zm0,3v.92H46V89Zm1-6v.92H47V83Zm0,3v.92H47V86Zm0,3v.92H47V89Zm1-6v.92H48V83Zm0,4v.92H48V87Zm0,1v.92H48V88Z"/><path class="cls-3" d="M51,82v.92H50V82Zm0,3v.92H50V85Zm0,1v.92H50V86Zm0,1v.92H50V87Zm0,1v.92H50V88Zm0,1v.92H50V89Z"/><path class="cls-3" d="M53,86v.92H52V86Zm0,1v.92H52V87Zm0,1v.92H52V88Zm1-3v.92H53V85Zm0,4v.92H53V89Zm1-4v.92H54V85Zm0,4v.92H54V89Zm1-4v.92H55V85Zm0,4v.92H55V89Zm1-7v.92H56V82Zm0,1v.92H56V83Zm0,1v.92H56V84Zm0,1v.92H56V85Zm0,1v.92H56V86Zm0,1v.92H56V87Zm0,1v.92H56V88Zm0,1v.92H56V89Z"/><path class="cls-3" d="M59,86v.92H58V86Zm0,1v.92H58V87Zm0,1v.92H58V88Zm1-3v.92H59V85Zm0,2v.92H59V87Zm0,2v.92H59V89Zm1-4v.92H60V85Zm0,2v.92H60V87Zm0,2v.92H60V89Zm1-4v.92H61V85Zm0,2v.92H61V87Zm0,2v.92H61V89Zm1-3v.92H62V86Zm0,1v.92H62V87Zm0,2v.92H62V89Z"/><path class="cls-3" d="M65,82v.92H64V82Zm0,1v.92H64V83Zm0,1v.92H64V84Zm0,1v.92H64V85Zm0,1v.92H64V86Zm0,1v.92H64V87Zm0,1v.92H64V88Zm0,1v.92H64V89Zm1-4v.92H65V85Zm0,4v.92H65V89Zm1-4v.92H66V85Zm0,4v.92H66V89Zm1-4v.92H67V85Zm0,4v.92H67V89Zm1-3v.92H68V86Zm0,1v.92H68V87Zm0,1v.92H68V88Z"/><path class="cls-3" d="M71,88v.92H70V88Zm1-3v.92H71V85Zm0,2v.92H71V87Zm0,2v.92H71V89Zm1-4v.92H72V85Zm0,2v.92H72V87Zm0,2v.92H72V89Zm1-4v.92H73V85Zm0,2v.92H73V87Zm0,2v.92H73V89Zm1-3v.92H74V86Zm0,1v.92H74V87Zm0,1v.92H74V88Zm0,1v.92H74V89Z"/><path class="cls-3" d="M77,85v.92H76V85Zm0,1v.92H76V86Zm0,1v.92H76V87Zm0,1v.92H76V88Zm0,1v.92H76V89Zm1-3v.92H77V86Zm1-1v.92H78V85Zm1,0v.92H79V85Z"/></g></svg>