<svg xmlns="http://www.w3.org/2000/svg" width="146" height="96" viewBox="0 0 146 96"><defs><style>.cls-1{fill:#d8d8d8;}.cls-2{fill:#09090a;opacity:0.9;}.cls-3{fill:#fff;}</style></defs><title>df</title><g id="shop-sidebar-right"><path class="cls-1" d="M143,3V79H3V3H143m1-1H2V80H144V2Z"/><rect x="2" y="78" width="142" height="16"/><rect class="cls-2" x="116" y="5" width="25" height="71"/><rect class="cls-3" x="5" y="5" width="109" height="71"/><path class="cls-3" d="M42,83v.92H41V83Zm0,1v.92H41V84Zm0,1v.92H41V85Zm0,1v.92H41V86Zm0,1v.92H41V87Zm0,1v.92H41V88Zm0,1v.92H41V89Zm1-6v.92H42V83Zm0,3v.92H42V86Zm1-3v.92H43V83Zm0,3v.92H43V86Zm0,1v.92H43V87Zm1-4v.92H44V83Zm0,3v.92H44V86Zm0,2v.92H44V88Zm1-4v.92H45V84Zm0,1v.92H45V85Zm0,4v.92H45V89Z"/><path class="cls-3" d="M48,82v.92H47V82Zm0,3v.92H47V85Zm0,1v.92H47V86Zm0,1v.92H47V87Zm0,1v.92H47V88Zm0,1v.92H47V89Z"/><path class="cls-3" d="M50,86v.92H49V86Zm0,1v.92H49V87Zm0,1v.92H49V88Zm0,3v.92H49V91Zm1-6v.92H50V85Zm0,4v.92H50V89Zm0,2v.92H50V91Zm1-6v.92H51V85Zm0,4v.92H51V89Zm0,2v.92H51V91Zm1-6v.92H52V85Zm0,4v.92H52V89Zm0,2v.92H52V91Zm1-6v.92H53V85Zm0,1v.92H53V86Zm0,1v.92H53V87Zm0,1v.92H53V88Zm0,1v.92H53V89Zm0,1v.92H53V90Z"/><path class="cls-3" d="M56,82v.92H55V82Zm0,1v.92H55V83Zm0,1v.92H55V84Zm0,1v.92H55V85Zm0,1v.92H55V86Zm0,1v.92H55V87Zm0,1v.92H55V88Zm0,1v.92H55V89Zm1-4v.92H56V85Zm1,0v.92H57V85Zm1,0v.92H58V85Zm1,1v.92H59V86Zm0,1v.92H59V87Zm0,1v.92H59V88Zm0,1v.92H59V89Z"/><path class="cls-3" d="M62,83v.92H61V83Zm0,1v.92H61V84Zm0,1v.92H61V85Zm0,1v.92H61V86Zm0,1v.92H61V87Zm0,1v.92H61V88Zm1-3v.92H62V85Zm0,4v.92H62V89Zm1-4v.92H63V85Zm0,4v.92H63V89Zm1-4v.92H64V85Zm0,4v.92H64V89Z"/><path class="cls-3" d="M69,84v.92H68V84Zm0,1v.92H68V85Zm0,4v.92H68V89Zm1-6v.92H69V83Zm0,3v.92H69V86Zm0,3v.92H69V89Zm1-6v.92H70V83Zm0,3v.92H70V86Zm0,3v.92H70V89Zm1-6v.92H71V83Zm0,3v.92H71V86Zm0,3v.92H71V89Zm1-6v.92H72V83Zm0,4v.92H72V87Zm0,1v.92H72V88Z"/><path class="cls-3" d="M75,82v.92H74V82Zm0,3v.92H74V85Zm0,1v.92H74V86Zm0,1v.92H74V87Zm0,1v.92H74V88Zm0,1v.92H74V89Z"/><path class="cls-3" d="M77,86v.92H76V86Zm0,1v.92H76V87Zm0,1v.92H76V88Zm1-3v.92H77V85Zm0,4v.92H77V89Zm1-4v.92H78V85Zm0,4v.92H78V89Zm1-4v.92H79V85Zm0,4v.92H79V89Zm1-7v.92H80V82Zm0,1v.92H80V83Zm0,1v.92H80V84Zm0,1v.92H80V85Zm0,1v.92H80V86Zm0,1v.92H80V87Zm0,1v.92H80V88Zm0,1v.92H80V89Z"/><path class="cls-3" d="M83,86v.92H82V86Zm0,1v.92H82V87Zm0,1v.92H82V88Zm1-3v.92H83V85Zm0,2v.92H83V87Zm0,2v.92H83V89Zm1-4v.92H84V85Zm0,2v.92H84V87Zm0,2v.92H84V89Zm1-4v.92H85V85Zm0,2v.92H85V87Zm0,2v.92H85V89Zm1-3v.92H86V86Zm0,1v.92H86V87Zm0,2v.92H86V89Z"/><path class="cls-3" d="M89,82v.92H88V82Zm0,1v.92H88V83Zm0,1v.92H88V84Zm0,1v.92H88V85Zm0,1v.92H88V86Zm0,1v.92H88V87Zm0,1v.92H88V88Zm0,1v.92H88V89Zm1-4v.92H89V85Zm0,4v.92H89V89Zm1-4v.92H90V85Zm0,4v.92H90V89Zm1-4v.92H91V85Zm0,4v.92H91V89Zm1-3v.92H92V86Zm0,1v.92H92V87Zm0,1v.92H92V88Z"/><path class="cls-3" d="M95,88v.92H94V88Zm1-3v.92H95V85Zm0,2v.92H95V87Zm0,2v.92H95V89Zm1-4v.92H96V85Zm0,2v.92H96V87Zm0,2v.92H96V89Zm1-4v.92H97V85Zm0,2v.92H97V87Zm0,2v.92H97V89Zm1-3v.92H98V86Zm0,1v.92H98V87Zm0,1v.92H98V88Zm0,1v.92H98V89Z"/><path class="cls-3" d="M101,85v.92H100V85Zm0,1v.92H100V86Zm0,1v.92H100V87Zm0,1v.92H100V88Zm0,1v.92H100V89Zm1-3v.92H101V86Zm1-1v.92H102V85Zm1,0v.92H103V85Z"/></g></svg>