<svg xmlns="http://www.w3.org/2000/svg" width="96" height="96" viewBox="0 0 96 96"><defs><style>.cls-1{fill:#d8d8d8;}.cls-2{fill:#f2f2f2;}.cls-3{fill:#ccc;}</style></defs><title>df</title><g id="single-shop-sidebar-disable"><path class="cls-1" d="M93,3V79H3V3H93m1-1H2V80H94V2Z"/><rect x="2" y="78" width="92" height="16"/><path class="cls-2" d="M37,83V84H36V83Zm0,1V85H36V84Zm0,1V86H36V85Zm0,1V87H36V86Zm0,1V88H36V87Zm0,1V89H36V88Zm0,1V90H36V89Zm1-4V86H37V85Zm1,1V87H38V86Zm1,1V88H39V87Zm1-4V84H40V83Zm0,1V85H40V84Zm0,1V86H40V85Zm0,1V87H40V86Zm0,1V88H40V87Zm0,1V89H40V88Zm0,1V90H40V89Z"/><path class="cls-2" d="M43,86V87H42V86Zm0,1V88H42V87Zm0,1V89H42V88Zm1-3V86H43V85Zm0,4V90H43V89Zm1-4V86H44V85Zm0,4V90H44V89Zm1-4V86H45V85Zm0,4V90H45V89Zm1-3V87H46V86Zm0,1V88H46V87Zm0,1V89H46V88Z"/><path class="cls-2" d="M49,85V86H48V85Zm0,1V87H48V86Zm0,1V88H48V87Zm0,1V89H48V88Zm0,1V90H48V89Zm1-4V86H49V85Zm1,0V86H50V85Zm1,0V86H51V85Zm1,1V87H52V86Zm0,1V88H52V87Zm0,1V89H52V88Zm0,1V90H52V89Z"/><path class="cls-2" d="M55,86V87H54V86Zm0,1V88H54V87Zm0,1V89H54V88Zm1-3V86H55V85Zm0,2V88H55V87Zm0,2V90H55V89Zm1-4V86H56V85Zm0,2V88H56V87Zm0,2V90H56V89Zm1-4V86H57V85Zm0,2V88H57V87Zm0,2V90H57V89Zm1-3V87H58V86Zm0,1V88H58V87Zm0,2V90H58V89Z"/><rect class="cls-3" x="13" y="6" width="35" height="48"/><rect class="cls-3" x="13" y="55" width="8" height="10"/><rect class="cls-3" x="22" y="55" width="8" height="10"/><rect class="cls-3" x="31" y="55" width="8" height="10"/><rect class="cls-3" x="40" y="55" width="8" height="10"/><rect class="cls-3" x="52" y="34" width="31" height="1"/><rect class="cls-3" x="52" y="37" width="9" height="1"/><rect class="cls-3" x="52" y="31" width="31" height="1"/><rect class="cls-3" x="52" y="28" width="31" height="1"/><rect class="cls-3" x="52" y="25" width="31" height="1"/><rect class="cls-3" x="52" y="22" width="31" height="1"/><rect class="cls-3" x="6" y="73" width="84" height="1"/><rect class="cls-3" x="6" y="70" width="84" height="1"/><rect class="cls-3" x="52" y="17" width="15" height="1"/><rect class="cls-3" x="52" y="12" width="26" height="3"/><rect class="cls-3" x="52" y="45" width="6" height="1"/></g></svg>