<svg xmlns="http://www.w3.org/2000/svg" width="96" height="96" viewBox="0 0 96 96"><defs><style>.cls-1{fill:#d8d8d8;}.cls-2{fill:#ccc;}.cls-3{fill:#fff;}</style></defs><title>df</title><g id="sticky-bottom"><path class="cls-1" d="M93,3V79H3V3H93m1-1H2V80H94V2Z"/><rect x="2" y="78" width="92" height="16"/><rect x="5" y="50" width="86" height="26"/><rect class="cls-2" x="5" y="5" width="86" height="41"/><path class="cls-3" d="M22,61V62H21V61Zm0,1V63H21V62Zm0,1V64H21V63Zm0,1V65H21V64Zm0,1V66H21V65Zm0,1V67H21V66Zm1-6V61H22V60Zm0,4V65H22V64Zm1-4V61H23V60Zm0,4V65H23V64Zm1-4V61H24V60Zm0,4V65H24V64Zm1-3V62H25V61Zm0,1V63H25V62Zm0,1V64H25V63Zm0,1V65H25V64Zm0,1V66H25V65Zm0,1V67H25V66Z"/><path class="cls-3" d="M28,63V64H27V63Zm0,1V65H27V64Zm0,1V66H27V65Zm1-3V63H28V62Zm0,4V67H28V66Zm1-4V63H29V62Zm0,4V67H29V66Zm1-4V63H30V62Zm0,4V67H30V66Zm1-7V60H31V59Zm0,1V61H31V60Zm0,1V62H31V61Zm0,1V63H31V62Zm0,1V64H31V63Zm0,1V65H31V64Zm0,1V66H31V65Zm0,1V67H31V66Z"/><path class="cls-3" d="M34,63V64H33V63Zm0,1V65H33V64Zm0,1V66H33V65Zm1-3V63H34V62Zm0,4V67H34V66Zm1-4V63H35V62Zm0,4V67H35V66Zm1-4V63H36V62Zm0,4V67H36V66Zm1-7V60H37V59Zm0,1V61H37V60Zm0,1V62H37V61Zm0,1V63H37V62Zm0,1V64H37V63Zm0,1V65H37V64Zm0,1V66H37V65Zm0,1V67H37V66Z"/><path class="cls-3" d="M42,60V61H41V60Zm0,1V62H41V61Zm0,1V63H41V62Zm0,1V64H41V63Zm0,1V65H41V64Zm0,1V66H41V65Zm1-3V63H42V62Zm0,4V67H42V66Zm1-4V63H43V62Zm0,4V67H43V66Zm1-4V63H44V62Zm0,4V67H44V66Z"/><path class="cls-3" d="M47,63V64H46V63Zm0,1V65H46V64Zm0,1V66H46V65Zm1-3V63H47V62Zm0,4V67H47V66Zm1-4V63H48V62Zm0,4V67H48V66Zm1-4V63H49V62Zm0,4V67H49V66Zm1-3V64H50V63Zm0,1V65H50V64Zm0,1V66H50V65Z"/><path class="cls-3" d="M55,63V64H54V63Zm0,1V65H54V64Zm0,1V66H54V65Zm1-3V63H55V62Zm0,4V67H55V66Zm1-4V63H56V62Zm0,4V67H56V66Zm1-4V63H57V62Zm0,4V67H57V66Zm1-4V63H58V62Zm0,4V67H58V66Z"/><path class="cls-3" d="M61,65V66H60V65Zm1-3V63H61V62Zm0,2V65H61V64Zm0,2V67H61V66Zm1-4V63H62V62Zm0,2V65H62V64Zm0,2V67H62V66Zm1-4V63H63V62Zm0,2V65H63V64Zm0,2V67H63V66Zm1-3V64H64V63Zm0,1V65H64V64Zm0,1V66H64V65Zm0,1V67H64V66Z"/><path class="cls-3" d="M67,62V63H66V62Zm0,1V64H66V63Zm0,1V65H66V64Zm0,1V66H66V65Zm0,1V67H66V66Zm1-3V64H67V63Zm1-1V63H68V62Zm1,0V63H69V62Z"/><path class="cls-3" d="M71,60V61H70V60Zm0,1V62H70V61Zm0,1V63H70V62Zm0,1V64H70V63Zm0,1V65H70V64Zm0,1V66H70V65Zm1-3V63H71V62Zm0,4V67H71V66Zm1-4V63H72V62Zm0,4V67H72V66Zm1-4V63H73V62Zm0,4V67H73V66Z"/><path class="cls-3" d="M31,83V84H30V83Zm0,1V85H30V84Zm0,1V86H30V85Zm0,1V87H30V86Zm0,1V88H30V87Zm0,1V89H30V88Zm0,1V90H30V89Zm1-6V84H31V83Zm0,3V87H31V86Zm0,3V90H31V89Zm1-6V84H32V83Zm0,3V87H32V86Zm0,3V90H32V89Zm1-6V84H33V83Zm0,3V87H33V86Zm0,3V90H33V89Zm1-5V85H34V84Zm0,1V86H34V85Zm0,2V88H34V87Zm0,1V89H34V88Z"/><path class="cls-3" d="M37,86V87H36V86Zm0,1V88H36V87Zm0,1V89H36V88Zm1-3V86H37V85Zm0,4V90H37V89Zm1-4V86H38V85Zm0,4V90H38V89Zm1-4V86H39V85Zm0,4V90H39V89Zm1-3V87H40V86Zm0,1V88H40V87Zm0,1V89H40V88Z"/><path class="cls-3" d="M43,83V84H42V83Zm0,1V85H42V84Zm0,1V86H42V85Zm0,1V87H42V86Zm0,1V88H42V87Zm0,1V89H42V88Zm1-3V86H43V85Zm0,4V90H43V89Zm1-4V86H44V85Zm0,4V90H44V89Zm1-4V86H45V85Zm0,4V90H45V89Z"/><path class="cls-3" d="M48,83V84H47V83Zm0,1V85H47V84Zm0,1V86H47V85Zm0,1V87H47V86Zm0,1V88H47V87Zm0,1V89H47V88Zm1-3V86H48V85Zm0,4V90H48V89Zm1-4V86H49V85Zm0,4V90H49V89Zm1-4V86H50V85Zm0,4V90H50V89Z"/><path class="cls-3" d="M53,86V87H52V86Zm0,1V88H52V87Zm0,1V89H52V88Zm1-3V86H53V85Zm0,4V90H53V89Zm1-4V86H54V85Zm0,4V90H54V89Zm1-4V86H55V85Zm0,4V90H55V89Zm1-3V87H56V86Zm0,1V88H56V87Zm0,1V89H56V88Z"/><path class="cls-3" d="M59,85V86H58V85Zm0,1V87H58V86Zm0,1V88H58V87Zm0,1V89H58V88Zm0,1V90H58V89Zm1-4V86H59V85Zm1,0V86H60V85Zm1,0V86H61V85Zm0,1V87H61V86Zm0,1V88H61V87Zm0,1V89H61V88Zm0,1V90H61V89Zm1-4V86H62V85Zm1,0V86H63V85Zm1,1V87H64V86Zm0,1V88H64V87Zm0,1V89H64V88Zm0,1V90H64V89Z"/></g></svg>