<svg xmlns="http://www.w3.org/2000/svg" width="96" height="96" viewBox="0 0 96 96"><defs><style>.cls-1{fill:#d8d8d8;}.cls-2{fill:#fff;}.cls-3{fill:#ccc;}</style></defs><title>df</title><g id="sticky-top"><path class="cls-1" d="M93,3V79H3V3H93m1-1H2V80H94V2Z"/><rect x="2" y="78" width="92" height="16"/><path class="cls-2" d="M41,83V84H40V83Zm1,0V84H41V83Zm1,0V84H42V83Zm0,1V85H42V84Zm0,1V86H42V85Zm0,1V87H42V86Zm0,1V88H42V87Zm0,1V89H42V88Zm0,1V90H42V89Zm1-6V84H43V83Zm1,0V84H44V83Z"/><path class="cls-2" d="M46,86V87H45V86Zm0,1V88H45V87Zm0,1V89H45V88Zm1-3V86H46V85Zm0,4V90H46V89Zm1-4V86H47V85Zm0,4V90H47V89Zm1-4V86H48V85Zm0,4V90H48V89Zm1-3V87H49V86Zm0,1V88H49V87Zm0,1V89H49V88Z"/><path class="cls-2" d="M52,85V86H51V85Zm0,1V87H51V86Zm0,1V88H51V87Zm0,1V89H51V88Zm0,1V90H51V89Zm0,1V91H51V90Zm0,1V92H51V91Zm1-6V86H52V85Zm0,4V90H52V89Zm1-4V86H53V85Zm0,4V90H53V89Zm1-4V86H54V85Zm0,4V90H54V89Zm1-3V87H55V86Zm0,1V88H55V87Zm0,1V89H55V88Z"/><rect x="5" y="5" width="86" height="26"/><path class="cls-2" d="M22,16V17H21V16Zm0,1V18H21V17Zm0,1V19H21V18Zm0,1V20H21V19Zm0,1V21H21V20Zm0,1V22H21V21Zm1-6V16H22V15Zm0,4V20H22V19Zm1-4V16H23V15Zm0,4V20H23V19Zm1-4V16H24V15Zm0,4V20H24V19Zm1-3V17H25V16Zm0,1V18H25V17Zm0,1V19H25V18Zm0,1V20H25V19Zm0,1V21H25V20Zm0,1V22H25V21Z"/><path class="cls-2" d="M28,18V19H27V18Zm0,1V20H27V19Zm0,1V21H27V20Zm1-3V18H28V17Zm0,4V22H28V21Zm1-4V18H29V17Zm0,4V22H29V21Zm1-4V18H30V17Zm0,4V22H30V21Zm1-7V15H31V14Zm0,1V16H31V15Zm0,1V17H31V16Zm0,1V18H31V17Zm0,1V19H31V18Zm0,1V20H31V19Zm0,1V21H31V20Zm0,1V22H31V21Z"/><path class="cls-2" d="M34,18V19H33V18Zm0,1V20H33V19Zm0,1V21H33V20Zm1-3V18H34V17Zm0,4V22H34V21Zm1-4V18H35V17Zm0,4V22H35V21Zm1-4V18H36V17Zm0,4V22H36V21Zm1-7V15H37V14Zm0,1V16H37V15Zm0,1V17H37V16Zm0,1V18H37V17Zm0,1V19H37V18Zm0,1V20H37V19Zm0,1V21H37V20Zm0,1V22H37V21Z"/><path class="cls-2" d="M42,15V16H41V15Zm0,1V17H41V16Zm0,1V18H41V17Zm0,1V19H41V18Zm0,1V20H41V19Zm0,1V21H41V20Zm1-3V18H42V17Zm0,4V22H42V21Zm1-4V18H43V17Zm0,4V22H43V21Zm1-4V18H44V17Zm0,4V22H44V21Z"/><path class="cls-2" d="M47,18V19H46V18Zm0,1V20H46V19Zm0,1V21H46V20Zm1-3V18H47V17Zm0,4V22H47V21Zm1-4V18H48V17Zm0,4V22H48V21Zm1-4V18H49V17Zm0,4V22H49V21Zm1-3V19H50V18Zm0,1V20H50V19Zm0,1V21H50V20Z"/><path class="cls-2" d="M55,18V19H54V18Zm0,1V20H54V19Zm0,1V21H54V20Zm1-3V18H55V17Zm0,4V22H55V21Zm1-4V18H56V17Zm0,4V22H56V21Zm1-4V18H57V17Zm0,4V22H57V21Zm1-4V18H58V17Zm0,4V22H58V21Z"/><path class="cls-2" d="M61,20V21H60V20Zm1-3V18H61V17Zm0,2V20H61V19Zm0,2V22H61V21Zm1-4V18H62V17Zm0,2V20H62V19Zm0,2V22H62V21Zm1-4V18H63V17Zm0,2V20H63V19Zm0,2V22H63V21Zm1-3V19H64V18Zm0,1V20H64V19Zm0,1V21H64V20Zm0,1V22H64V21Z"/><path class="cls-2" d="M67,17V18H66V17Zm0,1V19H66V18Zm0,1V20H66V19Zm0,1V21H66V20Zm0,1V22H66V21Zm1-3V19H67V18Zm1-1V18H68V17Zm1,0V18H69V17Z"/><path class="cls-2" d="M71,15V16H70V15Zm0,1V17H70V16Zm0,1V18H70V17Zm0,1V19H70V18Zm0,1V20H70V19Zm0,1V21H70V20Zm1-3V18H71V17Zm0,4V22H71V21Zm1-4V18H72V17Zm0,4V22H72V21Zm1-4V18H73V17Zm0,4V22H73V21Z"/><rect class="cls-3" x="5" y="35" width="86" height="41"/></g></svg>