<svg xmlns="http://www.w3.org/2000/svg" width="96" height="96" viewBox="0 0 96 96"><defs><style>.cls-1{fill:#d8d8d8;}.cls-2{fill:#ccc;}.cls-3{fill:#fff;}</style></defs><title>df</title><g id="single-shop-sidebar-left"><path class="cls-1" d="M93,3V79H3V3H93m1-1H2V80H94V2Z"/><rect x="2" y="78" width="92" height="16"/><rect class="cls-2" x="28" y="6" width="35" height="48"/><rect x="6" y="6" width="19" height="48"/><rect class="cls-2" x="28" y="55" width="8" height="10"/><rect class="cls-2" x="37" y="55" width="8" height="10"/><rect class="cls-2" x="46" y="55" width="8" height="10"/><rect class="cls-2" x="55" y="55" width="8" height="10"/><rect class="cls-2" x="67" y="34" width="23" height="1"/><rect class="cls-2" x="67" y="37" width="9" height="1"/><rect class="cls-2" x="67" y="31" width="23" height="1"/><rect class="cls-2" x="67" y="28" width="23" height="1"/><rect class="cls-2" x="67" y="25" width="23" height="1"/><rect class="cls-2" x="67" y="22" width="23" height="1"/><rect class="cls-2" x="6" y="73" width="84" height="1"/><rect class="cls-2" x="6" y="70" width="84" height="1"/><rect class="cls-2" x="67" y="17" width="15" height="1"/><rect class="cls-2" x="67" y="12" width="16" height="3"/><rect class="cls-2" x="67" y="45" width="6" height="1"/><path class="cls-3" d="M42,84V85H41V84Zm0,1V86H41V85Zm0,4V90H41V89Zm1-6V84H42V83Zm0,3V87H42V86Zm0,3V90H42V89Zm1-6V84H43V83Zm0,3V87H43V86Zm0,3V90H43V89Zm1-6V84H44V83Zm0,3V87H44V86Zm0,3V90H44V89Zm1-6V84H45V83Zm0,4V88H45V87Zm0,1V89H45V88Z"/><path class="cls-3" d="M48,82V83H47V82Zm0,3V86H47V85Zm0,1V87H47V86Zm0,1V88H47V87Zm0,1V89H47V88Zm0,1V90H47V89Z"/><path class="cls-3" d="M50,86V87H49V86Zm0,1V88H49V87Zm0,1V89H49V88Zm1-3V86H50V85Zm0,4V90H50V89Zm1-4V86H51V85Zm0,4V90H51V89Zm1-4V86H52V85Zm0,4V90H52V89Zm1-7V83H53V82Zm0,1V84H53V83Zm0,1V85H53V84Zm0,1V86H53V85Zm0,1V87H53V86Zm0,1V88H53V87Zm0,1V89H53V88Zm0,1V90H53V89Z"/><path class="cls-3" d="M56,86V87H55V86Zm0,1V88H55V87Zm0,1V89H55V88Zm1-3V86H56V85Zm0,2V88H56V87Zm0,2V90H56V89Zm1-4V86H57V85Zm0,2V88H57V87Zm0,2V90H57V89Zm1-4V86H58V85Zm0,2V88H58V87Zm0,2V90H58V89Zm1-3V87H59V86Zm0,1V88H59V87Zm0,2V90H59V89Z"/><path class="cls-3" d="M62,82V83H61V82Zm0,1V84H61V83Zm0,1V85H61V84Zm0,1V86H61V85Zm0,1V87H61V86Zm0,1V88H61V87Zm0,1V89H61V88Zm0,1V90H61V89Zm1-4V86H62V85Zm0,4V90H62V89Zm1-4V86H63V85Zm0,4V90H63V89Zm1-4V86H64V85Zm0,4V90H64V89Zm1-3V87H65V86Zm0,1V88H65V87Zm0,1V89H65V88Z"/><path class="cls-3" d="M68,88V89H67V88Zm1-3V86H68V85Zm0,2V88H68V87Zm0,2V90H68V89Zm1-4V86H69V85Zm0,2V88H69V87Zm0,2V90H69V89Zm1-4V86H70V85Zm0,2V88H70V87Zm0,2V90H70V89Zm1-3V87H71V86Zm0,1V88H71V87Zm0,1V89H71V88Zm0,1V90H71V89Z"/><path class="cls-3" d="M74,85V86H73V85Zm0,1V87H73V86Zm0,1V88H73V87Zm0,1V89H73V88Zm0,1V90H73V89Zm1-3V87H74V86Zm1-1V86H75V85Zm1,0V86H76V85Z"/><path class="cls-3" d="M21,83V84h-.92V83Zm0,1V85h-.92V84Zm0,1V86h-.92V85Zm0,1V87h-.92V86Zm0,1V88h-.92V87Zm0,1V89h-.92V88Zm0,1V90h-.92V89Zm1,0V90h-.92V89Zm1,0V90h-.92V89Zm1,0V90h-.92V89Zm1,0V90h-.92V89Z"/><path class="cls-3" d="M26,86V87h-.92V86Zm0,1V88h-.92V87Zm0,1V89h-.92V88Zm1-3V86h-.92V85Zm0,2V88h-.92V87Zm0,2V90h-.92V89Zm1-4V86h-.92V85Zm0,2V88h-.92V87Zm0,2V90h-.92V89Zm1-4V86h-.92V85Zm0,2V88h-.92V87Zm0,2V90h-.92V89Zm1-3V87h-.92V86Zm0,1V88h-.92V87Zm0,2V90h-.92V89Z"/><path class="cls-3" d="M31,85V86h-.92V85Zm1,0V86h-.92V85Zm1-2V84h-.92V83Zm0,1V85h-.92V84Zm0,1V86h-.92V85Zm0,1V87h-.92V86Zm0,1V88h-.92V87Zm0,1V89h-.92V88Zm0,1V90h-.92V89Zm1-7V83h-.92V82Zm0,3V86h-.92V85Zm1-3V83h-.92V82Zm0,3V86h-.92V85Zm1-3V83h-.92V82Z"/><path class="cls-3" d="M36,83V84h-.92V83Zm0,1V85h-.92V84Zm0,1V86h-.92V85Zm0,1V87h-.92V86Zm0,1V88h-.92V87Zm0,1V89h-.92V88Zm1-3V86h-.92V85Zm0,4V90h-.92V89Zm1-4V86h-.92V85Zm0,4V90h-.92V89Zm1-4V86h-.92V85Zm0,4V90h-.92V89Z"/></g></svg>