<svg xmlns="http://www.w3.org/2000/svg" width="96" height="96" viewBox="0 0 96 96"><defs><style>.cls-1{fill:#d8d8d8;}.cls-2{fill:#ccc;}.cls-3{fill:#fff;}</style></defs><title>df</title><g id="single-shop-sidebar-right-full"><path class="cls-1" d="M93,3V79H3V3H93m1-1H2V80H94V2Z"/><rect x="2" y="78" width="92" height="16"/><rect x="71" y="6" width="19" height="68"/><rect class="cls-2" x="6" y="73" width="62" height="1"/><rect class="cls-2" x="6" y="70" width="62" height="1"/><rect class="cls-2" x="6" y="6" width="35" height="48"/><rect class="cls-2" x="6" y="55" width="8" height="10"/><rect class="cls-2" x="15" y="55" width="8" height="10"/><rect class="cls-2" x="24" y="55" width="8" height="10"/><rect class="cls-2" x="33" y="55" width="8" height="10"/><rect class="cls-2" x="45" y="34" width="23" height="1"/><rect class="cls-2" x="45" y="37" width="9" height="1"/><rect class="cls-2" x="45" y="31" width="23" height="1"/><rect class="cls-2" x="45" y="28" width="23" height="1"/><rect class="cls-2" x="45" y="25" width="23" height="1"/><rect class="cls-2" x="45" y="22" width="23" height="1"/><rect class="cls-2" x="45" y="17" width="15" height="1"/><rect class="cls-2" x="45" y="12" width="16" height="3"/><rect class="cls-2" x="45" y="45" width="6" height="1"/><path class="cls-3" d="M27,83v.92H26V83Zm0,1v.92H26V84Zm0,1v.92H26V85Zm0,1v.92H26V86Zm0,1v.92H26V87Zm0,1v.92H26V88Zm0,1v.92H26V89Zm1-6v.92H27V83Zm0,3v.92H27V86Zm1-3v.92H28V83Zm0,3v.92H28V86Zm1-3v.92H29V83Zm0,3v.92H29V86Zm1-3v.92H30V83Z"/><path class="cls-3" d="M32,85v.92H31V85Zm0,1v.92H31V86Zm0,1v.92H31V87Zm0,1v.92H31V88Zm1,1v.92H32V89Zm1,0v.92H33V89Zm1,0v.92H34V89Zm1-4v.92H35V85Zm0,1v.92H35V86Zm0,1v.92H35V87Zm0,1v.92H35V88Zm0,1v.92H35V89Z"/><path class="cls-3" d="M38,82v.92H37V82Zm0,1v.92H37V83Zm0,1v.92H37V84Zm0,1v.92H37V85Zm0,1v.92H37V86Zm0,1v.92H37V87Zm0,1v.92H37V88Zm1,1v.92H38V89Zm1,0v.92H39V89Z"/><path class="cls-3" d="M41,82v.92H40V82Zm0,1v.92H40V83Zm0,1v.92H40V84Zm0,1v.92H40V85Zm0,1v.92H40V86Zm0,1v.92H40V87Zm0,1v.92H40V88Zm1,1v.92H41V89Zm1,0v.92H42V89Z"/><path class="cls-3" d="M46,83v.92H45V83Zm0,1v.92H45V84Zm0,1v.92H45V85Zm0,1v.92H45V86Zm0,1v.92H45V87Zm0,1v.92H45V88Zm0,1v.92H45V89Zm1-6v.92H46V83Zm0,3v.92H46V86Zm1-3v.92H47V83Zm0,3v.92H47V86Zm0,1v.92H47V87Zm1-4v.92H48V83Zm0,3v.92H48V86Zm0,2v.92H48V88Zm1-4v.92H49V84Zm0,1v.92H49V85Zm0,4v.92H49V89Z"/><path class="cls-3" d="M52,82v.92H51V82Zm0,3v.92H51V85Zm0,1v.92H51V86Zm0,1v.92H51V87Zm0,1v.92H51V88Zm0,1v.92H51V89Z"/><path class="cls-3" d="M54,86v.92H53V86Zm0,1v.92H53V87Zm0,1v.92H53V88Zm0,3v.92H53V91Zm1-6v.92H54V85Zm0,4v.92H54V89Zm0,2v.92H54V91Zm1-6v.92H55V85Zm0,4v.92H55V89Zm0,2v.92H55V91Zm1-6v.92H56V85Zm0,4v.92H56V89Zm0,2v.92H56V91Zm1-6v.92H57V85Zm0,1v.92H57V86Zm0,1v.92H57V87Zm0,1v.92H57V88Zm0,1v.92H57V89Zm0,1v.92H57V90Z"/><path class="cls-3" d="M60,82v.92H59V82Zm0,1v.92H59V83Zm0,1v.92H59V84Zm0,1v.92H59V85Zm0,1v.92H59V86Zm0,1v.92H59V87Zm0,1v.92H59V88Zm0,1v.92H59V89Zm1-4v.92H60V85Zm1,0v.92H61V85Zm1,0v.92H62V85Zm1,1v.92H63V86Zm0,1v.92H63V87Zm0,1v.92H63V88Zm0,1v.92H63V89Z"/><path class="cls-3" d="M66,83v.92H65V83Zm0,1v.92H65V84Zm0,1v.92H65V85Zm0,1v.92H65V86Zm0,1v.92H65V87Zm0,1v.92H65V88Zm1-3v.92H66V85Zm0,4v.92H66V89Zm1-4v.92H67V85Zm0,4v.92H67V89Zm1-4v.92H68V85Zm0,4v.92H68V89Z"/></g></svg>