<svg xmlns="http://www.w3.org/2000/svg" width="146" height="96" viewBox="0 0 146 96"><defs><style>.cls-1{fill:#d8d8d8;}.cls-2{fill:#fff;}.cls-3{fill:#09090a;opacity:0.9;}</style></defs><title>df</title><g id="shop-sidebar-left"><path class="cls-1" d="M143,3V79H3V3H143m1-1H2V80H144V2Z"/><rect x="2" y="78" width="142" height="16"/><path class="cls-2" d="M45,83v.92H44V83Zm0,1v.92H44V84Zm0,1v.92H44V85Zm0,1v.92H44V86Zm0,1v.92H44V87Zm0,1v.92H44V88Zm0,1v.92H44V89Zm1,0v.92H45V89Zm1,0v.92H46V89Zm1,0v.92H47V89Zm1,0v.92H48V89Z"/><path class="cls-2" d="M50,86v.92H49V86Zm0,1v.92H49V87Zm0,1v.92H49V88Zm1-3v.92H50V85Zm0,2v.92H50V87Zm0,2v.92H50V89Zm1-4v.92H51V85Zm0,2v.92H51V87Zm0,2v.92H51V89Zm1-4v.92H52V85Zm0,2v.92H52V87Zm0,2v.92H52V89Zm1-3v.92H53V86Zm0,1v.92H53V87Zm0,2v.92H53V89Z"/><path class="cls-2" d="M55,85v.92H54V85Zm1,0v.92H55V85Zm1-2v.92H56V83Zm0,1v.92H56V84Zm0,1v.92H56V85Zm0,1v.92H56V86Zm0,1v.92H56V87Zm0,1v.92H56V88Zm0,1v.92H56V89Zm1-7v.92H57V82Zm0,3v.92H57V85Zm1-3v.92H58V82Zm0,3v.92H58V85Zm1-3v.92H59V82Z"/><path class="cls-2" d="M60,83v.92H59V83Zm0,1v.92H59V84Zm0,1v.92H59V85Zm0,1v.92H59V86Zm0,1v.92H59V87Zm0,1v.92H59V88Zm1-3v.92H60V85Zm0,4v.92H60V89Zm1-4v.92H61V85Zm0,4v.92H61V89Zm1-4v.92H62V85Zm0,4v.92H62V89Z"/><path class="cls-2" d="M67,84v.92H66V84Zm0,1v.92H66V85Zm0,4v.92H66V89Zm1-6v.92H67V83Zm0,3v.92H67V86Zm0,3v.92H67V89Zm1-6v.92H68V83Zm0,3v.92H68V86Zm0,3v.92H68V89Zm1-6v.92H69V83Zm0,3v.92H69V86Zm0,3v.92H69V89Zm1-6v.92H70V83Zm0,4v.92H70V87Zm0,1v.92H70V88Z"/><path class="cls-2" d="M73,82v.92H72V82Zm0,3v.92H72V85Zm0,1v.92H72V86Zm0,1v.92H72V87Zm0,1v.92H72V88Zm0,1v.92H72V89Z"/><path class="cls-2" d="M75,86v.92H74V86Zm0,1v.92H74V87Zm0,1v.92H74V88Zm1-3v.92H75V85Zm0,4v.92H75V89Zm1-4v.92H76V85Zm0,4v.92H76V89Zm1-4v.92H77V85Zm0,4v.92H77V89Zm1-7v.92H78V82Zm0,1v.92H78V83Zm0,1v.92H78V84Zm0,1v.92H78V85Zm0,1v.92H78V86Zm0,1v.92H78V87Zm0,1v.92H78V88Zm0,1v.92H78V89Z"/><path class="cls-2" d="M81,86v.92H80V86Zm0,1v.92H80V87Zm0,1v.92H80V88Zm1-3v.92H81V85Zm0,2v.92H81V87Zm0,2v.92H81V89Zm1-4v.92H82V85Zm0,2v.92H82V87Zm0,2v.92H82V89Zm1-4v.92H83V85Zm0,2v.92H83V87Zm0,2v.92H83V89Zm1-3v.92H84V86Zm0,1v.92H84V87Zm0,2v.92H84V89Z"/><path class="cls-2" d="M87,82v.92H86V82Zm0,1v.92H86V83Zm0,1v.92H86V84Zm0,1v.92H86V85Zm0,1v.92H86V86Zm0,1v.92H86V87Zm0,1v.92H86V88Zm0,1v.92H86V89Zm1-4v.92H87V85Zm0,4v.92H87V89Zm1-4v.92H88V85Zm0,4v.92H88V89Zm1-4v.92H89V85Zm0,4v.92H89V89Zm1-3v.92H90V86Zm0,1v.92H90V87Zm0,1v.92H90V88Z"/><path class="cls-2" d="M93,88v.92H92V88Zm1-3v.92H93V85Zm0,2v.92H93V87Zm0,2v.92H93V89Zm1-4v.92H94V85Zm0,2v.92H94V87Zm0,2v.92H94V89Zm1-4v.92H95V85Zm0,2v.92H95V87Zm0,2v.92H95V89Zm1-3v.92H96V86Zm0,1v.92H96V87Zm0,1v.92H96V88Zm0,1v.92H96V89Z"/><path class="cls-2" d="M99,85v.92H98V85Zm0,1v.92H98V86Zm0,1v.92H98V87Zm0,1v.92H98V88Zm0,1v.92H98V89Zm1-3v.92H99V86Zm1-1v.92H100V85Zm1,0v.92H101V85Z"/><rect class="cls-3" x="5" y="5" width="25" height="71"/><rect class="cls-2" x="32" y="5" width="109" height="71"/></g></svg>