<svg xmlns="http://www.w3.org/2000/svg" width="96" height="96" viewBox="0 0 96 96"><defs><style>.cls-1{fill:#d8d8d8;}.cls-2{fill:#ccc;}.cls-3{fill:#fff;}</style></defs><title>df</title><g id="single-shop-sidebar-left-full"><path class="cls-1" d="M93,3V79H3V3H93m1-1H2V80H94V2Z"/><rect x="2" y="78" width="92" height="16"/><rect x="6" y="6" width="19" height="68"/><rect class="cls-2" x="28" y="73" width="62" height="1"/><rect class="cls-2" x="28" y="70" width="62" height="1"/><rect class="cls-2" x="28" y="6" width="35" height="48"/><rect class="cls-2" x="28" y="55" width="8" height="10"/><rect class="cls-2" x="37" y="55" width="8" height="10"/><rect class="cls-2" x="46" y="55" width="8" height="10"/><rect class="cls-2" x="55" y="55" width="8" height="10"/><rect class="cls-2" x="67" y="34" width="23" height="1"/><rect class="cls-2" x="67" y="37" width="9" height="1"/><rect class="cls-2" x="67" y="31" width="23" height="1"/><rect class="cls-2" x="67" y="28" width="23" height="1"/><rect class="cls-2" x="67" y="25" width="23" height="1"/><rect class="cls-2" x="67" y="22" width="23" height="1"/><rect class="cls-2" x="67" y="17" width="15" height="1"/><rect class="cls-2" x="67" y="12" width="16" height="3"/><rect class="cls-2" x="67" y="45" width="6" height="1"/><path class="cls-3" d="M30,83v.92H29V83Zm0,1v.92H29V84Zm0,1v.92H29V85Zm0,1v.92H29V86Zm0,1v.92H29V87Zm0,1v.92H29V88Zm0,1v.92H29V89Zm1-6v.92H30V83Zm0,3v.92H30V86Zm1-3v.92H31V83Zm0,3v.92H31V86Zm1-3v.92H32V83Zm0,3v.92H32V86Zm1-3v.92H33V83Z"/><path class="cls-3" d="M35,85v.92H34V85Zm0,1v.92H34V86Zm0,1v.92H34V87Zm0,1v.92H34V88Zm1,1v.92H35V89Zm1,0v.92H36V89Zm1,0v.92H37V89Zm1-4v.92H38V85Zm0,1v.92H38V86Zm0,1v.92H38V87Zm0,1v.92H38V88Zm0,1v.92H38V89Z"/><path class="cls-3" d="M41,82v.92H40V82Zm0,1v.92H40V83Zm0,1v.92H40V84Zm0,1v.92H40V85Zm0,1v.92H40V86Zm0,1v.92H40V87Zm0,1v.92H40V88Zm1,1v.92H41V89Zm1,0v.92H42V89Z"/><path class="cls-3" d="M44,82v.92H43V82Zm0,1v.92H43V83Zm0,1v.92H43V84Zm0,1v.92H43V85Zm0,1v.92H43V86Zm0,1v.92H43V87Zm0,1v.92H43V88Zm1,1v.92H44V89Zm1,0v.92H45V89Z"/><path class="cls-3" d="M49,83v.92H48V83Zm0,1v.92H48V84Zm0,1v.92H48V85Zm0,1v.92H48V86Zm0,1v.92H48V87Zm0,1v.92H48V88Zm0,1v.92H48V89Zm1,0v.92H49V89Zm1,0v.92H50V89Zm1,0v.92H51V89Zm1,0v.92H52V89Z"/><path class="cls-3" d="M54,86v.92H53V86Zm0,1v.92H53V87Zm0,1v.92H53V88Zm1-3v.92H54V85Zm0,2v.92H54V87Zm0,2v.92H54V89Zm1-4v.92H55V85Zm0,2v.92H55V87Zm0,2v.92H55V89Zm1-4v.92H56V85Zm0,2v.92H56V87Zm0,2v.92H56V89Zm1-3v.92H57V86Zm0,1v.92H57V87Zm0,2v.92H57V89Z"/><path class="cls-3" d="M59,85v.92H58V85Zm1,0v.92H59V85Zm1-2v.92H60V83Zm0,1v.92H60V84Zm0,1v.92H60V85Zm0,1v.92H60V86Zm0,1v.92H60V87Zm0,1v.92H60V88Zm0,1v.92H60V89Zm1-7v.92H61V82Zm0,3v.92H61V85Zm1-3v.92H62V82Zm0,3v.92H62V85Zm1-3v.92H63V82Z"/><path class="cls-3" d="M64,83v.92H63V83Zm0,1v.92H63V84Zm0,1v.92H63V85Zm0,1v.92H63V86Zm0,1v.92H63V87Zm0,1v.92H63V88Zm1-3v.92H64V85Zm0,4v.92H64V89Zm1-4v.92H65V85Zm0,4v.92H65V89Zm1-4v.92H66V85Zm0,4v.92H66V89Z"/></g></svg>