<svg xmlns="http://www.w3.org/2000/svg" width="21" height="30" viewBox="0 0 21 30"><path fill-rule="evenodd" d="M2.4 11.3l-.1.1V6.5C2.5 2.7 5.5 0 9.6 0h.2c2.3 0 5 0 7.1 2.1 2.3 2.2 2 5.8 1.9 8.8v.6c-.8-.8-1.6-1.4-2.5-2V6.8l-.1-.1a3.2 3.2 0 0 0 0-.3L16 6v-.2l-.1-.3v-.2h-.1V5a4.3 4.3 0 0 0-.3-.5 1.7 1.7 0 0 0-.2-.3.7.7 0 0 0-.1-.1l-.2-.2c-1.4-1.4-2.7-1.4-5.3-1.4h-.2C6.9 2.5 5 4 4.9 6.5v3.1l-.6.3-.1.1-1 .6-.1.2H3l-.6.5zM10.5 30A10.5 10.5 0 0 1 0 19.9a9 9 0 0 1 2.5-6.4 11.4 11.4 0 0 1 8.3-3.7c1.3 0 2.6.3 3.9.8A10.5 10.5 0 0 1 21 20c.1 5.3-4.7 10-10.5 10.1zm0-12.3c-.9 0-1.6.7-1.6 1.6 0 .5.3 1 .8 1.3v1.9h1.6v-1.9c.5-.2.9-.8.9-1.3 0-1-.8-1.6-1.7-1.6z"/></svg>