<svg xmlns="http://www.w3.org/2000/svg" width="14" height="50" viewBox="0 0 14 50"><path fill-rule="evenodd" d="M7 33.3a5.4 5.4 0 0 1-5.4-5L0 5.8A5.1 5.1 0 0 1 1.1 2c.2-.2.5-.3.8-.1.2.2.3.5.1.8a4.1 4.1 0 0 0-.9 2.8l1.6 22.7a4.3 4.3 0 0 0 5 3.9c.3 0 .6.1.7.4 0 .3-.2.6-.5.7H7zm4.7-3.6h-.1a.6.6 0 0 1-.4-.7v-.7L13 5.6v-.3c0-2.3-2-4.2-4.3-4.2h-2A.6.6 0 0 1 6 .6c0-.4.3-.6.6-.6h2A5.4 5.4 0 0 1 14 5.7l-1.6 22.7-.1.9c-.1.2-.3.4-.6.4zM7 50a6.2 6.2 0 0 1-6.2-6.1A6.2 6.2 0 1 1 13 42.2c0 .3-.1.6-.4.7-.3 0-.6-.1-.7-.4a5.1 5.1 0 0 0-10 1.4 5 5 0 0 0 5.1 5 5 5 0 0 0 5-5c0-.3.3-.6.7-.6.3 0 .5.3.5.6 0 3.4-2.8 6.1-6.2 6.1z"/></svg>