<svg xmlns="http://www.w3.org/2000/svg" width="36" height="37" viewBox="0 0 36 37"><path fill="#0073AA" d="M33.5.3l-14.9 4-.8.1H17L2.5.3C2 0 1.3.1.8.5S0 1.6 0 2.2v27.4c0 .5.2 1 .6 1.5.3.5.8.8 1.3 1l14.5 4a6.5 6.5 0 0 0 1.4.2h.3a8.5 8.5 0 0 0 1.1-.2l14.9-4c.5-.2 1-.5 1.3-1 .4-.4.6-1 .6-1.5V2.2a2 2 0 0 0-.8-1.6c-.5-.4-1-.5-1.7-.3zM16.9 34L2.5 30l-.2-.1V2.6l14.1 4h.5v27.3zm16.9-4.3l-.2.2-.1.1L19 33.8V6.5h.1l14.6-4v27zM22.6 13h.3l7.9-2.2c.2-.1.5-.3.6-.6.2-.2.2-.5.1-.8 0-.3-.2-.5-.5-.7-.3-.1-.6-.2-.9-.1l-7.8 2.2-.7.5c-.1.3-.2.6-.1 1 0 .2.2.4.4.5l.7.2zm0 6.8h.3l7.9-2.3c.2 0 .5-.3.6-.5.2-.3.2-.6.1-.9 0-.3-.2-.5-.5-.6-.3-.2-.6-.2-.9-.2l-7.8 2.3c-.3 0-.5.2-.7.5-.1.3-.2.6-.1.9 0 .2.2.4.4.6l.7.2zm0 6.7h.3l7.9-2.2c.2-.1.5-.3.6-.6.2-.2.2-.5.1-.8 0-.3-.2-.5-.5-.7-.3-.1-.6-.2-.9-.1l-7.8 2.2-.7.5c-.1.3-.2.6-.1 1 0 .2.2.4.4.5l.7.2zM13.9 11L6 8.7l-.8.1c-.3.2-.5.4-.6.7l.1.8c.2.3.4.5.7.6l7.9 2.2h.3c.2 0 .4 0 .6-.2.2-.1.4-.3.5-.6 0-.3 0-.6-.2-.9a1 1 0 0 0-.6-.5zm0 6.8L6 15.4c-.3 0-.6 0-.8.2-.3.1-.5.3-.6.6l.1.9.7.5 7.9 2.2h.3l.6-.1.5-.6c0-.3 0-.6-.2-.9-.1-.3-.3-.5-.6-.5zm0 6.7c.3.1.5.3.6.5.2.3.2.6.2 1l-.5.5-.6.2h-.3l-8-2.2-.6-.6a1 1 0 0 1 0-.8c0-.3.2-.5.5-.7.2-.1.5-.2.8-.1l7.9 2.2z"/></svg>