<svg xmlns="http://www.w3.org/2000/svg" width="36" height="26" viewBox="0 0 36 26"><path fill="#0073AA" d="M22.4.8c.7 0 1.2.3 1.7.7.4.5.6 1 .6 1.7v4.5l9.1-5.4.5-.3h1l.5.5.2.7v20.2c0 .2 0 .4-.2.6l-.5.4h-.2l-.3.1a5 5 0 0 1-.4 0c-.1 0-.3 0-.4-.2l-9.3-5.4v4.4c0 .7-.2 1.2-.6 1.7-.5.4-1 .7-1.7.7h-20c-.7 0-1.3-.3-1.7-.7-.5-.5-.7-1-.7-1.7V3.2c0-.7.2-1.2.7-1.7.4-.4 1-.7 1.6-.7h20.1zm0 2.3H2.3v20.3h20.1l.1-.1v-4.4a2.2 2.2 0 0 1 1.2-2l.5-.2a2.6 2.6 0 0 1 1.2 0l.7.3 7.6 4.3V5.2l-7.6 4.3-.6.3a2.9 2.9 0 0 1-1.3 0l-.5-.1c-.4-.2-.6-.5-.9-.9a2 2 0 0 1-.3-1.1V3z"/></svg>