<svg xmlns="http://www.w3.org/2000/svg" width="32" height="37" viewBox="0 0 32 37"><path fill="#0073AA" d="M15.5 31.9l-3.3-5.1a.8.8 0 0 0-1-.3l-.4.2c-.2 0-.3.2-.3.4 0 .3 0 .5.2.7l2 3.2-.5-.1a12.4 12.4 0 0 1-4.9-2.5 13.7 13.7 0 0 1-3.5-4.2A13.5 13.5 0 0 1 3 14c.5-1.7 1.3-3.2 2.5-4.5C6.7 8.2 8 7.1 9.6 6.3c.3-.2.4-.4.5-.7.1-.3.1-.5 0-.8a1 1 0 0 0-.7-.5 1 1 0 0 0-.8 0 14.8 14.8 0 0 0-4.8 3.8 15 15 0 0 0-3.6 8.3 17.2 17.2 0 0 0 .5 6A16 16 0 0 0 6 30a16.4 16.4 0 0 0 5.8 3h.1L9 34.4c-.2 0-.3.2-.4.4v.6l.2.3.4.4h.6l5.3-2.8.3-.1.2-.3.2-.2v-.3l-.1-.3-.2-.3zM30 11.5a16 16 0 0 1 1.7 8.8 14.9 14.9 0 0 1-1.9 5.8 15.2 15.2 0 0 1-6.6 6.4H23a1 1 0 0 1-.5-.2 1 1 0 0 1-.5-.4 1 1 0 0 1 0-.9c0-.2.2-.4.5-.6a13.3 13.3 0 0 0 5.7-17.9c-.9-1.6-2-3-3.4-4.2a12.5 12.5 0 0 0-6.3-2.8l2.1 3.3c.1.1.2.4.1.6 0 .2 0 .4-.3.5l-.3.2h-.5a.8.8 0 0 1-.5-.3l-3.3-5-.2-.4-.1-.3v-.3l.1-.3.3-.2.3-.2L21.5.4h.6c.2 0 .4.1.5.3l.1.3v.6c0 .2-.2.4-.4.5l-2.8 1.4a5.7 5.7 0 0 1 1 .2l3 1.1a15.2 15.2 0 0 1 6.6 6.7z"/></svg>