<svg xmlns="http://www.w3.org/2000/svg" width="36" height="32" viewBox="0 0 36 32"><path fill="#0073AA" d="M26.8 7.4c-.4-1-.9-2-1.5-2.8a9 9 0 0 0-2.2-2.2A10.3 10.3 0 0 0 16.8.6a11.4 11.4 0 0 0-8 3.2 12.5 12.5 0 0 0-3.4 7.9 7.3 7.3 0 0 0-3.9 2.9 8.4 8.4 0 0 0-.9 8 9 9 0 0 0 1.7 2.6 7.6 7.6 0 0 0 5.3 2.4h1c.3 0 .6 0 .8-.3.2-.2.3-.5.3-.8a1.1 1.1 0 0 0-1.1-1.1h-1a5 5 0 0 1-3.8-1.8 6 6 0 0 1-1.6-4.1 6 6 0 0 1 1.3-3.8 5 5 0 0 1 3.2-2l1-.2v-1h-.1a10.6 10.6 0 0 1 2.5-7A8.8 8.8 0 0 1 16.8 3c2.2 0 4 .5 5.3 1.5 1.3 1 2.2 2.5 2.8 4.4l.3.8h.8c1 0 2 .2 3 .6 1 .4 1.7 1 2.5 1.7a7.7 7.7 0 0 1 2.3 5.4 9.5 9.5 0 0 1-1.7 5.5c-.6.8-1.3 1.4-2 1.9a5 5 0 0 1-2.7.7h-.3a1 1 0 0 0-.8.3 1 1 0 0 0-.3.8c0 .3 0 .6.3.8.2.2.5.3.8.3a8 8 0 0 0 3.8-1c1-.6 2-1.4 2.8-2.4a11.7 11.7 0 0 0 2.3-7 9.8 9.8 0 0 0-5.6-8.8c-1.1-.5-2.3-.9-3.6-1zm-4 18.1l.2.2c.2.2.2.4.2.6 0 .2 0 .3-.2.5l-4.2 4.5-.2.3-.3.2a.9.9 0 0 1-.6 0 .5.5 0 0 1-.3-.2l-.3-.2-4-4.5a.8.8 0 0 1-.3-.6c0-.3 0-.5.2-.6l.3-.2c.2-.2.4-.2.6-.2l.6.3 2.4 2.6V17a1.1 1.1 0 0 1 1.1-1.1 1 1 0 0 1 1.1 1.1v11.3l2.5-2.7c.2-.2.3-.3.6-.3.2 0 .4.1.5.3z"/></svg>