<svg xmlns="http://www.w3.org/2000/svg" width="36" height="23" viewBox="0 0 36 23"><path fill="#0073AA" d="M3.4 9H1a1 1 0 0 0-.8.3 1 1 0 0 0-.3.8v2.3c0 .3.1.5.3.8.3.2.5.3.8.3h2.3c.3 0 .5-.1.8-.3.2-.3.3-.5.3-.8V10a1 1 0 0 0-.3-.8 1 1 0 0 0-.8-.3zm31.5 1.1H11.3a1 1 0 0 0-.8.4 1 1 0 0 0-.4.8c0 .3.1.5.4.7.2.3.4.4.8.4h23.6c.3 0 .5-.1.8-.4.2-.2.3-.4.3-.8a1 1 0 0 0-.3-.7 1 1 0 0 0-.8-.4zM3.4 18H1a1 1 0 0 0-.8.3 1 1 0 0 0-.3.8v2.3c0 .3.1.5.3.8.3.2.5.3.8.3h2.3c.3 0 .5-.1.8-.3.2-.3.3-.5.3-.8V19a1 1 0 0 0-.3-.8 1 1 0 0 0-.8-.3zm31.5 1.1H11.3a1 1 0 0 0-.8.4 1 1 0 0 0-.4.8c0 .3.1.5.4.7.2.3.4.4.8.4h23.6c.3 0 .5-.1.8-.4.2-.2.3-.4.3-.8a1 1 0 0 0-.3-.7 1 1 0 0 0-.8-.4zM3.4 0H1a1 1 0 0 0-.8.3 1 1 0 0 0-.3.8v2.3c0 .3.1.5.3.8.3.2.5.3.8.3h2.3c.3 0 .5-.1.8-.3.2-.3.3-.5.3-.8V1a1 1 0 0 0-.3-.8 1 1 0 0 0-.8-.3zm7.8 3.4a1 1 0 0 1-.7-.4 1 1 0 0 1-.4-.8c0-.3.1-.5.4-.7.2-.3.4-.4.8-.4h23.6c.3 0 .5.1.8.4.2.2.3.4.3.8 0 .3-.1.5-.3.7a1 1 0 0 1-.8.4H11.3z"/></svg>