<svg width="250" height="371" xmlns="http://www.w3.org/2000/svg"><g fill="none" fill-rule="evenodd"><path d="M113.34 83.14c-3.239-6.87-4.608-14.592-2.011-22.138 7.481-21.743 36.818-8.658 39.783 4.122 2.964 12.78-5.345 40.957-13.584 40.891-3.286-.026-9.308-3.732-14.886-9.558l-3.796 30.892-24.688-6.615 19.183-37.593z" fill="#D4A181"/><path d="M122.302 83.872c-4.646 5.094-10.073 8.414-14.303 7.28-8.035-2.152-10.85-14.495-7.735-26.12.109-.408.226-.811.35-1.21-10.072 3.593-19.723 13.41-30.969 10.396-15.299-4.1-13.053-36.788 8.323-31.06 14.537 3.895 21.116 7.944 26.433 12.75 2.14-3.123 4.77-5.526 7.58-6.944.71-.472 1.704-.839 2.93-1.098.756-.186 1.517-.299 2.278-.334 4.085-.378 9.728.094 15.797 1.494 1.134.262 2.24.546 3.312.848 1.545-5.698 7.381-9.083 13.051-7.564 5.681 1.522 9.045 7.392 7.513 13.11-1.482 5.53-7 8.893-12.5 7.731-3.36.132-7.534-.228-12.033-1.114-.006 1.739-.267 3.646-.826 5.731-.493 1.841-1.218 3.74-2.121 5.623-.652-1.404-1.733-2.496-3.034-2.844-3.638-.975-6.979 1.36-7.836 4.558-1.088 4.06.454 7.621 3.79 8.767z" fill="#191847"/><path fill="#BA8B72" d="M77.175 213.84l78.98 132.157 59.211 111.728h12.754L128.91 213.84z"/><path d="M207.572 452.628c-1.194 3.208-1.791 5.606-1.791 7.195 0 1.926.318 4.735.955 8.43h59.74c1.552-5.174.656-7.967-2.689-8.38a328.35 328.35 0 0 1-8.335-1.117l-27.778-12.484a1.043 1.043 0 0 0-1.393.557l-1.791 4.381c-3.097 1.456-5.613 2.185-7.549 2.185-1.577 0-3.756-.644-6.538-1.932a2.086 2.086 0 0 0-2.83 1.165z" fill="#E4E4E4"/><path d="M198.922 439.834l24.595-7.447c-10.776-32.243-23.983-67.725-39.622-106.446-15.639-38.721-32.434-76.089-50.387-112.101H64.042c19.96 45.554 41.119 86.946 63.478 124.176 22.36 37.23 46.16 71.17 71.402 101.818z" fill="#DB2721"/><path d="M71.985 213.84c-7.454 46.44-21.831 105.774-23.188 107.605-.905 1.221-33.468 12.143-97.69 32.765l2.754 11.256c76.585-11.06 116.94-19.64 121.062-25.742 6.184-9.152 37.06-81.455 49.02-125.884H71.984z" fill="#D4A181"/><path d="M-26.319 344.48l4.853 18.129c57.281 5.028 92.379 1.395 105.293-10.9 12.913-12.295 27.631-58.252 44.153-137.87H61.74c-10.468 65.197-16.32 99.163-17.557 101.9-1.236 2.737-24.737 12.317-70.502 28.74z" fill="#FF4133"/><path d="M-45.814 349.56c-3.366-.618-5.831-.79-7.396-.514-1.897.334-4.608 1.136-8.136 2.404l10.374 58.833c5.365.63 7.96-.738 7.785-4.103a328.35 328.35 0 0 1-.347-8.403l7.47-29.523a1.043 1.043 0 0 0-.79-1.275l-4.625-1.004c-1.972-2.797-3.126-5.148-3.462-7.054-.274-1.553-.019-3.812.766-6.775a2.086 2.086 0 0 0-1.639-2.585z" fill="#E4E4E4"/><g><path d="M170.951 205.442L200 235.882c8.62 4.044 15.646 8.423 21.078 13.136 1.204 1.563 2.47 4.52-3.399 3.013-5.868-1.508-12.11-2.83-13.289-.942-1.179 1.888 1.993 4.954-.15 7.404-1.428 1.634-5.847-3.874-13.255-16.522l-30.63-19.56 10.596-16.969zM21.723 168.567l17.838 6.593C10.684 213.9-4.731 234.357-6.684 236.532c-4.395 4.893-2.682 15.41-2.298 20.866-7.918.57-3.084-10.469-13.127-9.595-9.168.797-17.538 5.244-24.56-3.656-.863-1.094-1.142-4.13 2.543-5.081 9.18-2.37 22.975-7.343 25.462-9.729 3.39-3.253 16.853-23.51 40.387-60.77z" fill="#D4A181"/><path d="M178.26 209.473c4.349.448 8.894 1.985 13.604 4.558a4.791 4.791 0 0 1-1.523 8.93c.835.87 1.678 1.737 2.532 2.602l-11.456 15.733c-32.31-23.943-63.258-43.158-73.281-75.049-3.364-10.703 4.232-43.707 5.883-55.91l12-2.623c9.904 35.05 25.55 69.76 52.241 101.759z" fill="#69A1AC"/><path d="M54.847 216.06c32.255 9.42 58.146 13.986 77.672 13.697 2.42-.036 4.098-10.16 3.5-13.111-9.322-45.958-14.89-79.38-9.627-109.233-3.387 1.076-8.857.362-16.41-2.141-26.26 27.09-42.06 60.698-55.135 110.789z" fill="#191847"/><path d="M47.822 220.095a4.69 4.69 0 0 1-.676-4.446l1.152-3.183a4.695 4.695 0 0 1 4.74-3.079 80.998 80.998 0 0 0 1.72-4.501c4.422-12.725 3.078-26.204 5.471-38.786-19.36 11.413-38.83 33.582-58.413 66.505l-18.734-9.31a357.316 357.316 0 0 1 3.81-7.9c-2.052-1.701-3.668-8.12-1.575-8.777a23.405 23.405 0 0 1 6.674-1.069c27.758-51.474 64.438-86.231 110.04-104.271l5.65.996 6.248 1.102c-11.687 45.793 18.837 155.652-13.224 239.225-32.281 1.472-72.807-27.962-119.01-18.302 7.748-34.556 47.114-69.812 66.127-104.204z" fill="#89C5CC"/><path fill-opacity=".1" fill="#000" d="M106.167 103.088l-8.33 15.677 8.672 14.382-11.552 8.064 16.58 44.957-21.891-45.81 11.39-8.176-7.706-12.717z"/><path d="M101.794 200.66a4.253 4.253 0 0 1-3.446-4.93 4.253 4.253 0 0 1 4.924-3.454 4.253 4.253 0 0 1 3.446 4.93 4.253 4.253 0 0 1-4.924 3.455zm.98 25.03a4.253 4.253 0 0 1-3.446-4.93 4.253 4.253 0 0 1 4.925-3.455 4.253 4.253 0 0 1 3.446 4.93 4.253 4.253 0 0 1-4.925 3.455zm-3.204 24.291a4.253 4.253 0 0 1-3.446-4.93 4.253 4.253 0 0 1 4.924-3.455 4.253 4.253 0 0 1 3.446 4.93 4.253 4.253 0 0 1-4.924 3.455z" fill-opacity=".4" fill="#000"/></g></g></svg>