<svg xmlns="http://www.w3.org/2000/svg" width="146" height="96" viewBox="0 0 146 96"><defs><style>.cls-1{fill:#d8d8d8;}.cls-2,.cls-3{fill:#09090a;opacity:0.9;}.cls-3{fill-opacity:0.7;}.cls-4{fill:#fff;}.cls-5{fill:#b3b3b3;}.cls-6{fill:gray;}</style></defs><title>df</title><g id="portfolio-style-3-catalina"><path class="cls-1" d="M143,3V79H3V3H143m1-1H2V80H144V2Z"/><rect x="2" y="78" width="142" height="16"/><rect class="cls-2" x="5" y="5" width="67" height="45.83"/><rect class="cls-3" x="74" y="5" width="67" height="52"/><rect class="cls-3" x="74" y="59" width="67" height="17"/><rect class="cls-3" x="5" y="53" width="67" height="23"/><path class="cls-4" d="M35.88,25l1.51,3H33.87l2-3M36,23l-4,6h7l-3-6Z"/><path class="cls-4" d="M40.88,25.75,42.23,28H39.08l1.8-2.25M41,24l-4,5h7l-3-5Z"/><rect class="cls-5" x="8" y="47" width="12" height="1"/><rect class="cls-6" x="8" y="42" width="21" height="3"/><path class="cls-4" d="M58,84v.92H57V84Zm0,1v.92H57V85Zm0,4v.92H57V89Zm1-6v.92H58V83Zm0,3v.92H58V86Zm0,3v.92H58V89Zm1-6v.92H59V83Zm0,3v.92H59V86Zm0,3v.92H59V89Zm1-6v.92H60V83Zm0,3v.92H60V86Zm0,3v.92H60V89Zm1-6v.92H61V83Zm0,4v.92H61V87Zm0,1v.92H61V88Z"/><path class="cls-4" d="M64,83v.92H63V83Zm0,1v.92H63V84Zm0,1v.92H63V85Zm0,1v.92H63V86Zm0,1v.92H63V87Zm0,1v.92H63V88Zm1-3v.92H64V85Zm0,4v.92H64V89Zm1-4v.92H65V85Zm0,4v.92H65V89Zm1-4v.92H66V85Zm0,4v.92H66V89Z"/><path class="cls-4" d="M68,91v.92H67V91Zm1-6v.92H68V85Zm0,1v.92H68V86Zm0,1v.92H68V87Zm0,4v.92H68V91Zm1-3v.92H69V88Zm0,2v.92H69V90Zm1-1v.92H70V89Zm1-1v.92H71V88Zm1-3v.92H72V85Zm0,1v.92H72V86Zm0,1v.92H72V87Z"/><path class="cls-4" d="M75,82v.92H74V82Zm0,1v.92H74V83Zm0,1v.92H74V84Zm0,1v.92H74V85Zm0,1v.92H74V86Zm0,1v.92H74V87Zm0,1v.92H74V88Zm1,1v.92H75V89Zm1,0v.92H76V89Z"/><path class="cls-4" d="M78,86v.92H77V86Zm0,1v.92H77V87Zm0,1v.92H77V88Zm1-3v.92H78V85Zm0,2v.92H78V87Zm0,2v.92H78V89Zm1-4v.92H79V85Zm0,2v.92H79V87Zm0,2v.92H79V89Zm1-4v.92H80V85Zm0,2v.92H80V87Zm0,2v.92H80V89Zm1-3v.92H81V86Zm0,1v.92H81V87Zm0,2v.92H81V89Z"/><path class="cls-4" d="M86,83v.92H85V83Zm0,6v.92H85V89Zm1-6v.92H86V83Zm0,3v.92H86V86Zm0,3v.92H86V89Zm1-6v.92H87V83Zm0,2v.92H87V85Zm0,1v.92H87V86Zm0,3v.92H87V89Zm1-6v.92H88V83Zm0,1v.92H88V84Zm0,2v.92H88V86Zm0,3v.92H88V89Zm1-6v.92H89V83Zm0,4v.92H89V87Zm0,1v.92H89V88Z"/></g></svg>