<?xml version="1.0" encoding="utf-8"?>
<!-- Generator: Adobe Illustrator 21.0.0, SVG Export Plug-In . SVG Version: 6.00 Build 0)  -->
<svg version="1.1" id="Layer_1" xmlns="http://www.w3.org/2000/svg" xmlns:xlink="http://www.w3.org/1999/xlink" x="0px" y="0px"
	 width="146px" height="96px" viewBox="0 0 146 96" style="enable-background:new 0 0 146 96;" xml:space="preserve">
<style type="text/css">
	.st0{fill:#D8D8D8;}
	.st1{opacity:0.9;fill:#09090A;enable-background:new    ;}
	.st2{opacity:0.9;fill:#09090A;fill-opacity:0.7;enable-background:new    ;}
	.st3{fill:#FFFFFF;}
	.st4{fill:#B3B3B3;}
	.st5{fill:#808080;}
</style>
<title>df</title>
<path class="st0" d="M143,3v76H3V3H143 M144,2H2v78h142V2z"/>
<rect x="2" y="78" width="142" height="16"/>
<rect x="22" y="5" class="st1" width="50" height="36"/>
<rect x="74" y="5" class="st2" width="50" height="42"/>
<rect x="74" y="59" class="st2" width="50" height="17"/>
<rect x="22" y="53" class="st2" width="50" height="23"/>
<path class="st3" d="M44.9,25l1.5,3h-3.5L44.9,25 M45,23l-4,6h7L45,23z"/>
<path class="st3" d="M49.9,25.8l1.3,2.3h-3.1L49.9,25.8 M50,24l-4,5h7L50,24z"/>
<rect x="22" y="49" class="st4" width="12" height="1"/>
<rect x="22" y="44" class="st5" width="21" height="3"/>
<rect x="74" y="55" class="st4" width="12" height="1"/>
<rect x="74" y="50" class="st5" width="21" height="3"/>
<path class="st3" d="M58,84v0.9h-1V84H58z M58,85v0.9h-1V85H58z M58,89v0.9h-1V89H58z M59,83v0.9h-1V83H59z M59,86v0.9h-1V86H59z
	 M59,89v0.9h-1V89H59z M60,83v0.9h-1V83H60z M60,86v0.9h-1V86H60z M60,89v0.9h-1V89H60z M61,83v0.9h-1V83H61z M61,86v0.9h-1V86H61z
	 M61,89v0.9h-1V89H61z M62,83v0.9h-1V83H62z M62,87v0.9h-1V87H62z M62,88v0.9h-1V88H62z"/>
<path class="st3" d="M64,83v0.9h-1V83H64z M64,84v0.9h-1V84H64z M64,85v0.9h-1V85H64z M64,86v0.9h-1V86H64z M64,87v0.9h-1V87H64z
	 M64,88v0.9h-1V88H64z M65,85v0.9h-1V85H65z M65,89v0.9h-1V89H65z M66,85v0.9h-1V85H66z M66,89v0.9h-1V89H66z M67,85v0.9h-1V85H67z
	 M67,89v0.9h-1V89H67z"/>
<path class="st3" d="M68,91v0.9h-1V91H68z M69,85v0.9h-1V85H69z M69,86v0.9h-1V86H69z M69,87v0.9h-1V87H69z M69,91v0.9h-1V91H69z
	 M70,88v0.9h-1V88H70z M70,90v0.9h-1V90H70z M71,89v0.9h-1V89H71z M72,88v0.9h-1V88H72z M73,85v0.9h-1V85H73z M73,86v0.9h-1V86H73z
	 M73,87v0.9h-1V87H73z"/>
<path class="st3" d="M75,82v0.9h-1V82H75z M75,83v0.9h-1V83H75z M75,84v0.9h-1V84H75z M75,85v0.9h-1V85H75z M75,86v0.9h-1V86H75z
	 M75,87v0.9h-1V87H75z M75,88v0.9h-1V88H75z M76,89v0.9h-1V89H76z M77,89v0.9h-1V89H77z"/>
<path class="st3" d="M78,86v0.9h-1V86H78z M78,87v0.9h-1V87H78z M78,88v0.9h-1V88H78z M79,85v0.9h-1V85H79z M79,87v0.9h-1V87H79z
	 M79,89v0.9h-1V89H79z M80,85v0.9h-1V85H80z M80,87v0.9h-1V87H80z M80,89v0.9h-1V89H80z M81,85v0.9h-1V85H81z M81,87v0.9h-1V87H81z
	 M81,89v0.9h-1V89H81z M82,86v0.9h-1V86H82z M82,87v0.9h-1V87H82z M82,89v0.9h-1V89H82z"/>
<path class="st3" d="M86,83v0.9h-1V83H86z M86,89v0.9h-1V89H86z M87,83v0.9h-1V83H87z M87,89v0.9h-1V89H87z M88,83v0.9h-1V83H88z
	 M88,84v0.9h-1V84H88z M88,85v0.9h-1V85H88z M88,86v0.9h-1V86H88z M88,87v0.9h-1V87H88z M88,88v0.9h-1V88H88z M88,89v0.9h-1V89H88z
	 M89,89v0.9h-1V89H89z M90,89v0.9h-1V89H90z"/>
</svg>
