<svg xmlns="http://www.w3.org/2000/svg" width="96" height="96" viewBox="0 0 96 96"><defs><style>.cls-1{fill:#d8d8d8;}.cls-2{fill:#fff;}.cls-3{fill:#262626;}</style></defs><title>df</title><g id="account-style-1"><path class="cls-1" d="M93,3V79H3V3H93m1-1H2V80H94V2Z"/><rect x="2" y="78" width="92" height="16"/><path class="cls-2" d="M33,84v.92H32V84Zm0,1v.92H32V85Zm0,4v.92H32V89Zm1-6v.92H33V83Zm0,3v.92H33V86Zm0,3v.92H33V89Zm1-6v.92H34V83Zm0,3v.92H34V86Zm0,3v.92H34V89Zm1-6v.92H35V83Zm0,3v.92H35V86Zm0,3v.92H35V89Zm1-6v.92H36V83Zm0,4v.92H36V87Zm0,1v.92H36V88Z"/><path class="cls-2" d="M39,83v.92H38V83Zm0,1v.92H38V84Zm0,1v.92H38V85Zm0,1v.92H38V86Zm0,1v.92H38V87Zm0,1v.92H38V88Zm1-3v.92H39V85Zm0,4v.92H39V89Zm1-4v.92H40V85Zm0,4v.92H40V89Zm1-4v.92H41V85Zm0,4v.92H41V89Z"/><path class="cls-2" d="M43,91v.92H42V91Zm1-6v.92H43V85Zm0,1v.92H43V86Zm0,1v.92H43V87Zm0,4v.92H43V91Zm1-3v.92H44V88Zm0,2v.92H44V90Zm1-1v.92H45V89Zm1-1v.92H46V88Zm1-3v.92H47V85Zm0,1v.92H47V86Zm0,1v.92H47V87Z"/><path class="cls-2" d="M50,82v.92H49V82Zm0,1v.92H49V83Zm0,1v.92H49V84Zm0,1v.92H49V85Zm0,1v.92H49V86Zm0,1v.92H49V87Zm0,1v.92H49V88Zm1,1v.92H50V89Zm1,0v.92H51V89Z"/><path class="cls-2" d="M53,86v.92H52V86Zm0,1v.92H52V87Zm0,1v.92H52V88Zm1-3v.92H53V85Zm0,2v.92H53V87Zm0,2v.92H53V89Zm1-4v.92H54V85Zm0,2v.92H54V87Zm0,2v.92H54V89Zm1-4v.92H55V85Zm0,2v.92H55V87Zm0,2v.92H55V89Zm1-3v.92H56V86Zm0,1v.92H56V87Zm0,2v.92H56V89Z"/><path class="cls-2" d="M61,83v.92H60V83Zm0,6v.92H60V89Zm1-6v.92H61V83Zm0,6v.92H61V89Zm1-6v.92H62V83Zm0,1v.92H62V84Zm0,1v.92H62V85Zm0,1v.92H62V86Zm0,1v.92H62V87Zm0,1v.92H62V88Zm0,1v.92H62V89Zm1,0v.92H63V89Zm1,0v.92H64V89Z"/><path class="cls-3" d="M37,37V38H36V37Zm0,1V39H36V38Zm0,1V40H36V39Zm0,1V41H36V40Zm0,1V42H36V41Zm0,1V43H36V42Zm0,1V44H36V43Zm1,0V44H37V43Zm1,0V44H38V43Zm1,0V44H39V43Zm1,0V44H40V43Z"/><path class="cls-3" d="M42,38V39H41V38Zm0,1V40H41V39Zm0,1V41H41V40Zm0,1V42H41V41Zm0,1V43H41V42Zm1-5V38H42V37Zm0,6V44H42V43Zm1-6V38H43V37Zm0,6V44H43V43Zm1-6V38H44V37Zm0,6V44H44V43Zm1-5V39H45V38Zm0,1V40H45V39Zm0,1V41H45V40Zm0,1V42H45V41Zm0,1V43H45V42Z"/><path class="cls-3" d="M48,38V39H47V38Zm0,1V40H47V39Zm0,1V41H47V40Zm0,1V42H47V41Zm0,1V43H47V42Zm1-5V38H48V37Zm0,6V44H48V43Zm1-6V38H49V37Zm0,6V44H49V43Zm1-6V38H50V37Zm0,4V42H50V41Zm0,2V44H50V43Zm1-6V38H51V37Zm0,4V42H51V41Zm0,1V43H51V42Z"/><path class="cls-3" d="M54,37V38H53V37Zm0,6V44H53V43Zm1-6V38H54V37Zm0,1V39H54V38Zm0,1V40H54V39Zm0,1V41H54V40Zm0,1V42H54V41Zm0,1V43H54V42Zm0,1V44H54V43Zm1-6V38H55V37Zm0,6V44H55V43Z"/><path class="cls-3" d="M58,37V38H57V37Zm0,1V39H57V38Zm0,1V40H57V39Zm0,1V41H57V40Zm0,1V42H57V41Zm0,1V43H57V42Zm0,1V44H57V43Zm1-4V40H58V39Zm1,1V41H59V40Zm1,1V42H60V41Zm1-4V38H61V37Zm0,1V39H61V38Zm0,1V40H61V39Zm0,1V41H61V40Zm0,1V42H61V41Zm0,1V43H61V42Zm0,1V44H61V43Z"/></g></svg>