<svg xmlns="http://www.w3.org/2000/svg" width="96" height="96" viewBox="0 0 96 96"><defs><style>.cls-1{fill:#d8d8d8;}.cls-2{fill:#fff;}.cls-3{fill:#262626;}</style></defs><title>df</title><g id="account-style-3"><path class="cls-1" d="M93,3V79H3V3H93m1-1H2V80H94V2Z"/><rect x="2" y="78" width="92" height="16"/><path class="cls-2" d="M33,84v.92H32V84Zm0,1v.92H32V85Zm0,4v.92H32V89Zm1-6v.92H33V83Zm0,3v.92H33V86Zm0,3v.92H33V89Zm1-6v.92H34V83Zm0,3v.92H34V86Zm0,3v.92H34V89Zm1-6v.92H35V83Zm0,3v.92H35V86Zm0,3v.92H35V89Zm1-6v.92H36V83Zm0,4v.92H36V87Zm0,1v.92H36V88Z"/><path class="cls-2" d="M39,83v.92H38V83Zm0,1v.92H38V84Zm0,1v.92H38V85Zm0,1v.92H38V86Zm0,1v.92H38V87Zm0,1v.92H38V88Zm1-3v.92H39V85Zm0,4v.92H39V89Zm1-4v.92H40V85Zm0,4v.92H40V89Zm1-4v.92H41V85Zm0,4v.92H41V89Z"/><path class="cls-2" d="M43,91v.92H42V91Zm1-6v.92H43V85Zm0,1v.92H43V86Zm0,1v.92H43V87Zm0,4v.92H43V91Zm1-3v.92H44V88Zm0,2v.92H44V90Zm1-1v.92H45V89Zm1-1v.92H46V88Zm1-3v.92H47V85Zm0,1v.92H47V86Zm0,1v.92H47V87Z"/><path class="cls-2" d="M50,82v.92H49V82Zm0,1v.92H49V83Zm0,1v.92H49V84Zm0,1v.92H49V85Zm0,1v.92H49V86Zm0,1v.92H49V87Zm0,1v.92H49V88Zm1,1v.92H50V89Zm1,0v.92H51V89Z"/><path class="cls-2" d="M53,86v.92H52V86Zm0,1v.92H52V87Zm0,1v.92H52V88Zm1-3v.92H53V85Zm0,2v.92H53V87Zm0,2v.92H53V89Zm1-4v.92H54V85Zm0,2v.92H54V87Zm0,2v.92H54V89Zm1-4v.92H55V85Zm0,2v.92H55V87Zm0,2v.92H55V89Zm1-3v.92H56V86Zm0,1v.92H56V87Zm0,2v.92H56V89Z"/><path class="cls-2" d="M61,83v.92H60V83Zm0,6v.92H60V89Zm1-6v.92H61V83Zm0,3v.92H61V86Zm0,3v.92H61V89Zm1-6v.92H62V83Zm0,2v.92H62V85Zm0,1v.92H62V86Zm0,3v.92H62V89Zm1-6v.92H63V83Zm0,1v.92H63V84Zm0,2v.92H63V86Zm0,3v.92H63V89Zm1-6v.92H64V83Zm0,4v.92H64V87Zm0,1v.92H64V88Z"/><path class="cls-3" d="M47,37V38H46V37Zm0,1V39H46V38Zm0,1V40H46V39Zm0,1V41H46V40Zm0,1V42H46V41Zm0,1V43H46V42Zm0,1V44H46V43Zm1,0V44H47V43Zm1,0V44H48V43Zm1,0V44H49V43Zm1,0V44H50V43Z"/><path class="cls-3" d="M52,38V39H51V38Zm0,1V40H51V39Zm0,1V41H51V40Zm0,1V42H51V41Zm0,1V43H51V42Zm1-5V38H52V37Zm0,6V44H52V43Zm1-6V38H53V37Zm0,6V44H53V43Zm1-6V38H54V37Zm0,6V44H54V43Zm1-5V39H55V38Zm0,1V40H55V39Zm0,1V41H55V40Zm0,1V42H55V41Zm0,1V43H55V42Z"/><path class="cls-3" d="M58,38V39H57V38Zm0,1V40H57V39Zm0,1V41H57V40Zm0,1V42H57V41Zm0,1V43H57V42Zm1-5V38H58V37Zm0,6V44H58V43Zm1-6V38H59V37Zm0,6V44H59V43Zm1-6V38H60V37Zm0,4V42H60V41Zm0,2V44H60V43Zm1-6V38H61V37Zm0,4V42H61V41Zm0,1V43H61V42Z"/><path class="cls-3" d="M64,37V38H63V37Zm0,6V44H63V43Zm1-6V38H64V37Zm0,1V39H64V38Zm0,1V40H64V39Zm0,1V41H64V40Zm0,1V42H64V41Zm0,1V43H64V42Zm0,1V44H64V43Zm1-6V38H65V37Zm0,6V44H65V43Z"/><path class="cls-3" d="M68,37V38H67V37Zm0,1V39H67V38Zm0,1V40H67V39Zm0,1V41H67V40Zm0,1V42H67V41Zm0,1V43H67V42Zm0,1V44H67V43Zm1-4V40H68V39Zm1,1V41H69V40Zm1,1V42H70V41Zm1-4V38H71V37Zm0,1V39H71V38Zm0,1V40H71V39Zm0,1V41H71V40Zm0,1V42H71V41Zm0,1V43H71V42Zm0,1V44H71V43Z"/><path d="M34,34.5A2.5,2.5,0,1,1,31.5,37,2.5,2.5,0,0,1,34,34.5m0-1A3.5,3.5,0,1,0,37.5,37,3.5,3.5,0,0,0,34,33.5Zm0,8a7,7,0,0,0-6.92,6h1a6,6,0,0,1,11.82,0h1a7,7,0,0,0-6.92-6Z"/></g></svg>