<svg xmlns="http://www.w3.org/2000/svg" width="96" height="96" viewBox="0 0 96 96"><defs><style>.cls-1{fill:#d8d8d8;}.cls-2{fill:#fff;}.cls-3{fill:#262626;}</style></defs><title>df</title><g id="account-style-4"><path class="cls-1" d="M93,3V79H3V3H93m1-1H2V80H94V2Z"/><rect x="2" y="78" width="92" height="16"/><path class="cls-2" d="M33,84v.92H32V84Zm0,1v.92H32V85Zm0,4v.92H32V89Zm1-6v.92H33V83Zm0,3v.92H33V86Zm0,3v.92H33V89Zm1-6v.92H34V83Zm0,3v.92H34V86Zm0,3v.92H34V89Zm1-6v.92H35V83Zm0,3v.92H35V86Zm0,3v.92H35V89Zm1-6v.92H36V83Zm0,4v.92H36V87Zm0,1v.92H36V88Z"/><path class="cls-2" d="M39,83v.92H38V83Zm0,1v.92H38V84Zm0,1v.92H38V85Zm0,1v.92H38V86Zm0,1v.92H38V87Zm0,1v.92H38V88Zm1-3v.92H39V85Zm0,4v.92H39V89Zm1-4v.92H40V85Zm0,4v.92H40V89Zm1-4v.92H41V85Zm0,4v.92H41V89Z"/><path class="cls-2" d="M43,91v.92H42V91Zm1-6v.92H43V85Zm0,1v.92H43V86Zm0,1v.92H43V87Zm0,4v.92H43V91Zm1-3v.92H44V88Zm0,2v.92H44V90Zm1-1v.92H45V89Zm1-1v.92H46V88Zm1-3v.92H47V85Zm0,1v.92H47V86Zm0,1v.92H47V87Z"/><path class="cls-2" d="M50,82v.92H49V82Zm0,1v.92H49V83Zm0,1v.92H49V84Zm0,1v.92H49V85Zm0,1v.92H49V86Zm0,1v.92H49V87Zm0,1v.92H49V88Zm1,1v.92H50V89Zm1,0v.92H51V89Z"/><path class="cls-2" d="M53,86v.92H52V86Zm0,1v.92H52V87Zm0,1v.92H52V88Zm1-3v.92H53V85Zm0,2v.92H53V87Zm0,2v.92H53V89Zm1-4v.92H54V85Zm0,2v.92H54V87Zm0,2v.92H54V89Zm1-4v.92H55V85Zm0,2v.92H55V87Zm0,2v.92H55V89Zm1-3v.92H56V86Zm0,1v.92H56V87Zm0,2v.92H56V89Z"/><path class="cls-2" d="M61,86v.92H60V86Zm0,1v.92H60V87Zm1-2v.92H61V85Zm0,2v.92H61V87Zm1-3v.92H62V84Zm0,3v.92H62V87Zm1-4v.92H63V83Zm0,4v.92H63V87Zm1-4v.92H64V83Zm0,1v.92H64V84Zm0,1v.92H64V85Zm0,1v.92H64V86Zm0,1v.92H64V87Zm0,1v.92H64V88Zm0,1v.92H64V89Z"/><path d="M64,34.5A2.5,2.5,0,1,1,61.5,37,2.5,2.5,0,0,1,64,34.5m0-1A3.5,3.5,0,1,0,67.5,37,3.5,3.5,0,0,0,64,33.5Zm0,8a7,7,0,0,0-6.92,6h1a6,6,0,0,1,11.82,0h1a7,7,0,0,0-6.92-6Z"/><path class="cls-3" d="M27,37V38H26V37Zm0,1V39H26V38Zm0,1V40H26V39Zm0,1V41H26V40Zm0,1V42H26V41Zm0,1V43H26V42Zm0,1V44H26V43Zm1,0V44H27V43Zm1,0V44H28V43Zm1,0V44H29V43Zm1,0V44H30V43Z"/><path class="cls-3" d="M32,38V39H31V38Zm0,1V40H31V39Zm0,1V41H31V40Zm0,1V42H31V41Zm0,1V43H31V42Zm1-5V38H32V37Zm0,6V44H32V43Zm1-6V38H33V37Zm0,6V44H33V43Zm1-6V38H34V37Zm0,6V44H34V43Zm1-5V39H35V38Zm0,1V40H35V39Zm0,1V41H35V40Zm0,1V42H35V41Zm0,1V43H35V42Z"/><path class="cls-3" d="M38,38V39H37V38Zm0,1V40H37V39Zm0,1V41H37V40Zm0,1V42H37V41Zm0,1V43H37V42Zm1-5V38H38V37Zm0,6V44H38V43Zm1-6V38H39V37Zm0,6V44H39V43Zm1-6V38H40V37Zm0,4V42H40V41Zm0,2V44H40V43Zm1-6V38H41V37Zm0,4V42H41V41Zm0,1V43H41V42Z"/><path class="cls-3" d="M44,37V38H43V37Zm0,6V44H43V43Zm1-6V38H44V37Zm0,1V39H44V38Zm0,1V40H44V39Zm0,1V41H44V40Zm0,1V42H44V41Zm0,1V43H44V42Zm0,1V44H44V43Zm1-6V38H45V37Zm0,6V44H45V43Z"/><path class="cls-3" d="M48,37V38H47V37Zm0,1V39H47V38Zm0,1V40H47V39Zm0,1V41H47V40Zm0,1V42H47V41Zm0,1V43H47V42Zm0,1V44H47V43Zm1-4V40H48V39Zm1,1V41H49V40Zm1,1V42H50V41Zm1-4V38H51V37Zm0,1V39H51V38Zm0,1V40H51V39Zm0,1V41H51V40Zm0,1V42H51V41Zm0,1V43H51V42Zm0,1V44H51V43Z"/></g></svg>