<svg xmlns="http://www.w3.org/2000/svg" width="96" height="96" viewBox="0 0 96 96"><defs><style>.cls-1{fill:#d8d8d8;}.cls-2{fill:#fff;}.cls-3{fill:#09090a;opacity:0.9;}</style></defs><title>df</title><g id="body-framed"><path class="cls-1" d="M93,3V79H3V3H93m1-1H2V80H94V2Z"/><rect x="2" y="78" width="92" height="16"/><rect class="cls-2" x="9" y="9" width="78" height="63"/><path class="cls-3" d="M5,5V76H91V5ZM89,74H7V7H89Z"/><path class="cls-2" d="M32,83v.92H31V83Zm0,1v.92H31V84Zm0,1v.92H31V85Zm0,1v.92H31V86Zm0,1v.92H31V87Zm0,1v.92H31V88Zm0,1v.92H31V89Zm1-6v.92H32V83Zm0,3v.92H32V86Zm1-3v.92H33V83Zm0,3v.92H33V86Zm1-3v.92H34V83Zm0,3v.92H34V86Zm1-3v.92H35V83Z"/><path class="cls-2" d="M37,85v.92H36V85Zm0,1v.92H36V86Zm0,1v.92H36V87Zm0,1v.92H36V88Zm0,1v.92H36V89Zm1-3v.92H37V86Zm1-1v.92H38V85Zm1,0v.92H39V85Z"/><path class="cls-2" d="M41,88v.92H40V88Zm1-3v.92H41V85Zm0,2v.92H41V87Zm0,2v.92H41V89Zm1-4v.92H42V85Zm0,2v.92H42V87Zm0,2v.92H42V89Zm1-4v.92H43V85Zm0,2v.92H43V87Zm0,2v.92H43V89Zm1-3v.92H44V86Zm0,1v.92H44V87Zm0,1v.92H44V88Zm0,1v.92H44V89Z"/><path class="cls-2" d="M47,85v.92H46V85Zm0,1v.92H46V86Zm0,1v.92H46V87Zm0,1v.92H46V88Zm0,1v.92H46V89Zm1-4v.92H47V85Zm1,0v.92H48V85Zm1,0v.92H49V85Zm0,1v.92H49V86Zm0,1v.92H49V87Zm0,1v.92H49V88Zm0,1v.92H49V89Zm1-4v.92H50V85Zm1,0v.92H51V85Zm1,1v.92H52V86Zm0,1v.92H52V87Zm0,1v.92H52V88Zm0,1v.92H52V89Z"/><path class="cls-2" d="M55,86v.92H54V86Zm0,1v.92H54V87Zm0,1v.92H54V88Zm1-3v.92H55V85Zm0,2v.92H55V87Zm0,2v.92H55V89Zm1-4v.92H56V85Zm0,2v.92H56V87Zm0,2v.92H56V89Zm1-4v.92H57V85Zm0,2v.92H57V87Zm0,2v.92H57V89Zm1-3v.92H58V86Zm0,1v.92H58V87Zm0,2v.92H58V89Z"/><path class="cls-2" d="M61,86v.92H60V86Zm0,1v.92H60V87Zm0,1v.92H60V88Zm1-3v.92H61V85Zm0,4v.92H61V89Zm1-4v.92H62V85Zm0,4v.92H62V89Zm1-4v.92H63V85Zm0,4v.92H63V89Zm1-7v.92H64V82Zm0,1v.92H64V83Zm0,1v.92H64V84Zm0,1v.92H64V85Zm0,1v.92H64V86Zm0,1v.92H64V87Zm0,1v.92H64V88Zm0,1v.92H64V89Z"/></g></svg>