<svg xmlns="http://www.w3.org/2000/svg" width="96" height="96" viewBox="0 0 96 96"><defs><style>.cls-1{fill:#d8d8d8;}.cls-2{fill:#09090a;opacity:0.9;}.cls-3{fill:#fff;}</style></defs><title>df</title><g id="body-left-sidebar"><path class="cls-1" d="M93,3V79H3V3H93m1-1H2V80H94V2Z"/><rect x="2" y="78" width="92" height="16"/><rect class="cls-2" x="5" y="5" width="25" height="71"/><rect class="cls-3" x="32" y="5" width="59" height="71"/><path class="cls-3" d="M21,83v.92h-.92V83Zm0,1v.92h-.92V84Zm0,1v.92h-.92V85Zm0,1v.92h-.92V86Zm0,1v.92h-.92V87Zm0,1v.92h-.92V88Zm0,1v.92h-.92V89Zm1,0v.92h-.92V89Zm1,0v.92h-.92V89Zm1,0v.92h-.92V89Zm1,0v.92h-.92V89Z"/><path class="cls-3" d="M26,86v.92h-.92V86Zm0,1v.92h-.92V87Zm0,1v.92h-.92V88Zm1-3v.92h-.92V85Zm0,2v.92h-.92V87Zm0,2v.92h-.92V89Zm1-4v.92h-.92V85Zm0,2v.92h-.92V87Zm0,2v.92h-.92V89Zm1-4v.92h-.92V85Zm0,2v.92h-.92V87Zm0,2v.92h-.92V89Zm1-3v.92h-.92V86Zm0,1v.92h-.92V87Zm0,2v.92h-.92V89Z"/><path class="cls-3" d="M31,85v.92h-.92V85Zm1,0v.92h-.92V85Zm1-2v.92h-.92V83Zm0,1v.92h-.92V84Zm0,1v.92h-.92V85Zm0,1v.92h-.92V86Zm0,1v.92h-.92V87Zm0,1v.92h-.92V88Zm0,1v.92h-.92V89Zm1-7v.92h-.92V82Zm0,3v.92h-.92V85Zm1-3v.92h-.92V82Zm0,3v.92h-.92V85Zm1-3v.92h-.92V82Z"/><path class="cls-3" d="M36,83v.92h-.92V83Zm0,1v.92h-.92V84Zm0,1v.92h-.92V85Zm0,1v.92h-.92V86Zm0,1v.92h-.92V87Zm0,1v.92h-.92V88Zm1-3v.92h-.92V85Zm0,4v.92h-.92V89Zm1-4v.92h-.92V85Zm0,4v.92h-.92V89Zm1-4v.92h-.92V85Zm0,4v.92h-.92V89Z"/><path class="cls-3" d="M43,84v.92h-.92V84Zm0,1v.92h-.92V85Zm0,4v.92h-.92V89Zm1-6v.92h-.92V83Zm0,3v.92h-.92V86Zm0,3v.92h-.92V89Zm1-6v.92h-.92V83Zm0,3v.92h-.92V86Zm0,3v.92h-.92V89Zm1-6v.92h-.92V83Zm0,3v.92h-.92V86Zm0,3v.92h-.92V89Zm1-6v.92h-.92V83Zm0,4v.92h-.92V87Zm0,1v.92h-.92V88Z"/><path class="cls-3" d="M49,82v.92h-.92V82Zm0,3v.92h-.92V85Zm0,1v.92h-.92V86Zm0,1v.92h-.92V87Zm0,1v.92h-.92V88Zm0,1v.92h-.92V89Z"/><path class="cls-3" d="M51,86v.92h-.92V86Zm0,1v.92h-.92V87Zm0,1v.92h-.92V88Zm1-3v.92h-.92V85Zm0,4v.92h-.92V89Zm1-4v.92h-.92V85Zm0,4v.92h-.92V89Zm1-4v.92h-.92V85Zm0,4v.92h-.92V89Zm1-7v.92h-.92V82Zm0,1v.92h-.92V83Zm0,1v.92h-.92V84Zm0,1v.92h-.92V85Zm0,1v.92h-.92V86Zm0,1v.92h-.92V87Zm0,1v.92h-.92V88Zm0,1v.92h-.92V89Z"/><path class="cls-3" d="M57,86v.92h-.92V86Zm0,1v.92h-.92V87Zm0,1v.92h-.92V88Zm1-3v.92h-.92V85Zm0,2v.92h-.92V87Zm0,2v.92h-.92V89Zm1-4v.92h-.92V85Zm0,2v.92h-.92V87Zm0,2v.92h-.92V89Zm1-4v.92h-.92V85Zm0,2v.92h-.92V87Zm0,2v.92h-.92V89Zm1-3v.92h-.92V86Zm0,1v.92h-.92V87Zm0,2v.92h-.92V89Z"/><path class="cls-3" d="M63,82v.92h-.92V82Zm0,1v.92h-.92V83Zm0,1v.92h-.92V84Zm0,1v.92h-.92V85Zm0,1v.92h-.92V86Zm0,1v.92h-.92V87Zm0,1v.92h-.92V88Zm0,1v.92h-.92V89Zm1-4v.92h-.92V85Zm0,4v.92h-.92V89Zm1-4v.92h-.92V85Zm0,4v.92h-.92V89Zm1-4v.92h-.92V85Zm0,4v.92h-.92V89Zm1-3v.92h-.92V86Zm0,1v.92h-.92V87Zm0,1v.92h-.92V88Z"/><path class="cls-3" d="M69,88v.92h-.92V88Zm1-3v.92h-.92V85Zm0,2v.92h-.92V87Zm0,2v.92h-.92V89Zm1-4v.92h-.92V85Zm0,2v.92h-.92V87Zm0,2v.92h-.92V89Zm1-4v.92h-.92V85Zm0,2v.92h-.92V87Zm0,2v.92h-.92V89Zm1-3v.92h-.92V86Zm0,1v.92h-.92V87Zm0,1v.92h-.92V88Zm0,1v.92h-.92V89Z"/><path class="cls-3" d="M75,85v.92h-.92V85Zm0,1v.92h-.92V86Zm0,1v.92h-.92V87Zm0,1v.92h-.92V88Zm0,1v.92h-.92V89Zm1-3v.92h-.92V86Zm1-1v.92h-.92V85Zm1,0v.92h-.92V85Z"/></g></svg>