<svg xmlns="http://www.w3.org/2000/svg" width="146" height="96" viewBox="0 0 146 96"><defs><style>.cls-1{fill:#d8d8d8;}.cls-2,.cls-6{fill:#09090a;opacity:0.9;}.cls-3{fill:#fff;}.cls-4{fill:#b3b3b3;}.cls-5{fill:gray;}.cls-6{fill-opacity:0.7;}</style></defs><title>df</title><g id="blog-style-6-alika"><path class="cls-1" d="M143,3V79H3V3H143m1-1H2V80H144V2Z"/><rect x="2" y="78" width="142" height="16"/><rect class="cls-2" x="19" y="32" width="52" height="29"/><path class="cls-3" d="M42.88,45l1.51,3H40.87l2-3M43,43l-4,6h7l-3-6Z"/><path class="cls-3" d="M47.88,45.75,49.23,48H46.08l1.8-2.25M48,44l-4,5h7l-3-5Z"/><rect class="cls-4" x="21" y="68" width="12" height="1"/><rect class="cls-4" x="21" y="72" width="52" height="1"/><rect class="cls-4" x="21" y="75" width="52" height="1"/><rect class="cls-5" x="21" y="63" width="21" height="3"/><rect class="cls-6" x="75" y="32" width="52" height="32"/><path class="cls-3" d="M98.88,47l1.51,3H96.87l2-3M99,45l-4,6h7l-3-6Z"/><path class="cls-3" d="M103.88,47.75,105.23,50h-3.15l1.8-2.25M104,46l-4,5h7l-3-5Z"/><rect class="cls-4" x="77" y="71" width="12" height="1"/><rect class="cls-4" x="77" y="75" width="52" height="1"/><rect class="cls-5" x="77" y="66" width="21" height="3"/><rect class="cls-2" x="19" y="5" width="108" height="10"/><rect class="cls-4" x="67" y="22" width="12" height="1"/><rect class="cls-4" x="38" y="25" width="70" height="1"/><rect class="cls-4" x="38" y="28" width="70" height="1"/><rect class="cls-5" x="48" y="17" width="50" height="3"/><path class="cls-3" d="M58,84v.92H57V84Zm0,1v.92H57V85Zm0,4v.92H57V89Zm1-6v.92H58V83Zm0,3v.92H58V86Zm0,3v.92H58V89Zm1-6v.92H59V83Zm0,3v.92H59V86Zm0,3v.92H59V89Zm1-6v.92H60V83Zm0,3v.92H60V86Zm0,3v.92H60V89Zm1-6v.92H61V83Zm0,4v.92H61V87Zm0,1v.92H61V88Z"/><path class="cls-3" d="M64,83v.92H63V83Zm0,1v.92H63V84Zm0,1v.92H63V85Zm0,1v.92H63V86Zm0,1v.92H63V87Zm0,1v.92H63V88Zm1-3v.92H64V85Zm0,4v.92H64V89Zm1-4v.92H65V85Zm0,4v.92H65V89Zm1-4v.92H66V85Zm0,4v.92H66V89Z"/><path class="cls-3" d="M68,91v.92H67V91Zm1-6v.92H68V85Zm0,1v.92H68V86Zm0,1v.92H68V87Zm0,4v.92H68V91Zm1-3v.92H69V88Zm0,2v.92H69V90Zm1-1v.92H70V89Zm1-1v.92H71V88Zm1-3v.92H72V85Zm0,1v.92H72V86Zm0,1v.92H72V87Z"/><path class="cls-3" d="M75,82v.92H74V82Zm0,1v.92H74V83Zm0,1v.92H74V84Zm0,1v.92H74V85Zm0,1v.92H74V86Zm0,1v.92H74V87Zm0,1v.92H74V88Zm1,1v.92H75V89Zm1,0v.92H76V89Z"/><path class="cls-3" d="M78,86v.92H77V86Zm0,1v.92H77V87Zm0,1v.92H77V88Zm1-3v.92H78V85Zm0,2v.92H78V87Zm0,2v.92H78V89Zm1-4v.92H79V85Zm0,2v.92H79V87Zm0,2v.92H79V89Zm1-4v.92H80V85Zm0,2v.92H80V87Zm0,2v.92H80V89Zm1-3v.92H81V86Zm0,1v.92H81V87Zm0,2v.92H81V89Z"/><path class="cls-3" d="M86,85v.92H85V85Zm0,1v.92H85V86Zm0,1v.92H85V87Zm0,1v.92H85V88Zm1-4v.92H86V84Zm0,2v.92H86V86Zm0,3v.92H86V89Zm1-6v.92H87V83Zm0,3v.92H87V86Zm0,3v.92H87V89Zm1-6v.92H88V83Zm0,3v.92H88V86Zm0,3v.92H88V89Zm1-6v.92H89V83Zm0,4v.92H89V87Zm0,1v.92H89V88Z"/></g></svg>