<svg xmlns="http://www.w3.org/2000/svg" width="146" height="96" viewBox="0 0 146 96"><defs><style>.cls-1{fill:#d8d8d8;}.cls-2{fill:#b3b3b3;}.cls-3{fill:gray;}.cls-4{fill:#fff;}</style></defs><title>single-post</title><g id="Layer_3" data-name="Layer 3"><path class="cls-1" d="M143,3V78H3V3H143m1-1H2V79H144V2Z"/><rect x="2" y="78" width="142" height="16"/><rect class="cls-2" x="19" y="18" width="12" height="1"/><rect class="cls-2" x="75" y="13" width="52" height="1"/><rect class="cls-2" x="75" y="16" width="52" height="1"/><rect class="cls-2" x="75" y="19" width="52" height="1"/><rect class="cls-2" x="75" y="22" width="52" height="1"/><rect class="cls-3" x="19" y="13" width="21" height="3"/><rect class="cls-2" x="19" y="33" width="12" height="1"/><rect class="cls-2" x="75" y="28" width="52" height="1"/><rect class="cls-2" x="75" y="31" width="52" height="1"/><rect class="cls-2" x="75" y="34" width="52" height="1"/><rect class="cls-2" x="75" y="37" width="52" height="1"/><rect class="cls-3" x="19" y="28" width="21" height="3"/><rect class="cls-2" x="19" y="48" width="12" height="1"/><rect class="cls-2" x="75" y="43" width="52" height="1"/><rect class="cls-2" x="75" y="46" width="52" height="1"/><rect class="cls-2" x="75" y="49" width="52" height="1"/><rect class="cls-2" x="75" y="52" width="52" height="1"/><rect class="cls-3" x="19" y="43" width="21" height="3"/><rect class="cls-2" x="19" y="63" width="12" height="1"/><rect class="cls-2" x="75" y="58" width="52" height="1"/><rect class="cls-2" x="75" y="61" width="52" height="1"/><rect class="cls-2" x="75" y="64" width="52" height="1"/><rect class="cls-2" x="75" y="67" width="52" height="1"/><rect class="cls-3" x="19" y="58" width="21" height="3"/><path class="cls-4" d="M59.92,84.08V85H59v-.92Zm0,1V86H59v-.92Zm0,4V90H59v-.92Zm1-6V84H60v-.92Zm0,3V87H60v-.92Zm0,3V90H60v-.92Zm1-6V84H61v-.92Zm0,3V87H61v-.92Zm0,3V90H61v-.92Zm1-6V84H62v-.92Zm0,3V87H62v-.92Zm0,3V90H62v-.92Zm1-6V84H63v-.92Zm0,4V88H63v-.92Zm0,1V89H63v-.92Z"/><path class="cls-4" d="M65.92,83.08V84H65v-.92Zm0,1V85H65v-.92Zm0,1V86H65v-.92Zm0,1V87H65v-.92Zm0,1V88H65v-.92Zm0,1V89H65v-.92Zm1-3V86H66v-.92Zm0,4V90H66v-.92Zm1-4V86H67v-.92Zm0,4V90H67v-.92Zm1-4V86H68v-.92Zm0,4V90H68v-.92Z"/><path class="cls-4" d="M69.92,91.08V92H69v-.92Zm1-6V86H70v-.92Zm0,1V87H70v-.92Zm0,1V88H70v-.92Zm0,4V92H70v-.92Zm1-3V89H71v-.92Zm0,2V91H71v-.92Zm1-1V90H72v-.92Zm1-1V89H73v-.92Zm1-3V86H74v-.92Zm0,1V87H74v-.92Zm0,1V88H74v-.92Z"/><path class="cls-4" d="M76.92,82.08V83H76v-.92Zm0,1V84H76v-.92Zm0,1V85H76v-.92Zm0,1V86H76v-.92Zm0,1V87H76v-.92Zm0,1V88H76v-.92Zm0,1V89H76v-.92Zm1,1V90H77v-.92Zm1,0V90H78v-.92Z"/><path class="cls-4" d="M79.92,86.08V87H79v-.92Zm0,1V88H79v-.92Zm0,1V89H79v-.92Zm1-3V86H80v-.92Zm0,2V88H80v-.92Zm0,2V90H80v-.92Zm1-4V86H81v-.92Zm0,2V88H81v-.92Zm0,2V90H81v-.92Zm1-4V86H82v-.92Zm0,2V88H82v-.92Zm0,2V90H82v-.92Zm1-3V87H83v-.92Zm0,1V88H83v-.92Zm0,2V90H83v-.92Z"/><path class="cls-4" d="M87.92,83.08V84H87v-.92Zm0,6V90H87v-.92Zm1-6V84H88v-.92Zm0,3V87H88v-.92Zm0,3V90H88v-.92Zm1-6V84H89v-.92Zm0,2V86H89v-.92Zm0,1V87H89v-.92Zm0,3V90H89v-.92Zm1-6V84H90v-.92Zm0,1V85H90v-.92Zm0,2V87H90v-.92Zm0,3V90H90v-.92Zm1-6V84H91v-.92Zm0,4V88H91v-.92Zm0,1V89H91v-.92Z"/></g></svg>