<svg xmlns="http://www.w3.org/2000/svg" width="96" height="96" viewBox="0 0 96 96"><defs><style>.cls-1{fill:#d8d8d8;}.cls-2{fill:#09090a;opacity:0.9;}.cls-3{fill:#fff;}</style></defs><title>df</title><g id="body-boxed"><path class="cls-1" d="M93,3V79H3V3H93m1-1H2V80H94V2Z"/><rect x="2" y="78" width="92" height="16"/><rect class="cls-2" x="5" y="5" width="12" height="71"/><rect class="cls-3" x="19" y="5" width="58" height="71"/><rect class="cls-2" x="79" y="5" width="12" height="71"/><path class="cls-3" d="M35,83v.92H34V83Zm0,1v.92H34V84Zm0,1v.92H34V85Zm0,1v.92H34V86Zm0,1v.92H34V87Zm0,1v.92H34V88Zm0,1v.92H34V89Zm1-6v.92H35V83Zm0,3v.92H35V86Zm0,3v.92H35V89Zm1-6v.92H36V83Zm0,3v.92H36V86Zm0,3v.92H36V89Zm1-6v.92H37V83Zm0,3v.92H37V86Zm0,3v.92H37V89Zm1-5v.92H38V84Zm0,1v.92H38V85Zm0,2v.92H38V87Zm0,1v.92H38V88Z"/><path class="cls-3" d="M41,86v.92H40V86Zm0,1v.92H40V87Zm0,1v.92H40V88Zm1-3v.92H41V85Zm0,4v.92H41V89Zm1-4v.92H42V85Zm0,4v.92H42V89Zm1-4v.92H43V85Zm0,4v.92H43V89Zm1-3v.92H44V86Zm0,1v.92H44V87Zm0,1v.92H44V88Z"/><path class="cls-3" d="M47,85v.92H46V85Zm0,1v.92H46V86Zm0,2v.92H46V88Zm0,1v.92H46V89Zm1-2v.92H47V87Zm1,0v.92H48V87Zm1,0v.92H49V87Zm1-2v.92H50V85Zm0,1v.92H50V86Zm0,2v.92H50V88Zm0,1v.92H50V89Z"/><path class="cls-3" d="M53,86v.92H52V86Zm0,1v.92H52V87Zm0,1v.92H52V88Zm1-3v.92H53V85Zm0,2v.92H53V87Zm0,2v.92H53V89Zm1-4v.92H54V85Zm0,2v.92H54V87Zm0,2v.92H54V89Zm1-4v.92H55V85Zm0,2v.92H55V87Zm0,2v.92H55V89Zm1-3v.92H56V86Zm0,1v.92H56V87Zm0,2v.92H56V89Z"/><path class="cls-3" d="M59,86v.92H58V86Zm0,1v.92H58V87Zm0,1v.92H58V88Zm1-3v.92H59V85Zm0,4v.92H59V89Zm1-4v.92H60V85Zm0,4v.92H60V89Zm1-4v.92H61V85Zm0,4v.92H61V89Zm1-7v.92H62V82Zm0,1v.92H62V83Zm0,1v.92H62V84Zm0,1v.92H62V85Zm0,1v.92H62V86Zm0,1v.92H62V87Zm0,1v.92H62V88Zm0,1v.92H62V89Z"/></g></svg>