<svg xmlns="http://www.w3.org/2000/svg" width="96" height="96" viewBox="0 0 96 96"><defs><style>.cls-1{fill:#d8d8d8;}.cls-2{fill:#fff;}.cls-3{fill:#262626;}</style></defs><title>df</title><g id="compare-style-3"><path class="cls-1" d="M93,3V79H3V3H93m1-1H2V80H94V2Z"/><rect x="2" y="78" width="92" height="16"/><path class="cls-2" d="M33,84v.92H32V84Zm0,1v.92H32V85Zm0,4v.92H32V89Zm1-6v.92H33V83Zm0,3v.92H33V86Zm0,3v.92H33V89Zm1-6v.92H34V83Zm0,3v.92H34V86Zm0,3v.92H34V89Zm1-6v.92H35V83Zm0,3v.92H35V86Zm0,3v.92H35V89Zm1-6v.92H36V83Zm0,4v.92H36V87Zm0,1v.92H36V88Z"/><path class="cls-2" d="M39,83v.92H38V83Zm0,1v.92H38V84Zm0,1v.92H38V85Zm0,1v.92H38V86Zm0,1v.92H38V87Zm0,1v.92H38V88Zm1-3v.92H39V85Zm0,4v.92H39V89Zm1-4v.92H40V85Zm0,4v.92H40V89Zm1-4v.92H41V85Zm0,4v.92H41V89Z"/><path class="cls-2" d="M43,91v.92H42V91Zm1-6v.92H43V85Zm0,1v.92H43V86Zm0,1v.92H43V87Zm0,4v.92H43V91Zm1-3v.92H44V88Zm0,2v.92H44V90Zm1-1v.92H45V89Zm1-1v.92H46V88Zm1-3v.92H47V85Zm0,1v.92H47V86Zm0,1v.92H47V87Z"/><path class="cls-2" d="M50,82v.92H49V82Zm0,1v.92H49V83Zm0,1v.92H49V84Zm0,1v.92H49V85Zm0,1v.92H49V86Zm0,1v.92H49V87Zm0,1v.92H49V88Zm1,1v.92H50V89Zm1,0v.92H51V89Z"/><path class="cls-2" d="M53,86v.92H52V86Zm0,1v.92H52V87Zm0,1v.92H52V88Zm1-3v.92H53V85Zm0,2v.92H53V87Zm0,2v.92H53V89Zm1-4v.92H54V85Zm0,2v.92H54V87Zm0,2v.92H54V89Zm1-4v.92H55V85Zm0,2v.92H55V87Zm0,2v.92H55V89Zm1-3v.92H56V86Zm0,1v.92H56V87Zm0,2v.92H56V89Z"/><path class="cls-2" d="M61,83v.92H60V83Zm0,6v.92H60V89Zm1-6v.92H61V83Zm0,3v.92H61V86Zm0,3v.92H61V89Zm1-6v.92H62V83Zm0,2v.92H62V85Zm0,1v.92H62V86Zm0,3v.92H62V89Zm1-6v.92H63V83Zm0,1v.92H63V84Zm0,2v.92H63V86Zm0,3v.92H63V89Zm1-6v.92H64V83Zm0,4v.92H64V87Zm0,1v.92H64V88Z"/><path class="cls-3" d="M16,38v.92H15V38Zm0,1v.92H15V39Zm0,1v.92H15V40Zm0,1v.92H15V41Zm0,1v.92H15V42Zm1-5v.92H16V37Zm0,6v.92H16V43Zm1-6v.92H17V37Zm0,6v.92H17V43Zm1-6v.92H18V37Zm0,6v.92H18V43Zm1-6v.92H19V37Zm0,1v.92H19V38Zm0,5v.92H19V43Z"/><path class="cls-3" d="M22,40v.92H21V40Zm0,1v.92H21V41Zm0,1v.92H21V42Zm1-3v.92H22V39Zm0,4v.92H22V43Zm1-4v.92H23V39Zm0,4v.92H23V43Zm1-4v.92H24V39Zm0,4v.92H24V43Zm1-3v.92H25V40Zm0,1v.92H25V41Zm0,1v.92H25V42Z"/><path class="cls-3" d="M28,39v.92H27V39Zm0,1v.92H27V40Zm0,1v.92H27V41Zm0,1v.92H27V42Zm0,1v.92H27V43Zm1-4v.92H28V39Zm1,0v.92H29V39Zm1,0v.92H30V39Zm0,1v.92H30V40Zm0,1v.92H30V41Zm0,1v.92H30V42Zm0,1v.92H30V43Zm1-4v.92H31V39Zm1,0v.92H32V39Zm1,1v.92H33V40Zm0,1v.92H33V41Zm0,1v.92H33V42Zm0,1v.92H33V43Z"/><path class="cls-3" d="M36,39v.92H35V39Zm0,1v.92H35V40Zm0,1v.92H35V41Zm0,1v.92H35V42Zm0,1v.92H35V43Zm0,1v.92H35V44Zm0,1v.92H35V45Zm1-6v.92H36V39Zm0,4v.92H36V43Zm1-4v.92H37V39Zm0,4v.92H37V43Zm1-4v.92H38V39Zm0,4v.92H38V43Zm1-3v.92H39V40Zm0,1v.92H39V41Zm0,1v.92H39V42Z"/><path class="cls-3" d="M42,42v.92H41V42Zm1-3v.92H42V39Zm0,2v.92H42V41Zm0,2v.92H42V43Zm1-4v.92H43V39Zm0,2v.92H43V41Zm0,2v.92H43V43Zm1-4v.92H44V39Zm0,2v.92H44V41Zm0,2v.92H44V43Zm1-3v.92H45V40Zm0,1v.92H45V41Zm0,1v.92H45V42Zm0,1v.92H45V43Z"/><path class="cls-3" d="M48,39v.92H47V39Zm0,1v.92H47V40Zm0,1v.92H47V41Zm0,1v.92H47V42Zm0,1v.92H47V43Zm1-3v.92H48V40Zm1-1v.92H49V39Zm1,0v.92H50V39Z"/><path class="cls-3" d="M52,40v.92H51V40Zm0,1v.92H51V41Zm0,1v.92H51V42Zm1-3v.92H52V39Zm0,2v.92H52V41Zm0,2v.92H52V43Zm1-4v.92H53V39Zm0,2v.92H53V41Zm0,2v.92H53V43Zm1-4v.92H54V39Zm0,2v.92H54V41Zm0,2v.92H54V43Zm1-3v.92H55V40Zm0,1v.92H55V41Zm0,2v.92H55V43Z"/><path class="cls-3" d="M60,37v.92H59V37Zm0,6v.92H59V43Zm1-6v.92H60V37Zm0,3v.92H60V40Zm0,3v.92H60V43Zm1-6v.92H61V37Zm0,2v.92H61V39Zm0,1v.92H61V40Zm0,3v.92H61V43Zm1-6v.92H62V37Zm0,1v.92H62V38Zm0,2v.92H62V40Zm0,3v.92H62V43Zm1-6v.92H63V37Zm0,4v.92H63V41Zm0,1v.92H63V42Z"/><path d="M83,46.51l-2.31,2.35L80,48.16,81.12,47H69.29L68,45.72V38l1,1v6.29l.71.71H81.12L80,44.87l.69-.71ZM70,36.16,68.88,35H80.29l.71.71V42l1,1V35.31L80.71,34H68.88L70,32.87l-.69-.71L67,34.51l2.31,2.35Z"/></g></svg>