<svg xmlns="http://www.w3.org/2000/svg" width="96" height="96" viewBox="0 0 96 96"><defs><style>.cls-1{fill:#d8d8d8;}.cls-2{fill:#3c3cc6;}.cls-3{fill:#fff;}.cls-4{fill:#262626;}</style></defs><title>df</title><g id="compare-style-5"><path class="cls-1" d="M93,3V79H3V3H93m1-1H2V80H94V2Z"/><rect x="2" y="78" width="92" height="16"/><circle class="cls-2" cx="24.5" cy="40.5" r="9.5"/><path class="cls-3" d="M33,84v.92H32V84Zm0,1v.92H32V85Zm0,4v.92H32V89Zm1-6v.92H33V83Zm0,3v.92H33V86Zm0,3v.92H33V89Zm1-6v.92H34V83Zm0,3v.92H34V86Zm0,3v.92H34V89Zm1-6v.92H35V83Zm0,3v.92H35V86Zm0,3v.92H35V89Zm1-6v.92H36V83Zm0,4v.92H36V87Zm0,1v.92H36V88Z"/><path class="cls-3" d="M39,83v.92H38V83Zm0,1v.92H38V84Zm0,1v.92H38V85Zm0,1v.92H38V86Zm0,1v.92H38V87Zm0,1v.92H38V88Zm1-3v.92H39V85Zm0,4v.92H39V89Zm1-4v.92H40V85Zm0,4v.92H40V89Zm1-4v.92H41V85Zm0,4v.92H41V89Z"/><path class="cls-3" d="M43,91v.92H42V91Zm1-6v.92H43V85Zm0,1v.92H43V86Zm0,1v.92H43V87Zm0,4v.92H43V91Zm1-3v.92H44V88Zm0,2v.92H44V90Zm1-1v.92H45V89Zm1-1v.92H46V88Zm1-3v.92H47V85Zm0,1v.92H47V86Zm0,1v.92H47V87Z"/><path class="cls-3" d="M50,82v.92H49V82Zm0,1v.92H49V83Zm0,1v.92H49V84Zm0,1v.92H49V85Zm0,1v.92H49V86Zm0,1v.92H49V87Zm0,1v.92H49V88Zm1,1v.92H50V89Zm1,0v.92H51V89Z"/><path class="cls-3" d="M53,86v.92H52V86Zm0,1v.92H52V87Zm0,1v.92H52V88Zm1-3v.92H53V85Zm0,2v.92H53V87Zm0,2v.92H53V89Zm1-4v.92H54V85Zm0,2v.92H54V87Zm0,2v.92H54V89Zm1-4v.92H55V85Zm0,2v.92H55V87Zm0,2v.92H55V89Zm1-3v.92H56V86Zm0,1v.92H56V87Zm0,2v.92H56V89Z"/><path class="cls-3" d="M61,83v.92H60V83Zm0,1v.92H60V84Zm0,1v.92H60V85Zm0,1v.92H60V86Zm0,3v.92H60V89Zm1-6v.92H61V83Zm0,3v.92H61V86Zm0,3v.92H61V89Zm1-6v.92H62V83Zm0,3v.92H62V86Zm0,3v.92H62V89Zm1-6v.92H63V83Zm0,3v.92H63V86Zm0,3v.92H63V89Zm1-6v.92H64V83Zm0,4v.92H64V87Zm0,1v.92H64V88Z"/><path class="cls-4" d="M37.92,38v.92H37V38Zm0,1v.92H37V39Zm0,1v.92H37V40Zm0,1v.92H37V41Zm0,1v.92H37V42Zm1-5v.92H38V37Zm0,6v.92H38V43Zm1-6v.92H39V37Zm0,6v.92H39V43Zm1-6v.92H40V37Zm0,6v.92H40V43Zm1-6v.92H41V37Zm0,1v.92H41V38Zm0,5v.92H41V43Z"/><path class="cls-4" d="M43.92,40v.92H43V40Zm0,1v.92H43V41Zm0,1v.92H43V42Zm1-3v.92H44V39Zm0,4v.92H44V43Zm1-4v.92H45V39Zm0,4v.92H45V43Zm1-4v.92H46V39Zm0,4v.92H46V43Zm1-3v.92H47V40Zm0,1v.92H47V41Zm0,1v.92H47V42Z"/><path class="cls-4" d="M49.92,39v.92H49V39Zm0,1v.92H49V40Zm0,1v.92H49V41Zm0,1v.92H49V42Zm0,1v.92H49V43Zm1-4v.92H50V39Zm1,0v.92H51V39Zm1,0v.92H52V39Zm0,1v.92H52V40Zm0,1v.92H52V41Zm0,1v.92H52V42Zm0,1v.92H52V43Zm1-4v.92H53V39Zm1,0v.92H54V39Zm1,1v.92H55V40Zm0,1v.92H55V41Zm0,1v.92H55V42Zm0,1v.92H55V43Z"/><path class="cls-4" d="M57.92,39v.92H57V39Zm0,1v.92H57V40Zm0,1v.92H57V41Zm0,1v.92H57V42Zm0,1v.92H57V43Zm0,1v.92H57V44Zm0,1v.92H57V45Zm1-6v.92H58V39Zm0,4v.92H58V43Zm1-4v.92H59V39Zm0,4v.92H59V43Zm1-4v.92H60V39Zm0,4v.92H60V43Zm1-3v.92H61V40Zm0,1v.92H61V41Zm0,1v.92H61V42Z"/><path class="cls-4" d="M63.92,42v.92H63V42Zm1-3v.92H64V39Zm0,2v.92H64V41Zm0,2v.92H64V43Zm1-4v.92H65V39Zm0,2v.92H65V41Zm0,2v.92H65V43Zm1-4v.92H66V39Zm0,2v.92H66V41Zm0,2v.92H66V43Zm1-3v.92H67V40Zm0,1v.92H67V41Zm0,1v.92H67V42Zm0,1v.92H67V43Z"/><path class="cls-4" d="M69.92,39v.92H69V39Zm0,1v.92H69V40Zm0,1v.92H69V41Zm0,1v.92H69V42Zm0,1v.92H69V43Zm1-3v.92H70V40Zm1-1v.92H71V39Zm1,0v.92H72V39Z"/><path class="cls-4" d="M73.92,40v.92H73V40Zm0,1v.92H73V41Zm0,1v.92H73V42Zm1-3v.92H74V39Zm0,2v.92H74V41Zm0,2v.92H74V43Zm1-4v.92H75V39Zm0,2v.92H75V41Zm0,2v.92H75V43Zm1-4v.92H76V39Zm0,2v.92H76V41Zm0,2v.92H76V43Zm1-3v.92H77V40Zm0,1v.92H77V41Zm0,2v.92H77V43Z"/><path class="cls-3" d="M23,37v.92h-.92V37Zm0,6v.92h-.92V43Zm1-6v.92h-.92V37Zm0,3v.92h-.92V40Zm0,3v.92h-.92V43Zm1-6v.92h-.92V37Zm0,2v.92h-.92V39Zm0,1v.92h-.92V40Zm0,3v.92h-.92V43Zm1-6v.92h-.92V37Zm0,1v.92h-.92V38Zm0,2v.92h-.92V40Zm0,3v.92h-.92V43Zm1-6v.92h-.92V37Zm0,4v.92h-.92V41Zm0,1v.92h-.92V42Z"/></g></svg>