<svg xmlns="http://www.w3.org/2000/svg" width="96" height="96" viewBox="0 0 96 96"><defs><style>.cls-1{fill:#d8d8d8;}.cls-2{fill:#fff;}.cls-3{fill:#262626;}</style></defs><title>df</title><g id="compare-style-2"><path class="cls-1" d="M93,3V79H3V3H93m1-1H2V80H94V2Z"/><rect x="2" y="78" width="92" height="16"/><path class="cls-2" d="M33,84v.92H32V84Zm0,1v.92H32V85Zm0,4v.92H32V89Zm1-6v.92H33V83Zm0,3v.92H33V86Zm0,3v.92H33V89Zm1-6v.92H34V83Zm0,3v.92H34V86Zm0,3v.92H34V89Zm1-6v.92H35V83Zm0,3v.92H35V86Zm0,3v.92H35V89Zm1-6v.92H36V83Zm0,4v.92H36V87Zm0,1v.92H36V88Z"/><path class="cls-2" d="M39,83v.92H38V83Zm0,1v.92H38V84Zm0,1v.92H38V85Zm0,1v.92H38V86Zm0,1v.92H38V87Zm0,1v.92H38V88Zm1-3v.92H39V85Zm0,4v.92H39V89Zm1-4v.92H40V85Zm0,4v.92H40V89Zm1-4v.92H41V85Zm0,4v.92H41V89Z"/><path class="cls-2" d="M43,91v.92H42V91Zm1-6v.92H43V85Zm0,1v.92H43V86Zm0,1v.92H43V87Zm0,4v.92H43V91Zm1-3v.92H44V88Zm0,2v.92H44V90Zm1-1v.92H45V89Zm1-1v.92H46V88Zm1-3v.92H47V85Zm0,1v.92H47V86Zm0,1v.92H47V87Z"/><path class="cls-2" d="M50,82v.92H49V82Zm0,1v.92H49V83Zm0,1v.92H49V84Zm0,1v.92H49V85Zm0,1v.92H49V86Zm0,1v.92H49V87Zm0,1v.92H49V88Zm1,1v.92H50V89Zm1,0v.92H51V89Z"/><path class="cls-2" d="M53,86v.92H52V86Zm0,1v.92H52V87Zm0,1v.92H52V88Zm1-3v.92H53V85Zm0,2v.92H53V87Zm0,2v.92H53V89Zm1-4v.92H54V85Zm0,2v.92H54V87Zm0,2v.92H54V89Zm1-4v.92H55V85Zm0,2v.92H55V87Zm0,2v.92H55V89Zm1-3v.92H56V86Zm0,1v.92H56V87Zm0,2v.92H56V89Z"/><path class="cls-2" d="M61,83v.92H60V83Zm0,5v.92H60V88Zm0,1v.92H60V89Zm1-6v.92H61V83Zm0,4v.92H61V87Zm0,2v.92H61V89Zm1-6v.92H62V83Zm0,3v.92H62V86Zm0,3v.92H62V89Zm1-6v.92H63V83Zm0,3v.92H63V86Zm0,3v.92H63V89Zm1-5v.92H64V84Zm0,1v.92H64V85Zm0,4v.92H64V89Z"/><path class="cls-3" d="M35,38v.92h-.92V38Zm0,1v.92h-.92V39Zm0,1v.92h-.92V40Zm0,1v.92h-.92V41Zm0,1v.92h-.92V42Zm1-5v.92h-.92V37Zm0,6v.92h-.92V43Zm1-6v.92h-.92V37Zm0,6v.92h-.92V43Zm1-6v.92h-.92V37Zm0,6v.92h-.92V43Zm1-6v.92h-.92V37Zm0,1v.92h-.92V38Zm0,5v.92h-.92V43Z"/><path class="cls-3" d="M41,40v.92h-.92V40Zm0,1v.92h-.92V41Zm0,1v.92h-.92V42Zm1-3v.92h-.92V39Zm0,4v.92h-.92V43Zm1-4v.92h-.92V39Zm0,4v.92h-.92V43Zm1-4v.92h-.92V39Zm0,4v.92h-.92V43Zm1-3v.92h-.92V40Zm0,1v.92h-.92V41Zm0,1v.92h-.92V42Z"/><path class="cls-3" d="M47,39v.92h-.92V39Zm0,1v.92h-.92V40Zm0,1v.92h-.92V41Zm0,1v.92h-.92V42Zm0,1v.92h-.92V43Zm1-4v.92h-.92V39Zm1,0v.92h-.92V39Zm1,0v.92h-.92V39Zm0,1v.92h-.92V40Zm0,1v.92h-.92V41Zm0,1v.92h-.92V42Zm0,1v.92h-.92V43Zm1-4v.92h-.92V39Zm1,0v.92h-.92V39Zm1,1v.92h-.92V40Zm0,1v.92h-.92V41Zm0,1v.92h-.92V42Zm0,1v.92h-.92V43Z"/><path class="cls-3" d="M55,39v.92h-.92V39Zm0,1v.92h-.92V40Zm0,1v.92h-.92V41Zm0,1v.92h-.92V42Zm0,1v.92h-.92V43Zm0,1v.92h-.92V44Zm0,1v.92h-.92V45Zm1-6v.92h-.92V39Zm0,4v.92h-.92V43Zm1-4v.92h-.92V39Zm0,4v.92h-.92V43Zm1-4v.92h-.92V39Zm0,4v.92h-.92V43Zm1-3v.92h-.92V40Zm0,1v.92h-.92V41Zm0,1v.92h-.92V42Z"/><path class="cls-3" d="M61,42v.92h-.92V42Zm1-3v.92h-.92V39Zm0,2v.92h-.92V41Zm0,2v.92h-.92V43Zm1-4v.92h-.92V39Zm0,2v.92h-.92V41Zm0,2v.92h-.92V43Zm1-4v.92h-.92V39Zm0,2v.92h-.92V41Zm0,2v.92h-.92V43Zm1-3v.92h-.92V40Zm0,1v.92h-.92V41Zm0,1v.92h-.92V42Zm0,1v.92h-.92V43Z"/><path class="cls-3" d="M67,39v.92h-.92V39Zm0,1v.92h-.92V40Zm0,1v.92h-.92V41Zm0,1v.92h-.92V42Zm0,1v.92h-.92V43Zm1-3v.92h-.92V40Zm1-1v.92h-.92V39Zm1,0v.92h-.92V39Z"/><path class="cls-3" d="M71,40v.92h-.92V40Zm0,1v.92h-.92V41Zm0,1v.92h-.92V42Zm1-3v.92h-.92V39Zm0,2v.92h-.92V41Zm0,2v.92h-.92V43Zm1-4v.92h-.92V39Zm0,2v.92h-.92V41Zm0,2v.92h-.92V43Zm1-4v.92h-.92V39Zm0,2v.92h-.92V41Zm0,2v.92h-.92V43Zm1-3v.92h-.92V40Zm0,1v.92h-.92V41Zm0,2v.92h-.92V43Z"/><path class="cls-3" d="M79,37v.92h-.92V37Zm0,6v.92h-.92V43Zm1-6v.92h-.92V37Zm0,3v.92h-.92V40Zm0,3v.92h-.92V43Zm1-6v.92h-.92V37Zm0,2v.92h-.92V39Zm0,1v.92h-.92V40Zm0,3v.92h-.92V43Zm1-6v.92h-.92V37Zm0,1v.92h-.92V38Zm0,2v.92h-.92V40Zm0,3v.92h-.92V43Zm1-6v.92h-.92V37Zm0,4v.92h-.92V41Zm0,1v.92h-.92V42Z"/><path d="M31,46.52,28.7,48.87,28,48.16,29.13,47H17.3L16,45.73V38l1,1v6.29l.71.71H29.13L28,44.87l.69-.71ZM18,36.16,16.88,35H28.3l.71.71V42l1,1V35.31L28.71,34H16.88L18,32.87l-.69-.71L15,34.52l2.31,2.35Z"/></g></svg>