<svg xmlns="http://www.w3.org/2000/svg" width="96" height="96" viewBox="0 0 96 96"><defs><style>.cls-1{fill:#d8d8d8;}.cls-2{fill:#3c3cc6;}.cls-3{fill:#fff;}</style></defs><title>df</title><g id="compare-style-7"><path class="cls-1" d="M93,3V79H3V3H93m1-1H2V80H94V2Z"/><rect x="2" y="78" width="92" height="16"/><circle class="cls-2" cx="37.46" cy="40.5" r="9.5"/><path class="cls-3" d="M33,84v.92H32V84Zm0,1v.92H32V85Zm0,4v.92H32V89Zm1-6v.92H33V83Zm0,3v.92H33V86Zm0,3v.92H33V89Zm1-6v.92H34V83Zm0,3v.92H34V86Zm0,3v.92H34V89Zm1-6v.92H35V83Zm0,3v.92H35V86Zm0,3v.92H35V89Zm1-6v.92H36V83Zm0,4v.92H36V87Zm0,1v.92H36V88Z"/><path class="cls-3" d="M39,83v.92H38V83Zm0,1v.92H38V84Zm0,1v.92H38V85Zm0,1v.92H38V86Zm0,1v.92H38V87Zm0,1v.92H38V88Zm1-3v.92H39V85Zm0,4v.92H39V89Zm1-4v.92H40V85Zm0,4v.92H40V89Zm1-4v.92H41V85Zm0,4v.92H41V89Z"/><path class="cls-3" d="M43,91v.92H42V91Zm1-6v.92H43V85Zm0,1v.92H43V86Zm0,1v.92H43V87Zm0,4v.92H43V91Zm1-3v.92H44V88Zm0,2v.92H44V90Zm1-1v.92H45V89Zm1-1v.92H46V88Zm1-3v.92H47V85Zm0,1v.92H47V86Zm0,1v.92H47V87Z"/><path class="cls-3" d="M50,82v.92H49V82Zm0,1v.92H49V83Zm0,1v.92H49V84Zm0,1v.92H49V85Zm0,1v.92H49V86Zm0,1v.92H49V87Zm0,1v.92H49V88Zm1,1v.92H50V89Zm1,0v.92H51V89Z"/><path class="cls-3" d="M53,86v.92H52V86Zm0,1v.92H52V87Zm0,1v.92H52V88Zm1-3v.92H53V85Zm0,2v.92H53V87Zm0,2v.92H53V89Zm1-4v.92H54V85Zm0,2v.92H54V87Zm0,2v.92H54V89Zm1-4v.92H55V85Zm0,2v.92H55V87Zm0,2v.92H55V89Zm1-3v.92H56V86Zm0,1v.92H56V87Zm0,2v.92H56V89Z"/><path class="cls-3" d="M61,83v.92H60V83Zm1,0v.92H61V83Zm0,4v.92H61V87Zm0,1v.92H61V88Zm0,1v.92H61V89Zm1-6v.92H62V83Zm0,3v.92H62V86Zm1-3v.92H63V83Zm0,2v.92H63V85Zm1-2v.92H64V83Zm0,1v.92H64V84Z"/><path class="cls-3" d="M36,37v.92H35V37Zm0,6v.92H35V43Zm1-6v.92H36V37Zm0,3v.92H36V40Zm0,3v.92H36V43Zm1-6v.92H37V37Zm0,2v.92H37V39Zm0,1v.92H37V40Zm0,3v.92H37V43Zm1-6v.92H38V37Zm0,1v.92H38V38Zm0,2v.92H38V40Zm0,3v.92H38V43Zm1-6v.92H39V37Zm0,4v.92H39V41Zm0,1v.92H39V42Z"/><path d="M65,46.35l-2.31,2.35L62,48l1.12-1.15H51.29L50,45.56V37.85l1,1v6.29l.71.71H63.12L62,44.71l.69-.71ZM52,36l-1.12-1.15H62.29l.71.71v6.29l1,1V35.15l-1.29-1.29H50.88L52,32.71,51.31,32,49,34.35l2.31,2.35Z"/></g></svg>