<svg xmlns="http://www.w3.org/2000/svg" width="96" height="96" viewBox="0 0 96 96"><defs><style>.cls-1{fill:#d8d8d8;}.cls-2{fill:#3c3cc6;}.cls-3{fill:#fff;}.cls-4{fill:#262626;}</style></defs><title>df</title><g id="cart-style-5"><path class="cls-1" d="M93,3V79H3V3H93m1-1H2V80H94V2Z"/><rect x="2" y="78" width="92" height="16"/><circle class="cls-2" cx="60.5" cy="40.5" r="9.5"/><path class="cls-3" d="M33,84v.92H32V84Zm0,1v.92H32V85Zm0,4v.92H32V89Zm1-6v.92H33V83Zm0,3v.92H33V86Zm0,3v.92H33V89Zm1-6v.92H34V83Zm0,3v.92H34V86Zm0,3v.92H34V89Zm1-6v.92H35V83Zm0,3v.92H35V86Zm0,3v.92H35V89Zm1-6v.92H36V83Zm0,4v.92H36V87Zm0,1v.92H36V88Z"/><path class="cls-3" d="M39,83v.92H38V83Zm0,1v.92H38V84Zm0,1v.92H38V85Zm0,1v.92H38V86Zm0,1v.92H38V87Zm0,1v.92H38V88Zm1-3v.92H39V85Zm0,4v.92H39V89Zm1-4v.92H40V85Zm0,4v.92H40V89Zm1-4v.92H41V85Zm0,4v.92H41V89Z"/><path class="cls-3" d="M43,91v.92H42V91Zm1-6v.92H43V85Zm0,1v.92H43V86Zm0,1v.92H43V87Zm0,4v.92H43V91Zm1-3v.92H44V88Zm0,2v.92H44V90Zm1-1v.92H45V89Zm1-1v.92H46V88Zm1-3v.92H47V85Zm0,1v.92H47V86Zm0,1v.92H47V87Z"/><path class="cls-3" d="M50,82v.92H49V82Zm0,1v.92H49V83Zm0,1v.92H49V84Zm0,1v.92H49V85Zm0,1v.92H49V86Zm0,1v.92H49V87Zm0,1v.92H49V88Zm1,1v.92H50V89Zm1,0v.92H51V89Z"/><path class="cls-3" d="M53,86v.92H52V86Zm0,1v.92H52V87Zm0,1v.92H52V88Zm1-3v.92H53V85Zm0,2v.92H53V87Zm0,2v.92H53V89Zm1-4v.92H54V85Zm0,2v.92H54V87Zm0,2v.92H54V89Zm1-4v.92H55V85Zm0,2v.92H55V87Zm0,2v.92H55V89Zm1-3v.92H56V86Zm0,1v.92H56V87Zm0,2v.92H56V89Z"/><path class="cls-3" d="M61,83v.92H60V83Zm0,1v.92H60V84Zm0,1v.92H60V85Zm0,1v.92H60V86Zm0,3v.92H60V89Zm1-6v.92H61V83Zm0,3v.92H61V86Zm0,3v.92H61V89Zm1-6v.92H62V83Zm0,3v.92H62V86Zm0,3v.92H62V89Zm1-6v.92H63V83Zm0,3v.92H63V86Zm0,3v.92H63V89Zm1-6v.92H64V83Zm0,4v.92H64V87Zm0,1v.92H64V88Z"/><path class="cls-4" d="M27.92,38.08V39H27v-.92Zm0,1V40H27v-.92Zm0,1V41H27v-.92Zm0,1V42H27v-.92Zm0,1V43H27v-.92Zm1-5V38H28v-.92Zm0,6V44H28v-.92Zm1-6V38H29v-.92Zm0,6V44H29v-.92Zm1-6V38H30v-.92Zm0,6V44H30v-.92Zm1-6V38H31v-.92Zm0,1V39H31v-.92Zm0,5V44H31v-.92Z"/><path class="cls-4" d="M33.92,42.08V43H33v-.92Zm1-3V40H34v-.92Zm0,2V42H34v-.92Zm0,2V44H34v-.92Zm1-4V40H35v-.92Zm0,2V42H35v-.92Zm0,2V44H35v-.92Zm1-4V40H36v-.92Zm0,2V42H36v-.92Zm0,2V44H36v-.92Zm1-3V41H37v-.92Zm0,1V42H37v-.92Zm0,1V43H37v-.92Zm0,1V44H37v-.92Z"/><path class="cls-4" d="M39.92,39.08V40H39v-.92Zm0,1V41H39v-.92Zm0,1V42H39v-.92Zm0,1V43H39v-.92Zm0,1V44H39v-.92Zm1-3V41H40v-.92Zm1-1V40H41v-.92Zm1,0V40H42v-.92Z"/><path class="cls-4" d="M43.92,37.08V38H43v-.92Zm0,1V39H43v-.92Zm0,1V40H43v-.92Zm0,1V41H43v-.92Zm0,1V42H43v-.92Zm0,1V43H43v-.92Zm1-3V40H44v-.92Zm0,4V44H44v-.92Zm1-4V40H45v-.92Zm0,4V44H45v-.92Zm1-4V40H46v-.92Zm0,4V44H46v-.92Z"/><path class="cls-3" d="M56,37v.92H55V37Zm0,5v.92H55V42Zm0,1v.92H55V43Zm1-6v.92H56V37Zm0,4v.92H56V41Zm0,2v.92H56V43Zm1-6v.92H57V37Zm0,3v.92H57V40Zm0,3v.92H57V43Zm1-6v.92H58V37Zm0,3v.92H58V40Zm0,3v.92H58V43Zm1-5v.92H59V38Zm0,1v.92H59V39Zm0,4v.92H59V43Z"/><path class="cls-3" d="M62,37v.92H61V37Zm0,6v.92H61V43Zm1-6v.92H62V37Zm0,3v.92H62V40Zm0,3v.92H62V43Zm1-6v.92H63V37Zm0,2v.92H63V39Zm0,1v.92H63V40Zm0,3v.92H63V43Zm1-6v.92H64V37Zm0,1v.92H64V38Zm0,2v.92H64V40Zm0,3v.92H64V43Zm1-6v.92H65V37Zm0,4v.92H65V41Zm0,1v.92H65V42Z"/></g></svg>