<svg xmlns="http://www.w3.org/2000/svg" width="96" height="96" viewBox="0 0 96 96"><defs><style>.cls-1{fill:#d8d8d8;}.cls-2{fill:#fff;}.cls-3{fill:#262626;}</style></defs><title>df</title><g id="cart-style-2"><path class="cls-1" d="M93,3V79H3V3H93m1-1H2V80H94V2Z"/><rect x="2" y="78" width="92" height="16"/><path class="cls-2" d="M33,84v.92H32V84Zm0,1v.92H32V85Zm0,4v.92H32V89Zm1-6v.92H33V83Zm0,3v.92H33V86Zm0,3v.92H33V89Zm1-6v.92H34V83Zm0,3v.92H34V86Zm0,3v.92H34V89Zm1-6v.92H35V83Zm0,3v.92H35V86Zm0,3v.92H35V89Zm1-6v.92H36V83Zm0,4v.92H36V87Zm0,1v.92H36V88Z"/><path class="cls-2" d="M39,83v.92H38V83Zm0,1v.92H38V84Zm0,1v.92H38V85Zm0,1v.92H38V86Zm0,1v.92H38V87Zm0,1v.92H38V88Zm1-3v.92H39V85Zm0,4v.92H39V89Zm1-4v.92H40V85Zm0,4v.92H40V89Zm1-4v.92H41V85Zm0,4v.92H41V89Z"/><path class="cls-2" d="M43,91v.92H42V91Zm1-6v.92H43V85Zm0,1v.92H43V86Zm0,1v.92H43V87Zm0,4v.92H43V91Zm1-3v.92H44V88Zm0,2v.92H44V90Zm1-1v.92H45V89Zm1-1v.92H46V88Zm1-3v.92H47V85Zm0,1v.92H47V86Zm0,1v.92H47V87Z"/><path class="cls-2" d="M50,82v.92H49V82Zm0,1v.92H49V83Zm0,1v.92H49V84Zm0,1v.92H49V85Zm0,1v.92H49V86Zm0,1v.92H49V87Zm0,1v.92H49V88Zm1,1v.92H50V89Zm1,0v.92H51V89Z"/><path class="cls-2" d="M53,86v.92H52V86Zm0,1v.92H52V87Zm0,1v.92H52V88Zm1-3v.92H53V85Zm0,2v.92H53V87Zm0,2v.92H53V89Zm1-4v.92H54V85Zm0,2v.92H54V87Zm0,2v.92H54V89Zm1-4v.92H55V85Zm0,2v.92H55V87Zm0,2v.92H55V89Zm1-3v.92H56V86Zm0,1v.92H56V87Zm0,2v.92H56V89Z"/><path class="cls-2" d="M61,83v.92H60V83Zm0,5v.92H60V88Zm0,1v.92H60V89Zm1-6v.92H61V83Zm0,4v.92H61V87Zm0,2v.92H61V89Zm1-6v.92H62V83Zm0,3v.92H62V86Zm0,3v.92H62V89Zm1-6v.92H63V83Zm0,3v.92H63V86Zm0,3v.92H63V89Zm1-5v.92H64V84Zm0,1v.92H64V85Zm0,4v.92H64V89Z"/><path class="cls-3" d="M32,38.08V39H31v-.92Zm0,1V40H31v-.92Zm0,1V41H31v-.92Zm0,1V42H31v-.92Zm0,1V43H31v-.92Zm1-5V38H32v-.92Zm0,6V44H32v-.92Zm1-6V38H33v-.92Zm0,6V44H33v-.92Zm1-6V38H34v-.92Zm0,6V44H34v-.92Zm1-6V38H35v-.92Zm0,1V39H35v-.92Zm0,5V44H35v-.92Z"/><path class="cls-3" d="M38,42.08V43H37v-.92Zm1-3V40H38v-.92Zm0,2V42H38v-.92Zm0,2V44H38v-.92Zm1-4V40H39v-.92Zm0,2V42H39v-.92Zm0,2V44H39v-.92Zm1-4V40H40v-.92Zm0,2V42H40v-.92Zm0,2V44H40v-.92Zm1-3V41H41v-.92Zm0,1V42H41v-.92Zm0,1V43H41v-.92Zm0,1V44H41v-.92Z"/><path class="cls-3" d="M44,39.08V40H43v-.92Zm0,1V41H43v-.92Zm0,1V42H43v-.92Zm0,1V43H43v-.92Zm0,1V44H43v-.92Zm1-3V41H44v-.92Zm1-1V40H45v-.92Zm1,0V40H46v-.92Z"/><path class="cls-3" d="M48,37.08V38H47v-.92Zm0,1V39H47v-.92Zm0,1V40H47v-.92Zm0,1V41H47v-.92Zm0,1V42H47v-.92Zm0,1V43H47v-.92Zm1-3V40H48v-.92Zm0,4V44H48v-.92Zm1-4V40H49v-.92Zm0,4V44H49v-.92Zm1-4V40H50v-.92Zm0,4V44H50v-.92Z"/><path class="cls-3" d="M55,37.08V38H54v-.92Zm0,5V43H54v-.92Zm0,1V44H54v-.92Zm1-6V38H55v-.92Zm0,4V42H55v-.92Zm0,2V44H55v-.92Zm1-6V38H56v-.92Zm0,3V41H56v-.92Zm0,3V44H56v-.92Zm1-6V38H57v-.92Zm0,3V41H57v-.92Zm0,3V44H57v-.92Zm1-5V39H58v-.92Zm0,1V40H58v-.92Zm0,4V44H58v-.92Z"/><path class="cls-3" d="M61,37.08V38H60v-.92Zm0,6V44H60v-.92Zm1-6V38H61v-.92Zm0,3V41H61v-.92Zm0,3V44H61v-.92Zm1-6V38H62v-.92Zm0,2V40H62v-.92Zm0,1V41H62v-.92Zm0,3V44H62v-.92Zm1-6V38H63v-.92Zm0,1V39H63v-.92Zm0,2V41H63v-.92Zm0,3V44H63v-.92Zm1-6V38H64v-.92Zm0,4V42H64v-.92Zm0,1V43H64v-.92Z"/></g></svg>