<svg xmlns="http://www.w3.org/2000/svg" width="96" height="96" viewBox="0 0 96 96"><defs><style>.cls-1{fill:#d8d8d8;}.cls-2{fill:#fff;}.cls-3{fill:#3c3cc6;}</style></defs><title>df</title><g id="cart-style-6"><path class="cls-1" d="M93,3V79H3V3H93m1-1H2V80H94V2Z"/><rect x="2" y="78" width="92" height="16"/><path class="cls-2" d="M33,84v.92H32V84Zm0,1v.92H32V85Zm0,4v.92H32V89Zm1-6v.92H33V83Zm0,3v.92H33V86Zm0,3v.92H33V89Zm1-6v.92H34V83Zm0,3v.92H34V86Zm0,3v.92H34V89Zm1-6v.92H35V83Zm0,3v.92H35V86Zm0,3v.92H35V89Zm1-6v.92H36V83Zm0,4v.92H36V87Zm0,1v.92H36V88Z"/><path class="cls-2" d="M39,83v.92H38V83Zm0,1v.92H38V84Zm0,1v.92H38V85Zm0,1v.92H38V86Zm0,1v.92H38V87Zm0,1v.92H38V88Zm1-3v.92H39V85Zm0,4v.92H39V89Zm1-4v.92H40V85Zm0,4v.92H40V89Zm1-4v.92H41V85Zm0,4v.92H41V89Z"/><path class="cls-2" d="M43,91v.92H42V91Zm1-6v.92H43V85Zm0,1v.92H43V86Zm0,1v.92H43V87Zm0,4v.92H43V91Zm1-3v.92H44V88Zm0,2v.92H44V90Zm1-1v.92H45V89Zm1-1v.92H46V88Zm1-3v.92H47V85Zm0,1v.92H47V86Zm0,1v.92H47V87Z"/><path class="cls-2" d="M50,82v.92H49V82Zm0,1v.92H49V83Zm0,1v.92H49V84Zm0,1v.92H49V85Zm0,1v.92H49V86Zm0,1v.92H49V87Zm0,1v.92H49V88Zm1,1v.92H50V89Zm1,0v.92H51V89Z"/><path class="cls-2" d="M53,86v.92H52V86Zm0,1v.92H52V87Zm0,1v.92H52V88Zm1-3v.92H53V85Zm0,2v.92H53V87Zm0,2v.92H53V89Zm1-4v.92H54V85Zm0,2v.92H54V87Zm0,2v.92H54V89Zm1-4v.92H55V85Zm0,2v.92H55V87Zm0,2v.92H55V89Zm1-3v.92H56V86Zm0,1v.92H56V87Zm0,2v.92H56V89Z"/><path class="cls-2" d="M61,85v.92H60V85Zm0,1v.92H60V86Zm0,1v.92H60V87Zm0,1v.92H60V88Zm1-4v.92H61V84Zm0,2v.92H61V86Zm0,3v.92H61V89Zm1-6v.92H62V83Zm0,3v.92H62V86Zm0,3v.92H62V89Zm1-6v.92H63V83Zm0,3v.92H63V86Zm0,3v.92H63V89Zm1-6v.92H64V83Zm0,4v.92H64V87Zm0,1v.92H64V88Z"/><circle class="cls-3" cx="60.5" cy="40.5" r="9.5"/><path class="cls-2" d="M56,37V38H55V37Zm0,5V43H55V42Zm0,1V44H55V43Zm1-6V38H56V37Zm0,4V42H56V41Zm0,2V44H56V43Zm1-6V38H57V37Zm0,3V41H57V40Zm0,3V44H57V43Zm1-6V38H58V37Zm0,3V41H58V40Zm0,3V44H58V43Zm1-5V39H59V38Zm0,1V40H59V39Zm0,4V44H59V43Z"/><path class="cls-2" d="M62,37V38H61V37Zm0,6V44H61V43Zm1-6V38H62V37Zm0,3V41H62V40Zm0,3V44H62V43Zm1-6V38H63V37Zm0,2V40H63V39Zm0,1V41H63V40Zm0,3V44H63V43Zm1-6V38H64V37Zm0,1V39H64V38Zm0,2V41H64V40Zm0,3V44H64V43Zm1-6V38H65V37Zm0,4V42H65V41Zm0,1V43H65V42Z"/><path d="M37.52,46a1,1,0,1,1-1,1,1,1,0,0,1,1-1m0-1a2,2,0,1,0,2,2,2,2,0,0,0-2-2ZM43,46a1,1,0,1,1-1,1,1,1,0,0,1,1-1m0-1a2,2,0,1,0,2,2,2,2,0,0,0-2-2Zm3.5-10H32.41l-.46-3H28.52v1h2.57l2,13h1.43V45h-.57l-.16-1,10.77-1,.44-.36,2-7Zm-2.39,7L33.64,43l-1.07-7H45.86Z"/></g></svg>