<svg xmlns="http://www.w3.org/2000/svg" width="96" height="96" viewBox="0 0 96 96"><defs><style>.cls-1{fill:#d8d8d8;}.cls-2{fill:#3c3cc6;}.cls-3{fill:#fff;}.cls-4{fill:#262626;}</style></defs><title>df</title><g id="compare-style-4"><path class="cls-1" d="M93,3V79H3V3H93m1-1H2V80H94V2Z"/><rect x="2" y="78" width="92" height="16"/><circle class="cls-2" cx="70.46" cy="40.5" r="9.5"/><path class="cls-3" d="M33,84v.92H32V84Zm0,1v.92H32V85Zm0,4v.92H32V89Zm1-6v.92H33V83Zm0,3v.92H33V86Zm0,3v.92H33V89Zm1-6v.92H34V83Zm0,3v.92H34V86Zm0,3v.92H34V89Zm1-6v.92H35V83Zm0,3v.92H35V86Zm0,3v.92H35V89Zm1-6v.92H36V83Zm0,4v.92H36V87Zm0,1v.92H36V88Z"/><path class="cls-3" d="M39,83v.92H38V83Zm0,1v.92H38V84Zm0,1v.92H38V85Zm0,1v.92H38V86Zm0,1v.92H38V87Zm0,1v.92H38V88Zm1-3v.92H39V85Zm0,4v.92H39V89Zm1-4v.92H40V85Zm0,4v.92H40V89Zm1-4v.92H41V85Zm0,4v.92H41V89Z"/><path class="cls-3" d="M43,91v.92H42V91Zm1-6v.92H43V85Zm0,1v.92H43V86Zm0,1v.92H43V87Zm0,4v.92H43V91Zm1-3v.92H44V88Zm0,2v.92H44V90Zm1-1v.92H45V89Zm1-1v.92H46V88Zm1-3v.92H47V85Zm0,1v.92H47V86Zm0,1v.92H47V87Z"/><path class="cls-3" d="M50,82v.92H49V82Zm0,1v.92H49V83Zm0,1v.92H49V84Zm0,1v.92H49V85Zm0,1v.92H49V86Zm0,1v.92H49V87Zm0,1v.92H49V88Zm1,1v.92H50V89Zm1,0v.92H51V89Z"/><path class="cls-3" d="M53,86v.92H52V86Zm0,1v.92H52V87Zm0,1v.92H52V88Zm1-3v.92H53V85Zm0,2v.92H53V87Zm0,2v.92H53V89Zm1-4v.92H54V85Zm0,2v.92H54V87Zm0,2v.92H54V89Zm1-4v.92H55V85Zm0,2v.92H55V87Zm0,2v.92H55V89Zm1-3v.92H56V86Zm0,1v.92H56V87Zm0,2v.92H56V89Z"/><path class="cls-3" d="M61,86v.92H60V86Zm0,1v.92H60V87Zm1-2v.92H61V85Zm0,2v.92H61V87Zm1-3v.92H62V84Zm0,3v.92H62V87Zm1-4v.92H63V83Zm0,4v.92H63V87Zm1-4v.92H64V83Zm0,1v.92H64V84Zm0,1v.92H64V85Zm0,1v.92H64V86Zm0,1v.92H64V87Zm0,1v.92H64V88Zm0,1v.92H64V89Z"/><path class="cls-4" d="M17.92,38v.92H17V38Zm0,1v.92H17V39Zm0,1v.92H17V40Zm0,1v.92H17V41Zm0,1v.92H17V42Zm1-5v.92H18V37Zm0,6v.92H18V43Zm1-6v.92H19V37Zm0,6v.92H19V43Zm1-6v.92H20V37Zm0,6v.92H20V43Zm1-6v.92H21V37Zm0,1v.92H21V38Zm0,5v.92H21V43Z"/><path class="cls-4" d="M23.92,40v.92H23V40Zm0,1v.92H23V41Zm0,1v.92H23V42Zm1-3v.92H24V39Zm0,4v.92H24V43Zm1-4v.92H25V39Zm0,4v.92H25V43Zm1-4v.92H26V39Zm0,4v.92H26V43Zm1-3v.92H27V40Zm0,1v.92H27V41Zm0,1v.92H27V42Z"/><path class="cls-4" d="M29.92,39v.92H29V39Zm0,1v.92H29V40Zm0,1v.92H29V41Zm0,1v.92H29V42Zm0,1v.92H29V43Zm1-4v.92H30V39Zm1,0v.92H31V39Zm1,0v.92H32V39Zm0,1v.92H32V40Zm0,1v.92H32V41Zm0,1v.92H32V42Zm0,1v.92H32V43Zm1-4v.92H33V39Zm1,0v.92H34V39Zm1,1v.92H35V40Zm0,1v.92H35V41Zm0,1v.92H35V42Zm0,1v.92H35V43Z"/><path class="cls-4" d="M37.92,39v.92H37V39Zm0,1v.92H37V40Zm0,1v.92H37V41Zm0,1v.92H37V42Zm0,1v.92H37V43Zm0,1v.92H37V44Zm0,1v.92H37V45Zm1-6v.92H38V39Zm0,4v.92H38V43Zm1-4v.92H39V39Zm0,4v.92H39V43Zm1-4v.92H40V39Zm0,4v.92H40V43Zm1-3v.92H41V40Zm0,1v.92H41V41Zm0,1v.92H41V42Z"/><path class="cls-4" d="M43.92,42v.92H43V42Zm1-3v.92H44V39Zm0,2v.92H44V41Zm0,2v.92H44V43Zm1-4v.92H45V39Zm0,2v.92H45V41Zm0,2v.92H45V43Zm1-4v.92H46V39Zm0,2v.92H46V41Zm0,2v.92H46V43Zm1-3v.92H47V40Zm0,1v.92H47V41Zm0,1v.92H47V42Zm0,1v.92H47V43Z"/><path class="cls-4" d="M49.92,39v.92H49V39Zm0,1v.92H49V40Zm0,1v.92H49V41Zm0,1v.92H49V42Zm0,1v.92H49V43Zm1-3v.92H50V40Zm1-1v.92H51V39Zm1,0v.92H52V39Z"/><path class="cls-4" d="M53.92,40v.92H53V40Zm0,1v.92H53V41Zm0,1v.92H53V42Zm1-3v.92H54V39Zm0,2v.92H54V41Zm0,2v.92H54V43Zm1-4v.92H55V39Zm0,2v.92H55V41Zm0,2v.92H55V43Zm1-4v.92H56V39Zm0,2v.92H56V41Zm0,2v.92H56V43Zm1-3v.92H57V40Zm0,1v.92H57V41Zm0,2v.92H57V43Z"/><path class="cls-3" d="M69,37v.92H68V37Zm0,6v.92H68V43Zm1-6v.92H69V37Zm0,3v.92H69V40Zm0,3v.92H69V43Zm1-6v.92H70V37Zm0,2v.92H70V39Zm0,1v.92H70V40Zm0,3v.92H70V43Zm1-6v.92H71V37Zm0,1v.92H71V38Zm0,2v.92H71V40Zm0,3v.92H71V43Zm1-6v.92H72V37Zm0,4v.92H72V41Zm0,1v.92H72V42Z"/></g></svg>