<svg xmlns="http://www.w3.org/2000/svg" width="96" height="96" viewBox="0 0 96 96"><defs><style>.cls-1{fill:#d8d8d8;}.cls-2{fill:#fff;}.cls-3{fill:#262626;}</style></defs><title>df</title><g id="compare-style-1"><path class="cls-1" d="M93,3V79H3V3H93m1-1H2V80H94V2Z"/><rect x="2" y="78" width="92" height="16"/><path class="cls-2" d="M33,84v.92H32V84Zm0,1v.92H32V85Zm0,4v.92H32V89Zm1-6v.92H33V83Zm0,3v.92H33V86Zm0,3v.92H33V89Zm1-6v.92H34V83Zm0,3v.92H34V86Zm0,3v.92H34V89Zm1-6v.92H35V83Zm0,3v.92H35V86Zm0,3v.92H35V89Zm1-6v.92H36V83Zm0,4v.92H36V87Zm0,1v.92H36V88Z"/><path class="cls-2" d="M39,83v.92H38V83Zm0,1v.92H38V84Zm0,1v.92H38V85Zm0,1v.92H38V86Zm0,1v.92H38V87Zm0,1v.92H38V88Zm1-3v.92H39V85Zm0,4v.92H39V89Zm1-4v.92H40V85Zm0,4v.92H40V89Zm1-4v.92H41V85Zm0,4v.92H41V89Z"/><path class="cls-2" d="M43,91v.92H42V91Zm1-6v.92H43V85Zm0,1v.92H43V86Zm0,1v.92H43V87Zm0,4v.92H43V91Zm1-3v.92H44V88Zm0,2v.92H44V90Zm1-1v.92H45V89Zm1-1v.92H46V88Zm1-3v.92H47V85Zm0,1v.92H47V86Zm0,1v.92H47V87Z"/><path class="cls-2" d="M50,82v.92H49V82Zm0,1v.92H49V83Zm0,1v.92H49V84Zm0,1v.92H49V85Zm0,1v.92H49V86Zm0,1v.92H49V87Zm0,1v.92H49V88Zm1,1v.92H50V89Zm1,0v.92H51V89Z"/><path class="cls-2" d="M53,86v.92H52V86Zm0,1v.92H52V87Zm0,1v.92H52V88Zm1-3v.92H53V85Zm0,2v.92H53V87Zm0,2v.92H53V89Zm1-4v.92H54V85Zm0,2v.92H54V87Zm0,2v.92H54V89Zm1-4v.92H55V85Zm0,2v.92H55V87Zm0,2v.92H55V89Zm1-3v.92H56V86Zm0,1v.92H56V87Zm0,2v.92H56V89Z"/><path class="cls-2" d="M61,83v.92H60V83Zm0,6v.92H60V89Zm1-6v.92H61V83Zm0,6v.92H61V89Zm1-6v.92H62V83Zm0,1v.92H62V84Zm0,1v.92H62V85Zm0,1v.92H62V86Zm0,1v.92H62V87Zm0,1v.92H62V88Zm0,1v.92H62V89Zm1,0v.92H63V89Zm1,0v.92H64V89Z"/><path class="cls-3" d="M25,38v.92H24V38Zm0,1v.92H24V39Zm0,1v.92H24V40Zm0,1v.92H24V41Zm0,1v.92H24V42Zm1-5v.92H25V37Zm0,6v.92H25V43Zm1-6v.92H26V37Zm0,6v.92H26V43Zm1-6v.92H27V37Zm0,6v.92H27V43Zm1-6v.92H28V37Zm0,1v.92H28V38Zm0,5v.92H28V43Z"/><path class="cls-3" d="M31,40v.92H30V40Zm0,1v.92H30V41Zm0,1v.92H30V42Zm1-3v.92H31V39Zm0,4v.92H31V43Zm1-4v.92H32V39Zm0,4v.92H32V43Zm1-4v.92H33V39Zm0,4v.92H33V43Zm1-3v.92H34V40Zm0,1v.92H34V41Zm0,1v.92H34V42Z"/><path class="cls-3" d="M37,39v.92H36V39Zm0,1v.92H36V40Zm0,1v.92H36V41Zm0,1v.92H36V42Zm0,1v.92H36V43Zm1-4v.92H37V39Zm1,0v.92H38V39Zm1,0v.92H39V39Zm0,1v.92H39V40Zm0,1v.92H39V41Zm0,1v.92H39V42Zm0,1v.92H39V43Zm1-4v.92H40V39Zm1,0v.92H41V39Zm1,1v.92H42V40Zm0,1v.92H42V41Zm0,1v.92H42V42Zm0,1v.92H42V43Z"/><path class="cls-3" d="M45,39v.92H44V39Zm0,1v.92H44V40Zm0,1v.92H44V41Zm0,1v.92H44V42Zm0,1v.92H44V43Zm0,1v.92H44V44Zm0,1v.92H44V45Zm1-6v.92H45V39Zm0,4v.92H45V43Zm1-4v.92H46V39Zm0,4v.92H46V43Zm1-4v.92H47V39Zm0,4v.92H47V43Zm1-3v.92H48V40Zm0,1v.92H48V41Zm0,1v.92H48V42Z"/><path class="cls-3" d="M51,42v.92H50V42Zm1-3v.92H51V39Zm0,2v.92H51V41Zm0,2v.92H51V43Zm1-4v.92H52V39Zm0,2v.92H52V41Zm0,2v.92H52V43Zm1-4v.92H53V39Zm0,2v.92H53V41Zm0,2v.92H53V43Zm1-3v.92H54V40Zm0,1v.92H54V41Zm0,1v.92H54V42Zm0,1v.92H54V43Z"/><path class="cls-3" d="M57,39v.92H56V39Zm0,1v.92H56V40Zm0,1v.92H56V41Zm0,1v.92H56V42Zm0,1v.92H56V43Zm1-3v.92H57V40Zm1-1v.92H58V39Zm1,0v.92H59V39Z"/><path class="cls-3" d="M61,40v.92H60V40Zm0,1v.92H60V41Zm0,1v.92H60V42Zm1-3v.92H61V39Zm0,2v.92H61V41Zm0,2v.92H61V43Zm1-4v.92H62V39Zm0,2v.92H62V41Zm0,2v.92H62V43Zm1-4v.92H63V39Zm0,2v.92H63V41Zm0,2v.92H63V43Zm1-3v.92H64V40Zm0,1v.92H64V41Zm0,2v.92H64V43Z"/><path class="cls-3" d="M69,37v.92H68V37Zm0,6v.92H68V43Zm1-6v.92H69V37Zm0,3v.92H69V40Zm0,3v.92H69V43Zm1-6v.92H70V37Zm0,2v.92H70V39Zm0,1v.92H70V40Zm0,3v.92H70V43Zm1-6v.92H71V37Zm0,1v.92H71V38Zm0,2v.92H71V40Zm0,3v.92H71V43Zm1-6v.92H72V37Zm0,4v.92H72V41Zm0,1v.92H72V42Z"/></g></svg>