<svg xmlns="http://www.w3.org/2000/svg" width="96" height="96" viewBox="0 0 96 96"><defs><style>.cls-1{fill:#d8d8d8;}.cls-2{fill:#fff;}.cls-3{fill:#262626;}</style></defs><title>df</title><g id="cart-style-3"><path class="cls-1" d="M93,3V79H3V3H93m1-1H2V80H94V2Z"/><rect x="2" y="78" width="92" height="16"/><path class="cls-2" d="M33,84v.92H32V84Zm0,1v.92H32V85Zm0,4v.92H32V89Zm1-6v.92H33V83Zm0,3v.92H33V86Zm0,3v.92H33V89Zm1-6v.92H34V83Zm0,3v.92H34V86Zm0,3v.92H34V89Zm1-6v.92H35V83Zm0,3v.92H35V86Zm0,3v.92H35V89Zm1-6v.92H36V83Zm0,4v.92H36V87Zm0,1v.92H36V88Z"/><path class="cls-2" d="M39,83v.92H38V83Zm0,1v.92H38V84Zm0,1v.92H38V85Zm0,1v.92H38V86Zm0,1v.92H38V87Zm0,1v.92H38V88Zm1-3v.92H39V85Zm0,4v.92H39V89Zm1-4v.92H40V85Zm0,4v.92H40V89Zm1-4v.92H41V85Zm0,4v.92H41V89Z"/><path class="cls-2" d="M43,91v.92H42V91Zm1-6v.92H43V85Zm0,1v.92H43V86Zm0,1v.92H43V87Zm0,4v.92H43V91Zm1-3v.92H44V88Zm0,2v.92H44V90Zm1-1v.92H45V89Zm1-1v.92H46V88Zm1-3v.92H47V85Zm0,1v.92H47V86Zm0,1v.92H47V87Z"/><path class="cls-2" d="M50,82v.92H49V82Zm0,1v.92H49V83Zm0,1v.92H49V84Zm0,1v.92H49V85Zm0,1v.92H49V86Zm0,1v.92H49V87Zm0,1v.92H49V88Zm1,1v.92H50V89Zm1,0v.92H51V89Z"/><path class="cls-2" d="M53,86v.92H52V86Zm0,1v.92H52V87Zm0,1v.92H52V88Zm1-3v.92H53V85Zm0,2v.92H53V87Zm0,2v.92H53V89Zm1-4v.92H54V85Zm0,2v.92H54V87Zm0,2v.92H54V89Zm1-4v.92H55V85Zm0,2v.92H55V87Zm0,2v.92H55V89Zm1-3v.92H56V86Zm0,1v.92H56V87Zm0,2v.92H56V89Z"/><path class="cls-2" d="M61,83v.92H60V83Zm0,6v.92H60V89Zm1-6v.92H61V83Zm0,3v.92H61V86Zm0,3v.92H61V89Zm1-6v.92H62V83Zm0,2v.92H62V85Zm0,1v.92H62V86Zm0,3v.92H62V89Zm1-6v.92H63V83Zm0,1v.92H63V84Zm0,2v.92H63V86Zm0,3v.92H63V89Zm1-6v.92H64V83Zm0,4v.92H64V87Zm0,1v.92H64V88Z"/><path class="cls-3" d="M44,38.08V39H43v-.92Zm0,1V40H43v-.92Zm0,1V41H43v-.92Zm0,1V42H43v-.92Zm0,1V43H43v-.92Zm1-5V38H44v-.92Zm0,6V44H44v-.92Zm1-6V38H45v-.92Zm0,6V44H45v-.92Zm1-6V38H46v-.92Zm0,6V44H46v-.92Zm1-6V38H47v-.92Zm0,1V39H47v-.92Zm0,5V44H47v-.92Z"/><path class="cls-3" d="M50,42.08V43H49v-.92Zm1-3V40H50v-.92Zm0,2V42H50v-.92Zm0,2V44H50v-.92Zm1-4V40H51v-.92Zm0,2V42H51v-.92Zm0,2V44H51v-.92Zm1-4V40H52v-.92Zm0,2V42H52v-.92Zm0,2V44H52v-.92Zm1-3V41H53v-.92Zm0,1V42H53v-.92Zm0,1V43H53v-.92Zm0,1V44H53v-.92Z"/><path class="cls-3" d="M56,39.08V40H55v-.92Zm0,1V41H55v-.92Zm0,1V42H55v-.92Zm0,1V43H55v-.92Zm0,1V44H55v-.92Zm1-3V41H56v-.92Zm1-1V40H57v-.92Zm1,0V40H58v-.92Z"/><path class="cls-3" d="M60,37.08V38H59v-.92Zm0,1V39H59v-.92Zm0,1V40H59v-.92Zm0,1V41H59v-.92Zm0,1V42H59v-.92Zm0,1V43H59v-.92Zm1-3V40H60v-.92Zm0,4V44H60v-.92Zm1-4V40H61v-.92Zm0,4V44H61v-.92Zm1-4V40H62v-.92Zm0,4V44H62v-.92Z"/><path class="cls-3" d="M67,37.08V38H66v-.92Zm0,5V43H66v-.92Zm0,1V44H66v-.92Zm1-6V38H67v-.92Zm0,4V42H67v-.92Zm0,2V44H67v-.92Zm1-6V38H68v-.92Zm0,3V41H68v-.92Zm0,3V44H68v-.92Zm1-6V38H69v-.92Zm0,3V41H69v-.92Zm0,3V44H69v-.92Zm1-5V39H70v-.92Zm0,1V40H70v-.92Zm0,4V44H70v-.92Z"/><path class="cls-3" d="M73,37.08V38H72v-.92Zm0,6V44H72v-.92Zm1-6V38H73v-.92Zm0,3V41H73v-.92Zm0,3V44H73v-.92Zm1-6V38H74v-.92Zm0,2V40H74v-.92Zm0,1V41H74v-.92Zm0,3V44H74v-.92Zm1-6V38H75v-.92Zm0,1V39H75v-.92Zm0,2V41H75v-.92Zm0,3V44H75v-.92Zm1-6V38H76v-.92Zm0,4V42H76v-.92Zm0,1V43H76v-.92Z"/><path d="M27,46a1,1,0,1,1-1,1,1,1,0,0,1,1-1m0-1a2,2,0,1,0,2,2,2,2,0,0,0-2-2Zm5.5,1a1,1,0,1,1-1,1,1,1,0,0,1,1-1m0-1a2,2,0,1,0,2,2,2,2,0,0,0-2-2ZM36,35H21.89l-.46-3H18v1h2.57l2,13H24V45h-.57l-.16-1L34,43l.44-.36,2-7Zm-2.39,7L23.12,43,22,36H35.34Z"/></g></svg>