<svg xmlns="http://www.w3.org/2000/svg" width="96" height="96" viewBox="0 0 96 96"><defs><style>.cls-1{fill:#d8d8d8;}.cls-2{fill:#3c3cc6;}.cls-3{fill:#fff;}</style></defs><title>df</title><g id="compare-style-6"><path class="cls-1" d="M93,3V79H3V3H93m1-1H2V80H94V2Z"/><rect x="2" y="78" width="92" height="16"/><circle class="cls-2" cx="58.46" cy="40.5" r="9.5"/><path class="cls-3" d="M33,84v.92H32V84Zm0,1v.92H32V85Zm0,4v.92H32V89Zm1-6v.92H33V83Zm0,3v.92H33V86Zm0,3v.92H33V89Zm1-6v.92H34V83Zm0,3v.92H34V86Zm0,3v.92H34V89Zm1-6v.92H35V83Zm0,3v.92H35V86Zm0,3v.92H35V89Zm1-6v.92H36V83Zm0,4v.92H36V87Zm0,1v.92H36V88Z"/><path class="cls-3" d="M39,83v.92H38V83Zm0,1v.92H38V84Zm0,1v.92H38V85Zm0,1v.92H38V86Zm0,1v.92H38V87Zm0,1v.92H38V88Zm1-3v.92H39V85Zm0,4v.92H39V89Zm1-4v.92H40V85Zm0,4v.92H40V89Zm1-4v.92H41V85Zm0,4v.92H41V89Z"/><path class="cls-3" d="M43,91v.92H42V91Zm1-6v.92H43V85Zm0,1v.92H43V86Zm0,1v.92H43V87Zm0,4v.92H43V91Zm1-3v.92H44V88Zm0,2v.92H44V90Zm1-1v.92H45V89Zm1-1v.92H46V88Zm1-3v.92H47V85Zm0,1v.92H47V86Zm0,1v.92H47V87Z"/><path class="cls-3" d="M50,82v.92H49V82Zm0,1v.92H49V83Zm0,1v.92H49V84Zm0,1v.92H49V85Zm0,1v.92H49V86Zm0,1v.92H49V87Zm0,1v.92H49V88Zm1,1v.92H50V89Zm1,0v.92H51V89Z"/><path class="cls-3" d="M53,86v.92H52V86Zm0,1v.92H52V87Zm0,1v.92H52V88Zm1-3v.92H53V85Zm0,2v.92H53V87Zm0,2v.92H53V89Zm1-4v.92H54V85Zm0,2v.92H54V87Zm0,2v.92H54V89Zm1-4v.92H55V85Zm0,2v.92H55V87Zm0,2v.92H55V89Zm1-3v.92H56V86Zm0,1v.92H56V87Zm0,2v.92H56V89Z"/><path class="cls-3" d="M61,85v.92H60V85Zm0,1v.92H60V86Zm0,1v.92H60V87Zm0,1v.92H60V88Zm1-4v.92H61V84Zm0,2v.92H61V86Zm0,3v.92H61V89Zm1-6v.92H62V83Zm0,3v.92H62V86Zm0,3v.92H62V89Zm1-6v.92H63V83Zm0,3v.92H63V86Zm0,3v.92H63V89Zm1-6v.92H64V83Zm0,4v.92H64V87Zm0,1v.92H64V88Z"/><path class="cls-3" d="M57,37v.92H56V37Zm0,6v.92H56V43Zm1-6v.92H57V37Zm0,3v.92H57V40Zm0,3v.92H57V43Zm1-6v.92H58V37Zm0,2v.92H58V39Zm0,1v.92H58V40Zm0,3v.92H58V43Zm1-6v.92H59V37Zm0,1v.92H59V38Zm0,2v.92H59V40Zm0,3v.92H59V43Zm1-6v.92H60V37Zm0,4v.92H60V41Zm0,1v.92H60V42Z"/><path d="M46,46.35l-2.31,2.35L43,48l1.12-1.15H32.29L31,45.56V37.85l1,1v6.29l.71.71H44.12L43,44.71l.69-.71ZM33,36l-1.12-1.15H43.29l.71.71v6.29l1,1V35.15l-1.29-1.29H31.88L33,32.71,32.31,32,30,34.35l2.31,2.35Z"/></g></svg>