<svg xmlns="http://www.w3.org/2000/svg" width="96" height="96" viewBox="0 0 96 96"><defs><style>.cls-1{fill:#d8d8d8;}.cls-2{fill:#fff;}.cls-3{opacity:0.4;}.cls-4{fill:#09090a;}</style></defs><title>df</title><g id="dropdown-style-3"><path class="cls-1" d="M93,3V79H3V3H93m1-1H2V80H94V2Z"/><rect x="2" y="78" width="92" height="16"/><path class="cls-2" d="M33,84v.92H32V84Zm0,1v.92H32V85Zm0,4v.92H32V89Zm1-6v.92H33V83Zm0,3v.92H33V86Zm0,3v.92H33V89Zm1-6v.92H34V83Zm0,3v.92H34V86Zm0,3v.92H34V89Zm1-6v.92H35V83Zm0,3v.92H35V86Zm0,3v.92H35V89Zm1-6v.92H36V83Zm0,4v.92H36V87Zm0,1v.92H36V88Z"/><path class="cls-2" d="M39,83v.92H38V83Zm0,1v.92H38V84Zm0,1v.92H38V85Zm0,1v.92H38V86Zm0,1v.92H38V87Zm0,1v.92H38V88Zm1-3v.92H39V85Zm0,4v.92H39V89Zm1-4v.92H40V85Zm0,4v.92H40V89Zm1-4v.92H41V85Zm0,4v.92H41V89Z"/><path class="cls-2" d="M43,91v.92H42V91Zm1-6v.92H43V85Zm0,1v.92H43V86Zm0,1v.92H43V87Zm0,4v.92H43V91Zm1-3v.92H44V88Zm0,2v.92H44V90Zm1-1v.92H45V89Zm1-1v.92H46V88Zm1-3v.92H47V85Zm0,1v.92H47V86Zm0,1v.92H47V87Z"/><path class="cls-2" d="M50,82v.92H49V82Zm0,1v.92H49V83Zm0,1v.92H49V84Zm0,1v.92H49V85Zm0,1v.92H49V86Zm0,1v.92H49V87Zm0,1v.92H49V88Zm1,1v.92H50V89Zm1,0v.92H51V89Z"/><path class="cls-2" d="M53,86v.92H52V86Zm0,1v.92H52V87Zm0,1v.92H52V88Zm1-3v.92H53V85Zm0,2v.92H53V87Zm0,2v.92H53V89Zm1-4v.92H54V85Zm0,2v.92H54V87Zm0,2v.92H54V89Zm1-4v.92H55V85Zm0,2v.92H55V87Zm0,2v.92H55V89Zm1-3v.92H56V86Zm0,1v.92H56V87Zm0,2v.92H56V89Z"/><path class="cls-2" d="M61,83v.92H60V83Zm0,6v.92H60V89Zm1-6v.92H61V83Zm0,3v.92H61V86Zm0,3v.92H61V89Zm1-6v.92H62V83Zm0,2v.92H62V85Zm0,1v.92H62V86Zm0,3v.92H62V89Zm1-6v.92H63V83Zm0,1v.92H63V84Zm0,2v.92H63V86Zm0,3v.92H63V89Zm1-6v.92H64V83Zm0,4v.92H64V87Zm0,1v.92H64V88Z"/><g class="cls-3"><path class="cls-4" d="M45,36v.92H44V36Zm0,1v.92H44V37Zm0,1v.92H44V38Zm0,1v.92H44V39Zm0,1v.92H44V40Zm0,1v.92H44V41Zm0,1v.92H44V42Zm1-4v.92H45V38Zm1,1v.92H46V39Zm1,1v.92H47V40Zm1-1v.92H48V39Zm1-1v.92H49V38Zm1-2v.92H50V36Zm0,1v.92H50V37Zm0,1v.92H50V38Zm0,1v.92H50V39Zm0,1v.92H50V40Zm0,1v.92H50V41Zm0,1v.92H50V42Z"/><path class="cls-4" d="M53,39v.92H52V39Zm0,1v.92H52V40Zm0,1v.92H52V41Zm1-3v.92H53V38Zm0,2v.92H53V40Zm0,2v.92H53V42Zm1-4v.92H54V38Zm0,2v.92H54V40Zm0,2v.92H54V42Zm1-4v.92H55V38Zm0,2v.92H55V40Zm0,2v.92H55V42Zm1-3v.92H56V39Zm0,1v.92H56V40Zm0,2v.92H56V42Z"/><path class="cls-4" d="M59,38v.92H58V38Zm0,1v.92H58V39Zm0,1v.92H58V40Zm0,1v.92H58V41Zm0,1v.92H58V42Zm1-4v.92H59V38Zm1,0v.92H60V38Zm1,0v.92H61V38Zm1,1v.92H62V39Zm0,1v.92H62V40Zm0,1v.92H62V41Zm0,1v.92H62V42Z"/><path class="cls-4" d="M65,38v.92H64V38Zm0,1v.92H64V39Zm0,1v.92H64V40Zm0,1v.92H64V41Zm1,1v.92H65V42Zm1,0v.92H66V42Zm1,0v.92H67V42Zm1-4v.92H68V38Zm0,1v.92H68V39Zm0,1v.92H68V40Zm0,1v.92H68V41Zm0,1v.92H68V42Z"/></g><path class="cls-4" d="M37,14v.92H36V14Zm0,1v.92H36V15Zm0,1v.92H36V16Zm0,1v.92H36V17Zm0,1v.92H36V18Zm0,1v.92H36V19Zm0,1v.92H36V20Zm1-4v.92H37V16Zm1,1v.92H38V17Zm1,1v.92H39V18Zm1-1v.92H40V17Zm1-1v.92H41V16Zm1-2v.92H42V14Zm0,1v.92H42V15Zm0,1v.92H42V16Zm0,1v.92H42V17Zm0,1v.92H42V18Zm0,1v.92H42V19Zm0,1v.92H42V20Z"/><path class="cls-4" d="M45,17v.92H44V17Zm0,1v.92H44V18Zm0,1v.92H44V19Zm1-3v.92H45V16Zm0,2v.92H45V18Zm0,2v.92H45V20Zm1-4v.92H46V16Zm0,2v.92H46V18Zm0,2v.92H46V20Zm1-4v.92H47V16Zm0,2v.92H47V18Zm0,2v.92H47V20Zm1-3v.92H48V17Zm0,1v.92H48V18Zm0,2v.92H48V20Z"/><path class="cls-4" d="M51,16v.92H50V16Zm0,1v.92H50V17Zm0,1v.92H50V18Zm0,1v.92H50V19Zm0,1v.92H50V20Zm1-4v.92H51V16Zm1,0v.92H52V16Zm1,0v.92H53V16Zm1,1v.92H54V17Zm0,1v.92H54V18Zm0,1v.92H54V19Zm0,1v.92H54V20Z"/><path class="cls-4" d="M57,16v.92H56V16Zm0,1v.92H56V17Zm0,1v.92H56V18Zm0,1v.92H56V19Zm1,1v.92H57V20Zm1,0v.92H58V20Zm1,0v.92H59V20Zm1-4v.92H60V16Zm0,1v.92H60V17Zm0,1v.92H60V18Zm0,1v.92H60V19Zm0,1v.92H60V20Z"/><path class="cls-4" d="M37,58v.92H36V58Zm0,1v.92H36V59Zm0,1v.92H36V60Zm0,1v.92H36V61Zm0,1v.92H36V62Zm0,1v.92H36V63Zm0,1v.92H36V64Zm1-4v.92H37V60Zm1,1v.92H38V61Zm1,1v.92H39V62Zm1-1v.92H40V61Zm1-1v.92H41V60Zm1-2v.92H42V58Zm0,1v.92H42V59Zm0,1v.92H42V60Zm0,1v.92H42V61Zm0,1v.92H42V62Zm0,1v.92H42V63Zm0,1v.92H42V64Z"/><path class="cls-4" d="M45,61v.92H44V61Zm0,1v.92H44V62Zm0,1v.92H44V63Zm1-3v.92H45V60Zm0,2v.92H45V62Zm0,2v.92H45V64Zm1-4v.92H46V60Zm0,2v.92H46V62Zm0,2v.92H46V64Zm1-4v.92H47V60Zm0,2v.92H47V62Zm0,2v.92H47V64Zm1-3v.92H48V61Zm0,1v.92H48V62Zm0,2v.92H48V64Z"/><path class="cls-4" d="M51,60v.92H50V60Zm0,1v.92H50V61Zm0,1v.92H50V62Zm0,1v.92H50V63Zm0,1v.92H50V64Zm1-4v.92H51V60Zm1,0v.92H52V60Zm1,0v.92H53V60Zm1,1v.92H54V61Zm0,1v.92H54V62Zm0,1v.92H54V63Zm0,1v.92H54V64Z"/><path class="cls-4" d="M57,60v.92H56V60Zm0,1v.92H56V61Zm0,1v.92H56V62Zm0,1v.92H56V63Zm1,1v.92H57V64Zm1,0v.92H58V64Zm1,0v.92H59V64Zm1-4v.92H60V60Zm0,1v.92H60V61Zm0,1v.92H60V62Zm0,1v.92H60V63Zm0,1v.92H60V64Z"/></g></svg>