<svg xmlns="http://www.w3.org/2000/svg" width="96" height="96" viewBox="0 0 96 96"><defs><style>.cls-1{fill:#d8d8d8;}.cls-2{fill:#262626;stroke:#09090a;stroke-miterlimit:10;}.cls-3{fill:#fff;}</style></defs><title>df</title><g id="disable"><path class="cls-1" d="M93,3V79H3V3H93m1-1H2V80H94V2Z"/><rect x="2" y="78" width="92" height="16"/><polygon class="cls-2" points="58.25 29.04 37.04 50.25 37.75 50.96 58.96 29.75 58.25 29.04 58.25 29.04"/><polygon class="cls-2" points="37.75 29.04 37.04 29.75 58.25 50.96 58.96 50.25 37.75 29.04 37.75 29.04"/><path class="cls-3" d="M32,83v.92H31V83Zm0,1v.92H31V84Zm0,1v.92H31V85Zm0,1v.92H31V86Zm0,1v.92H31V87Zm0,1v.92H31V88Zm0,1v.92H31V89Zm1-6v.92H32V83Zm0,6v.92H32V89Zm1-6v.92H33V83Zm0,6v.92H33V89Zm1-5v.92H34V84Zm0,4v.92H34V88Zm1-3v.92H35V85Zm0,1v.92H35V86Zm0,1v.92H35V87Z"/><path class="cls-3" d="M38,82v.92H37V82Zm0,3v.92H37V85Zm0,1v.92H37V86Zm0,1v.92H37V87Zm0,1v.92H37V88Zm0,1v.92H37V89Z"/><path class="cls-3" d="M40,86v.92H39V86Zm0,3v.92H39V89Zm1-4v.92H40V85Zm0,2v.92H40V87Zm0,2v.92H40V89Zm1-4v.92H41V85Zm0,2v.92H41V87Zm0,2v.92H41V89Zm1-4v.92H42V85Zm0,3v.92H42V88Z"/><path class="cls-3" d="M45,88v.92H44V88Zm1-3v.92H45V85Zm0,2v.92H45V87Zm0,2v.92H45V89Zm1-4v.92H46V85Zm0,2v.92H46V87Zm0,2v.92H46V89Zm1-4v.92H47V85Zm0,2v.92H47V87Zm0,2v.92H47V89Zm1-3v.92H48V86Zm0,1v.92H48V87Zm0,1v.92H48V88Zm0,1v.92H48V89Z"/><path class="cls-3" d="M51,82v.92H50V82Zm0,1v.92H50V83Zm0,1v.92H50V84Zm0,1v.92H50V85Zm0,1v.92H50V86Zm0,1v.92H50V87Zm0,1v.92H50V88Zm0,1v.92H50V89Zm1-4v.92H51V85Zm0,4v.92H51V89Zm1-4v.92H52V85Zm0,4v.92H52V89Zm1-4v.92H53V85Zm0,4v.92H53V89Zm1-3v.92H54V86Zm0,1v.92H54V87Zm0,1v.92H54V88Z"/><path class="cls-3" d="M57,82v.92H56V82Zm0,1v.92H56V83Zm0,1v.92H56V84Zm0,1v.92H56V85Zm0,1v.92H56V86Zm0,1v.92H56V87Zm0,1v.92H56V88Zm1,1v.92H57V89Zm1,0v.92H58V89Z"/><path class="cls-3" d="M60,86v.92H59V86Zm0,1v.92H59V87Zm0,1v.92H59V88Zm1-3v.92H60V85Zm0,2v.92H60V87Zm0,2v.92H60V89Zm1-4v.92H61V85Zm0,2v.92H61V87Zm0,2v.92H61V89Zm1-4v.92H62V85Zm0,2v.92H62V87Zm0,2v.92H62V89Zm1-3v.92H63V86Zm0,1v.92H63V87Zm0,2v.92H63V89Z"/></g></svg>