<svg xmlns="http://www.w3.org/2000/svg" width="80" height="80" viewBox="0 0 80 80"><defs><style>.cls-1{fill:#fff;}.cls-2{fill:#d8d8d8;}.cls-3{fill:#f2f2f2;}.cls-4{fill:#ccc;}.cls-5{fill:#262626;}.cls-6{fill:gray;}.cls-7{fill:#b3b3b3;}</style></defs><title>df</title><g id="modal-style-2"><rect class="cls-1" x="0.5" y="0.5" width="79" height="79"/><path class="cls-2" d="M79,1V79H1V1H79m1-1H0V80H80V0Z"/><rect y="64" width="80" height="16"/><path class="cls-3" d="M27,69V70H26V69Zm0,6V76H26V75Zm1-6V70H27V69Zm0,1V71H27V70Zm0,1V72H27V71Zm0,1V73H27V72Zm0,1V74H27V73Zm0,1V75H27V74Zm0,1V76H27V75Zm1-6V70H28V69Zm0,6V76H28V75Z"/><path class="cls-3" d="M31,71V72H30V71Zm0,1V73H30V72Zm0,1V74H30V73Zm0,1V75H30V74Zm0,1V76H30V75Zm1-4V72H31V71Zm1,0V72H32V71Zm1,0V72H33V71Zm0,1V73H33V72Zm0,1V74H33V73Zm0,1V75H33V74Zm0,1V76H33V75Zm1-4V72H34V71Zm1,0V72H35V71Zm1,1V73H36V72Zm0,1V74H36V73Zm0,1V75H36V74Zm0,1V76H36V75Z"/><path class="cls-3" d="M39,74V75H38V74Zm1-3V72H39V71Zm0,2V74H39V73Zm0,2V76H39V75Zm1-4V72H40V71Zm0,2V74H40V73Zm0,2V76H40V75Zm1-4V72H41V71Zm0,2V74H41V73Zm0,2V76H41V75Zm1-3V73H42V72Zm0,1V74H42V73Zm0,1V75H42V74Zm0,1V76H42V75Z"/><path class="cls-3" d="M45,72V73H44V72Zm0,1V74H44V73Zm0,1V75H44V74Zm0,3V78H44V77Zm1-6V72H45V71Zm0,4V76H45V75Zm0,2V78H45V77Zm1-6V72H46V71Zm0,4V76H46V75Zm0,2V78H46V77Zm1-6V72H47V71Zm0,4V76H47V75Zm0,2V78H47V77Zm1-6V72H48V71Zm0,1V73H48V72Zm0,1V74H48V73Zm0,1V75H48V74Zm0,1V76H48V75Zm0,1V77H48V76Z"/><path class="cls-3" d="M51,72V73H50V72Zm0,1V74H50V73Zm0,1V75H50V74Zm1-3V72H51V71Zm0,2V74H51V73Zm0,2V76H51V75Zm1-4V72H52V71Zm0,2V74H52V73Zm0,2V76H52V75Zm1-4V72H53V71Zm0,2V74H53V73Zm0,2V76H53V75Zm1-3V73H54V72Zm0,1V74H54V73Zm0,2V76H54V75Z"/><path class="cls-4" d="M68,15V49H12V15H68m1-1H11V50H69V14Z"/><rect class="cls-5" x="11.5" y="14.5" width="29" height="35"/><path class="cls-4" d="M40,15V49H12V15H40m1-1H11V50H41V14Z"/><rect class="cls-6" x="45" y="20" width="14" height="4"/><rect class="cls-7" x="45" y="26" width="19" height="1"/><rect class="cls-7" x="45" y="29" width="19" height="1"/><rect class="cls-7" x="45" y="32" width="19" height="1"/><rect class="cls-7" x="45" y="35" width="19" height="1"/><rect class="cls-7" x="45" y="38" width="19" height="1"/><rect class="cls-7" x="45" y="41" width="19" height="1"/><rect class="cls-7" x="45" y="44" width="11" height="1"/><path class="cls-1" d="M23.88,31l1.51,3H21.87l2-3M24,29l-4,6h7l-3-6Z"/><path class="cls-1" d="M28.88,31.75,30.23,34H27.08l1.8-2.25M29,30l-4,5h7l-3-5Z"/></g></svg>