<svg xmlns="http://www.w3.org/2000/svg" width="80" height="80" viewBox="0 0 80 80"><defs><style>.cls-1{fill:#fff;}.cls-2{fill:#d8d8d8;}.cls-3{fill:#f2f2f2;}.cls-4{fill:#ccc;}.cls-5{fill:gray;}.cls-6{fill:#b3b3b3;}</style></defs><title>df</title><g id="modal-style-1"><rect class="cls-1" x="0.5" y="0.5" width="79" height="79"/><path class="cls-2" d="M79,1V79H1V1H79m1-1H0V80H80V0Z"/><rect y="64" width="80" height="16"/><path class="cls-3" d="M24,69V70H23V69Zm0,1V71H23V70Zm0,1V72H23V71Zm0,1V73H23V72Zm0,1V74H23V73Zm0,1V75H23V74Zm0,1V76H23V75Zm1-6V70H24V69Zm0,6V76H24V75Zm1-6V70H25V69Zm0,6V76H25V75Zm1-5V71H26V70Zm0,4V75H26V74Zm1-3V72H27V71Zm0,1V73H27V72Zm0,1V74H27V73Z"/><path class="cls-3" d="M30,72V73H29V72Zm0,1V74H29V73Zm0,1V75H29V74Zm1-3V72H30V71Zm0,2V74H30V73Zm0,2V76H30V75Zm1-4V72H31V71Zm0,2V74H31V73Zm0,2V76H31V75Zm1-4V72H32V71Zm0,2V74H32V73Zm0,2V76H32V75Zm1-3V73H33V72Zm0,1V74H33V73Zm0,2V76H33V75Z"/><path class="cls-3" d="M35,71V72H34V71Zm1,0V72H35V71Zm1-2V70H36V69Zm0,1V71H36V70Zm0,1V72H36V71Zm0,1V73H36V72Zm0,1V74H36V73Zm0,1V75H36V74Zm0,1V76H36V75Zm1-7V69H37V68Zm0,3V72H37V71Zm1-3V69H38V68Zm0,3V72H38V71Zm1-3V69H39V68Z"/><path class="cls-3" d="M40,74V75H39V74Zm1-3V72H40V71Zm0,2V74H40V73Zm0,2V76H40V75Zm1-4V72H41V71Zm0,2V74H41V73Zm0,2V76H41V75Zm1-4V72H42V71Zm0,2V74H42V73Zm0,2V76H42V75Zm1-3V73H43V72Zm0,1V74H43V73Zm0,1V75H43V74Zm0,1V76H43V75Z"/><path class="cls-3" d="M46,71V72H45V71Zm0,1V73H45V72Zm0,1V74H45V73Zm0,1V75H45V74Zm1,1V76H46V75Zm1,0V76H47V75Zm1,0V76H48V75Zm1-4V72H49V71Zm0,1V73H49V72Zm0,1V74H49V73Zm0,1V75H49V74Zm0,1V76H49V75Z"/><path class="cls-3" d="M52,68V69H51V68Zm0,1V70H51V69Zm0,1V71H51V70Zm0,1V72H51V71Zm0,1V73H51V72Zm0,1V74H51V73Zm0,1V75H51V74Zm1,1V76H52V75Zm1,0V76H53V75Z"/><path class="cls-3" d="M55,69V70H54V69Zm0,1V71H54V70Zm0,1V72H54V71Zm0,1V73H54V72Zm0,1V74H54V73Zm0,1V75H54V74Zm1-3V72H55V71Zm0,4V76H55V75Zm1-4V72H56V71Zm0,4V76H56V75Zm1-4V72H57V71Zm0,4V76H57V75Z"/><path class="cls-4" d="M68,15V49H12V15H68m1-1H11V50H69V14Z"/><rect class="cls-5" x="17" y="20" width="14" height="4"/><rect class="cls-6" x="17" y="26" width="47" height="1"/><rect class="cls-6" x="17" y="29" width="47" height="1"/><rect class="cls-6" x="17" y="32" width="47" height="1"/><rect class="cls-6" x="17" y="35" width="47" height="1"/><rect class="cls-6" x="17" y="38" width="47" height="1"/><rect class="cls-6" x="17" y="41" width="47" height="1"/><rect class="cls-6" x="17" y="44" width="27" height="1"/><rect class="cls-6" x="61.62" y="16.38" width="1" height="5" transform="translate(4.85 49.46) rotate(-45)"/><rect class="cls-6" x="59.62" y="18.38" width="5" height="1" transform="translate(4.85 49.46) rotate(-45)"/></g></svg>