<svg xmlns="http://www.w3.org/2000/svg" width="96" height="96" viewBox="0 0 96 96"><defs><style>.cls-1{fill:#d8d8d8;}.cls-2{fill:#fff;}.cls-3{opacity:0.4;}.cls-4,.cls-5{fill:#09090a;}.cls-5{fill-opacity:0.4;}</style></defs><title>df</title><g id="nav-style-2"><path class="cls-1" d="M93,3V79H3V3H93m1-1H2V80H94V2Z"/><rect x="2" y="78" width="92" height="16"/><path class="cls-2" d="M33,84v.92H32V84Zm0,1v.92H32V85Zm0,4v.92H32V89Zm1-6v.92H33V83Zm0,3v.92H33V86Zm0,3v.92H33V89Zm1-6v.92H34V83Zm0,3v.92H34V86Zm0,3v.92H34V89Zm1-6v.92H35V83Zm0,3v.92H35V86Zm0,3v.92H35V89Zm1-6v.92H36V83Zm0,4v.92H36V87Zm0,1v.92H36V88Z"/><path class="cls-2" d="M39,83v.92H38V83Zm0,1v.92H38V84Zm0,1v.92H38V85Zm0,1v.92H38V86Zm0,1v.92H38V87Zm0,1v.92H38V88Zm1-3v.92H39V85Zm0,4v.92H39V89Zm1-4v.92H40V85Zm0,4v.92H40V89Zm1-4v.92H41V85Zm0,4v.92H41V89Z"/><path class="cls-2" d="M43,91v.92H42V91Zm1-6v.92H43V85Zm0,1v.92H43V86Zm0,1v.92H43V87Zm0,4v.92H43V91Zm1-3v.92H44V88Zm0,2v.92H44V90Zm1-1v.92H45V89Zm1-1v.92H46V88Zm1-3v.92H47V85Zm0,1v.92H47V86Zm0,1v.92H47V87Z"/><path class="cls-2" d="M50,82v.92H49V82Zm0,1v.92H49V83Zm0,1v.92H49V84Zm0,1v.92H49V85Zm0,1v.92H49V86Zm0,1v.92H49V87Zm0,1v.92H49V88Zm1,1v.92H50V89Zm1,0v.92H51V89Z"/><path class="cls-2" d="M53,86v.92H52V86Zm0,1v.92H52V87Zm0,1v.92H52V88Zm1-3v.92H53V85Zm0,2v.92H53V87Zm0,2v.92H53V89Zm1-4v.92H54V85Zm0,2v.92H54V87Zm0,2v.92H54V89Zm1-4v.92H55V85Zm0,2v.92H55V87Zm0,2v.92H55V89Zm1-3v.92H56V86Zm0,1v.92H56V87Zm0,2v.92H56V89Z"/><path class="cls-2" d="M61,83v.92H60V83Zm0,5v.92H60V88Zm0,1v.92H60V89Zm1-6v.92H61V83Zm0,4v.92H61V87Zm0,2v.92H61V89Zm1-6v.92H62V83Zm0,3v.92H62V86Zm0,3v.92H62V89Zm1-6v.92H63V83Zm0,3v.92H63V86Zm0,3v.92H63V89Zm1-5v.92H64V84Zm0,1v.92H64V85Zm0,4v.92H64V89Z"/><g class="cls-3"><path class="cls-4" d="M37,36v.92H36V36Zm0,1v.92H36V37Zm0,1v.92H36V38Zm0,1v.92H36V39Zm0,1v.92H36V40Zm0,1v.92H36V41Zm0,1v.92H36V42Zm1-4v.92H37V38Zm1,1v.92H38V39Zm1,1v.92H39V40Zm1-1v.92H40V39Zm1-1v.92H41V38Zm1-2v.92H42V36Zm0,1v.92H42V37Zm0,1v.92H42V38Zm0,1v.92H42V39Zm0,1v.92H42V40Zm0,1v.92H42V41Zm0,1v.92H42V42Z"/><path class="cls-4" d="M45,39v.92H44V39Zm0,1v.92H44V40Zm0,1v.92H44V41Zm1-3v.92H45V38Zm0,2v.92H45V40Zm0,2v.92H45V42Zm1-4v.92H46V38Zm0,2v.92H46V40Zm0,2v.92H46V42Zm1-4v.92H47V38Zm0,2v.92H47V40Zm0,2v.92H47V42Zm1-3v.92H48V39Zm0,1v.92H48V40Zm0,2v.92H48V42Z"/><path class="cls-4" d="M51,38v.92H50V38Zm0,1v.92H50V39Zm0,1v.92H50V40Zm0,1v.92H50V41Zm0,1v.92H50V42Zm1-4v.92H51V38Zm1,0v.92H52V38Zm1,0v.92H53V38Zm1,1v.92H54V39Zm0,1v.92H54V40Zm0,1v.92H54V41Zm0,1v.92H54V42Z"/><path class="cls-4" d="M57,38v.92H56V38Zm0,1v.92H56V39Zm0,1v.92H56V40Zm0,1v.92H56V41Zm1,1v.92H57V42Zm1,0v.92H58V42Zm1,0v.92H59V42Zm1-4v.92H60V38Zm0,1v.92H60V39Zm0,1v.92H60V40Zm0,1v.92H60V41Zm0,1v.92H60V42Z"/></g><path class="cls-4" d="M10,39v.92H9V39Zm0,1v.92H9V40Zm0,1v.92H9V41Zm1-3v.92H10V38Zm0,2v.92H10V40Zm0,2v.92H10V42Zm1-4v.92H11V38Zm0,2v.92H11V40Zm0,2v.92H11V42Zm1-4v.92H12V38Zm0,2v.92H12V40Zm0,2v.92H12V42Zm1-3v.92H13V39Zm0,1v.92H13V40Zm0,2v.92H13V42Z"/><path class="cls-4" d="M16,38v.92H15V38Zm0,1v.92H15V39Zm0,1v.92H15V40Zm0,1v.92H15V41Zm0,1v.92H15V42Zm1-4v.92H16V38Zm1,0v.92H17V38Zm1,0v.92H18V38Zm1,1v.92H19V39Zm0,1v.92H19V40Zm0,1v.92H19V41Zm0,1v.92H19V42Z"/><path class="cls-4" d="M22,38v.92H21V38Zm0,1v.92H21V39Zm0,1v.92H21V40Zm0,1v.92H21V41Zm1,1v.92H22V42Zm1,0v.92H23V42Zm1,0v.92H24V42Zm1-4v.92H25V38Zm0,1v.92H25V39Zm0,1v.92H25V40Zm0,1v.92H25V41Zm0,1v.92H25V42Z"/><rect class="cls-4" x="6.04" y="38.03" width="0.92" height="0.92"/><rect class="cls-4" x="4.04" y="40.03" width="0.92" height="0.92"/><rect class="cls-4" x="7.04" y="41.03" width="0.92" height="0.92"/><rect class="cls-4" x="5.04" y="39.03" width="0.92" height="0.92"/><rect class="cls-4" x="7.04" y="42.03" width="0.92" height="0.92"/><rect class="cls-4" x="7.04" y="36.03" width="0.92" height="0.92"/><rect class="cls-4" x="7.04" y="40.03" width="0.92" height="0.92"/><rect class="cls-4" x="7.04" y="37.03" width="0.92" height="0.92"/><rect class="cls-4" x="7.04" y="39.03" width="0.92" height="0.92"/><rect class="cls-4" x="7.04" y="38.03" width="0.92" height="0.92"/><path class="cls-4" d="M72,36v.92H71V36Zm0,1v.92H71V37Zm0,1v.92H71V38Zm0,1v.92H71V39Zm0,1v.92H71V40Zm0,1v.92H71V41Zm0,1v.92H71V42Zm1-4v.92H72V38Zm1,1v.92H73V39Zm1,1v.92H74V40Zm1-1v.92H75V39Zm1-1v.92H76V38Zm1-2v.92H77V36Zm0,1v.92H77V37Zm0,1v.92H77V38Zm0,1v.92H77V39Zm0,1v.92H77V40Zm0,1v.92H77V41Zm0,1v.92H77V42Z"/><path class="cls-4" d="M80,39v.92H79V39Zm0,1v.92H79V40Zm0,1v.92H79V41Zm1-3v.92H80V38Zm0,2v.92H80V40Zm0,2v.92H80V42Zm1-4v.92H81V38Zm0,2v.92H81V40Zm0,2v.92H81V42Zm1-4v.92H82V38Zm0,2v.92H82V40Zm0,2v.92H82V42Zm1-3v.92H83V39Zm0,1v.92H83V40Zm0,2v.92H83V42Z"/><path class="cls-4" d="M86,38v.92H85V38Zm0,1v.92H85V39Zm0,1v.92H85V40Zm0,1v.92H85V41Zm0,1v.92H85V42Zm1-4v.92H86V38Zm1,0v.92H87V38Zm1,0v.92H88V38Zm1,1v.92H89V39Zm0,1v.92H89V40Zm0,1v.92H89V41Zm0,1v.92H89V42Z"/><rect class="cls-4" x="91.04" y="40.03" width="0.92" height="0.92"/><rect class="cls-4" x="91.04" y="38.03" width="0.92" height="0.92"/><rect class="cls-4" x="91.04" y="41.03" width="0.92" height="0.92"/><rect class="cls-4" x="91.04" y="39.03" width="0.92" height="0.92"/><rect class="cls-5" x="36" y="47" width="25" height="1"/></g></svg>