<svg xmlns="http://www.w3.org/2000/svg" width="146" height="96" viewBox="0 0 146 96"><defs><style>.cls-1{fill:#d8d8d8;}.cls-2{fill:#fff;}.cls-3{fill:#ccc;}.cls-4{fill:gray;}.cls-5{fill:#b3b3b3;}</style></defs><title>df</title><g id="newsletter-style-1"><path class="cls-1" d="M143,3V79H3V3H143m1-1H2V80H144V2Z"/><rect x="2" y="78" width="142" height="16"/><path class="cls-2" d="M57,83v.92H56V83Zm0,1v.92H56V84Zm0,1v.92H56V85Zm0,1v.92H56V86Zm0,1v.92H56V87Zm0,1v.92H56V88Zm0,1v.92H56V89Zm1-6v.92H57V83Zm0,6v.92H57V89Zm1-6v.92H58V83Zm0,6v.92H58V89Zm1-5v.92H59V84Zm0,4v.92H59V88Zm1-3v.92H60V85Zm0,1v.92H60V86Zm0,1v.92H60V87Z"/><path class="cls-2" d="M63,86v.92H62V86Zm0,1v.92H62V87Zm0,1v.92H62V88Zm1-3v.92H63V85Zm0,2v.92H63V87Zm0,2v.92H63V89Zm1-4v.92H64V85Zm0,2v.92H64V87Zm0,2v.92H64V89Zm1-4v.92H65V85Zm0,2v.92H65V87Zm0,2v.92H65V89Zm1-3v.92H66V86Zm0,1v.92H66V87Zm0,2v.92H66V89Z"/><path class="cls-2" d="M68,85v.92H67V85Zm1,0v.92H68V85Zm1-2v.92H69V83Zm0,1v.92H69V84Zm0,1v.92H69V85Zm0,1v.92H69V86Zm0,1v.92H69V87Zm0,1v.92H69V88Zm0,1v.92H69V89Zm1-7v.92H70V82Zm0,3v.92H70V85Zm1-3v.92H71V82Zm0,3v.92H71V85Zm1-3v.92H72V82Z"/><path class="cls-2" d="M73,88v.92H72V88Zm1-3v.92H73V85Zm0,2v.92H73V87Zm0,2v.92H73V89Zm1-4v.92H74V85Zm0,2v.92H74V87Zm0,2v.92H74V89Zm1-4v.92H75V85Zm0,2v.92H75V87Zm0,2v.92H75V89Zm1-3v.92H76V86Zm0,1v.92H76V87Zm0,1v.92H76V88Zm0,1v.92H76V89Z"/><path class="cls-2" d="M79,85v.92H78V85Zm0,1v.92H78V86Zm0,1v.92H78V87Zm0,1v.92H78V88Zm1,1v.92H79V89Zm1,0v.92H80V89Zm1,0v.92H81V89Zm1-4v.92H82V85Zm0,1v.92H82V86Zm0,1v.92H82V87Zm0,1v.92H82V88Zm0,1v.92H82V89Z"/><path class="cls-2" d="M85,82v.92H84V82Zm0,1v.92H84V83Zm0,1v.92H84V84Zm0,1v.92H84V85Zm0,1v.92H84V86Zm0,1v.92H84V87Zm0,1v.92H84V88Zm1,1v.92H85V89Zm1,0v.92H86V89Z"/><path class="cls-2" d="M88,83v.92H87V83Zm0,1v.92H87V84Zm0,1v.92H87V85Zm0,1v.92H87V86Zm0,1v.92H87V87Zm0,1v.92H87V88Zm1-3v.92H88V85Zm0,4v.92H88V89Zm1-4v.92H89V85Zm0,4v.92H89V89Zm1-4v.92H90V85Zm0,4v.92H90V89Z"/><path class="cls-3" d="M111,18V62H35V18h76m1-1H34V63h78V17Z"/><rect class="cls-4" x="42" y="22" width="24" height="4"/><rect class="cls-5" x="42" y="31" width="61" height="1"/><rect class="cls-5" x="42" y="34" width="61" height="1"/><rect class="cls-5" x="42" y="37" width="61" height="1"/><rect class="cls-5" x="42" y="40" width="61" height="1"/><rect class="cls-5" x="42" y="43" width="61" height="1"/><rect class="cls-5" x="42" y="46" width="61" height="1"/><rect class="cls-5" x="42" y="49" width="61" height="1"/><rect class="cls-5" x="42" y="52" width="61" height="1"/><rect class="cls-5" x="42" y="55" width="16" height="1"/><rect class="cls-5" x="106.62" y="19.38" width="1" height="5" transform="translate(15.9 82.15) rotate(-45)"/><rect class="cls-5" x="104.62" y="21.38" width="5" height="1" transform="translate(15.9 82.15) rotate(-45)"/></g></svg>