<svg xmlns="http://www.w3.org/2000/svg" width="146" height="96" viewBox="0 0 146 96"><defs><style>.cls-1{fill:#d8d8d8;}.cls-2{fill:#ccc;}.cls-3{fill:gray;}.cls-4{fill:#b3b3b3;}.cls-5{fill:#fff;}.cls-6{fill:#262626;}</style></defs><title>df</title><g id="newsletter-style-2"><path class="cls-1" d="M143,3V79H3V3H143m1-1H2V80H144V2Z"/><rect x="2" y="78" width="142" height="16"/><path class="cls-2" d="M111,18V62H35V18h76m1-1H34V63h78V17Z"/><rect class="cls-3" x="75" y="22" width="22" height="4"/><rect class="cls-4" x="75" y="31" width="29" height="1"/><rect class="cls-4" x="75" y="34" width="29" height="1"/><rect class="cls-4" x="75" y="37" width="29" height="1"/><rect class="cls-4" x="75" y="40" width="29" height="1"/><rect class="cls-4" x="75" y="43" width="29" height="1"/><rect class="cls-4" x="75" y="46" width="29" height="1"/><rect class="cls-4" x="75" y="49" width="29" height="1"/><rect class="cls-4" x="75" y="52" width="29" height="1"/><rect class="cls-4" x="75" y="55" width="15.06" height="1"/><rect class="cls-4" x="106.62" y="19.38" width="1" height="5" transform="translate(15.9 82.15) rotate(-45)"/><rect class="cls-4" x="104.62" y="21.38" width="5" height="1" transform="translate(15.9 82.15) rotate(-45)"/><path class="cls-5" d="M60,83v.92H59V83Zm0,6v.92H59V89Zm1-6v.92H60V83Zm0,1v.92H60V84Zm0,1v.92H60V85Zm0,1v.92H60V86Zm0,1v.92H60V87Zm0,1v.92H60V88Zm0,1v.92H60V89Zm1-6v.92H61V83Zm0,6v.92H61V89Z"/><path class="cls-5" d="M64,85v.92H63V85Zm0,1v.92H63V86Zm0,1v.92H63V87Zm0,1v.92H63V88Zm0,1v.92H63V89Zm1-4v.92H64V85Zm1,0v.92H65V85Zm1,0v.92H66V85Zm0,1v.92H66V86Zm0,1v.92H66V87Zm0,1v.92H66V88Zm0,1v.92H66V89Zm1-4v.92H67V85Zm1,0v.92H68V85Zm1,1v.92H69V86Zm0,1v.92H69V87Zm0,1v.92H69V88Zm0,1v.92H69V89Z"/><path class="cls-5" d="M72,88v.92H71V88Zm1-3v.92H72V85Zm0,2v.92H72V87Zm0,2v.92H72V89Zm1-4v.92H73V85Zm0,2v.92H73V87Zm0,2v.92H73V89Zm1-4v.92H74V85Zm0,2v.92H74V87Zm0,2v.92H74V89Zm1-3v.92H75V86Zm0,1v.92H75V87Zm0,1v.92H75V88Zm0,1v.92H75V89Z"/><path class="cls-5" d="M78,86v.92H77V86Zm0,1v.92H77V87Zm0,1v.92H77V88Zm0,3v.92H77V91Zm1-6v.92H78V85Zm0,4v.92H78V89Zm0,2v.92H78V91Zm1-6v.92H79V85Zm0,4v.92H79V89Zm0,2v.92H79V91Zm1-6v.92H80V85Zm0,4v.92H80V89Zm0,2v.92H80V91Zm1-6v.92H81V85Zm0,1v.92H81V86Zm0,1v.92H81V87Zm0,1v.92H81V88Zm0,1v.92H81V89Zm0,1v.92H81V90Z"/><path class="cls-5" d="M84,86v.92H83V86Zm0,1v.92H83V87Zm0,1v.92H83V88Zm1-3v.92H84V85Zm0,2v.92H84V87Zm0,2v.92H84V89Zm1-4v.92H85V85Zm0,2v.92H85V87Zm0,2v.92H85V89Zm1-4v.92H86V85Zm0,2v.92H86V87Zm0,2v.92H86V89Zm1-3v.92H87V86Zm0,1v.92H87V87Zm0,2v.92H87V89Z"/><rect class="cls-6" x="35" y="18" width="34.5" height="44"/><path class="cls-5" d="M50.13,39l1.51,3H48.12l2-3m.12-2-4,6h7l-3-6Z"/><path class="cls-5" d="M55.13,39.75,56.48,42H53.33l1.8-2.25M55.25,38l-4,5h7l-3-5Z"/></g></svg>