<svg xmlns="http://www.w3.org/2000/svg" width="146" height="96" viewBox="0 0 146 96"><defs><style>.cls-1{fill:#d8d8d8;}.cls-2{fill:#fff;}.cls-3,.cls-4{fill:#09090a;}.cls-3{opacity:0.1;}.cls-4,.cls-5{opacity:0.9;}.cls-6{fill:none;stroke:#09090a;stroke-linecap:round;stroke-miterlimit:10;stroke-width:2px;}</style></defs><title>df</title><g id="off-canvas-left"><path class="cls-1" d="M143,3V79H3V3H143m1-1H2V80H144V2Z"/><rect x="2" y="78" width="142" height="16"/><path class="cls-2" d="M53,83v.92H52V83Zm0,1v.92H52V84Zm0,1v.92H52V85Zm0,1v.92H52V86Zm0,1v.92H52V87Zm0,1v.92H52V88Zm0,1v.92H52V89Zm1-6v.92H53V83Zm0,3v.92H53V86Zm1-3v.92H54V83Zm0,3v.92H54V86Zm1-3v.92H55V83Zm0,3v.92H55V86Zm1-3v.92H56V83Z"/><path class="cls-2" d="M58,85v.92H57V85Zm0,1v.92H57V86Zm0,1v.92H57V87Zm0,1v.92H57V88Zm0,1v.92H57V89Zm1-3v.92H58V86Zm1-1v.92H59V85Zm1,0v.92H60V85Z"/><path class="cls-2" d="M62,86v.92H61V86Zm0,1v.92H61V87Zm0,1v.92H61V88Zm1-3v.92H62V85Zm0,4v.92H62V89Zm1-4v.92H63V85Zm0,4v.92H63V89Zm1-4v.92H64V85Zm0,4v.92H64V89Zm1-3v.92H65V86Zm0,1v.92H65V87Zm0,1v.92H65V88Z"/><path class="cls-2" d="M68,85v.92H67V85Zm0,1v.92H67V86Zm0,1v.92H67V87Zm0,1v.92H67V88Zm0,1v.92H67V89Zm1-4v.92H68V85Zm1,0v.92H69V85Zm1,0v.92H70V85Zm0,1v.92H70V86Zm0,1v.92H70V87Zm0,1v.92H70V88Zm0,1v.92H70V89Zm1-4v.92H71V85Zm1,0v.92H72V85Zm1,1v.92H73V86Zm0,1v.92H73V87Zm0,1v.92H73V88Zm0,1v.92H73V89Z"/><path class="cls-2" d="M78,83v.92H77V83Zm0,1v.92H77V84Zm0,1v.92H77V85Zm0,1v.92H77V86Zm0,1v.92H77V87Zm0,1v.92H77V88Zm0,1v.92H77V89Zm1,0v.92H78V89Zm1,0v.92H79V89Zm1,0v.92H80V89Zm1,0v.92H81V89Z"/><path class="cls-2" d="M83,86v.92H82V86Zm0,1v.92H82V87Zm0,1v.92H82V88Zm1-3v.92H83V85Zm0,2v.92H83V87Zm0,2v.92H83V89Zm1-4v.92H84V85Zm0,2v.92H84V87Zm0,2v.92H84V89Zm1-4v.92H85V85Zm0,2v.92H85V87Zm0,2v.92H85V89Zm1-3v.92H86V86Zm0,1v.92H86V87Zm0,2v.92H86V89Z"/><path class="cls-2" d="M88,85v.92H87V85Zm1,0v.92H88V85Zm1-2v.92H89V83Zm0,1v.92H89V84Zm0,1v.92H89V85Zm0,1v.92H89V86Zm0,1v.92H89V87Zm0,1v.92H89V88Zm0,1v.92H89V89Zm1-7v.92H90V82Zm0,3v.92H90V85Zm1-3v.92H91V82Zm0,3v.92H91V85Zm1-3v.92H92V82Z"/><path class="cls-2" d="M93,83v.92H92V83Zm0,1v.92H92V84Zm0,1v.92H92V85Zm0,1v.92H92V86Zm0,1v.92H92V87Zm0,1v.92H92V88Zm1-3v.92H93V85Zm0,4v.92H93V89Zm1-4v.92H94V85Zm0,4v.92H94V89Zm1-4v.92H95V85Zm0,4v.92H95V89Z"/><rect class="cls-3" x="39" y="5" width="102" height="71"/><rect class="cls-4" x="5" y="5" width="32" height="71"/><g class="cls-5"><polyline class="cls-6" points="94 47 101 40 94 33"/><line class="cls-6" x1="100" y1="40" x2="79" y2="40"/></g></g></svg>