<svg xmlns="http://www.w3.org/2000/svg" width="146" height="96" viewBox="0 0 146 96"><defs><style>.cls-1{fill:#d8d8d8;}.cls-2{fill:#fff;}.cls-3,.cls-6{fill:#09090a;}.cls-3{opacity:0.1;}.cls-4,.cls-6{opacity:0.9;}.cls-5{fill:none;stroke:#09090a;stroke-linecap:round;stroke-miterlimit:10;stroke-width:2px;}</style></defs><title>df</title><g id="off-canvas-right"><path class="cls-1" d="M143,3V79H3V3H143m1-1H2V80H144V2Z"/><rect x="2" y="78" width="142" height="16"/><path class="cls-2" d="M50,83v.92H49V83Zm0,1v.92H49V84Zm0,1v.92H49V85Zm0,1v.92H49V86Zm0,1v.92H49V87Zm0,1v.92H49V88Zm0,1v.92H49V89Zm1-6v.92H50V83Zm0,3v.92H50V86Zm1-3v.92H51V83Zm0,3v.92H51V86Zm1-3v.92H52V83Zm0,3v.92H52V86Zm1-3v.92H53V83Z"/><path class="cls-2" d="M55,85v.92H54V85Zm0,1v.92H54V86Zm0,1v.92H54V87Zm0,1v.92H54V88Zm0,1v.92H54V89Zm1-3v.92H55V86Zm1-1v.92H56V85Zm1,0v.92H57V85Z"/><path class="cls-2" d="M59,86v.92H58V86Zm0,1v.92H58V87Zm0,1v.92H58V88Zm1-3v.92H59V85Zm0,4v.92H59V89Zm1-4v.92H60V85Zm0,4v.92H60V89Zm1-4v.92H61V85Zm0,4v.92H61V89Zm1-3v.92H62V86Zm0,1v.92H62V87Zm0,1v.92H62V88Z"/><path class="cls-2" d="M65,85v.92H64V85Zm0,1v.92H64V86Zm0,1v.92H64V87Zm0,1v.92H64V88Zm0,1v.92H64V89Zm1-4v.92H65V85Zm1,0v.92H66V85Zm1,0v.92H67V85Zm0,1v.92H67V86Zm0,1v.92H67V87Zm0,1v.92H67V88Zm0,1v.92H67V89Zm1-4v.92H68V85Zm1,0v.92H69V85Zm1,1v.92H70V86Zm0,1v.92H70V87Zm0,1v.92H70V88Zm0,1v.92H70V89Z"/><path class="cls-2" d="M75,83v.92H74V83Zm0,1v.92H74V84Zm0,1v.92H74V85Zm0,1v.92H74V86Zm0,1v.92H74V87Zm0,1v.92H74V88Zm0,1v.92H74V89Zm1-6v.92H75V83Zm0,3v.92H75V86Zm1-3v.92H76V83Zm0,3v.92H76V86Zm0,1v.92H76V87Zm1-4v.92H77V83Zm0,3v.92H77V86Zm0,2v.92H77V88Zm1-4v.92H78V84Zm0,1v.92H78V85Zm0,4v.92H78V89Z"/><path class="cls-2" d="M81,82v.92H80V82Zm0,3v.92H80V85Zm0,1v.92H80V86Zm0,1v.92H80V87Zm0,1v.92H80V88Zm0,1v.92H80V89Z"/><path class="cls-2" d="M83,86v.92H82V86Zm0,1v.92H82V87Zm0,1v.92H82V88Zm0,3v.92H82V91Zm1-6v.92H83V85Zm0,4v.92H83V89Zm0,2v.92H83V91Zm1-6v.92H84V85Zm0,4v.92H84V89Zm0,2v.92H84V91Zm1-6v.92H85V85Zm0,4v.92H85V89Zm0,2v.92H85V91Zm1-6v.92H86V85Zm0,1v.92H86V86Zm0,1v.92H86V87Zm0,1v.92H86V88Zm0,1v.92H86V89Zm0,1v.92H86V90Z"/><path class="cls-2" d="M89,82v.92H88V82Zm0,1v.92H88V83Zm0,1v.92H88V84Zm0,1v.92H88V85Zm0,1v.92H88V86Zm0,1v.92H88V87Zm0,1v.92H88V88Zm0,1v.92H88V89Zm1-4v.92H89V85Zm1,0v.92H90V85Zm1,0v.92H91V85Zm1,1v.92H92V86Zm0,1v.92H92V87Zm0,1v.92H92V88Zm0,1v.92H92V89Z"/><path class="cls-2" d="M95,83v.92H94V83Zm0,1v.92H94V84Zm0,1v.92H94V85Zm0,1v.92H94V86Zm0,1v.92H94V87Zm0,1v.92H94V88Zm1-3v.92H95V85Zm0,4v.92H95V89Zm1-4v.92H96V85Zm0,4v.92H96V89Zm1-4v.92H97V85Zm0,4v.92H97V89Z"/><rect class="cls-3" x="5" y="5" width="102" height="71"/><g class="cls-4"><polyline class="cls-5" points="52 33 45 40 52 47"/><line class="cls-5" x1="46" y1="40" x2="67" y2="40"/></g><rect class="cls-6" x="109" y="5" width="32" height="71"/></g></svg>