<svg xmlns="http://www.w3.org/2000/svg" width="96" height="96" viewBox="0 0 96 96"><defs><style>.cls-1{fill:#09090a;opacity:0.9;}.cls-2{fill:#d8d8d8;}.cls-3{fill:#fff;}.cls-4{fill:#b3b3b3;}</style></defs><title>df</title><g id="page-title-style-3-trina"><rect class="cls-1" x="5" y="20" width="86" height="35"/><path class="cls-2" d="M93,3V79H3V3H93m1-1H2V80H94V2Z"/><rect x="2" y="78" width="92" height="16"/><path class="cls-3" d="M10.92,31.08V32H10v-.92Zm0,1V33H10v-.92Zm0,1V34H10v-.92Zm0,1V35H10v-.92Zm0,1V36H10v-.92Zm0,1V37H10v-.92Zm0,1V38H10v-.92Zm1-6V32H11v-.92Zm0,3V35H11v-.92Zm1-3V32H12v-.92Zm0,3V35H12v-.92Zm1-3V32H13v-.92Zm0,3V35H13v-.92Zm1-2V33H14v-.92Zm0,1V34H14v-.92Z"/><path class="cls-3" d="M16.92,36.08V37H16v-.92Zm1-3V34H17v-.92Zm0,2V36H17v-.92Zm0,2V38H17v-.92Zm1-4V34H18v-.92Zm0,2V36H18v-.92Zm0,2V38H18v-.92Zm1-4V34H19v-.92Zm0,2V36H19v-.92Zm0,2V38H19v-.92Zm1-3V35H20v-.92Zm0,1V36H20v-.92Zm0,1V37H20v-.92Zm0,1V38H20v-.92Z"/><path class="cls-3" d="M22.92,34.08V35H22v-.92Zm0,1V36H22v-.92Zm0,1V37H22v-.92Zm0,3V40H22v-.92Zm1-6V34H23v-.92Zm0,4V38H23v-.92Zm0,2V40H23v-.92Zm1-6V34H24v-.92Zm0,4V38H24v-.92Zm0,2V40H24v-.92Zm1-6V34H25v-.92Zm0,4V38H25v-.92Zm0,2V40H25v-.92Zm1-6V34H26v-.92Zm0,1V35H26v-.92Zm0,1V36H26v-.92Zm0,1V37H26v-.92Zm0,1V38H26v-.92Zm0,1V39H26v-.92Z"/><path class="cls-3" d="M28.92,34.08V35H28v-.92Zm0,1V36H28v-.92Zm0,1V37H28v-.92Zm1-3V34H29v-.92Zm0,2V36H29v-.92Zm0,2V38H29v-.92Zm1-4V34H30v-.92Zm0,2V36H30v-.92Zm0,2V38H30v-.92Zm1-4V34H31v-.92Zm0,2V36H31v-.92Zm0,2V38H31v-.92Zm1-3V35H32v-.92Zm0,1V36H32v-.92Zm0,2V38H32v-.92Z"/><path class="cls-3" d="M35.92,31.08V32H35v-.92Zm1,0V32H36v-.92Zm1,0V32H37v-.92Zm0,1V33H37v-.92Zm0,1V34H37v-.92Zm0,1V35H37v-.92Zm0,1V36H37v-.92Zm0,1V37H37v-.92Zm0,1V38H37v-.92Zm1-6V32H38v-.92Zm1,0V32H39v-.92Z"/><path class="cls-3" d="M40.92,30.08V31H40v-.92Zm0,3V34H40v-.92Zm0,1V35H40v-.92Zm0,1V36H40v-.92Zm0,1V37H40v-.92Zm0,1V38H40v-.92Z"/><path class="cls-3" d="M42.92,31.08V32H42v-.92Zm0,1V33H42v-.92Zm0,1V34H42v-.92Zm0,1V35H42v-.92Zm0,1V36H42v-.92Zm0,1V37H42v-.92Zm1-3V34H43v-.92Zm0,4V38H43v-.92Zm1-4V34H44v-.92Zm0,4V38H44v-.92Zm1-4V34H45v-.92Zm0,4V38H45v-.92Z"/><path class="cls-3" d="M47.92,30.08V31H47v-.92Zm0,1V32H47v-.92Zm0,1V33H47v-.92Zm0,1V34H47v-.92Zm0,1V35H47v-.92Zm0,1V36H47v-.92Zm0,1V37H47v-.92Zm1,1V38H48v-.92Zm1,0V38H49v-.92Z"/><path class="cls-3" d="M50.92,34.08V35H50v-.92Zm0,1V36H50v-.92Zm0,1V37H50v-.92Zm1-3V34H51v-.92Zm0,2V36H51v-.92Zm0,2V38H51v-.92Zm1-4V34H52v-.92Zm0,2V36H52v-.92Zm0,2V38H52v-.92Zm1-4V34H53v-.92Zm0,2V36H53v-.92Zm0,2V38H53v-.92Zm1-3V35H54v-.92Zm0,1V36H54v-.92Zm0,2V38H54v-.92Z"/><rect class="cls-4" x="10" y="45" width="20" height="1"/><path class="cls-3" d="M33,84v.92H32V84Zm0,1v.92H32V85Zm0,4v.92H32V89Zm1-6v.92H33V83Zm0,3v.92H33V86Zm0,3v.92H33V89Zm1-6v.92H34V83Zm0,3v.92H34V86Zm0,3v.92H34V89Zm1-6v.92H35V83Zm0,3v.92H35V86Zm0,3v.92H35V89Zm1-6v.92H36V83Zm0,4v.92H36V87Zm0,1v.92H36V88Z"/><path class="cls-3" d="M39,83v.92H38V83Zm0,1v.92H38V84Zm0,1v.92H38V85Zm0,1v.92H38V86Zm0,1v.92H38V87Zm0,1v.92H38V88Zm1-3v.92H39V85Zm0,4v.92H39V89Zm1-4v.92H40V85Zm0,4v.92H40V89Zm1-4v.92H41V85Zm0,4v.92H41V89Z"/><path class="cls-3" d="M43,91v.92H42V91Zm1-6v.92H43V85Zm0,1v.92H43V86Zm0,1v.92H43V87Zm0,4v.92H43V91Zm1-3v.92H44V88Zm0,2v.92H44V90Zm1-1v.92H45V89Zm1-1v.92H46V88Zm1-3v.92H47V85Zm0,1v.92H47V86Zm0,1v.92H47V87Z"/><path class="cls-3" d="M50,82v.92H49V82Zm0,1v.92H49V83Zm0,1v.92H49V84Zm0,1v.92H49V85Zm0,1v.92H49V86Zm0,1v.92H49V87Zm0,1v.92H49V88Zm1,1v.92H50V89Zm1,0v.92H51V89Z"/><path class="cls-3" d="M53,86v.92H52V86Zm0,1v.92H52V87Zm0,1v.92H52V88Zm1-3v.92H53V85Zm0,2v.92H53V87Zm0,2v.92H53V89Zm1-4v.92H54V85Zm0,2v.92H54V87Zm0,2v.92H54V89Zm1-4v.92H55V85Zm0,2v.92H55V87Zm0,2v.92H55V89Zm1-3v.92H56V86Zm0,1v.92H56V87Zm0,2v.92H56V89Z"/><path class="cls-3" d="M61,83v.92H60V83Zm0,6v.92H60V89Zm1-6v.92H61V83Zm0,3v.92H61V86Zm0,3v.92H61V89Zm1-6v.92H62V83Zm0,2v.92H62V85Zm0,1v.92H62V86Zm0,3v.92H62V89Zm1-6v.92H63V83Zm0,1v.92H63V84Zm0,2v.92H63V86Zm0,3v.92H63V89Zm1-6v.92H64V83Zm0,4v.92H64V87Zm0,1v.92H64V88Z"/></g></svg>