<svg xmlns="http://www.w3.org/2000/svg" width="96" height="96" viewBox="0 0 96 96"><defs><style>.cls-1{fill:#09090a;opacity:0.9;}.cls-2{fill:#d8d8d8;}.cls-3{fill:#fff;}.cls-4{fill:#b3b3b3;}</style></defs><title>df</title><g id="page-title-style-2-titania"><rect class="cls-1" x="5" y="5" width="86" height="71"/><path class="cls-2" d="M93,3V79H3V3H93m1-1H2V80H94V2Z"/><rect x="2" y="78" width="92" height="16"/><path class="cls-3" d="M27,31.08V32H26v-.92Zm0,1V33H26v-.92Zm0,1V34H26v-.92Zm0,1V35H26v-.92Zm0,1V36H26v-.92Zm0,1V37H26v-.92Zm0,1V38H26v-.92Zm1-6V32H27v-.92Zm0,3V35H27v-.92Zm1-3V32H28v-.92Zm0,3V35H28v-.92Zm1-3V32H29v-.92Zm0,3V35H29v-.92Zm1-2V33H30v-.92Zm0,1V34H30v-.92Z"/><path class="cls-3" d="M33,36.08V37H32v-.92Zm1-3V34H33v-.92Zm0,2V36H33v-.92Zm0,2V38H33v-.92Zm1-4V34H34v-.92Zm0,2V36H34v-.92Zm0,2V38H34v-.92Zm1-4V34H35v-.92Zm0,2V36H35v-.92Zm0,2V38H35v-.92Zm1-3V35H36v-.92Zm0,1V36H36v-.92Zm0,1V37H36v-.92Zm0,1V38H36v-.92Z"/><path class="cls-3" d="M39,34.08V35H38v-.92Zm0,1V36H38v-.92Zm0,1V37H38v-.92Zm0,3V40H38v-.92Zm1-6V34H39v-.92Zm0,4V38H39v-.92Zm0,2V40H39v-.92Zm1-6V34H40v-.92Zm0,4V38H40v-.92Zm0,2V40H40v-.92Zm1-6V34H41v-.92Zm0,4V38H41v-.92Zm0,2V40H41v-.92Zm1-6V34H42v-.92Zm0,1V35H42v-.92Zm0,1V36H42v-.92Zm0,1V37H42v-.92Zm0,1V38H42v-.92Zm0,1V39H42v-.92Z"/><path class="cls-3" d="M45,34.08V35H44v-.92Zm0,1V36H44v-.92Zm0,1V37H44v-.92Zm1-3V34H45v-.92Zm0,2V36H45v-.92Zm0,2V38H45v-.92Zm1-4V34H46v-.92Zm0,2V36H46v-.92Zm0,2V38H46v-.92Zm1-4V34H47v-.92Zm0,2V36H47v-.92Zm0,2V38H47v-.92Zm1-3V35H48v-.92Zm0,1V36H48v-.92Zm0,2V38H48v-.92Z"/><path class="cls-3" d="M52,31.08V32H51v-.92Zm1,0V32H52v-.92Zm1,0V32H53v-.92Zm0,1V33H53v-.92Zm0,1V34H53v-.92Zm0,1V35H53v-.92Zm0,1V36H53v-.92Zm0,1V37H53v-.92Zm0,1V38H53v-.92Zm1-6V32H54v-.92Zm1,0V32H55v-.92Z"/><path class="cls-3" d="M57,30.08V31H56v-.92Zm0,3V34H56v-.92Zm0,1V35H56v-.92Zm0,1V36H56v-.92Zm0,1V37H56v-.92Zm0,1V38H56v-.92Z"/><path class="cls-3" d="M59,31.08V32H58v-.92Zm0,1V33H58v-.92Zm0,1V34H58v-.92Zm0,1V35H58v-.92Zm0,1V36H58v-.92Zm0,1V37H58v-.92Zm1-3V34H59v-.92Zm0,4V38H59v-.92Zm1-4V34H60v-.92Zm0,4V38H60v-.92Zm1-4V34H61v-.92Zm0,4V38H61v-.92Z"/><path class="cls-3" d="M64,30.08V31H63v-.92Zm0,1V32H63v-.92Zm0,1V33H63v-.92Zm0,1V34H63v-.92Zm0,1V35H63v-.92Zm0,1V36H63v-.92Zm0,1V37H63v-.92Zm1,1V38H64v-.92Zm1,0V38H65v-.92Z"/><path class="cls-3" d="M67,34.08V35H66v-.92Zm0,1V36H66v-.92Zm0,1V37H66v-.92Zm1-3V34H67v-.92Zm0,2V36H67v-.92Zm0,2V38H67v-.92Zm1-4V34H68v-.92Zm0,2V36H68v-.92Zm0,2V38H68v-.92Zm1-4V34H69v-.92Zm0,2V36H69v-.92Zm0,2V38H69v-.92Zm1-3V35H70v-.92Zm0,1V36H70v-.92Zm0,2V38H70v-.92Z"/><rect class="cls-4" x="38" y="45" width="20" height="1"/><path class="cls-3" d="M33,84v.92H32V84Zm0,1v.92H32V85Zm0,4v.92H32V89Zm1-6v.92H33V83Zm0,3v.92H33V86Zm0,3v.92H33V89Zm1-6v.92H34V83Zm0,3v.92H34V86Zm0,3v.92H34V89Zm1-6v.92H35V83Zm0,3v.92H35V86Zm0,3v.92H35V89Zm1-6v.92H36V83Zm0,4v.92H36V87Zm0,1v.92H36V88Z"/><path class="cls-3" d="M39,83v.92H38V83Zm0,1v.92H38V84Zm0,1v.92H38V85Zm0,1v.92H38V86Zm0,1v.92H38V87Zm0,1v.92H38V88Zm1-3v.92H39V85Zm0,4v.92H39V89Zm1-4v.92H40V85Zm0,4v.92H40V89Zm1-4v.92H41V85Zm0,4v.92H41V89Z"/><path class="cls-3" d="M43,91v.92H42V91Zm1-6v.92H43V85Zm0,1v.92H43V86Zm0,1v.92H43V87Zm0,4v.92H43V91Zm1-3v.92H44V88Zm0,2v.92H44V90Zm1-1v.92H45V89Zm1-1v.92H46V88Zm1-3v.92H47V85Zm0,1v.92H47V86Zm0,1v.92H47V87Z"/><path class="cls-3" d="M50,82v.92H49V82Zm0,1v.92H49V83Zm0,1v.92H49V84Zm0,1v.92H49V85Zm0,1v.92H49V86Zm0,1v.92H49V87Zm0,1v.92H49V88Zm1,1v.92H50V89Zm1,0v.92H51V89Z"/><path class="cls-3" d="M53,86v.92H52V86Zm0,1v.92H52V87Zm0,1v.92H52V88Zm1-3v.92H53V85Zm0,2v.92H53V87Zm0,2v.92H53V89Zm1-4v.92H54V85Zm0,2v.92H54V87Zm0,2v.92H54V89Zm1-4v.92H55V85Zm0,2v.92H55V87Zm0,2v.92H55V89Zm1-3v.92H56V86Zm0,1v.92H56V87Zm0,2v.92H56V89Z"/><path class="cls-3" d="M61,83v.92H60V83Zm0,5v.92H60V88Zm0,1v.92H60V89Zm1-6v.92H61V83Zm0,4v.92H61V87Zm0,2v.92H61V89Zm1-6v.92H62V83Zm0,3v.92H62V86Zm0,3v.92H62V89Zm1-6v.92H63V83Zm0,3v.92H63V86Zm0,3v.92H63V89Zm1-5v.92H64V84Zm0,1v.92H64V85Zm0,4v.92H64V89Z"/></g></svg>