<svg xmlns="http://www.w3.org/2000/svg" width="96" height="96" viewBox="0 0 96 96"><defs><style>.cls-1{fill:#d8d8d8;}.cls-2{fill:#fff;}.cls-3{fill:#262626;}</style></defs><title>df</title><g id="search-style-5"><path class="cls-1" d="M93,3V79H3V3H93m1-1H2V80H94V2Z"/><rect x="2" y="78" width="92" height="16"/><path class="cls-2" d="M33,84v.92H32V84Zm0,1v.92H32V85Zm0,4v.92H32V89Zm1-6v.92H33V83Zm0,3v.92H33V86Zm0,3v.92H33V89Zm1-6v.92H34V83Zm0,3v.92H34V86Zm0,3v.92H34V89Zm1-6v.92H35V83Zm0,3v.92H35V86Zm0,3v.92H35V89Zm1-6v.92H36V83Zm0,4v.92H36V87Zm0,1v.92H36V88Z"/><path class="cls-2" d="M39,83v.92H38V83Zm0,1v.92H38V84Zm0,1v.92H38V85Zm0,1v.92H38V86Zm0,1v.92H38V87Zm0,1v.92H38V88Zm1-3v.92H39V85Zm0,4v.92H39V89Zm1-4v.92H40V85Zm0,4v.92H40V89Zm1-4v.92H41V85Zm0,4v.92H41V89Z"/><path class="cls-2" d="M43,91v.92H42V91Zm1-6v.92H43V85Zm0,1v.92H43V86Zm0,1v.92H43V87Zm0,4v.92H43V91Zm1-3v.92H44V88Zm0,2v.92H44V90Zm1-1v.92H45V89Zm1-1v.92H46V88Zm1-3v.92H47V85Zm0,1v.92H47V86Zm0,1v.92H47V87Z"/><path class="cls-2" d="M50,82v.92H49V82Zm0,1v.92H49V83Zm0,1v.92H49V84Zm0,1v.92H49V85Zm0,1v.92H49V86Zm0,1v.92H49V87Zm0,1v.92H49V88Zm1,1v.92H50V89Zm1,0v.92H51V89Z"/><path class="cls-2" d="M53,86v.92H52V86Zm0,1v.92H52V87Zm0,1v.92H52V88Zm1-3v.92H53V85Zm0,2v.92H53V87Zm0,2v.92H53V89Zm1-4v.92H54V85Zm0,2v.92H54V87Zm0,2v.92H54V89Zm1-4v.92H55V85Zm0,2v.92H55V87Zm0,2v.92H55V89Zm1-3v.92H56V86Zm0,1v.92H56V87Zm0,2v.92H56V89Z"/><path class="cls-2" d="M61,83v.92H60V83Zm0,1v.92H60V84Zm0,1v.92H60V85Zm0,1v.92H60V86Zm0,3v.92H60V89Zm1-6v.92H61V83Zm0,3v.92H61V86Zm0,3v.92H61V89Zm1-6v.92H62V83Zm0,3v.92H62V86Zm0,3v.92H62V89Zm1-6v.92H63V83Zm0,3v.92H63V86Zm0,3v.92H63V89Zm1-6v.92H64V83Zm0,4v.92H64V87Zm0,1v.92H64V88Z"/><path class="cls-3" d="M28,38V39h-.92V38Zm0,1V40h-.92V39Zm0,4V44h-.92V43Zm1-6V38h-.92V37Zm0,3V41h-.92V40Zm0,3V44h-.92V43Zm1-6V38h-.92V37Zm0,3V41h-.92V40Zm0,3V44h-.92V43Zm1-6V38h-.92V37Zm0,3V41h-.92V40Zm0,3V44h-.92V43Zm1-6V38h-.92V37Zm0,4V42h-.92V41Zm0,1V43h-.92V42Z"/><path class="cls-3" d="M34,40V41h-.92V40Zm0,1V42h-.92V41Zm0,1V43h-.92V42Zm1-3V40h-.92V39Zm0,2V42h-.92V41Zm0,2V44h-.92V43Zm1-4V40h-.92V39Zm0,2V42h-.92V41Zm0,2V44h-.92V43Zm1-4V40h-.92V39Zm0,2V42h-.92V41Zm0,2V44h-.92V43Zm1-3V41h-.92V40Zm0,1V42h-.92V41Zm0,2V44h-.92V43Z"/><path class="cls-3" d="M40,42V43h-.92V42Zm1-3V40h-.92V39Zm0,2V42h-.92V41Zm0,2V44h-.92V43Zm1-4V40h-.92V39Zm0,2V42h-.92V41Zm0,2V44h-.92V43Zm1-4V40h-.92V39Zm0,2V42h-.92V41Zm0,2V44h-.92V43Zm1-3V41h-.92V40Zm0,1V42h-.92V41Zm0,1V43h-.92V42Zm0,1V44h-.92V43Z"/><path class="cls-3" d="M46,39V40h-.92V39Zm0,1V41h-.92V40Zm0,1V42h-.92V41Zm0,1V43h-.92V42Zm0,1V44h-.92V43Zm1-3V41h-.92V40Zm1-1V40h-.92V39Zm1,0V40h-.92V39Z"/><path class="cls-3" d="M50,40V41h-.92V40Zm0,1V42h-.92V41Zm0,1V43h-.92V42Zm1-3V40h-.92V39Zm0,4V44h-.92V43Zm1-4V40h-.92V39Zm0,4V44h-.92V43Zm1-4V40h-.92V39Zm0,4V44h-.92V43Zm1-4V40h-.92V39Zm0,4V44h-.92V43Z"/><path class="cls-3" d="M56,36V37h-.92V36Zm0,1V38h-.92V37Zm0,1V39h-.92V38Zm0,1V40h-.92V39Zm0,1V41h-.92V40Zm0,1V42h-.92V41Zm0,1V43h-.92V42Zm0,1V44h-.92V43Zm1-4V40h-.92V39Zm1,0V40h-.92V39Zm1,0V40h-.92V39Zm1,1V41h-.92V40Zm0,1V42h-.92V41Zm0,1V43h-.92V42Zm0,1V44h-.92V43Z"/><path d="M77.85,47.29,74.56,44a6,6,0,1,0-.71.71l3.3,3.3ZM70,45.11a5,5,0,1,1,5-5A5,5,0,0,1,70,45.11Z"/></g></svg>