<svg xmlns="http://www.w3.org/2000/svg" width="96" height="96" viewBox="0 0 96 96"><defs><style>.cls-1{fill:#d8d8d8;}.cls-2{fill:#fff;}.cls-3{fill:#262626;}</style></defs><title>df</title><g id="social-style-1"><path class="cls-1" d="M93,3V79H3V3H93m1-1H2V80H94V2Z"/><rect x="2" y="78" width="92" height="16"/><path class="cls-2" d="M33,84v.92H32V84Zm0,1v.92H32V85Zm0,4v.92H32V89Zm1-6v.92H33V83Zm0,3v.92H33V86Zm0,3v.92H33V89Zm1-6v.92H34V83Zm0,3v.92H34V86Zm0,3v.92H34V89Zm1-6v.92H35V83Zm0,3v.92H35V86Zm0,3v.92H35V89Zm1-6v.92H36V83Zm0,4v.92H36V87Zm0,1v.92H36V88Z"/><path class="cls-2" d="M39,83v.92H38V83Zm0,1v.92H38V84Zm0,1v.92H38V85Zm0,1v.92H38V86Zm0,1v.92H38V87Zm0,1v.92H38V88Zm1-3v.92H39V85Zm0,4v.92H39V89Zm1-4v.92H40V85Zm0,4v.92H40V89Zm1-4v.92H41V85Zm0,4v.92H41V89Z"/><path class="cls-2" d="M43,91v.92H42V91Zm1-6v.92H43V85Zm0,1v.92H43V86Zm0,1v.92H43V87Zm0,4v.92H43V91Zm1-3v.92H44V88Zm0,2v.92H44V90Zm1-1v.92H45V89Zm1-1v.92H46V88Zm1-3v.92H47V85Zm0,1v.92H47V86Zm0,1v.92H47V87Z"/><path class="cls-2" d="M50,82v.92H49V82Zm0,1v.92H49V83Zm0,1v.92H49V84Zm0,1v.92H49V85Zm0,1v.92H49V86Zm0,1v.92H49V87Zm0,1v.92H49V88Zm1,1v.92H50V89Zm1,0v.92H51V89Z"/><path class="cls-2" d="M53,86v.92H52V86Zm0,1v.92H52V87Zm0,1v.92H52V88Zm1-3v.92H53V85Zm0,2v.92H53V87Zm0,2v.92H53V89Zm1-4v.92H54V85Zm0,2v.92H54V87Zm0,2v.92H54V89Zm1-4v.92H55V85Zm0,2v.92H55V87Zm0,2v.92H55V89Zm1-3v.92H56V86Zm0,1v.92H56V87Zm0,2v.92H56V89Z"/><path class="cls-2" d="M61,83v.92H60V83Zm0,6v.92H60V89Zm1-6v.92H61V83Zm0,6v.92H61V89Zm1-6v.92H62V83Zm0,1v.92H62V84Zm0,1v.92H62V85Zm0,1v.92H62V86Zm0,1v.92H62V87Zm0,1v.92H62V88Zm0,1v.92H62V89Zm1,0v.92H63V89Zm1,0v.92H64V89Z"/><path class="cls-3" d="M59,32.67a9,9,0,0,1-2.59.71,4.53,4.53,0,0,0,2-2.5A9.1,9.1,0,0,1,55.52,32a4.52,4.52,0,0,0-7.69,4.11,12.81,12.81,0,0,1-9.3-4.72,4.52,4.52,0,0,0,1.4,6,4.51,4.51,0,0,1-2-.57v.06a4.52,4.52,0,0,0,3.62,4.43,4.57,4.57,0,0,1-1.19.16,4.33,4.33,0,0,1-.85-.08,4.52,4.52,0,0,0,4.21,3.13,9.05,9.05,0,0,1-5.6,1.93A9.59,9.59,0,0,1,37,46.39,12.83,12.83,0,0,0,56.76,35.58l0-.58A9,9,0,0,0,59,32.67Z"/></g></svg>