<svg xmlns="http://www.w3.org/2000/svg" width="96" height="96" viewBox="0 0 96 96"><defs><style>.cls-1{fill:#d8d8d8;}.cls-2{fill:#fff;}</style></defs><title>df</title><g id="search-style-2"><path class="cls-1" d="M93,3V79H3V3H93m1-1H2V80H94V2Z"/><rect x="2" y="78" width="92" height="16"/><path class="cls-2" d="M33,84.08V85H32v-.92Zm0,1V86H32v-.92Zm0,4V90H32v-.92Zm1-6V84H33v-.92Zm0,3V87H33v-.92Zm0,3V90H33v-.92Zm1-6V84H34v-.92Zm0,3V87H34v-.92Zm0,3V90H34v-.92Zm1-6V84H35v-.92Zm0,3V87H35v-.92Zm0,3V90H35v-.92Zm1-6V84H36v-.92Zm0,4V88H36v-.92Zm0,1V89H36v-.92Z"/><path class="cls-2" d="M39,83.08V84H38v-.92Zm0,1V85H38v-.92Zm0,1V86H38v-.92Zm0,1V87H38v-.92Zm0,1V88H38v-.92Zm0,1V89H38v-.92Zm1-3V86H39v-.92Zm0,4V90H39v-.92Zm1-4V86H40v-.92Zm0,4V90H40v-.92Zm1-4V86H41v-.92Zm0,4V90H41v-.92Z"/><path class="cls-2" d="M43,91.08V92H42v-.92Zm1-6V86H43v-.92Zm0,1V87H43v-.92Zm0,1V88H43v-.92Zm0,4V92H43v-.92Zm1-3V89H44v-.92Zm0,2V91H44v-.92Zm1-1V90H45v-.92Zm1-1V89H46v-.92Zm1-3V86H47v-.92Zm0,1V87H47v-.92Zm0,1V88H47v-.92Z"/><path class="cls-2" d="M50,82.08V83H49v-.92Zm0,1V84H49v-.92Zm0,1V85H49v-.92Zm0,1V86H49v-.92Zm0,1V87H49v-.92Zm0,1V88H49v-.92Zm0,1V89H49v-.92Zm1,1V90H50v-.92Zm1,0V90H51v-.92Z"/><path class="cls-2" d="M53,86.08V87H52v-.92Zm0,1V88H52v-.92Zm0,1V89H52v-.92Zm1-3V86H53v-.92Zm0,2V88H53v-.92Zm0,2V90H53v-.92Zm1-4V86H54v-.92Zm0,2V88H54v-.92Zm0,2V90H54v-.92Zm1-4V86H55v-.92Zm0,2V88H55v-.92Zm0,2V90H55v-.92Zm1-3V87H56v-.92Zm0,1V88H56v-.92Zm0,2V90H56v-.92Z"/><path class="cls-2" d="M61,83.08V84H60v-.92Zm0,5V89H60v-.92Zm0,1V90H60v-.92Zm1-6V84H61v-.92Zm0,4V88H61v-.92Zm0,2V90H61v-.92Zm1-6V84H62v-.92Zm0,3V87H62v-.92Zm0,3V90H62v-.92Zm1-6V84H63v-.92Zm0,3V87H63v-.92Zm0,3V90H63v-.92Zm1-5V85H64v-.92Zm0,1V86H64v-.92Zm0,4V90H64v-.92Z"/><path d="M49.85,34.11A6,6,0,0,0,45.3,44L42,47.29l.71.71L46,44.7a6,6,0,1,0,3.85-10.6Zm0,11a5,5,0,1,1,5-5A5,5,0,0,1,49.85,45.11Z"/></g></svg>