<svg xmlns="http://www.w3.org/2000/svg" width="96" height="96" viewBox="0 0 96 96"><defs><style>.cls-1{fill:#d8d8d8;}.cls-2{fill:#fff;}.cls-3{fill:#262626;}</style></defs><title>df</title><g id="search-style-1"><path class="cls-1" d="M93,3V79H3V3H93m1-1H2V80H94V2Z"/><rect x="2" y="78" width="92" height="16"/><path class="cls-2" d="M33,84.08V85H32v-.92Zm0,1V86H32v-.92Zm0,4V90H32v-.92Zm1-6V84H33v-.92Zm0,3V87H33v-.92Zm0,3V90H33v-.92Zm1-6V84H34v-.92Zm0,3V87H34v-.92Zm0,3V90H34v-.92Zm1-6V84H35v-.92Zm0,3V87H35v-.92Zm0,3V90H35v-.92Zm1-6V84H36v-.92Zm0,4V88H36v-.92Zm0,1V89H36v-.92Z"/><path class="cls-2" d="M39,83.08V84H38v-.92Zm0,1V85H38v-.92Zm0,1V86H38v-.92Zm0,1V87H38v-.92Zm0,1V88H38v-.92Zm0,1V89H38v-.92Zm1-3V86H39v-.92Zm0,4V90H39v-.92Zm1-4V86H40v-.92Zm0,4V90H40v-.92Zm1-4V86H41v-.92Zm0,4V90H41v-.92Z"/><path class="cls-2" d="M43,91.08V92H42v-.92Zm1-6V86H43v-.92Zm0,1V87H43v-.92Zm0,1V88H43v-.92Zm0,4V92H43v-.92Zm1-3V89H44v-.92Zm0,2V91H44v-.92Zm1-1V90H45v-.92Zm1-1V89H46v-.92Zm1-3V86H47v-.92Zm0,1V87H47v-.92Zm0,1V88H47v-.92Z"/><path class="cls-2" d="M50,82.08V83H49v-.92Zm0,1V84H49v-.92Zm0,1V85H49v-.92Zm0,1V86H49v-.92Zm0,1V87H49v-.92Zm0,1V88H49v-.92Zm0,1V89H49v-.92Zm1,1V90H50v-.92Zm1,0V90H51v-.92Z"/><path class="cls-2" d="M53,86.08V87H52v-.92Zm0,1V88H52v-.92Zm0,1V89H52v-.92Zm1-3V86H53v-.92Zm0,2V88H53v-.92Zm0,2V90H53v-.92Zm1-4V86H54v-.92Zm0,2V88H54v-.92Zm0,2V90H54v-.92Zm1-4V86H55v-.92Zm0,2V88H55v-.92Zm0,2V90H55v-.92Zm1-3V87H56v-.92Zm0,1V88H56v-.92Zm0,2V90H56v-.92Z"/><path class="cls-2" d="M61,83.08V84H60v-.92Zm0,6V90H60v-.92Zm1-6V84H61v-.92Zm0,6V90H61v-.92Zm1-6V84H62v-.92Zm0,1V85H62v-.92Zm0,1V86H62v-.92Zm0,1V87H62v-.92Zm0,1V88H62v-.92Zm0,1V89H62v-.92Zm0,1V90H62v-.92Zm1,0V90H63v-.92Zm1,0V90H64v-.92Z"/><path class="cls-3" d="M33,38V39H32V38Zm0,1V40H32V39Zm0,4V44H32V43Zm1-6V38H33V37Zm0,3V41H33V40Zm0,3V44H33V43Zm1-6V38H34V37Zm0,3V41H34V40Zm0,3V44H34V43Zm1-6V38H35V37Zm0,3V41H35V40Zm0,3V44H35V43Zm1-6V38H36V37Zm0,4V42H36V41Zm0,1V43H36V42Z"/><path class="cls-3" d="M39,40V41H38V40Zm0,1V42H38V41Zm0,1V43H38V42Zm1-3V40H39V39Zm0,2V42H39V41Zm0,2V44H39V43Zm1-4V40H40V39Zm0,2V42H40V41Zm0,2V44H40V43Zm1-4V40H41V39Zm0,2V42H41V41Zm0,2V44H41V43Zm1-3V41H42V40Zm0,1V42H42V41Zm0,2V44H42V43Z"/><path class="cls-3" d="M45,42V43H44V42Zm1-3V40H45V39Zm0,2V42H45V41Zm0,2V44H45V43Zm1-4V40H46V39Zm0,2V42H46V41Zm0,2V44H46V43Zm1-4V40H47V39Zm0,2V42H47V41Zm0,2V44H47V43Zm1-3V41H48V40Zm0,1V42H48V41Zm0,1V43H48V42Zm0,1V44H48V43Z"/><path class="cls-3" d="M51,39V40H50V39Zm0,1V41H50V40Zm0,1V42H50V41Zm0,1V43H50V42Zm0,1V44H50V43Zm1-3V41H51V40Zm1-1V40H52V39Zm1,0V40H53V39Z"/><path class="cls-3" d="M55,40V41H54V40Zm0,1V42H54V41Zm0,1V43H54V42Zm1-3V40H55V39Zm0,4V44H55V43Zm1-4V40H56V39Zm0,4V44H56V43Zm1-4V40H57V39Zm0,4V44H57V43Zm1-4V40H58V39Zm0,4V44H58V43Z"/><path class="cls-3" d="M61,36V37H60V36Zm0,1V38H60V37Zm0,1V39H60V38Zm0,1V40H60V39Zm0,1V41H60V40Zm0,1V42H60V41Zm0,1V43H60V42Zm0,1V44H60V43Zm1-4V40H61V39Zm1,0V40H62V39Zm1,0V40H63V39Zm1,1V41H64V40Zm0,1V42H64V41Zm0,1V43H64V42Zm0,1V44H64V43Z"/></g></svg>