<svg xmlns="http://www.w3.org/2000/svg" width="96" height="96" viewBox="0 0 96 96"><defs><style>.cls-1{fill:#d8d8d8;}.cls-2{fill:#fff;}.cls-3{fill:#262626;}</style></defs><title>df</title><g id="wishlist-style-3"><path class="cls-1" d="M93,3V79H3V3H93m1-1H2V80H94V2Z"/><rect x="2" y="78" width="92" height="16"/><path class="cls-2" d="M33,84v.92H32V84Zm0,1v.92H32V85Zm0,4v.92H32V89Zm1-6v.92H33V83Zm0,3v.92H33V86Zm0,3v.92H33V89Zm1-6v.92H34V83Zm0,3v.92H34V86Zm0,3v.92H34V89Zm1-6v.92H35V83Zm0,3v.92H35V86Zm0,3v.92H35V89Zm1-6v.92H36V83Zm0,4v.92H36V87Zm0,1v.92H36V88Z"/><path class="cls-2" d="M39,83v.92H38V83Zm0,1v.92H38V84Zm0,1v.92H38V85Zm0,1v.92H38V86Zm0,1v.92H38V87Zm0,1v.92H38V88Zm1-3v.92H39V85Zm0,4v.92H39V89Zm1-4v.92H40V85Zm0,4v.92H40V89Zm1-4v.92H41V85Zm0,4v.92H41V89Z"/><path class="cls-2" d="M43,91v.92H42V91Zm1-6v.92H43V85Zm0,1v.92H43V86Zm0,1v.92H43V87Zm0,4v.92H43V91Zm1-3v.92H44V88Zm0,2v.92H44V90Zm1-1v.92H45V89Zm1-1v.92H46V88Zm1-3v.92H47V85Zm0,1v.92H47V86Zm0,1v.92H47V87Z"/><path class="cls-2" d="M50,82v.92H49V82Zm0,1v.92H49V83Zm0,1v.92H49V84Zm0,1v.92H49V85Zm0,1v.92H49V86Zm0,1v.92H49V87Zm0,1v.92H49V88Zm1,1v.92H50V89Zm1,0v.92H51V89Z"/><path class="cls-2" d="M53,86v.92H52V86Zm0,1v.92H52V87Zm0,1v.92H52V88Zm1-3v.92H53V85Zm0,2v.92H53V87Zm0,2v.92H53V89Zm1-4v.92H54V85Zm0,2v.92H54V87Zm0,2v.92H54V89Zm1-4v.92H55V85Zm0,2v.92H55V87Zm0,2v.92H55V89Zm1-3v.92H56V86Zm0,1v.92H56V87Zm0,2v.92H56V89Z"/><path class="cls-2" d="M61,83v.92H60V83Zm0,6v.92H60V89Zm1-6v.92H61V83Zm0,3v.92H61V86Zm0,3v.92H61V89Zm1-6v.92H62V83Zm0,2v.92H62V85Zm0,1v.92H62V86Zm0,3v.92H62V89Zm1-6v.92H63V83Zm0,1v.92H63V84Zm0,2v.92H63V86Zm0,3v.92H63V89Zm1-6v.92H64V83Zm0,4v.92H64V87Zm0,1v.92H64V88Z"/><path class="cls-3" d="M15,37v.92H14V37Zm0,1v.92H14V38Zm0,1v.92H14V39Zm0,1v.92H14V40Zm0,1v.92H14V41Zm0,1v.92H14V42Zm0,1v.92H14V43Zm1-1v.92H15V42Zm1-1v.92H16V41Zm1-1v.92H17V40Zm1,1v.92H18V41Zm1,1v.92H19V42Zm1-5v.92H20V37Zm0,1v.92H20V38Zm0,1v.92H20V39Zm0,1v.92H20V40Zm0,1v.92H20V41Zm0,1v.92H20V42Zm0,1v.92H20V43Z"/><path class="cls-3" d="M23,36v.92H22V36Zm0,3v.92H22V39Zm0,1v.92H22V40Zm0,1v.92H22V41Zm0,1v.92H22V42Zm0,1v.92H22V43Z"/><path class="cls-3" d="M25,40v.92H24V40Zm0,3v.92H24V43Zm1-4v.92H25V39Zm0,2v.92H25V41Zm0,2v.92H25V43Zm1-4v.92H26V39Zm0,2v.92H26V41Zm0,2v.92H26V43Zm1-4v.92H27V39Zm0,3v.92H27V42Z"/><path class="cls-3" d="M30,36v.92H29V36Zm0,1v.92H29V37Zm0,1v.92H29V38Zm0,1v.92H29V39Zm0,1v.92H29V40Zm0,1v.92H29V41Zm0,1v.92H29V42Zm0,1v.92H29V43Zm1-4v.92H30V39Zm1,0v.92H31V39Zm1,0v.92H32V39Zm1,1v.92H33V40Zm0,1v.92H33V41Zm0,1v.92H33V42Zm0,1v.92H33V43Z"/><path class="cls-3" d="M36,36v.92H35V36Zm0,1v.92H35V37Zm0,1v.92H35V38Zm0,1v.92H35V39Zm0,1v.92H35V40Zm0,1v.92H35V41Zm0,1v.92H35V42Zm1,1v.92H36V43Zm1,0v.92H37V43Z"/><path class="cls-3" d="M39,36v.92H38V36Zm0,3v.92H38V39Zm0,1v.92H38V40Zm0,1v.92H38V41Zm0,1v.92H38V42Zm0,1v.92H38V43Z"/><path class="cls-3" d="M41,40v.92H40V40Zm0,3v.92H40V43Zm1-4v.92H41V39Zm0,2v.92H41V41Zm0,2v.92H41V43Zm1-4v.92H42V39Zm0,2v.92H42V41Zm0,2v.92H42V43Zm1-4v.92H43V39Zm0,3v.92H43V42Z"/><path class="cls-3" d="M46,37v.92H45V37Zm0,1v.92H45V38Zm0,1v.92H45V39Zm0,1v.92H45V40Zm0,1v.92H45V41Zm0,1v.92H45V42Zm1-3v.92H46V39Zm0,4v.92H46V43Zm1-4v.92H47V39Zm0,4v.92H47V43Zm1-4v.92H48V39Zm0,4v.92H48V43Z"/><path class="cls-3" d="M53,37v.92H52V37Zm0,5v.92H52V42Zm0,1v.92H52V43Zm1-6v.92H53V37Zm0,4v.92H53V41Zm0,2v.92H53V43Zm1-6v.92H54V37Zm0,3v.92H54V40Zm0,3v.92H54V43Zm1-6v.92H55V37Zm0,3v.92H55V40Zm0,3v.92H55V43Zm1-5v.92H56V38Zm0,1v.92H56V39Zm0,4v.92H56V43Z"/><path class="cls-3" d="M59,37v.92H58V37Zm0,6v.92H58V43Zm1-6v.92H59V37Zm0,3v.92H59V40Zm0,3v.92H59V43Zm1-6v.92H60V37Zm0,2v.92H60V39Zm0,1v.92H60V40Zm0,3v.92H60V43Zm1-6v.92H61V37Zm0,1v.92H61V38Zm0,2v.92H61V40Zm0,3v.92H61V43Zm1-6v.92H62V37Zm0,4v.92H62V41Zm0,1v.92H62V42Z"/><path d="M74,46.73,67.93,40.2a5.24,5.24,0,0,1-1.43-3.35,4.13,4.13,0,0,1,4.19-4.34A5.29,5.29,0,0,1,74,33.93a5.29,5.29,0,0,1,3.31-1.43,4.13,4.13,0,0,1,4.19,4.34,5.25,5.25,0,0,1-1.45,3.37ZM70.69,33.5a3.09,3.09,0,0,0-3.19,3.34,4.25,4.25,0,0,0,1.15,2.66L74,45.27l5.33-5.75a4.3,4.3,0,0,0,1.17-2.67,3.09,3.09,0,0,0-3.19-3.34A4.7,4.7,0,0,0,74.37,35l-.37.4-.37-.4A4.7,4.7,0,0,0,70.69,33.5Z"/></g></svg>