<svg xmlns="http://www.w3.org/2000/svg" width="96" height="96" viewBox="0 0 96 96"><defs><style>.cls-1{fill:#d8d8d8;}.cls-2{fill:#fff;}.cls-3{fill:#262626;}</style></defs><title>df</title><g id="wishlist-style-4"><path class="cls-1" d="M93,3V79H3V3H93m1-1H2V80H94V2Z"/><rect x="2" y="78" width="92" height="16"/><path class="cls-2" d="M33,84v.92H32V84Zm0,1v.92H32V85Zm0,4v.92H32V89Zm1-6v.92H33V83Zm0,3v.92H33V86Zm0,3v.92H33V89Zm1-6v.92H34V83Zm0,3v.92H34V86Zm0,3v.92H34V89Zm1-6v.92H35V83Zm0,3v.92H35V86Zm0,3v.92H35V89Zm1-6v.92H36V83Zm0,4v.92H36V87Zm0,1v.92H36V88Z"/><path class="cls-2" d="M39,83v.92H38V83Zm0,1v.92H38V84Zm0,1v.92H38V85Zm0,1v.92H38V86Zm0,1v.92H38V87Zm0,1v.92H38V88Zm1-3v.92H39V85Zm0,4v.92H39V89Zm1-4v.92H40V85Zm0,4v.92H40V89Zm1-4v.92H41V85Zm0,4v.92H41V89Z"/><path class="cls-2" d="M43,91v.92H42V91Zm1-6v.92H43V85Zm0,1v.92H43V86Zm0,1v.92H43V87Zm0,4v.92H43V91Zm1-3v.92H44V88Zm0,2v.92H44V90Zm1-1v.92H45V89Zm1-1v.92H46V88Zm1-3v.92H47V85Zm0,1v.92H47V86Zm0,1v.92H47V87Z"/><path class="cls-2" d="M50,82v.92H49V82Zm0,1v.92H49V83Zm0,1v.92H49V84Zm0,1v.92H49V85Zm0,1v.92H49V86Zm0,1v.92H49V87Zm0,1v.92H49V88Zm1,1v.92H50V89Zm1,0v.92H51V89Z"/><path class="cls-2" d="M53,86v.92H52V86Zm0,1v.92H52V87Zm0,1v.92H52V88Zm1-3v.92H53V85Zm0,2v.92H53V87Zm0,2v.92H53V89Zm1-4v.92H54V85Zm0,2v.92H54V87Zm0,2v.92H54V89Zm1-4v.92H55V85Zm0,2v.92H55V87Zm0,2v.92H55V89Zm1-3v.92H56V86Zm0,1v.92H56V87Zm0,2v.92H56V89Z"/><path class="cls-2" d="M61,86v.92H60V86Zm0,1v.92H60V87Zm1-2v.92H61V85Zm0,2v.92H61V87Zm1-3v.92H62V84Zm0,3v.92H62V87Zm1-4v.92H63V83Zm0,4v.92H63V87Zm1-4v.92H64V83Zm0,1v.92H64V84Zm0,1v.92H64V85Zm0,1v.92H64V86Zm0,1v.92H64V87Zm0,1v.92H64V88Zm0,1v.92H64V89Z"/><path class="cls-3" d="M35,37v.92H34V37Zm0,1v.92H34V38Zm0,1v.92H34V39Zm0,1v.92H34V40Zm0,1v.92H34V41Zm0,1v.92H34V42Zm0,1v.92H34V43Zm1-1v.92H35V42Zm1-1v.92H36V41Zm1-1v.92H37V40Zm1,1v.92H38V41Zm1,1v.92H39V42Zm1-5v.92H40V37Zm0,1v.92H40V38Zm0,1v.92H40V39Zm0,1v.92H40V40Zm0,1v.92H40V41Zm0,1v.92H40V42Zm0,1v.92H40V43Z"/><path class="cls-3" d="M43,36v.92H42V36Zm0,3v.92H42V39Zm0,1v.92H42V40Zm0,1v.92H42V41Zm0,1v.92H42V42Zm0,1v.92H42V43Z"/><path class="cls-3" d="M45,40v.92H44V40Zm0,3v.92H44V43Zm1-4v.92H45V39Zm0,2v.92H45V41Zm0,2v.92H45V43Zm1-4v.92H46V39Zm0,2v.92H46V41Zm0,2v.92H46V43Zm1-4v.92H47V39Zm0,3v.92H47V42Z"/><path class="cls-3" d="M50,36v.92H49V36Zm0,1v.92H49V37Zm0,1v.92H49V38Zm0,1v.92H49V39Zm0,1v.92H49V40Zm0,1v.92H49V41Zm0,1v.92H49V42Zm0,1v.92H49V43Zm1-4v.92H50V39Zm1,0v.92H51V39Zm1,0v.92H52V39Zm1,1v.92H53V40Zm0,1v.92H53V41Zm0,1v.92H53V42Zm0,1v.92H53V43Z"/><path class="cls-3" d="M56,36v.92H55V36Zm0,1v.92H55V37Zm0,1v.92H55V38Zm0,1v.92H55V39Zm0,1v.92H55V40Zm0,1v.92H55V41Zm0,1v.92H55V42Zm1,1v.92H56V43Zm1,0v.92H57V43Z"/><path class="cls-3" d="M59,36v.92H58V36Zm0,3v.92H58V39Zm0,1v.92H58V40Zm0,1v.92H58V41Zm0,1v.92H58V42Zm0,1v.92H58V43Z"/><path class="cls-3" d="M61,40v.92H60V40Zm0,3v.92H60V43Zm1-4v.92H61V39Zm0,2v.92H61V41Zm0,2v.92H61V43Zm1-4v.92H62V39Zm0,2v.92H62V41Zm0,2v.92H62V43Zm1-4v.92H63V39Zm0,3v.92H63V42Z"/><path class="cls-3" d="M66,37v.92H65V37Zm0,1v.92H65V38Zm0,1v.92H65V39Zm0,1v.92H65V40Zm0,1v.92H65V41Zm0,1v.92H65V42Zm1-3v.92H66V39Zm0,4v.92H66V43Zm1-4v.92H67V39Zm0,4v.92H67V43Zm1-4v.92H68V39Zm0,4v.92H68V43Z"/><path class="cls-3" d="M73,37v.92H72V37Zm0,5v.92H72V42Zm0,1v.92H72V43Zm1-6v.92H73V37Zm0,4v.92H73V41Zm0,2v.92H73V43Zm1-6v.92H74V37Zm0,3v.92H74V40Zm0,3v.92H74V43Zm1-6v.92H75V37Zm0,3v.92H75V40Zm0,3v.92H75V43Zm1-5v.92H76V38Zm0,1v.92H76V39Zm0,4v.92H76V43Z"/><path class="cls-3" d="M79,37v.92H78V37Zm0,6v.92H78V43Zm1-6v.92H79V37Zm0,3v.92H79V40Zm0,3v.92H79V43Zm1-6v.92H80V37Zm0,2v.92H80V39Zm0,1v.92H80V40Zm0,3v.92H80V43Zm1-6v.92H81V37Zm0,1v.92H81V38Zm0,2v.92H81V40Zm0,3v.92H81V43Zm1-6v.92H82V37Zm0,4v.92H82V41Zm0,1v.92H82V42Z"/><path d="M23,39.08a2.21,2.21,0,0,0-1.42-.7A1.55,1.55,0,0,0,20,40a2.07,2.07,0,0,0,.56,1.3L23,44l2.44-2.66A2.07,2.07,0,0,0,26,40a1.55,1.55,0,0,0-1.58-1.66,2.21,2.21,0,0,0-1.42.7Z"/><path d="M29,35V46.38L27.76,47H18.24L17,46.38V35H29m-2.5-3h-7l-.5.5V34H16V47l2,1H28l2-1V34H27V32.52l-.5-.5ZM20,34V33h6v1Z"/><path d="M20,35v1H19V35Zm6,0v1h1V35Z"/></g></svg>