<svg xmlns="http://www.w3.org/2000/svg" width="96" height="96" viewBox="0 0 96 96"><defs><style>.cls-1{fill:#d8d8d8;}.cls-2{fill:#fff;}.cls-3{fill:#262626;}.cls-4{fill:#3c3cc6;}</style></defs><title>df</title><g id="wishlist-style-7"><path class="cls-1" d="M93,3V79H3V3H93m1-1H2V80H94V2Z"/><rect x="2" y="78" width="92" height="16"/><path class="cls-2" d="M33,84v.92H32V84Zm0,1v.92H32V85Zm0,4v.92H32V89Zm1-6v.92H33V83Zm0,3v.92H33V86Zm0,3v.92H33V89Zm1-6v.92H34V83Zm0,3v.92H34V86Zm0,3v.92H34V89Zm1-6v.92H35V83Zm0,3v.92H35V86Zm0,3v.92H35V89Zm1-6v.92H36V83Zm0,4v.92H36V87Zm0,1v.92H36V88Z"/><path class="cls-2" d="M39,83v.92H38V83Zm0,1v.92H38V84Zm0,1v.92H38V85Zm0,1v.92H38V86Zm0,1v.92H38V87Zm0,1v.92H38V88Zm1-3v.92H39V85Zm0,4v.92H39V89Zm1-4v.92H40V85Zm0,4v.92H40V89Zm1-4v.92H41V85Zm0,4v.92H41V89Z"/><path class="cls-2" d="M43,91v.92H42V91Zm1-6v.92H43V85Zm0,1v.92H43V86Zm0,1v.92H43V87Zm0,4v.92H43V91Zm1-3v.92H44V88Zm0,2v.92H44V90Zm1-1v.92H45V89Zm1-1v.92H46V88Zm1-3v.92H47V85Zm0,1v.92H47V86Zm0,1v.92H47V87Z"/><path class="cls-2" d="M50,82v.92H49V82Zm0,1v.92H49V83Zm0,1v.92H49V84Zm0,1v.92H49V85Zm0,1v.92H49V86Zm0,1v.92H49V87Zm0,1v.92H49V88Zm1,1v.92H50V89Zm1,0v.92H51V89Z"/><path class="cls-2" d="M53,86v.92H52V86Zm0,1v.92H52V87Zm0,1v.92H52V88Zm1-3v.92H53V85Zm0,2v.92H53V87Zm0,2v.92H53V89Zm1-4v.92H54V85Zm0,2v.92H54V87Zm0,2v.92H54V89Zm1-4v.92H55V85Zm0,2v.92H55V87Zm0,2v.92H55V89Zm1-3v.92H56V86Zm0,1v.92H56V87Zm0,2v.92H56V89Z"/><path class="cls-2" d="M61,83v.92H60V83Zm1,0v.92H61V83Zm0,4v.92H61V87Zm0,1v.92H61V88Zm0,1v.92H61V89Zm1-6v.92H62V83Zm0,3v.92H62V86Zm1-3v.92H63V83Zm0,2v.92H63V85Zm1-2v.92H64V83Zm0,1v.92H64V84Z"/><path class="cls-3" d="M45,37v.92H44V37Zm0,1v.92H44V38Zm0,1v.92H44V39Zm0,1v.92H44V40Zm0,1v.92H44V41Zm0,1v.92H44V42Zm0,1v.92H44V43Zm1-1v.92H45V42Zm1-1v.92H46V41Zm1-1v.92H47V40Zm1,1v.92H48V41Zm1,1v.92H49V42Zm1-5v.92H50V37Zm0,1v.92H50V38Zm0,1v.92H50V39Zm0,1v.92H50V40Zm0,1v.92H50V41Zm0,1v.92H50V42Zm0,1v.92H50V43Z"/><path class="cls-3" d="M53,36v.92H52V36Zm0,3v.92H52V39Zm0,1v.92H52V40Zm0,1v.92H52V41Zm0,1v.92H52V42Zm0,1v.92H52V43Z"/><path class="cls-3" d="M55,40v.92H54V40Zm0,3v.92H54V43Zm1-4v.92H55V39Zm0,2v.92H55V41Zm0,2v.92H55V43Zm1-4v.92H56V39Zm0,2v.92H56V41Zm0,2v.92H56V43Zm1-4v.92H57V39Zm0,3v.92H57V42Z"/><path class="cls-3" d="M60,36v.92H59V36Zm0,1v.92H59V37Zm0,1v.92H59V38Zm0,1v.92H59V39Zm0,1v.92H59V40Zm0,1v.92H59V41Zm0,1v.92H59V42Zm0,1v.92H59V43Zm1-4v.92H60V39Zm1,0v.92H61V39Zm1,0v.92H62V39Zm1,1v.92H63V40Zm0,1v.92H63V41Zm0,1v.92H63V42Zm0,1v.92H63V43Z"/><path class="cls-3" d="M66,36v.92H65V36Zm0,1v.92H65V37Zm0,1v.92H65V38Zm0,1v.92H65V39Zm0,1v.92H65V40Zm0,1v.92H65V41Zm0,1v.92H65V42Zm1,1v.92H66V43Zm1,0v.92H67V43Z"/><path class="cls-3" d="M69,36v.92H68V36Zm0,3v.92H68V39Zm0,1v.92H68V40Zm0,1v.92H68V41Zm0,1v.92H68V42Zm0,1v.92H68V43Z"/><path class="cls-3" d="M71,40v.92H70V40Zm0,3v.92H70V43Zm1-4v.92H71V39Zm0,2v.92H71V41Zm0,2v.92H71V43Zm1-4v.92H72V39Zm0,2v.92H72V41Zm0,2v.92H72V43Zm1-4v.92H73V39Zm0,3v.92H73V42Z"/><path class="cls-3" d="M76,37v.92H75V37Zm0,1v.92H75V38Zm0,1v.92H75V39Zm0,1v.92H75V40Zm0,1v.92H75V41Zm0,1v.92H75V42Zm1-3v.92H76V39Zm0,4v.92H76V43Zm1-4v.92H77V39Zm0,4v.92H77V43Zm1-4v.92H78V39Zm0,4v.92H78V43Z"/><circle class="cls-4" cx="30.5" cy="40.5" r="9.5"/><path class="cls-2" d="M26,37V38H25V37Zm0,5V43H25V42Zm0,1V44H25V43Zm1-6V38H26V37Zm0,4V42H26V41Zm0,2V44H26V43Zm1-6V38H27V37Zm0,3V41H27V40Zm0,3V44H27V43Zm1-6V38H28V37Zm0,3V41H28V40Zm0,3V44H28V43Zm1-5V39H29V38Zm0,1V40H29V39Zm0,4V44H29V43Z"/><path class="cls-2" d="M32,37V38H31V37Zm0,6V44H31V43Zm1-6V38H32V37Zm0,3V41H32V40Zm0,3V44H32V43Zm1-6V38H33V37Zm0,2V40H33V39Zm0,1V41H33V40Zm0,3V44H33V43Zm1-6V38H34V37Zm0,1V39H34V38Zm0,2V41H34V40Zm0,3V44H34V43Zm1-6V38H35V37Zm0,4V42H35V41Zm0,1V43H35V42Z"/></g></svg>