<svg xmlns="http://www.w3.org/2000/svg" width="96" height="96" viewBox="0 0 96 96"><defs><style>.cls-1{fill:#d8d8d8;}.cls-2{fill:#fff;}.cls-3{fill:#3c3cc6;}</style></defs><title>df</title><g id="wishlist-style-11"><path class="cls-1" d="M93,3V79H3V3H93m1-1H2V80H94V2Z"/><rect x="2" y="78" width="92" height="16"/><path class="cls-2" d="M30,84v.92H29V84Zm0,1v.92H29V85Zm0,4v.92H29V89Zm1-6v.92H30V83Zm0,3v.92H30V86Zm0,3v.92H30V89Zm1-6v.92H31V83Zm0,3v.92H31V86Zm0,3v.92H31V89Zm1-6v.92H32V83Zm0,3v.92H32V86Zm0,3v.92H32V89Zm1-6v.92H33V83Zm0,4v.92H33V87Zm0,1v.92H33V88Z"/><path class="cls-2" d="M36,83v.92H35V83Zm0,1v.92H35V84Zm0,1v.92H35V85Zm0,1v.92H35V86Zm0,1v.92H35V87Zm0,1v.92H35V88Zm1-3v.92H36V85Zm0,4v.92H36V89Zm1-4v.92H37V85Zm0,4v.92H37V89Zm1-4v.92H38V85Zm0,4v.92H38V89Z"/><path class="cls-2" d="M40,91v.92H39V91Zm1-6v.92H40V85Zm0,1v.92H40V86Zm0,1v.92H40V87Zm0,4v.92H40V91Zm1-3v.92H41V88Zm0,2v.92H41V90Zm1-1v.92H42V89Zm1-1v.92H43V88Zm1-3v.92H44V85Zm0,1v.92H44V86Zm0,1v.92H44V87Z"/><path class="cls-2" d="M47,82v.92H46V82Zm0,1v.92H46V83Zm0,1v.92H46V84Zm0,1v.92H46V85Zm0,1v.92H46V86Zm0,1v.92H46V87Zm0,1v.92H46V88Zm1,1v.92H47V89Zm1,0v.92H48V89Z"/><path class="cls-2" d="M50,86v.92H49V86Zm0,1v.92H49V87Zm0,1v.92H49V88Zm1-3v.92H50V85Zm0,2v.92H50V87Zm0,2v.92H50V89Zm1-4v.92H51V85Zm0,2v.92H51V87Zm0,2v.92H51V89Zm1-4v.92H52V85Zm0,2v.92H52V87Zm0,2v.92H52V89Zm1-3v.92H53V86Zm0,1v.92H53V87Zm0,2v.92H53V89Z"/><path class="cls-2" d="M58,83v.92H57V83Zm0,6v.92H57V89Zm1-6v.92H58V83Zm0,6v.92H58V89Zm1-6v.92H59V83Zm0,1v.92H59V84Zm0,1v.92H59V85Zm0,1v.92H59V86Zm0,1v.92H59V87Zm0,1v.92H59V88Zm0,1v.92H59V89Zm1,0v.92H60V89Zm1,0v.92H61V89Z"/><path class="cls-2" d="M64,83v.92H63V83Zm0,6v.92H63V89Zm1-6v.92H64V83Zm0,6v.92H64V89Zm1-6v.92H65V83Zm0,1v.92H65V84Zm0,1v.92H65V85Zm0,1v.92H65V86Zm0,1v.92H65V87Zm0,1v.92H65V88Zm0,1v.92H65V89Zm1,0v.92H66V89Zm1,0v.92H67V89Z"/><circle class="cls-3" cx="41.5" cy="40.5" r="9.5"/><path class="cls-2" d="M37,37V38H36V37Zm0,5V43H36V42Zm0,1V44H36V43Zm1-6V38H37V37Zm0,4V42H37V41Zm0,2V44H37V43Zm1-6V38H38V37Zm0,3V41H38V40Zm0,3V44H38V43Zm1-6V38H39V37Zm0,3V41H39V40Zm0,3V44H39V43Zm1-5V39H40V38Zm0,1V40H40V39Zm0,4V44H40V43Z"/><path class="cls-2" d="M43,37V38H42V37Zm0,6V44H42V43Zm1-6V38H43V37Zm0,3V41H43V40Zm0,3V44H43V43Zm1-6V38H44V37Zm0,2V40H44V39Zm0,1V41H44V40Zm0,3V44H44V43Zm1-6V38H45V37Zm0,1V39H45V38Zm0,2V41H45V40Zm0,3V44H45V43Zm1-6V38H46V37Zm0,4V42H46V41Zm0,1V43H46V42Z"/><path d="M62,39.08a2.21,2.21,0,0,0-1.42-.7A1.55,1.55,0,0,0,59,40a2.07,2.07,0,0,0,.56,1.3L62,44l2.44-2.66A2.07,2.07,0,0,0,65,40a1.55,1.55,0,0,0-1.58-1.66,2.21,2.21,0,0,0-1.42.7Z"/><path d="M68,35V46.38L66.76,47H57.24L56,46.38V35H68m-2.5-3h-7l-.5.5V34H55V47l2,1H67l2-1V34H66V32.52l-.5-.5ZM59,34V33h6v1Z"/><path d="M59,35v1H58V35Zm6,0v1h1V35Z"/></g></svg>