<svg xmlns="http://www.w3.org/2000/svg" width="96" height="96" viewBox="0 0 96 96"><defs><style>.cls-1{fill:#d8d8d8;}.cls-2{fill:#fff;}.cls-3{fill:#262626;}</style></defs><title>df</title><g id="wishlist-style-1"><path class="cls-1" d="M93,3V79H3V3H93m1-1H2V80H94V2Z"/><rect x="2" y="78" width="92" height="16"/><path class="cls-2" d="M33,84v.92H32V84Zm0,1v.92H32V85Zm0,4v.92H32V89Zm1-6v.92H33V83Zm0,3v.92H33V86Zm0,3v.92H33V89Zm1-6v.92H34V83Zm0,3v.92H34V86Zm0,3v.92H34V89Zm1-6v.92H35V83Zm0,3v.92H35V86Zm0,3v.92H35V89Zm1-6v.92H36V83Zm0,4v.92H36V87Zm0,1v.92H36V88Z"/><path class="cls-2" d="M39,83v.92H38V83Zm0,1v.92H38V84Zm0,1v.92H38V85Zm0,1v.92H38V86Zm0,1v.92H38V87Zm0,1v.92H38V88Zm1-3v.92H39V85Zm0,4v.92H39V89Zm1-4v.92H40V85Zm0,4v.92H40V89Zm1-4v.92H41V85Zm0,4v.92H41V89Z"/><path class="cls-2" d="M43,91v.92H42V91Zm1-6v.92H43V85Zm0,1v.92H43V86Zm0,1v.92H43V87Zm0,4v.92H43V91Zm1-3v.92H44V88Zm0,2v.92H44V90Zm1-1v.92H45V89Zm1-1v.92H46V88Zm1-3v.92H47V85Zm0,1v.92H47V86Zm0,1v.92H47V87Z"/><path class="cls-2" d="M50,82v.92H49V82Zm0,1v.92H49V83Zm0,1v.92H49V84Zm0,1v.92H49V85Zm0,1v.92H49V86Zm0,1v.92H49V87Zm0,1v.92H49V88Zm1,1v.92H50V89Zm1,0v.92H51V89Z"/><path class="cls-2" d="M53,86v.92H52V86Zm0,1v.92H52V87Zm0,1v.92H52V88Zm1-3v.92H53V85Zm0,2v.92H53V87Zm0,2v.92H53V89Zm1-4v.92H54V85Zm0,2v.92H54V87Zm0,2v.92H54V89Zm1-4v.92H55V85Zm0,2v.92H55V87Zm0,2v.92H55V89Zm1-3v.92H56V86Zm0,1v.92H56V87Zm0,2v.92H56V89Z"/><path class="cls-2" d="M61,83v.92H60V83Zm0,6v.92H60V89Zm1-6v.92H61V83Zm0,6v.92H61V89Zm1-6v.92H62V83Zm0,1v.92H62V84Zm0,1v.92H62V85Zm0,1v.92H62V86Zm0,1v.92H62V87Zm0,1v.92H62V88Zm0,1v.92H62V89Zm1,0v.92H63V89Zm1,0v.92H64V89Z"/><path class="cls-3" d="M25,37v.92H24V37Zm0,1v.92H24V38Zm0,1v.92H24V39Zm0,1v.92H24V40Zm0,1v.92H24V41Zm0,1v.92H24V42Zm0,1v.92H24V43Zm1-1v.92H25V42Zm1-1v.92H26V41Zm1-1v.92H27V40Zm1,1v.92H28V41Zm1,1v.92H29V42Zm1-5v.92H30V37Zm0,1v.92H30V38Zm0,1v.92H30V39Zm0,1v.92H30V40Zm0,1v.92H30V41Zm0,1v.92H30V42Zm0,1v.92H30V43Z"/><path class="cls-3" d="M33,36v.92H32V36Zm0,3v.92H32V39Zm0,1v.92H32V40Zm0,1v.92H32V41Zm0,1v.92H32V42Zm0,1v.92H32V43Z"/><path class="cls-3" d="M35,40v.92H34V40Zm0,3v.92H34V43Zm1-4v.92H35V39Zm0,2v.92H35V41Zm0,2v.92H35V43Zm1-4v.92H36V39Zm0,2v.92H36V41Zm0,2v.92H36V43Zm1-4v.92H37V39Zm0,3v.92H37V42Z"/><path class="cls-3" d="M40,36v.92H39V36Zm0,1v.92H39V37Zm0,1v.92H39V38Zm0,1v.92H39V39Zm0,1v.92H39V40Zm0,1v.92H39V41Zm0,1v.92H39V42Zm0,1v.92H39V43Zm1-4v.92H40V39Zm1,0v.92H41V39Zm1,0v.92H42V39Zm1,1v.92H43V40Zm0,1v.92H43V41Zm0,1v.92H43V42Zm0,1v.92H43V43Z"/><path class="cls-3" d="M46,36v.92H45V36Zm0,1v.92H45V37Zm0,1v.92H45V38Zm0,1v.92H45V39Zm0,1v.92H45V40Zm0,1v.92H45V41Zm0,1v.92H45V42Zm1,1v.92H46V43Zm1,0v.92H47V43Z"/><path class="cls-3" d="M49,36v.92H48V36Zm0,3v.92H48V39Zm0,1v.92H48V40Zm0,1v.92H48V41Zm0,1v.92H48V42Zm0,1v.92H48V43Z"/><path class="cls-3" d="M51,40v.92H50V40Zm0,3v.92H50V43Zm1-4v.92H51V39Zm0,2v.92H51V41Zm0,2v.92H51V43Zm1-4v.92H52V39Zm0,2v.92H52V41Zm0,2v.92H52V43Zm1-4v.92H53V39Zm0,3v.92H53V42Z"/><path class="cls-3" d="M56,37v.92H55V37Zm0,1v.92H55V38Zm0,1v.92H55V39Zm0,1v.92H55V40Zm0,1v.92H55V41Zm0,1v.92H55V42Zm1-3v.92H56V39Zm0,4v.92H56V43Zm1-4v.92H57V39Zm0,4v.92H57V43Zm1-4v.92H58V39Zm0,4v.92H58V43Z"/><path class="cls-3" d="M63,37v.92H62V37Zm0,5v.92H62V42Zm0,1v.92H62V43Zm1-6v.92H63V37Zm0,4v.92H63V41Zm0,2v.92H63V43Zm1-6v.92H64V37Zm0,3v.92H64V40Zm0,3v.92H64V43Zm1-6v.92H65V37Zm0,3v.92H65V40Zm0,3v.92H65V43Zm1-5v.92H66V38Zm0,1v.92H66V39Zm0,4v.92H66V43Z"/><path class="cls-3" d="M69,37v.92H68V37Zm0,6v.92H68V43Zm1-6v.92H69V37Zm0,3v.92H69V40Zm0,3v.92H69V43Zm1-6v.92H70V37Zm0,2v.92H70V39Zm0,1v.92H70V40Zm0,3v.92H70V43Zm1-6v.92H71V37Zm0,1v.92H71V38Zm0,2v.92H71V40Zm0,3v.92H71V43Zm1-6v.92H72V37Zm0,4v.92H72V41Zm0,1v.92H72V42Z"/></g></svg>