<?xml version="1.0" encoding="UTF-8"?> <svg xmlns="http://www.w3.org/2000/svg" xmlns:xlink="http://www.w3.org/1999/xlink" width="124px" height="133px" viewBox="0 0 124 133" version="1.1"><title>GettyImages-1450756479</title><g id="Page-1" stroke="none" stroke-width="1" fill="none" fill-rule="evenodd"><g id="Services" transform="translate(-1081.000000, -4262.000000)" fill="#231F20" fill-rule="nonzero"><g id="Group-9" transform="translate(80.000000, 4262.000000)"><g id="GettyImages-1450756479" transform="translate(1001.815132, 0.455562)"><path d="M122.059387,62.1654095 C121.340097,58.9377388 120.083715,55.6367904 117.592537,53.3479374 C115.426032,51.3582301 112.259603,50.2909608 109.389351,51.1271896 C110.487715,45.3149685 111.289036,39.3208461 110.493759,33.423278 C110.097416,30.4654419 109.277961,27.5541588 107.847152,24.9221934 C106.416344,22.290228 104.479529,19.8530952 102.631653,17.5082062 C98.9186326,12.7951519 94.5614459,8.28382689 89.1067593,5.61134315 C86.0655362,4.11906271 82.7652652,3.46990779 79.4624037,2.81902869 C75.7280834,2.08337725 71.9687218,1.49284455 68.1843189,1.04743059 C66.1732432,0.806907058 64.1509421,0.553452149 62.1251871,0.500864566 C60.3463911,0.454311623 58.5667316,0.525003128 56.788799,0.587073719 C53.166445,0.718973722 49.3903893,0.963807717 45.8509306,0.015507035 C45.3570125,-0.11725506 45.1480471,0.642247576 45.6402383,0.779320129 C52.3616694,2.65264502 58.2472391,6.94499874 62.3920065,12.5244551 C66.5065516,18.0728762 68.9545548,24.8963306 68.8362563,31.8353054 C68.7714943,35.6457499 67.9330424,39.7768925 65.1914514,42.5683449 C64.7286828,35.2915056 63.0027881,28.1503099 60.0907971,21.4634822 C57.42433,15.3512532 53.7717538,9.33730273 48.3956451,5.23460915 C45.9778641,3.3880091 43.2380002,1.97762735 40.2399517,1.36726655 C37.5285831,0.816390065 34.7248206,0.850011635 32.0091345,1.34916263 C26.5881242,2.34574044 21.3588093,5.26392026 18.1068939,9.76921059 C17.1294196,11.1226943 16.4498504,12.6934251 16.7253048,14.3969179 C16.9028823,15.4730722 17.5018298,16.434547 18.3901197,17.0694017 C17.7629315,17.6387798 17.1736398,18.2484252 16.626003,18.8944494 C13.2302933,22.9134238 11.4268184,28.0350628 11.5564344,33.291378 C11.6825044,38.604448 13.5139735,43.8821724 12.9190267,49.2107601 C12.6143487,51.9818402 11.4034503,54.5754403 9.47368882,56.5902636 C8.17844901,57.9515061 6.62416123,59.0360173 5.1674482,60.211048 C3.6295668,61.4559082 2.01051703,62.7343899 0.777448736,64.2947756 C0.419962549,64.7473737 -0.00919357457,65.315492 0.00014994092,65.9241286 C0.0193017012,67.086228 1.25755096,68.3664339 2.06405361,69.0880045 C3.01389614,69.9388888 4.39548527,70.3475202 5.03706072,71.4966882 C5.62769007,72.5527504 5.62941706,73.9036478 5.09146079,74.9812622 C4.61740302,75.9295629 3.0190771,76.6804446 3.38692521,77.9063387 C3.55012542,78.454629 4.00173237,78.9408486 4.34972013,79.3856878 C4.80642692,79.9754952 5.32776206,80.5124662 5.9040079,80.9865918 C6.51954594,81.4843571 7.20914466,81.8831341 7.94789632,82.1685193 C6.44800862,82.9168147 5.4213152,84.5823755 5.32374047,86.2565573 C5.25984197,87.3496894 5.6501409,88.6436887 6.73296138,89.1014593 C7.67157849,89.5023319 8.87442453,89.3437071 9.72841931,89.9307914 C11.040929,90.8342633 10.6342237,92.6291379 10.2465152,93.8964124 C9.85880678,95.163687 9.45555546,96.3688909 9.72237486,97.697374 C10.2525597,100.336236 12.6815661,102.13887 15.1554741,102.813025 C18.2303734,103.650978 21.6463525,103.322521 24.7911948,103.165621 C28.2382597,102.993202 31.6887785,102.648366 35.066764,101.902656 C36.7013566,101.544026 38.2841396,101.004357 39.9109608,100.617278 C41.47302,100.245717 43.2129589,100.085368 44.5971385,101.061255 C45.7948035,101.904381 46.4519219,103.332004 46.9026653,104.676867 C47.4117089,106.216992 47.7977466,107.794958 48.0571557,109.395956 C49.2746812,116.729769 48.1996321,124.249793 46.9510209,131.503431 C46.8646716,132.00172 47.6297266,132.215519 47.7160759,131.713782 C48.791125,125.469653 49.7150627,119.106555 49.2461859,112.757251 C49.0225411,109.720965 48.53035,106.572606 47.4009009,103.729428 C46.9484305,102.590605 46.3344868,101.468162 45.3811903,100.669866 C44.3104587,99.7732904 42.9495934,99.4517302 41.5731853,99.5491466 C40.0983389,99.6517355 38.689118,100.130196 37.2773066,100.531069 C35.6346456,100.99376 33.9664437,101.360768 32.2811349,101.630236 C28.8962415,102.181974 25.4647195,102.38629 22.0401054,102.477671 C18.9669331,102.563881 15.4594237,102.759575 12.8283599,100.881078 C11.6971838,100.073298 10.7559762,98.8715426 10.4917473,97.4870236 C10.2275184,96.1025046 10.8371446,94.8240229 11.1877228,93.5214026 C11.5383011,92.2187823 11.5840662,90.7859862 10.6454491,89.7040613 C9.88471158,88.8273142 8.74576404,88.8238659 7.70007377,88.5833423 C6.86766632,88.3910959 6.3616593,87.9902234 6.17600826,87.1177867 C6.0309414,86.4350102 6.14060504,85.7125775 6.39015458,85.0677331 C6.87284728,83.8211487 7.97034714,82.6711186 9.36316168,82.5624951 C9.77936541,82.5297356 9.93738467,81.8728219 9.46850786,81.7866127 C8.13168728,81.5307642 6.89829511,80.8921547 5.91868729,79.9486336 C5.44209725,79.4868534 5.00856473,78.9827522 4.62344748,78.4425597 C4.41966308,78.1615178 4.05872292,77.7796113 4.1502532,77.3994289 C4.23660252,77.0451093 4.67612056,76.7709642 4.92739708,76.5269923 C6.48168486,75.01747 6.75800268,72.3967118 5.42649616,70.6527006 C4.66057768,69.6492261 3.38865219,69.2518019 2.47680337,68.3948829 C1.95559592,67.9091002 1.50586302,67.3521277 1.14097938,66.7405293 C0.920788608,66.3663815 0.704915307,66.0198207 0.872432989,65.6034305 C1.13148095,64.9603103 1.70224996,64.4059854 2.17630773,63.9189037 C2.86192134,63.2137128 3.59934453,62.5585233 4.34799314,61.9205755 C5.7002235,60.7679592 7.11980634,59.7006898 8.49276053,58.5782467 C10.4209409,57.0057917 12.0045874,55.0100498 12.8965759,52.6789543 C14.6874608,48.0098666 13.4526655,42.880422 12.7860488,38.1173663 C12.4138832,35.4595381 12.1617432,32.7482603 12.4812357,30.0714661 C12.7877757,27.5101922 13.6564499,25.0101267 14.9085151,22.7600678 C16.000001,20.7868926 17.4110116,19.0076406 19.0843682,17.4944128 C19.2268446,17.5659664 19.3701845,17.6340716 19.5212958,17.6926938 C22.923459,19.0056592 26.3428921,16.9590539 29.7562807,17.2426821 C25.8187517,18.994452 21.836321,21.3341684 20.9123833,25.8825634 C20.376154,28.5214255 20.7932213,31.266325 21.2845489,33.8793244 C21.8120337,36.6841423 22.5686794,39.4411276 23.5469011,42.1226436 C24.4967436,44.7227116 25.6192848,47.3020895 27.0120993,49.6969797 C28.1035547,51.573753 29.59049,53.4979413 31.7734009,54.1220956 C33.0764121,54.4945191 34.3725154,54.3100315 35.634079,53.9393322 C40.1587834,57.2635571 45.3570125,60.1610467 47.9820318,65.3327338 C48.4449756,66.2383624 48.7891741,67.1997424 49.0061348,68.1931535 C49.0760777,68.6397169 49.1451572,69.0862803 49.2168271,69.5319816 C49.2884971,69.977683 50.0405996,69.8716457 49.993971,69.4268065 C49.9465643,68.9573473 49.8718903,68.4910329 49.7703263,68.0302182 C49.3535469,65.4519898 48.9361918,62.8731867 48.5182611,60.2938088 C48.1909972,58.2842735 47.7480252,56.216978 46.7213318,54.4315864 C45.7844416,52.8056818 44.2923254,51.5789255 42.3779609,51.384955 C40.149285,51.1582249 38.0725838,52.2970478 36.0269684,52.9893073 L35.7817363,53.0686197 C34.4251885,52.0591105 33.1178598,50.9883929 31.9366011,49.7711196 C29.8626565,47.6304068 28.3242099,45.031108 27.4464364,42.1847142 C26.5698632,39.3538889 26.3333387,36.3641493 26.7539149,33.4310368 C27.2124297,30.2956099 28.5163045,27.5041575 30.231202,24.8627091 C31.1352794,23.4704313 32.1075727,22.1229822 33.0185581,20.7341527 C33.8026099,19.5392939 34.9519194,18.0952906 35.0684909,16.6211141 C35.2748658,14.0201839 32.1127537,12.8873957 30.0334621,12.7218741 C25.9456852,12.3977277 22.0703277,13.9675963 18.9937014,16.5383533 C18.5340535,16.2464029 18.1533132,15.8461497 17.8849761,15.3728055 C17.0914259,13.9520787 17.4808613,12.1761701 18.3098148,10.8666531 C21.1593424,6.36567324 26.2340919,3.42680321 31.3485622,2.28280776 C33.9597657,1.69917179 36.7022201,1.56037505 39.3470998,1.99831755 C42.1310019,2.45953652 44.6808973,3.5914627 46.9976496,5.18805621 C52.2813645,8.82694455 55.9183979,14.4245048 58.6211316,20.1324129 C62.0695915,27.4429104 64.0500395,35.357115 64.4505743,43.4278501 C64.4557908,43.5853894 64.5528048,43.7253267 64.6986514,43.785688 C64.8444981,43.8460492 65.0122259,43.81568 65.1275529,43.7080299 C68.0159377,41.2346893 69.185971,37.4414866 69.5261873,33.7698387 C69.8551782,30.1706066 69.4441555,26.4929242 68.4606367,23.0204195 C66.5065516,16.1185147 62.263346,9.86748903 56.5953766,5.46564968 C54.5231541,3.85360116 52.2591543,2.50366085 49.8549486,1.44657897 C54.568758,1.78107049 59.402593,0.975876998 64.1025865,1.39830185 C67.9883059,1.74744892 71.8740254,2.26556592 75.7182971,2.92420385 C77.5753832,3.24317772 79.4267126,3.59807206 81.2722854,3.98888689 C82.8947891,4.3337235 84.5319723,4.66390456 86.1078474,5.20271176 C91.8069025,7.15707326 96.4317721,11.3640799 100.276907,15.8641977 C102.230129,18.1504644 104.018423,20.5712174 105.729867,23.0411097 C107.458992,25.5093014 108.679981,28.2957303 109.321999,31.238738 C110.789937,37.9406376 109.785695,44.970994 108.50168,51.6151334 C108.450734,51.8789334 108.683014,52.2246321 108.989554,52.1030772 C111.652567,51.046153 114.69638,51.8823818 116.816256,53.7108779 C119.061339,55.6462734 120.303042,58.4644506 121.037011,61.2740069 C122.270943,66 122.482499,71.0087444 121.867692,75.8433537 C120.627715,85.5936089 115.698033,95.493868 106.867088,100.442273 C103.938982,102.080247 100.630076,103.131999 97.2607256,103.231139 C94.8843923,103.301831 88.5083585,102.894062 90.0531478,98.9870629 C90.2405258,98.5120505 89.4737439,98.3068727 89.2880928,98.7758505 C88.8148986,99.9715714 89.0791275,101.385402 90.0091097,102.29146 C91.0453015,103.296658 92.6462179,103.609598 94.0174451,103.82081 C97.152789,104.302719 100.369301,103.907019 103.359578,102.88113 C108.703738,101.038841 113.184404,97.2844321 116.398326,92.6929326 C122.467819,84.0246023 124.345054,72.4225745 122.059387,62.1654095 Z M38.2642793,52.9979282 C40.3677487,52.2073903 42.7665329,51.5728909 44.6783068,53.1600014 C46.5123664,54.6807309 47.1660308,57.291144 47.5874154,59.5274094 C47.8974095,61.1757284 48.1685464,62.8343925 48.4293213,64.4939187 C46.4709187,60.94555 43.0342158,58.1903055 39.7434432,55.8730035 C38.6848005,55.1281564 37.6132054,54.3945165 36.5614707,53.6315655 C37.1382842,53.4315602 37.7073262,53.2065544 38.2642793,52.9979282 Z M26.5052288,13.6951754 C28.7667175,13.2641296 32.204284,13.1434368 33.8095178,15.1495238 C34.8888844,16.4961108 33.7620257,18.0478755 33.0151041,19.2608383 C32.1645633,20.6401848 31.2224922,21.9643574 30.3123704,23.3066339 C28.6156062,25.8066993 27.0898137,28.4093536 26.3523905,31.3671897 C25.7103901,33.9908955 25.5909813,36.714972 26.0009488,39.3846409 C26.4030686,42.0869554 27.3472934,44.680458 28.7770794,47.0098404 C30.3253228,49.5099059 32.4711034,51.5272001 34.7947636,53.3031086 L34.8327573,53.3315576 C34.0797912,53.5100106 33.3061013,53.5970818 32.5375924,53.4746648 C31.3891464,53.2919014 30.3952657,52.6625746 29.5853091,51.8504844 C27.813421,50.0728516 26.7193751,47.589166 25.7047706,45.3330724 C24.5497382,42.7599883 23.6079661,40.0966861 22.8889193,37.369933 C22.1730834,34.6655518 21.5608667,31.84134 21.4693364,29.0378183 C21.3726252,26.0532575 22.2110771,23.3204273 24.4639309,21.2789946 C26.42147,19.5082586 28.9178288,18.4340925 31.3217939,17.411652 C31.6499213,17.2719932 31.5281688,16.771118 31.2268097,16.6874951 C27.9628053,15.7900578 24.8170996,17.581484 21.5418699,17.3297533 C20.9286027,17.2849631 20.3255203,17.1486761 19.7527119,16.9254324 C21.7093875,15.3331493 23.9907366,14.1710499 26.5052288,13.6951754 Z" id="Shape"></path></g></g></g></g></svg> 