<?xml version="1.0" encoding="UTF-8"?> <svg xmlns="http://www.w3.org/2000/svg" xmlns:xlink="http://www.w3.org/1999/xlink" width="96px" height="134px" viewBox="0 0 96 134" version="1.1"><title>GettyImages-1280565878</title><g id="Page-1" stroke="none" stroke-width="1" fill="none" fill-rule="evenodd"><g id="Services" transform="translate(-580.000000, -4261.000000)" stroke="#000000" stroke-width="0.645552217"><g id="Group-9" transform="translate(80.000000, 4262.000000)"><g id="Group-7" transform="translate(501.000000, 0.000000)"><g id="GettyImages-1280565878" transform="translate(0.185059, 0.000000)"><path d="M45.4027092,98.3161182 C8.66934311,110.493815 3.70194138,87.957639 10.4935882,83.9715348 C18.3201883,79.378405 32.6759607,86.2025633 34.6375146,82.0258921 C37.8413859,75.1998746 21.2074088,77.2989005 9.32412849,76.3246848 C2.36621658,75.7548429 -1.63908968,60.4044375 1.63203497,57.953095 C7.85763343,53.2874567 28.7201603,72.4901046 35.0569135,67.4173036 C36.8316527,65.9978118 37.4079759,62.7758348 36.4580234,60.458354 C32.8170057,51.6179038 8.56472691,59.9842605 1.76840967,49.3236628 C-1.4214506,44.3205815 0.105759224,36.4952492 3.1695196,35.126885 C8.502144,32.7415438 17.7737554,50.2792867 26.944487,47.6531803 C29.3273079,46.971787 31.9632627,44.8550987 31.979142,42.6426622 C32.0258456,36.0499731 8.74780527,36.5315034 4.8480493,25.3837978 C2.26533666,18.002812 8.81879484,7.34965112 17.7139747,2.83646646 C26.2215142,-1.47778482 38.4569402,-0.974873824 42.6079619,5.06284695 C48.5028984,13.6402218 35.2820251,29.2983232 41.206852,34.5700575 C42.9330194,36.1048192 45.909911,36.4292479 47.9200367,35.4066932 C55.2104787,31.6883124 47.631408,11.313445 53.5142016,8.40567126 C57.1701644,6.59760861 65.7907268,11.6592544 67.7784348,18.7046564 C71.5250027,31.9848533 50.371045,47.5602207 52.9546917,50.4391771 C54.067173,51.6783274 59.0084207,49.9241813 62.7437797,46.820263 C73.0615533,38.2466065 69.9165285,22.9296665 74.4916195,22.0456215 C77.6674686,21.4339479 83.8267479,27.9206631 83.4428438,34.2939678 C82.7889925,45.2064857 63.3490592,49.0624466 63.8627995,59.6245071 C63.8786788,59.9405695 64.0860431,63.4972007 65.8243534,64.0791273 C70.7058204,65.7161444 79.4403397,41.0353921 87.0819933,42.3665724 C90.6529555,42.987542 93.8773765,49.2688167 92.6761582,54.0571615 C90.3222935,63.446073 71.7865432,63.7667833 71.6987403,70.2023708 C71.6641796,72.6955451 74.4075529,75.1887194 77.0126833,75.7697164 C84.4198844,77.4243959 91.666425,63.8076855 93.5158901,64.9139038 C95.2159035,65.9308809 92.6584108,79.5810567 82.3275603,87.1832862 C77.0659254,91.0550502 70.8449974,94.0901785 64.4092324,95.3981189 C62.0301478,95.8815084 59.4511714,96.1957116 57.0478008,95.687223 C51.6301758,94.5419617 50.8343453,87.0484949 49.8554365,82.5873676 C49.6882374,81.8232403 47.6865184,71.1533467 48.7607026,71.3160259 C50.0123608,71.5112409 50.7521469,74.6625686 51.0631933,75.5782198 C52.0906739,78.5817419 52.856614,81.6800827 53.5795867,84.7672683 C54.3268454,87.9613574 55.0012463,91.174968 55.5738332,94.4043817 C56.6816441,100.644754 55.8764729,107.064539 54.8788827,113.26122 C53.8534313,119.605547 52.3697016,125.868041 50.4392323,132" id="Path"></path></g></g></g></g></g></svg> 