<svg xmlns="http://www.w3.org/2000/svg" xmlns:xlink="http://www.w3.org/1999/xlink" version="1.1" width="186" height="28" viewBox="0, 0, 400,60.21505376344086"><g id="svgg"><path id="path0" d="M113.100 3.052 C 88.906 11.697,88.515 49.234,112.533 57.417 C 131.882 64.010,150.704 54.197,153.053 36.290 L 153.722 31.183 142.990 31.183 L 132.258 31.183 132.258 34.946 C 132.258 38.690,132.284 38.710,137.097 38.710 C 142.695 38.710,142.978 39.456,139.119 44.042 C 127.233 58.169,105.376 49.143,105.376 30.108 C 105.376 10.652,127.366 2.572,139.371 17.617 C 141.944 20.842,143.161 21.505,146.505 21.505 L 150.538 21.505 150.538 11.828 L 150.538 2.151 146.237 2.151 C 142.399 2.151,141.935 2.432,141.935 4.763 L 141.935 7.375 137.207 4.733 C 130.594 1.037,120.675 0.345,113.100 3.052 M0.000 5.874 C 0.000 9.383,0.249 9.677,3.226 9.677 L 6.452 9.677 6.452 30.108 L 6.452 50.538 3.226 50.538 C 0.256 50.538,0.000 50.836,0.000 54.301 L 0.000 58.065 10.215 58.065 L 20.430 58.065 20.430 54.301 C 20.430 50.836,20.174 50.538,17.204 50.538 L 13.978 50.538 14.018 31.452 L 14.057 12.366 22.997 35.484 C 33.440 62.487,33.639 62.664,38.595 49.401 C 40.602 44.030,44.572 33.741,47.417 26.538 L 52.590 13.441 52.639 31.989 L 52.688 50.538 49.462 50.538 C 46.493 50.538,46.237 50.836,46.237 54.301 L 46.237 58.065 56.989 58.065 L 67.742 58.065 67.742 54.301 C 67.742 50.836,67.486 50.538,64.516 50.538 L 61.290 50.538 61.290 30.108 L 61.290 9.677 64.516 9.677 C 67.486 9.677,67.742 9.379,67.742 5.914 L 67.742 2.151 57.796 2.153 L 47.849 2.155 40.871 20.466 C 37.033 30.536,33.739 38.398,33.550 37.936 C 33.361 37.475,30.201 29.355,26.528 19.892 L 19.849 2.688 9.925 2.379 L 0.000 2.070 0.000 5.874 M191.398 5.914 C 191.398 9.211,191.731 9.677,194.086 9.677 C 197.539 9.677,197.666 8.893,191.392 26.388 C 182.014 52.540,183.002 50.538,179.481 50.538 C 176.613 50.538,176.344 50.860,176.344 54.301 L 176.344 58.065 187.634 58.065 L 198.925 58.065 198.925 54.301 C 198.925 50.808,198.685 50.538,195.584 50.538 C 193.167 50.538,192.402 50.123,192.819 49.037 C 193.136 48.211,193.995 45.533,194.729 43.085 L 196.062 38.634 205.727 38.941 L 215.391 39.247 217.308 44.892 L 219.224 50.538 216.064 50.538 C 213.169 50.538,212.903 50.854,212.903 54.301 L 212.903 58.065 224.194 58.065 L 235.484 58.065 235.484 54.369 C 235.484 51.018,235.171 50.643,232.119 50.337 C 228.785 50.003,228.692 49.824,221.904 30.818 C 214.037 8.790,214.212 9.677,217.742 9.677 C 220.097 9.677,220.430 9.211,220.430 5.914 L 220.430 2.151 205.914 2.151 L 191.398 2.151 191.398 5.914 M258.065 5.914 C 258.065 9.498,258.244 9.677,261.828 9.677 L 265.591 9.677 265.591 30.108 L 265.591 50.538 261.828 50.538 C 258.244 50.538,258.065 50.717,258.065 54.301 L 258.065 58.065 269.892 58.065 L 281.720 58.065 281.720 54.301 C 281.720 50.717,281.541 50.538,277.957 50.538 L 274.194 50.538 274.213 32.527 L 274.232 14.516 278.291 21.505 C 280.524 25.349,286.201 35.388,290.907 43.812 L 299.462 59.130 304.032 59.135 L 308.602 59.140 308.602 34.409 L 308.602 9.677 312.903 9.677 C 317.102 9.677,317.204 9.588,317.204 5.914 L 317.204 2.151 305.376 2.151 L 293.548 2.151 293.548 5.914 C 293.548 9.498,293.728 9.677,297.312 9.677 L 301.075 9.677 301.059 26.075 C 301.048 37.175,300.702 41.952,299.988 40.860 C 299.408 39.973,294.218 30.901,288.454 20.699 L 277.974 2.151 268.019 2.151 L 258.065 2.151 258.065 5.914 M355.914 5.914 C 355.914 9.211,356.247 9.677,358.602 9.677 C 362.055 9.677,362.182 8.893,355.908 26.388 C 346.530 52.540,347.518 50.538,343.997 50.538 C 341.129 50.538,340.860 50.860,340.860 54.301 L 340.860 58.065 352.151 58.065 L 363.441 58.065 363.441 54.301 C 363.441 50.808,363.201 50.538,360.100 50.538 C 357.683 50.538,356.918 50.123,357.335 49.037 C 357.652 48.211,358.511 45.533,359.245 43.085 L 360.578 38.634 370.243 38.941 L 379.908 39.247 381.824 44.892 L 383.740 50.538 380.580 50.538 C 377.685 50.538,377.419 50.854,377.419 54.301 L 377.419 58.065 388.710 58.065 L 400.000 58.065 400.000 54.369 C 400.000 51.018,399.687 50.643,396.635 50.337 C 393.301 50.003,393.208 49.824,386.420 30.818 C 378.553 8.790,378.728 9.677,382.258 9.677 C 384.613 9.677,384.946 9.211,384.946 5.914 L 384.946 2.151 370.430 2.151 L 355.914 2.151 355.914 5.914 M206.153 30.969 C 198.099 31.375,198.407 32.233,202.457 20.684 L 205.914 10.827 209.235 20.736 L 212.556 30.645 206.153 30.969 M370.669 30.969 C 362.615 31.375,362.923 32.233,366.973 20.684 L 370.430 10.827 373.751 20.736 L 377.072 30.645 370.669 30.969 " stroke="none" fill="#1a1a1a" fill-rule="evenodd"/></g></svg>