<?xml version="1.0" encoding="UTF-8"?> <svg xmlns="http://www.w3.org/2000/svg" height="200" viewBox="0 0 162 200" width="162"><path d="m455.955972 358.996074c-1.476579 1.594432-3.097824 3.059039-4.867474 4.355037-1.516487 1.110926-3.132743 2.087539-4.827567 2.901528-.901661.433496-1.827018.818105-2.771081 1.152331-1.101199.389722-2.495469.93022-3.62161.34944-1.765909-.911513-1.615009-3.508996-.594872-4.891917 1.365587-1.850963 3.806183-2.647742 5.915048-3.291999 3.465721-1.058922 7.275645-1.526714 10.767556-.57442zm-101.028089-55.420615c1.276169-.68666 2.631404-1.211444 4.061841-1.500774 3.651042-.738414 9.633932.475274 10.007816 4.981959-4.767955 1.543799-9.511092-.95192-13.614586-3.231015-.151774-.08418-.303422-.166988-.455071-.25017zm59.966959 82.30147c1.232146 1.067527 1.557642 2.882073 1.156072 4.457174-.038661.149654-.086051.296813-.137182.440231-.944063-1.436672-1.399259-3.132743-1.01889-4.897405zm48.887999-14.259468c-.990206 4.288815-3.726368 7.991488-6.78179 11.060628-3.03048 3.044198-6.592229 5.52096-10.424601 7.445253-3.78124 1.89935-7.826869 3.252465-11.96603 4.111725-4.389831.912885-9.438136 1.703553-13.791801.258152-1.591313-.528775-3.114036-1.535194-4.235189-2.834684.496351-1.018889.724572-2.167479.548729-3.448262-.203279-1.490297-.96277-2.803505-2.278472-3.562996-.285588-.165866-.618567-.006235-.719583.291824-.804386 2.390712-.139676 4.884934 1.29076 6.857864-.838058 1.371822-2.233576 2.40443-3.615375 3.175144-3.232511 1.80457-7.927884 3.418332-11.352451 1.551406.713347-.699629.858012-1.788357.405311-2.89205-.492609-1.199721-1.659905-2.59025-3.022997-3.429555.184572-.425265.433994-.838059.756996-1.227158 1.410483-1.701059 3.509371-2.840918 5.451122-3.824889 4.076806-2.065216 8.50405-3.378424 12.469863-5.673108 6.684515-3.868538 12.943766-10.601691 13.683302-18.60727.327991-3.533814-.744525-7.147318-3.582949-9.424169-3.140226-2.519663-7.402851-2.90078-11.258919-2.389465-4.876204.646503-9.574071 2.234324-14.460252 2.887561-4.812601.643509-9.700029.784807-14.540067.371639-4.845026-.413666-9.678829-1.388658-14.266451-3.015888-3.794086-1.345633-7.502121-3.263565-10.455405-6.036142-2.957648-2.776693-5.715385-7.204685-4.863109-11.440997.785804-3.905453 4.776185-5.47594 8.217838-6.356026 2.400938-.613953 4.844527-1.021758 7.23686-1.674745 2.555829-.697385 5.079982-1.51973 7.548015-2.482375 2.670065-1.041711 5.306457-2.236818 7.733335-3.772635 1.992884-1.262077 3.98452-2.802633 5.214171-4.856874 1.1224-1.876029 1.51524-4.486482.097275-6.325971-1.022631-1.325803-2.661335-2.030296-4.210247-2.535252-2.251035-.734049-4.585627-1.218302-6.933937-1.502768-2.433114-.294817-4.884934-.334725-7.328024-.15327-.556212.041404-.659847.773832-.130947.96252 1.929281.687408 4.38609 1.676117 4.428491 4.094889.042402 2.336961-1.800828 4.045129-3.778746 4.941054-2.120214.960649-4.535119 1.397887-6.81172 1.813549-2.566181.468415-5.164412.755125-7.7705.865495-3.662515.15514-8.714313-.558831-10.845501 3.254959-.799148 1.430063-.787924 3.03497.176467 4.376487.773458 1.075883 2.819343 2.428749 2.007225 3.93688-.6692 1.242746-2.158126 2.142662-3.234133 2.995686-1.094839.867989-2.338832 1.793844-3.008281 3.055422-1.740469 3.279403-1.336155 7.751169-.143418 11.13271 1.279286 3.626973 3.84185 6.557435 6.903133 8.815828 1.583083 1.167919 3.289505 2.158998 5.042569 3.047565 1.811928.918497 3.82888 2.220356 4.413152 4.309267.671195 2.399691-1.950108 3.207695-2.209507 5.294111-.242688 1.95123 2.312518 2.780434 3.776751 3.188739 2.149895.599112 4.481992.589135 6.621661-.049635.913135-.272494 2.99344-1.614386 3.615375-.359543.440355.889814-.202157 2.196786-.641764 2.958771-.155639.269376-.015963.641015.292822.719583 2.373128.606096 4.433355-.970252 5.684207-2.858378.723325-1.090349 1.247111-2.295557 1.934269-3.406234.750761-1.211444 1.718519-2.278722 2.855885-3.139602 3.929646-2.976605 12.207969-4.066081 12.680624 2.705482.370392 5.294485-4.948536 9.746672-9.147559 11.990224-2.264753 1.209698-4.837543 2.12383-7.436523 2.082676-.541246-.00873-1.172284-.223233-1.37681.42277-.130947.415288.033672.987712.10351 1.394271.279353 1.603784.669698 3.243735 1.18725 4.788906.770714 2.298425 2.68503 4.201517 4.369877 5.861422 2.461797 2.409418 5.421191 4.265119 8.724788 5.216665.251917 1.447896.663463 2.878332 1.093717 4.250154.834317 2.657594 1.871913 5.249091 2.980595 7.803174 2.060227 4.746504 4.293803 9.5616 7.031212 13.956419 2.753621 4.422256 6.158234 8.479108 10.240028 11.687925-1.23464 1.038843-2.364522 2.242305-3.372188 3.510617-4.073064 5.128121-6.810473 11.186586-9.985618 16.873412-3.872279 6.931443-8.153612 13.76187-13.796789 19.405048-5.599528 5.600775-12.918823 10.125294-20.780237 11.62058-1.76965.337249-3.593301.467667-5.374799.17709 1.757304-4.450939 4.374616-8.511533 6.562673-12.752957 2.125451-4.120455 4.067577-8.631256 3.953591-13.359054-.055247-2.295931-.627172-4.541978-1.642944-6.599711-1.300737-2.633899-3.347121-4.840038-5.088961-7.182112-3.603652-4.845027-6.928824-9.898321-9.952944-15.12621-2.994937-5.176758-5.681339-10.523123-8.081653-16.000434-2.333345-5.323917-4.561558-10.787511-8.238665-15.356925-1.682976-2.091405-3.667379-3.989508-5.956576-5.408721-2.10687-1.304478-4.423379-1.735978-6.871083-1.759673-2.927095-.029931-5.798942-.063603-8.705583-.493856-2.647617-.39284-5.64243-1.016396-7.74032-2.79727-1.666639-1.414224-2.275354-3.428309-1.713405-5.537173.705615-2.647617 2.800387-4.570662 3.886496-7.037448.455196-1.033855.859384-2.135054.451579-3.244983-.306041-.834317-.960899-1.476579-1.575849-2.090158-.850904-.850529-1.860939-1.810805-1.512122-3.140973.324498-1.23701 1.434177-2.011341 2.534877-2.517543 1.038969-.477769 2.403308-.867616 3.437662-.195672.54187.352184.981726-.475149.494479-.84604-1.687341-1.284525-2.716207-3.06727-3.239994-5.102804-.123464-.479764-.222609-.966886-.300554-1.456127-.154267-.968132.095529-1.263822.927851-1.540931.764604-.25441 1.458496-.501962 2.106745-1.00118 1.172658-.903283 1.965821-2.267996 2.163987-3.735846.245805-1.820408-.575916-2.913251-1.438543-4.402801-.550225-.950423-.930095-1.987521-1.130756-3.06702-.128078-.689278-.377874-1.723008.193303-2.269867.777698-.74465 2.064218-1.092469 3.056419-1.418838 2.674804-.880086 5.44364-1.450764 8.190527-2.052994 2.941436-.645006 5.683085-1.727249 8.025658-3.665509 2.65485-2.19691 4.485484-5.200827 5.843463-8.330327 1.342889-3.094706 2.132934-6.386206 3.651042-9.407457 1.609522-3.203579 3.676858-6.207495 6.15599-8.800489 1.421831-1.487055 3.027611-2.886313 4.798883-3.991877.943689.500216 1.88663 1.017892 2.842291 1.527586 3.903956 2.082177 8.499934 3.795208 12.883155 2.175959.201533-.074452.364032-.244683.359792-.47253-.076074-4.02954-4.115716-6.137283-7.667613-6.477744-2.962512-.283967-5.867034.631412-8.411015 2.110486-2.896665-1.526963-5.834983-2.767963-9.099546-3.137108.333602-.709107.71659-1.400131 1.173157-2.063844 2.505571-3.643435 6.528003-6.342432 10.544449-8.065815 4.067328-1.745207 8.444687-2.341825 12.774532-1.325928 1.959211.459685 4.187674 1.165799 5.997232 2.351427-1.61002 1.999743-2.120587 5.232255.170854 6.909993 1.258335.920742 3.244983.872229 3.897222-.741407.592378-1.467476-.043649-3.270799-.907896-4.49621-.477644-.67768-1.055056-1.270931-1.698566-1.792971 1.217181-.927976 2.844661-1.375688 4.298792-1.638829 2.196162-.397329 4.454681-.554715 6.678279-.717089 9.064003-.661842 18.317567-.268129 27.119677 2.13256 4.373618 1.192612 8.60756 2.888683 12.532218 5.163913 1.212192.703121 2.610204 1.58832 3.867291 2.640383-1.50651.705491-3.003043 1.809932-3.579208 3.426812-.584895 1.64257-.002494 3.340012 1.192238 4.539733 1.181014 1.186502 2.743644 1.842607 4.35117 2.210754-.761985.922488-1.61002 1.792722-2.04152 2.924351-.537505 1.408736-.465173 3.26107.939074 4.136293.814364.507699 1.845724.600484 2.766092.787051 1.335656.270499 2.675053.60011 4.024428.791043 1.542676.218244 3.235006-.070088 4.00572-1.577097.618567-1.209074.417782-2.709099-.132194-3.902085-.728312-1.579965-2.107617-2.492102-3.723873-3.025741-1.366834-.451205-2.798517-.592627-4.213988-.813366.432747-.688031.765726-1.438044.879213-2.35043.340461-2.71733-.886696-4.98146-2.668818-6.819577 1.535194-.521542 3.183875-.801643 4.775189-.914881 4.102995-.292073 8.255874.597616 11.96603 2.350056 7.871764 3.718636 13.12709 10.971834 15.410551 19.255519 3.60415 13.076707.492608 28.573184-8.527746 38.920339-.786927-.248175-1.591313-.432747-2.396947-.544488-2.40443-.333353-4.851262-.119224-7.21329.408678-2.187433.488992-4.509553 1.164802-6.442576 2.334717-1.511498.914631-2.8272 2.289945-3.057916 4.10499-.178337 1.404746.243187 2.99157 1.422954 3.866543 1.652422 1.225786 3.853573.351561 5.552138-.30841 1.799581-.698507 3.531819-1.56288 5.165534-2.589128 2.703737-1.697692 5.111908-3.78997 7.224514-6.153121.72083.25915 1.426695.577537 2.108865.97786 4.065582 2.389964 5.781606 6.773434 4.730292 11.330128zm-64.158873 24.358573c-.334226-.259399-.652239-.556212-.950299-.901662-1.002677-1.16106-1.38554-2.549094-1.139859-3.88475 1.916809 1.267064 3.503134 3.773758 2.090158 4.786412zm-15.023947-5.310199c-1.595055-1.57136-3.47071-3.443274-4.150385-5.532184-.468914-1.441661-.828082-2.950665-1.109929-4.439716-.049884-.269376-.074827-.547481-.124711-.816857.144665.007482.352932-.007483.407805-.007483 1.141107.018707 2.289696-.148406 3.395884-.424018 2.433113-.607343 4.741516-1.755932 6.801743-3.17265 3.803689-2.615192 7.991487-7.013753 7.305576-12.02901-.295565-2.149769-1.550159-4.125942-3.599162-4.970111-2.259765-.931343-4.993433-.611833-7.234491.223108-2.511682.935583-4.716574 2.629035-6.210613 4.859992-1.469097 2.195289-2.89205 6.612058-6.153246 6.320234.530023-1.104941.911638-2.511308.202032-3.541671-1.165051-1.694325-3.333527-.236951-4.763839.164494-2.255774.633034-4.692505.521916-6.884053-.305417-1.05755-.399201-2.658841-1.068151-1.88214-2.431493.4426-.776825 1.16343-1.361346 1.606653-2.140541.899167-1.580713.4209-3.36296-.605846-4.753613-1.166423-1.57984-2.762601-2.448329-4.460792-3.336147-3.687333-1.927784-7.24347-4.41365-9.490265-7.993981-2.248666-3.583449-3.18799-8.444439-1.782246-12.512141 1.075882-3.113537 4.706223-4.101124 6.461032-6.704842.768595-1.140608.47515-2.329978-.328239-3.379547-.525782-.686659-1.212566-1.24948-1.68597-1.976047-.661093-1.014525-.600109-2.137798-.028933-3.177015 1.202839-2.188431 3.793213-2.621552 6.066572-2.696753 2.579774-.085427 5.138471-.078568 7.710139-.357422 2.679543-.290702 5.342624-.757371 7.95607-1.417342 2.200402-.555588 4.57989-1.314081 6.121319-3.082235 1.263324-1.448145 1.946741-3.615125 1.134871-5.446508-.526281-1.185503-1.517734-1.951354-2.633898-2.519682 6.438834-.005967 19.574654 1.351264 15.356925 8.90751-1.258335 2.253903-3.525583 3.859559-5.696803 5.150942-2.59025 1.540806-5.37879 2.740651-8.205991 3.772012-2.409418.878715-4.866227 1.638829-7.352467 2.269493-2.732047.693019-5.543284 1.076381-8.21285 2.005479-3.21393 1.118659-6.230816 3.194101-6.77094 6.796007-.58477 3.900589 1.446275 7.918656 3.981028 10.753464 5.725112 6.402543 15.015466 9.043051 23.222704 10.188024 4.876204.679925 9.820999.78568 14.724639.363658 4.974726-.428258 9.72996-1.593185 14.588705-2.667446 4.437221-.981102 9.636427-1.487554 13.508706 1.422829 3.419579 2.568924 4.011957 7.013503 3.082859 10.942651-2.062722 8.724664-9.910791 14.703314-17.75512 18.043077-4.124196 1.755932-8.668668 3.225029-12.12566 6.185671-.826835.707112-1.568866 1.570112-2.037779 2.547848-.69963-.279353-1.42046-.394088-2.110112-.24194-1.885632.415288-2.425631 2.50794-2.456809 4.176575-.011224.606096.022448 1.212192.091039 1.818288-1.267065-.397829-2.489233-.929098-3.644058-1.591314-1.552653-.890437-2.951912-1.996625-4.228954-3.24623zm12.537207 5.65939c-1.008913-.044896-2.014084-.169607-3.003043-.380369-.20702-.044896-.414041-.094781-.619814-.145912-.029931-.219492-.061109-.438983-.083557-.659722-.139676-1.373069-.275611-3.546784 1.060045-4.437221.574918-.38411 1.333161-.331731 2.10637-.016212-.123464.458937-.183325.93658-.163371 1.431683.066097 1.62748.922862 3.124013 2.10637 4.212741-.480138.04739-.98397.014966-1.403-.004988zm24.817509 35.435412c1.446649-.049884 2.87085.228221 4.22646.724572 1.580089.579906 4.076806 1.682352 3.624104 3.779993-.491361 2.279719-3.034221 2.953159-5.035834 2.585261-1.966694-.361662-3.848585-1.330667-5.588304-2.287201-1.268312-.69963-2.485493-1.484062-3.651541-2.335839 1.871913-1.396765 4.06184-2.385724 6.425115-2.466786zm-95.617747-116.599767c1.067028-1.485184 2.87721-2.445584 4.710214-2.418771 1.044954.015214 2.497339.401819 2.802508 1.562256.341334 1.298242-.909394 2.49709-2.012339 2.908263-2.020444.75288-4.252773-.136559-5.406475-1.89511-.034047-.05188-.062231-.104384-.093908-.156638zm15.427137-7.422181c-.656479 4.462163-1.129009 9.500866-4.216731 13.057876-2.557077 2.945676-7.888227 4.626782-10.804222 1.215684-1.36172-1.59281-1.795964-3.995494-.937204-5.926022.935957 1.319693 2.409419 2.244426 4.190293 2.354047 1.534695.094531 3.129501-.458688 4.099628-1.686843 1.004174-1.271055 1.076756-3.016013-.238198-4.086159-2.403432-1.956094-6.055846-.687532-7.980263 1.513743-1.196853-3.605273 2.481376-7.550384 5.146827-9.557983 3.523712-2.654102 7.975025-3.994123 12.37396-3.85482.016836.000499.033048.002494.049884.002993-.844543 2.194541-1.327674 4.544472-1.683974 6.967484zm34.289443-16.410235c.717088.567561 1.341891 1.22591 1.814546 2.000366.430253.703745.758244 1.561383.74702 2.397072-.022448 1.600293-1.572607 2.042145-2.709973 1.06653-1.344385-1.152456-1.164801-3.415089-.334225-4.80487.14217-.237948.304295-.456816.482632-.659098zm58.186458 17.295061c2.1151.346946 4.474634.452202 6.28544 1.697816 1.356856.93284 2.314638 3.092337 1.5539 4.673923-.498845 1.036848-1.638704 1.246113-2.69376 1.148839-1.414224-.130323-2.839672-.531519-4.2302-.812992-1.028867-.208392-2.574038-.269875-3.106554-1.338025-.515057-1.031985-.031178-2.348061.553717-3.229768.511316-.770091 1.103694-1.443531 1.637457-2.139793zm.283094-2.284833c-.158383.447589-.38411.853024-.643509 1.23701-.380369-.075575-.758244-.159381-1.129883-.26788-1.819535-.530146-4.088029-1.840237-4.305027-3.937378-.220738-2.13493 1.743461-3.579084 3.473204-4.3493.048638-.021326.098522-.039159.145912-.059986 2.072699 1.975923 3.486923 4.459669 2.459303 7.377534zm23.10772 52.184238c2.781058-3.29125 5.007151-7.065632 6.645855-11.043292 6.25052-15.170732 4.327475-36.176446-10.124047-46.099085-6.124563-4.205508-14.722146-6.325846-21.875575-3.559005-.971499-.868862-2.046509-1.62985-3.097823-2.285331-3.873527-2.414906-8.097492-4.255018-12.462381-5.57733-8.965481-2.716956-18.485926-3.283893-27.79561-2.703986-2.277225.141921-4.560685.331233-6.821697.633408-2.007849.268128-4.091772.697259-5.764147 1.907331-.123464.089044-.240693.188688-.357921.290951-1.75718-1.186626-3.869037-1.941627-5.837602-2.452444-8.328706-2.160869-17.548848 1.403499-23.31287 7.613239-1.297993 1.398136-2.25353 2.933704-2.981344 4.565673-.149029-.008605-.296937-.019953-.447463-.024692-4.055231-.128453-8.172693.957906-11.608982 3.122142-2.958771 1.863558-6.067071 4.820957-6.916353 8.339182-.319136 1.322062-.160628 2.659714.356175 3.819277-.067095.112615-.131196.226102-.188688.341335-1.535942 3.075001-.24194 7.125368 2.812734 8.715809 3.158433 1.644565 7.115392.432124 9.621212-1.849964 3.02624-2.756116 4.108857-7.043559 4.741516-10.929432.573172-3.519971.876719-7.198449 2.194417-10.512397 3.088096.292697 5.822387 1.441036 8.511532 2.816849-.131321.087049-.262766.173972-.391717.263764-5.909685 4.112224-10.201493 10.69061-12.408381 17.471277-1.191988 3.662142-2.647741 7.379655-5.124628 10.382075-2.33559 2.831066-5.480679 4.660952-9.045296 5.478434-2.89891.66471-5.825256 1.22566-8.664055 2.127696-1.138113.361662-2.363899.753878-3.359218 1.433679-1.155947.78967-1.13749 1.917932-.93022 3.2375.191307 1.218178.601606 2.403432 1.20234 3.480811.559578 1.003675 1.326053 1.796838 1.427318 2.994563.186194 2.201525-1.318072 4.128062-3.357472 4.776311-.744027.236452-1.581462.486124-1.87129 1.30161-.331358.932215.148032 2.352674.399574 3.251343.432872 1.546293 1.158067 2.910507 2.180698 4.067577-1.322561.039409-2.713713.680174-3.702423 1.384044-1.709789 1.21743-2.502952 3.377426-1.201965 5.190725.575417.801893 1.371697 1.400506 1.993257 2.161244 1.068774 1.306972.508946 2.703736-.206771 4.069323-1.198099 2.285954-3.079616 4.169092-3.677855 6.753106-1.098705 4.74401 2.922605 7.51135 6.976589 8.623773 2.895417.794409 6.01095 1.126141 9.008132 1.192238 2.549594.054873 5.168028-.228222 7.614236.663463 2.739155.998936 5.086966 3.18138 6.972473 5.345118 1.987646 2.280966 3.572474 4.879945 4.950781 7.564975 2.836554 5.525949 5.02511 11.359934 7.839839 16.900849 2.789039 5.491029 5.900332 10.818688 9.311679 15.946808 1.722136 2.587755 3.520969 5.125626 5.393381 7.608624 1.80008 2.385724 3.836987 4.633018 4.945668 7.451489 3.916054 9.953193-4.283826 19.674423-8.321473 28.154778-.494978 1.04009-.951296 2.096394-1.35748 3.173897-.089792.238199.100891.551223.342207.602355 3.383412.728313 6.922339.00873 10.154976-1.058797 3.311329-1.093717 6.533989-2.601474 9.489642-4.452187 5.942484-3.721379 10.77005-8.915596 14.82815-14.584963 4.083041-5.704286 7.410333-11.889956 10.717672-18.063156 2.615191-4.883686 5.397496-10.055456 9.688805-13.689537.001247-.001247.002494-.002495.004989-.003742 1.659904 1.237134 3.424566 2.338333 5.302716 3.266184 3.106553 1.532699 7.988993 3.332281 10.253746-.490115 2.047757-3.454497-2.078934-5.631953-4.840037-6.405162-4.025675-1.128635-7.658509.127206-10.702707 2.428125-1.42046-1.097457-2.759857-2.300919-4.013203-3.590432-4.275097-4.398561-7.321789-9.642663-10.013055-15.107503-2.072698-4.210247-4.051863-8.489085-5.580822-12.931294-.578659-1.682353-1.128635-3.415837-1.465355-5.176758.062356.013718.125958.029931.189561.043649 1.668634.356674 3.69519.715842 5.377543.285588.092286-.022448.178336-.051131.26314-.081062 3.425814 2.228588 7.891718 1.052562 11.386124-.566188 1.935516-.896673 3.929646-2.208634 5.140591-3.959578.602355.672193 1.295748 1.263324 2.049004 1.735979 3.885997 2.444337 8.894395 2.085169 13.23933 1.486556 8.492826-1.172284 16.826022-4.384842 23.503054-9.832223 5.938743-4.846273 13.275497-13.93896 9.110146-22.017371-1.315702-2.551589-3.664012-4.377609-6.312876-5.4177z" fill="" fill-rule="evenodd" transform="translate(-306 -287)"></path></svg> 