<?xml version="1.0" encoding="UTF-8"?> <svg xmlns="http://www.w3.org/2000/svg" height="200" viewBox="0 0 128 200" width="128"><path d="m100.740599 288.40004c3.336009-1.545722 8.478521-2.603683 10.756525 1.253215 1.904956 3.22545.103501 7.293245-1.450579 10.278746-.911731 1.752232-1.948308 3.431131-2.920684 5.149429-1.235222 2.183628-2.215209 4.525512-2.966601 6.917802-1.755207 5.588522-2.212975 11.448777-1.644591 17.267481.24994 2.562216 1.108804 5.005989 1.453723 7.551486.086209.63476.15099 1.28326.15976 1.930602 3.370841 1.142055 6.77825 2.186856 10.141976 3.337767 6.693033 2.289987 13.567503 4.331003 19.842812 7.653045 5.315095 2.81367 12.316976 7.729441 10.923235 14.725791-.99943 5.017578-5.179328 8.563428-8.297416 12.325307-3.781865 4.562262-7.18886 9.59631-9.499048 15.075659-1.668501 3.957216-2.868561 8.72309-.963937 12.835085 1.857467 4.011844 5.935768 5.79884 10.178131 5.995831 6.113315.284728 12.118827-1.228301 17.977238-2.79844 3.756134-1.006479 7.513096-2.126352 11.397468-2.513714 2.849367-.283072 7.038201-.496618 9.103247 1.960812 2.616056 3.112966.652773 7.372291.148922 10.833716-.776875 5.336158 3.426024 9.425804 8.236192 10.860202 4.401461 1.313554 9.025477 1.008134 13.474924.112567 3.940632-.793761 9.04947-2.118075 10.762069-6.218482 1.421374-3.402659.757846-8.383735-3.723868-8.603902-.402088-.019037-.431045-.644775-.014892-.624083.721443.034763 1.446194.148158 2.108068.453578 3.050411 1.407911 3.484766 5.356849 2.515948 8.230611-1.300582 3.860375-4.936751 5.661442-8.640763 6.694407-4.067215 1.135599-8.502597 1.816793-12.721215 1.336729-4.337756-.493307-8.841807-2.186773-11.292395-6.025628-1.145869-1.796101-1.657167-3.776778-1.389108-5.901474.263922-2.094899 1.075545-4.107857 1.188891-6.223448.102591-1.892941-.198562-4.1211-1.935981-5.224419-1.455295-.922053-3.243182-1.159602-4.935097-1.175328-3.507931-.033108-6.962085.732511-10.33516 1.62394-.299977.079284-.600013.159252-.900133.239681l-1.801906.48633c-4.808753 1.302154-9.650909 2.608603-14.623253 3.009382-4.323195.34846-9.29304.232582-12.747939-2.782715-2.73329-2.386248-3.848382-6.001625-3.585288-9.561546.366513-4.957073 2.797162-9.686529 5.339916-13.863912 1.493353-2.453291 3.1348-4.815536 4.91582-7.069353 1.667508-2.109798 3.511158-4.054884 5.242206-6.109226 2.871622-3.407625 5.532024-7.735814 3.72453-12.279783-1.263766-3.17794-4.035197-5.547303-6.837654-7.362441-6.094203-3.946952-13.105764-6.153673-19.931503-8.458807-4.346112-1.467588-8.716217-2.875417-13.057613-4.358151-.019194.368986-.058493.735987-.131133 1.098021-.240757 1.203057-.778447 2.160205-1.384558 3.213531-1.518504 2.640185-2.9373959 5.354201-4.6728291 7.862203-1.7272426 2.496746-3.2432646 5.074854-4.8114092 7.671999-1.3188664 2.184373-3.3599198 4.320905-3.9862179 6.844055-.4165669 1.679726.7206151 2.882369 2.02219 3.798629 1.3412046.943573 2.8401834 1.686017 4.3864034 2.228985.571859.201131 1.1572865.399778 1.7558686.504895.155044.027314.3225808.06125.4813478.04304-.3408651.038074-.7637197-.313697-1.1242755-.470959-.6278701-.275623-1.8247862-.717612-2.155144-1.368182-.2955266-.58187-.3741241-1.226645.3124872-1.522961.3933186-.16885.8397525.063733 1.2185925.156435.4797758.117533.9780841.193681 1.4483454.346805.8322237.270656 1.5559827.738305 2.0316218 1.493991 1.286848 2.04441 1.10384 4.824641.310667 7.026313-.4112718 1.140566-.9265406 2.229814-1.7310483 3.147729-.9085873 1.036276-1.7467678 1.902874-1.2465566 3.347203 1.1583349 3.34262 4.1852249 4.177042 7.2765549 4.884277l.795197.180557c1.235649.281169 2.456866.574643 3.548188 1.032804.314307.132432.140152.564489-.147515.581043-2.599344.142364-6.026279.225133-7.61519 2.683391-.8356154 1.292862-1.3321035 2.977223.198728 3.95225.980897.62491 2.13686.863287 3.127519 1.449296 2.06968 1.225818 2.104511 3.403486 1.67603 5.542253-.27567 1.376459-.647312 2.731398-.594776 4.148414.057831 1.558552.3637 3.116276.93498 4.570538.994382 2.52944 2.677362 4.763392 5.334868 5.675513 2.832407.972543 5.516057.3915 8.352765-.240859 5.715033-1.272997 11.425349-2.670148 17.172483-3.789194 5.342976-1.040414 11.07894-1.76051 16.400406-.207751 4.672002 1.362387 8.766519 4.189798 11.955924 7.840766 3.339153 3.822301 5.654884 8.276134 7.631405 12.921993 2.32235 5.459484 4.192971 11.093612 5.918807 16.765814.478489 1.572509.948164 3.149285 1.416371 4.727342l.702128 2.367673c2.694313 9.076899 5.461554 18.14678 9.698431 26.641882.184497.370808-.368167.662157-.548528.300454-7.450217-14.939916-10.306203-31.541847-16.324291-47.023077-3.75117-9.647627-9.094146-20.202409-19.668408-23.653902-5.630892-1.838313-11.651462-1.16043-17.349865-.006621-5.750856 1.163741-11.460842 2.55427-17.194407 3.801608-2.473919.538831-4.957931 1.111596-7.466185.417987-2.157378-.596769-4.050006-1.828381-5.287131-3.719667-1.263269-1.931843-2.071169-4.227872-2.264519-6.531351-.179864-2.140422.460582-4.021775.717389-6.112536.130803-1.064417.160339-2.37466-.639784-3.210634-.727482-.760652-1.703994-1.036275-2.643689-1.440191-1.349727-.580215-2.9178712-1.500613-2.7160824-3.211461.4603332-3.895966 4.2286294-4.859405 7.5592614-5.176412-2.952123-.859977-6.306086-.946057-8.6788211-3.04675-1.0525448-.931986-1.9045419-2.329965-2.0774565-3.748636-.1300168-1.06559.4459214-1.862207 1.1001521-2.6289l.4251861-.491103c.3294817-.382422.6449117-.770169.8678322-1.193122 1.0550269-2.00137 1.8222212-4.674001 1.137182-6.924507-.3506277-1.152153-1.0262354-2.204155-2.245738-2.542682-.3942286-.109256-.7944968-.18706-1.1915384-.2839-.2616056-.063733-.5269343-.167195-.7897809-.218512-.381653.434541-.3606385.742444.0632089.924537.6272082.373291 1.2912332.662157 1.9325889 1.003168.411851.219339.9396954.52807.9525192 1.060278.0123274.511517-.7507304.400605-1.0480772.348461-2.6340097-.465166-5.726698-1.896252-7.6039377-3.81568-.856382-.87653-1.5106443-1.973973-1.1974952-3.235878.3894057-1.568679 1.236054-2.926417 2.1367645-4.250515l.4942348-.719966c.3298332-.479173.6571218-.958161.9624792-1.445489 1.5870908-2.532254 2.9477379-5.199753 4.7002144-7.627221 1.7887968-2.477874 3.2529445-5.154809 4.7616857-7.806582.728144-1.280115 1.627962-2.526294 1.86665-4.011181.061223-.381154.094896-.764626.109705-1.148263-.358487-.123327-.718133-.243177-1.075875-.367415-4.9365865-1.715731-9.9737774-3.712052-14.1262084-6.96167-4.8879383-3.824701-7.6699596-9.460071-7.2263386-15.707522.4322863-6.084808 3.2391278-11.857741 6.8769519-16.666242 3.3743984-4.459958 7.6865892-8.685678 12.8175181-11.062988zm5.356551 93.952937c.187458 0 .358074.0454.511847.1362.153774.0908.276061.213087.366861.36686.0908.153774.1362.32439.1362.511848 0 .184528-.0454.354412-.1362.50965-.0908.155239-.213087.278258-.366861.369057-.153773.0908-.324389.1362-.511847.1362-.184529 0-.354412-.0454-.50965-.1362-.155239-.090799-.278258-.213818-.369058-.369057-.090799-.155238-.136199-.325122-.136199-.50965 0-.187458.0454-.358074.136199-.511848.0908-.153773.213819-.27606.369058-.36686.155238-.0908.325121-.1362.50965-.1362zm4.172033-93.250885c-1.333676-1.306435-3.203387-1.68701-5.014274-1.445902-5.099158.678794-9.7014982 4.395315-13.1770805 7.953747-4.3528133 4.456813-8.0179397 9.976387-9.6270377 16.049029-1.5819613 5.970007-.8284179 12.347655 3.3998804 17.077773 3.1712858 3.54792 7.539074 5.867787 11.8874197 7.652796 1.889898.775966 3.8091671 1.473548 5.7417551 2.136864-.014726-.754197-.100604-1.508146-.23422-2.251748-.443952-2.468604-1.188395-4.867267-1.401187-7.375601-.477625-5.62403-.105983-11.333644 1.592055-16.740652.740968-2.358934 1.64426-4.716958 2.843658-6.884198.927451-1.676416 1.948887-3.299362 2.852759-4.98927 1.639958-3.0662 4.218205-8.163567 1.136272-11.182838z" fill="" fill-rule="evenodd" transform="matrix(-1 0 0 1 208.899686 -287)"></path></svg> 