<?xml version="1.0" encoding="UTF-8"?> <svg xmlns="http://www.w3.org/2000/svg" height="200" viewBox="0 0 168 200" width="168"><path d="m635.594546 290.640151c11.326113-3.591246 23.764834-4.257452 35.970373-1.92543 9.132766 1.744965 16.995135 4.953636 23.372571 9.535152 1.696507 1.219145 3.329817 2.568691 4.906852 4.047096l.434179.407026.144693-.577275c.350152-1.396992.880551-2.108726 1.750327-2.821002 1.064609-.872386 2.386939-1.257513 4.108216-1.411835 7.445817-.667878 15.342929 3.543088 20.098485 10.735178 3.815355 5.771734 5.814123 13.375778 5.933554 22.605497.088669 6.892117-1.060283 11.987962-4.584899 15.651798-.569209.591291-1.234262 1.116695-1.973344 1.561824l-.186582.112373.018409.21703c.049021.577941.06878 1.148218.058074 1.710728-.02981 1.579902-.680921 3.289764-1.708335 4.143551-.607213.50436-1.313933.702312-2.055675.578436-1.113791-.186042-1.831659-.917494-2.738602-2.353878-.661583-1.045508-1.308415-2.09843-1.940681-3.15906l-.066386-.111364-.122915-.041241c-.873244-.292996-1.653712-.714915-2.322316-1.2539l-.633775-.510909.06524.811445c.823312 10.240159-1.878455 20.857922-7.695235 30.184358-6.254974 10.028939-15.422707 17.460951-25.851542 20.963948l-.176812.05939-.185656.691184c-3.235498 12.474163-.444769 27.328404 8.281336 44.166315l.145398.279976.729199 1.387443.365675.684792c1.226468 2.284375 2.546364 4.618564 4.496584 7.977518l2.498336 4.280513c7.24381 12.392895 10.500636 18.604609 13.206796 26.144142l.298912.84403-.869.3-.34951-.983992c-2.475411-6.827418-5.70213-13.140481-11.430352-23.015524l-4.636284-7.94813c-1.930198-3.338743-3.428222-6.02122-4.792853-8.615344l-.476583-.912829c-3.93317-7.588513-6.675264-14.794596-8.215596-21.57925-2.221686-4.620783-3.121052-8.868792-4.271097-18.163678l-.26044-2.133941c-.687131-5.594752-1.132012-8.404711-1.905185-11.360968l-.139967-.523807c-.122449-.449277-.240936-.855248-.407765-1.396167l-.494717-1.572015c-.692693-2.20081-1.014483-3.382802-1.222466-4.692063l-.062196-.419018c-.185787-1.340191-.222276-2.764087-.133515-4.368303.057723-1.043258.146419-1.969369.322081-3.409475l.303875-2.407825c.740818-6.024201.636789-8.684193-.913489-11.740355-.947357-1.86727-2.507441-3.232375-4.217346-3.279221-.435434-.011892-.876426.057947-1.333038.203674l-.154422.049284-.165174.393268c-.796441 1.858672-1.77894 3.527568-3.625941 6.303738l-1.359184 2.026399c-1.111455 1.66213-1.696971 2.583889-2.321971 3.675785l-.235499.418368-.385694.709333-.934053 1.75825c-.780364 1.448818-1.300017 2.307241-1.939247 3.155728l-.262971.340241c-1.288374 1.625117-2.847691 2.76729-4.47883 3.298533l-.167147.054437-.106837.309146c-.818516 2.186905-3.537667 4.427106-9.291106 8.021776l-1.570473.96932c-1.242775.758376-2.475351 1.490299-3.701226 2.197764l-.11754.110912c-.074499.113354-.141942.21549-.203771.308514l-.546119.803813c-5.097749 7.568641-6.136091 16.272507-5.117472 31.151979l.096665 1.349133c.029747.402416.077644.824894.144274 1.290371l.479506 1.200513.738119.070346c3.468998.364812 6.372338 1.210351 8.822214 2.712359 5.840111 3.580099 8.686573 11.215564 6.61476 17.744837-.601834 1.894819-1.500555 3.394497-2.669072 4.463232-2.707555 2.476603-7.341188 2.515897-10.091117.085346-2.096995-1.853856-2.330869-5.412167-1.626716-9.002162l.083493-.464678c.229684-1.403163.272668-2.888991.140858-4.470708-.195649-.692114-.372562-1.287714-.601809-2.025893l-.998108-3.14363c-.517115-1.631165-.838803-2.700446-1.097912-3.687405l-.196457-.781099-.152252-.651414-.263379-.013822c-1.126845-.059137-2.294859-.079636-3.538043-.067457-6.397535.054377-11.167907.693472-15.459722 2.073819-8.313739 2.67404-15.432531 8.629005-19.533615 16.339911-.914975 1.719821-1.570734 3.216293-2.71362 6.107429l-.629889 1.605545-.836725 2.107069c-.169936.417859-.331991.808241-.491408 1.182975l-.296378.686682c-4.102501 9.362221-10.332256 17.798073-18.074328 24.47586l-.303219.257484-.591-.701.308479-.262263c7.817989-6.746828 14.071428-15.311561 18.112166-24.815808.146466-.344255.29502-.701479.450427-1.082534l.32136-.797103 1.323048-3.361409c.976683-2.457789 1.601535-3.890195 2.382881-5.399974l.227939-.434424c4.211423-7.917781 11.525593-14.035831 20.063496-16.782039 4.378616-1.408446 9.228503-2.061973 15.732784-2.117528 1.160919-.009595 2.190808.003856 3.182893.046922l.43293.018793-.072714-.427194-.058543-.358052c-.816047-1.980987-1.581398-3.688979-2.875107-6.43569l-1.344358-2.833488-2.004547-4.237389c-1.738393-3.656822-3.201378-5.77191-5.4339-7.243214-2.895676-1.909504-6.546367-2.19719-11.331741-1.577661l-.97309.133419-2.660759.388375c-2.411078.339083-3.869889.470727-5.416856.447726l-.49266-.012342c-.885196-.030856-1.728654-.119515-2.543411-.272137-2.104229-.394648-4.107354-1.372054-5.638008-2.750391-1.712156-1.54028-2.658795-3.409296-2.748076-5.408699-.030276-.670567.026924-1.387167.163908-2.203095.086232-.513633.184671-.981132.356121-1.70753l.236471-.986684c.832402-3.513489.820163-4.86644-.534847-6.132152-.189915-.177662-.407829-.339233-.719722-.543933l-.50355-.325329c-.820216-.537887-1.195925-.87699-1.499726-1.427481-.380011-.689762-.413176-1.511931-.087236-2.324475.417891-1.041584 1.344702-1.90121 2.409894-2.235603.662756-.207347 1.369554-.274041 2.135969-.219297l1.053394.075242-4.835853-4.167951c-1.063494-.915977-1.572837-1.665171-1.383775-2.630781.131478-.671943.564166-1.127544 1.366927-1.581092.068544-.038727.130603-.072768.206272-.112989l.389746-.202695.367701-.196796.209905-.125413c.862734-.546911 1.359504-1.398727 1.466727-2.501321.187971-1.933547-.884952-4.454892-2.553698-6.036424l-1.064-.991775c-2.064958-1.96138-2.766751-3.103702-2.59311-4.781011.193417-1.871272 1.608261-3.153733 4.362718-4.480657l.902217-.439383c7.661682-3.772152 11.253883-6.647194 12.814687-11.314609l.059503-.181607c.366419-1.14264.538744-2.161531.753158-4.173095l.142094-1.376664.134862-1.164919c1.435794-11.069873 8.878961-21.198031 19.020121-25.89511l.155347-.071952.135268-.561724c.949874-3.672248 3.223055-6.959842 6.776668-9.787147 3.106738-2.471972 7.189741-4.553966 11.805752-6.017293zm-6.457159 138.445107.39872 1.082077c2.02778 5.625796 2.71225 10.167755 1.917718 14.217014l-.062498.333833c-.592424 3.329788-.205482 6.388051 1.397273 7.803976 2.426341 2.145435 6.473498 2.111074 8.86356-.075345 1.053276-.963253 1.863638-2.331694 2.413747-4.063651 1.919444-6.050037-.808237-13.367754-6.219551-16.684507-2.256611-1.383658-4.949623-2.183691-8.142801-2.548682zm2.981214-36.077393-1.102807.604515c-7.307683 4.005782-14.432377 7.141516-21.520578 9.472834l-1.758513.578378 1.848287.103553c2.5884.145019 4.82629.765906 6.669695 1.980913 2.471788 1.630013 4.045425 3.94584 5.954672 8.034158l3.409146 7.198858 1.491108 3.225001-.14771-2.530621c-.657721-12.105992.435371-20.544505 4.524731-27.580282zm39.274499-103.391943c-12.055777-2.303378-24.338347-1.647117-35.521424 1.898837-10.240428 3.246819-15.685536 8.432883-17.684547 14.239698l-.250488.727628.713049-.289393c5.423921-2.201316 9.942375-1.812831 13.577213.28618 3.950773 2.281713 6.596598 6.679078 6.867049 10.463746.118927 1.674992-.166188 3.133313-1.1194 6.193015l-.64728 2.043264c-1.95012 6.266905-2.306356 9.732895-.785909 14.528876 1.10634 3.488991 3.340014 6.796052 6.642621 9.845349l.402521.371648.168038-.521448c1.46482-4.545558 6.044768-7.951708 10.762794-7.951708l.070044.000284.382065.010231c5.160553.237661 9.911907 4.506121 10.650398 9.62818.266524 1.852181.094429 3.69419-.478329 5.599525l-.151518.50404.523417-.055213c.191422-.020192.382721-.027733.574261-.02226 1.954261.053706 3.831595 1.457564 5.010055 3.780813 1.390005 2.73994 1.682564 5.744251 1.270115 9.984471l-.036482.363868c-.03113.30107-.064667.602016-.105021.942268l-.463573 3.69384c-.052716.443686-.094239.822917-.134553 1.226668l-.047425.500249c-.191313 2.136592-.196918 3.875517.028641 5.503319.180665 1.304447.438917 2.342497 1.048181 4.30982l.670783 2.135531c.17984.582184.317178 1.049353.444974 1.518389l.109659.410058c.684425 2.610285 1.180818 5.486091 1.687188 9.410022l.045006.350635.707776 5.740347c.231607 1.820425.423794 3.190364.630755 4.451866l.173555 1.013909c.076186.427062.155946.85228.241559 1.290048l.693013-.085498c-.266428-5.082642.240475-9.869022 1.520947-14.344722.04237-.146585.154672-.262874.299034-.30938 10.39371-3.378582 19.543225-10.734923 25.766358-20.712174 6.222999-9.977034 8.804889-21.429578 7.267614-32.250223-.031158-.220546.101032-.431993.313439-.500684.211894-.068683.442784.025437.547208.22355.33247.632238.774868 1.190354 1.314635 1.661156l1.548215 1.350402-1.01373-1.786871c-6.839826-12.05635-11.855519-24.993078-14.942963-38.54623-.386698-1.694855-.54632-3.160344-.506761-4.41678l.004853-.154139-.79052-.758391c-1.595861-1.500284-3.25573-2.872954-4.988218-4.117592-6.271132-4.505252-14.01321-7.660105-23.008892-9.379024zm-39.625208 17.657434c-3.71571-2.145775-8.437181-2.351262-14.137606.371709-.099244.067579-.131743.087685-.164493.10231l-.422708.193007c-9.826039 4.578635-17.036583 14.396004-18.432333 25.151069l-.038006.303636c-.018413.151996-.036293.307273-.055216.479383l-.187258 1.806334c-.055045.520643-.0977.886173-.147011 1.250955l-.106643.722788c-.150687.931416-.339875 1.743327-.594767 2.506115-1.635879 4.891932-5.474925 7.997659-13.271046 11.842038l-1.202137.586512c-2.2353 1.11258-3.412924 2.148484-3.564108 3.609661-.129075 1.251408.481805 2.252356 1.99822 3.724859l.436143.413826.940651.873118c1.883049 1.784725 3.05026 4.591386 2.836222 6.791395-.134965 1.393577-.785823 2.489012-1.889185 3.188415-.132363.08374-.276465.165973-.453828.260509l-.648287.340545c-.693986.37858-.949238.613308-1.028563 1.018748-.110675.564018.290055 1.076856 1.0822 1.759022l6.434655 5.545725c.163229.141303.206361.377456.103075.567463-.102855.188728-.325478.280853-.533226.220239-2.274936-.670705-3.41879-.84705-4.682721-.450597-.792155.248963-1.521037.926059-1.832199 1.701509-.206999.517496-.231803 1.049603.039097 1.539848.207609.37661.459003.610475 1.048501 1.00393l.356844.232256.504241.331672c.253423.17481.452137.330427.635804.501877 1.531297 1.429772 1.678727 3.191924.961877 6.337857l-.454526 1.917777c-.363509 1.584615-.481671 2.43712-.438665 3.402219.15866 3.542862 3.619344 6.545959 7.638959 7.299136 2.357887.44189 4.461519.351733 8.335203-.19585l1.267323-.18502-.012375-.051351.637717-.161936c10.041338-2.612754 20.069059-6.823706 30.508808-12.810474l.11897-.112301 1.411417-2.169241c3.380889-5.150252 5.713911-8.228067 7.933852-10.204162l.203551-.181191-.125762-.241759c-.821088-1.578416-.748088-3.751953.126966-5.430335.972361-1.865111 2.323538-3.043379 5.301515-5.052452l13.28953-8.966761c1.018965-.687835 1.552624-1.012942 2.247193-1.32126l.134524-.059715.194978-.538041c.68719-1.994434.914346-3.897812.637604-5.817761-.69185-4.802882-5.186376-8.765709-10.037986-8.850205l-.425325.002528c-4.699917.136405-9.08319 3.862214-9.915786 8.49298-.028774.161915-.142037.295599-.296634.350535-.155753.055834-.327895.024279-.452333-.082173-3.989538-3.408085-6.650226-7.159202-7.915879-11.149222-1.659331-5.233381-1.161274-9.043089 1.091223-16.048463l.229162-.718575c1.016927-3.218029 1.306529-4.591386 1.191026-6.210249-.251745-3.532792-2.714612-7.600292-6.410439-9.734411zm11.683277 72.099565-.467179.431812c-2.029327 1.928278-4.354552 5.035363-7.086514 9.175601l-.853821 1.293951 1.326931-.801607 2.091478-1.275963c.806639-.49693 1.417352-.880285 2.027037-1.274572l1.061399-.697969c1.166824-.781516 2.178739-1.513462 3.04493-2.213699 1.252093-1.012203 2.169125-1.934396 2.716219-2.773902l.36217-.555744-.663175.014737-.191746.006488-.318078-.0096c-.852248-.050591-1.634907-.288495-2.27527-.692031-.179061-.112451-.3501-.245649-.538221-.414957zm2.857813-1.48771c-.059793 0-.120327.003158-.183414.009467-.478797.051051-.998014.266267-1.563261.630324l-.42679.274881.500105.370573.081893.055426c.569376.358738 1.290674.550859 2.082027.558315.257542.00275.51899-.014557.781304-.051502l.355944-.050133-.059603-.354481c-.061896-.368121-.246989-.699507-.555452-1.007969-.291651-.291651-.620565-.434901-1.012753-.434901zm17.105648-19.113145-14.694696 9.912522c-.355681.240169-.579191.391765-.777342.528297l-.629955.443154c-1.763997 1.271503-2.880379 2.376404-3.593486 3.744177-.683515 1.310541-.802314 2.994263-.270789 4.280683l.162746.393884.354726-.236221c.756207-.503579 1.443972-.790331 2.061186-.85538.744661-.080482 1.410597.155553 1.942915.687871.400885.400885.662383.852914.778933 1.338159l.09829.409218.384442-.171241c1.230685-.548181 2.399408-1.493496 3.394859-2.750352.656134-.828362 1.199405-1.68699 1.893728-2.952756l.360971-.668556.522654-.988595.655395-1.217401.247614-.439351c.566105-.98933 1.100773-1.842448 1.998837-3.195704l.960449-1.434623c1.368818-2.034603 1.943752-2.913246 2.61113-4.029049l.23786-.402899c.23207-.398483.446999-.784248.646848-1.162034zm61.279261-9.752408-.458916.185414c-1.635114.660626-3.426132.933172-5.140645.772232l-.695562-.065293.364161.596201c.375296.614429.760702 1.234093 1.155539 1.858162.767432 1.214225 1.323741 1.807004 2.114099 1.938584.480333.079874.92145-.048912 1.318791-.379321.787217-.654084 1.350851-2.092877 1.376691-3.454083.00609-.316694.001915-.635736-.012303-.957422zm-23.647907-44.294947.106754 1.030299c.078768.760198.220168 1.58706.424298 2.483053 3.251866 14.274382 8.656927 27.859866 16.089004 40.44315l.074213.125652.141495.035712c.284086.071702.575655.128758.872719.170436 1.834609.260583 3.836758-.055829 5.592277-.864399l.238395-.109802-.093155-.606224c-.420814-2.53659-1.306502-4.97616-2.92705-8.544331l-.870101-1.89628c-7.581451-16.440283-11.835663-23.963237-18.939052-31.512878zm24.568843 4.410378c-4.568455-6.908645-12.118903-10.965599-19.251216-10.327578-1.626594.145937-2.777617.526313-3.609026 1.207678-.920447.75503-1.457564 1.871589-1.621324 3.345248l-.018496.166446.44435.449504c7.356394 7.500735 11.970933 15.412441 19.308704 31.205408l.987546 2.136907.776141 1.701932c1.467886 3.27488 2.282943 5.567007 2.722244 8.008034l.09781.543492.449748-.320433c.426262-.303701.817511-.639347 1.166417-1.001638 3.049995-3.17041 4.419133-7.945898 4.328734-15.003671-.116763-9.040279-2.059376-16.481059-5.781632-22.111329z" fill="" fill-rule="evenodd" transform="translate(-565 -287)"></path></svg> 