<svg xmlns="http://www.w3.org/2000/svg" height="24" viewBox="0 0 105 24" width="105"><g fill="#fff" fill-rule="evenodd" transform="translate(.054688 .148438)"><g fill-rule="nonzero"><path d="m9.81445312 23.1445312c-1.875 0-3.5546875-.4492187-5.0390625-1.3476562s-2.65136718-2.1850586-3.50097656-3.8598633c-.84960937-1.6748047-1.27441406-3.6694336-1.27441406-5.9838867 0-2.33398438.42724609-4.33837891 1.28173828-6.01318359.85449219-1.67480469 2.02148438-2.96142579 3.50097656-3.85986329 1.47949219-.8984375 3.15673828-1.34765624 5.03173828-1.34765624 1.15234378 0 2.23388668.16601562 3.24462888.49804687s1.9165039.81542969 2.7172852 1.45019531c.8007812.63476563 1.4624023 1.41113282 1.9848633 2.32910156.5224609.91796876.871582 1.95800782 1.0473633 3.12011719h-3.3105469c-.1269531-.71289062-.3637696-1.34033203-.7104492-1.88232422-.3466797-.54199218-.7714844-1.00097656-1.2744141-1.37695312s-1.0644531-.65917969-1.6845703-.84960938c-.6201172-.19042968-1.2768555-.28564453-1.97021486-.28564453-1.25 0-2.37548828.31494141-3.37646485.94482422-1.00097656.62988281-1.78710937 1.55761719-2.35839843 2.78320313-.57128907 1.22558593-.8569336 2.72216799-.8569336 4.48974609 0 1.7773438.28808594 3.2739258.86425782 4.4897461.57617187 1.2158203 1.36230468 2.1362305 2.35839843 2.7612305s2.11425781.9375 3.35449219.9375c.6933594 0 1.3476562-.0927735 1.9628906-.2783204.6152344-.1855468 1.1767578-.4638671 1.6845703-.8349609.5078125-.3710937.9350586-.8227539 1.2817383-1.3549805.3466797-.5322265.5883789-1.1499023.7250977-1.8530273h3.3105469c-.1660157 1.0839844-.5029297 2.0727539-1.0107422 2.9663086s-1.1572266 1.6650391-1.9482422 2.3144531c-.7910156.6494141-1.694336 1.1523438-2.709961 1.5087891s-2.1240234.5346679-3.32519528.5346679z"></path><path d="m28.1396484 23.1884766c-1.5332031 0-2.8735351-.3515625-4.0209961-1.0546875-1.1474609-.703125-2.0361328-1.6894532-2.6660156-2.9589844-.6298828-1.2695313-.9448242-2.7441406-.9448242-4.4238281 0-1.6992188.3149414-3.1860352.9448242-4.4604493.6298828-1.27441402 1.5185547-2.26318355 2.6660156-2.96630855 1.147461-.703125 2.487793-1.0546875 4.0209961-1.0546875 1.5429688 0 2.8857422.3515625 4.0283204 1.0546875 1.1425781.703125 2.03125 1.69189453 2.6660156 2.96630855.6347656 1.2744141.9521484 2.7612305.9521484 4.4604493 0 1.6796875-.3173828 3.1542968-.9521484 4.4238281-.6347656 1.2695312-1.5234375 2.2558594-2.6660156 2.9589844-1.1425782.703125-2.4853516 1.0546875-4.0283204 1.0546875zm0-2.6806641c1.0058594 0 1.8359375-.2636719 2.4902344-.7910156.6542969-.5273438 1.1401367-1.2280274 1.4575195-2.1020508.3173829-.8740234.4760743-1.8286133.4760743-2.8637695 0-1.0546875-.1586914-2.0214844-.4760743-2.9003907-.3173828-.8789062-.8032226-1.5820312-1.4575195-2.10937496-.6542969-.52734375-1.484375-.79101563-2.4902344-.79101563-.9960937 0-1.8188476.26367188-2.4682617.79101563-.649414.52734376-1.1352539 1.23046876-1.4575195 2.10937496-.3222656.8789063-.4833984 1.8457032-.4833984 2.9003907 0 1.0351562.1611328 1.9897461.4833984 2.8637695s.8081055 1.574707 1.4575195 2.1020508c.6494141.5273437 1.472168.7910156 2.4682617.7910156z"></path><path d="m38.0712891 22.8515625v-16.37695312h3.1640625v16.37695312zm1.5966797-18.89648438c-.5566407 0-1.0302735-.18554687-1.4208985-.55664062s-.5859375-.81542969-.5859375-1.33300781c0-.52734375.1953125-.9765625.5859375-1.34765625s.8642578-.55664063 1.4208985-.55664063c.546875 0 1.0180664.18554688 1.4135742.55664063s.5932617.8203125.5932617 1.34765625c0 .51757812-.1977539.96191406-.5932617 1.33300781s-.8666992.55664062-1.4135742.55664062z"></path><path d="m52.0751953 6.47460938v2.56347656h-9.2431641v-2.56347656zm-6.7236328 16.37695312v-18.28125c0-1.015625.2270508-1.86279297.6811523-2.54150391.4541016-.67871093 1.0498047-1.18652343 1.7871094-1.5234375.7373047-.33691406 1.5307617-.50537109 2.3803711-.50537109.6542969 0 1.2109375.05371094 1.6699219.16113281.4589844.10742188.7958984.20019532 1.0107422.27832032l-.7617188 2.57812499c-.1464844-.04882812-.3344726-.10253906-.5639648-.16113281s-.5151367-.08789062-.8569336-.08789062c-.7714844 0-1.328125.19287109-1.6699219.57861328s-.5126953.94482422-.5126953 1.67724609v17.82714844z"></path><path d="m61.8896484 6.47460938v2.56347656h-9.243164v-2.56347656zm-6.7236328 16.37695312v-18.28125c0-1.015625.2270508-1.86279297.6811524-2.54150391.4541015-.67871093 1.0498047-1.18652343 1.7871093-1.5234375.7373047-.33691406 1.5307618-.50537109 2.3803711-.50537109.6542969 0 1.2109375.05371094 1.6699219.16113281.4589844.10742188.7958985.20019532 1.0107422.27832032l-.7617187 2.57812499c-.1464844-.04882812-.3344727-.10253906-.5639649-.16113281s-.5151367-.08789062-.8569336-.08789062c-.7714844 0-1.328125.19287109-1.6699219.57861328-.3417968.38574219-.5126953.94482422-.5126953 1.67724609v17.82714844z"></path><path d="m74.2822266 16.0839844v-9.60937503h3.1640625v16.37695313h-3.1054688v-2.8417969h-.1757812c-.390625.8691406-.9960938 1.5966797-1.8164063 2.1826172s-1.8457031.8740234-3.0761719.8642578c-1.0546875 0-1.9848632-.2294922-2.7905273-.6884765-.8056641-.4589844-1.4355469-1.147461-1.8896484-2.0654297-.4541016-.9179688-.6811524-2.0556641-.6811524-3.413086v-10.41503903h3.1640625v10.04882813c0 1.1035156.3125 1.9873047.9375 2.6513672s1.4306641.9912109 2.4169922.9814453c.5957031 0 1.1889648-.1464844 1.7797852-.4394531.5908203-.2929688 1.0839843-.7421875 1.4794921-1.3476563.3955079-.6054687.5932618-1.3671875.5932618-2.2851562z"></path><path d="m80.4931641 22.8515625v-16.37695312h3.0615234v2.62207031h.1757813c.3027343-.87890625.8325195-1.57470703 1.5893554-2.08740235.756836-.51269531 1.6137696-.76904296 2.5708008-.76904296.1953125 0 .4272461.00732421.6958008.02197265s.4858398.03173828.6518554.05126953v3.046875c-.1269531-.0390625-.3540039-.078125-.6811523-.1171875s-.6567383-.05859375-.9887695-.05859375c-.7519532 0-1.4233399.15869141-2.0141602.47607422s-1.0546875.75195317-1.3916015 1.30371097c-.3369141.5517578-.5053711 1.1889648-.5053711 1.9116211v9.9755859z"></path><path d="m97.2216797 23.1884766c-1.6015625 0-2.9882813-.3466797-4.1601563-1.0400391s-2.0727539-1.6723633-2.7026367-2.9370117c-.6298828-1.2646485-.9448242-2.7416992-.9448242-4.4311524 0-1.6796875.3100586-3.1591796.9301758-4.4384765s1.4941406-2.27783206 2.6220703-2.99560549c1.1279297-.71777344 2.4536133-1.07666016 3.9770508-1.07666016.9277344 0 1.8261718.15136719 2.6953125.45410156.8691401.30273438 1.6503901.78125 2.3437501 1.43554688.693359.65429687 1.242676 1.50390625 1.647949 2.54882811.405274 1.0449219.60791 2.3046875.60791 3.7792969v1.1425781h-13.0224607v-2.3876953h11.3818357l-1.479492.7910156c0-1.0058593-.15625-1.8945312-.46875-2.6660156s-.7788085-1.37451172-1.3989257-1.80908203-1.3891602-.65185547-2.3071289-.65185547c-.9179688 0-1.7016602.21972656-2.3510742.65917969-.6494141.43945311-1.1450196 1.02050781-1.4868164 1.74316411-.3417969.7226562-.5126954 1.5136718-.5126954 2.3730468v1.6259766c0 1.1230469.1953125 2.0751953.5859375 2.8564453s.9350586 1.3769531 1.6333008 1.7871094c.6982422.4101562 1.5112305.6152343 2.4389649.6152343.6054687 0 1.1547851-.0878906 1.6479492-.2636718.493164-.1757813.9204101-.4394532 1.2817382-.7910156.361328-.3515626.634766-.7861329.820313-1.303711l3.017578.5712891c-.244141.8789062-.673828 1.6503906-1.289063 2.3144531-.615234.6640625-1.38916 1.1791992-2.321777 1.5454102-.9326173.3662109-1.9946291.5493164-3.1860353.5493164zm-1.7285156-18.76464848 2.0507812-4.16015624h3.2812497l-2.8857419 4.16015624z"></path></g><ellipse cx="27.445313" cy="14.851563" rx="6.5" ry="7"></ellipse></g></svg>