<svg xmlns="http://www.w3.org/2000/svg" width="80" height="80" viewBox="0 0 80 80"><defs><style>.cls-1{fill:#fff;}.cls-2{fill:#d8d8d8;}.cls-3{fill:#f2f2f2;}.cls-4{fill:#262626;}</style></defs><title>df</title><g id="disable"><rect class="cls-1" x="0.5" y="0.5" width="79" height="79"/><path class="cls-2" d="M79,1V79H1V1H79m1-1H0V80H80V0Z"/><rect y="64" width="80" height="16"/><path class="cls-3" d="M25,69V70H24V69Zm0,1V71H24V70Zm0,1V72H24V71Zm0,1V73H24V72Zm0,1V74H24V73Zm0,1V75H24V74Zm0,1V76H24V75Zm1-6V70H25V69Zm0,6V76H25V75Zm1-6V70H26V69Zm0,6V76H26V75Zm1-5V71H27V70Zm0,4V75H27V74Zm1-3V72H28V71Zm0,1V73H28V72Zm0,1V74H28V73Z"/><path class="cls-3" d="M31,68V69H30V68Zm0,3V72H30V71Zm0,1V73H30V72Zm0,1V74H30V73Zm0,1V75H30V74Zm0,1V76H30V75Z"/><path class="cls-3" d="M33,72V73H32V72Zm0,3V76H32V75Zm1-4V72H33V71Zm0,2V74H33V73Zm0,2V76H33V75Zm1-4V72H34V71Zm0,2V74H34V73Zm0,2V76H34V75Zm1-4V72H35V71Zm0,3V75H35V74Z"/><path class="cls-3" d="M38,74V75H37V74Zm1-3V72H38V71Zm0,2V74H38V73Zm0,2V76H38V75Zm1-4V72H39V71Zm0,2V74H39V73Zm0,2V76H39V75Zm1-4V72H40V71Zm0,2V74H40V73Zm0,2V76H40V75Zm1-3V73H41V72Zm0,1V74H41V73Zm0,1V75H41V74Zm0,1V76H41V75Z"/><path class="cls-3" d="M44,68V69H43V68Zm0,1V70H43V69Zm0,1V71H43V70Zm0,1V72H43V71Zm0,1V73H43V72Zm0,1V74H43V73Zm0,1V75H43V74Zm0,1V76H43V75Zm1-4V72H44V71Zm0,4V76H44V75Zm1-4V72H45V71Zm0,4V76H45V75Zm1-4V72H46V71Zm0,4V76H46V75Zm1-3V73H47V72Zm0,1V74H47V73Zm0,1V75H47V74Z"/><path class="cls-3" d="M50,68V69H49V68Zm0,1V70H49V69Zm0,1V71H49V70Zm0,1V72H49V71Zm0,1V73H49V72Zm0,1V74H49V73Zm0,1V75H49V74Zm1,1V76H50V75Zm1,0V76H51V75Z"/><path class="cls-3" d="M53,72V73H52V72Zm0,1V74H52V73Zm0,1V75H52V74Zm1-3V72H53V71Zm0,2V74H53V73Zm0,2V76H53V75Zm1-4V72H54V71Zm0,2V74H54V73Zm0,2V76H54V75Zm1-4V72H55V71Zm0,2V74H55V73Zm0,2V76H55V75Zm1-3V73H56V72Zm0,1V74H56V73Zm0,2V76H56V75Z"/><polygon class="cls-4" points="47.78 23.52 31.52 39.78 32.22 40.48 48.48 24.22 47.78 23.52 47.78 23.52"/><polygon class="cls-4" points="32.22 23.52 31.52 24.22 47.78 40.48 48.48 39.78 32.22 23.52 32.22 23.52"/></g></svg>