<svg xmlns="http://www.w3.org/2000/svg" viewBox="0 0 75.3 65.6"><path d="M1.9 13.1h69.4V59c0 2.6-2.1 4.7-4.7 4.7h-60c-2.6 0-4.7-2.1-4.7-4.7V13.1zM6.6 1.9h60c2.6 0 4.7 2.1 4.7 4.7v4.7H1.9V6.6C1.9 4 4 1.9 6.6 1.9zm0 63.7h60c3.6 0 6.6-2.9 6.6-6.6V6.6C73.2 3 70.3 0 66.6 0h-60C2.9 0 0 2.9 0 6.6v52.5c0 3.6 2.9 6.5 6.6 6.5z"/><path d="M10.3 6.6c0 2.5-3.8 2.5-3.8 0s3.8-2.5 3.8 0m7.5 0c0 2.5-3.8 2.5-3.8 0s3.8-2.5 3.8 0m7.5 0c0 2.5-3.8 2.5-3.8 0s3.8-2.5 3.8 0m22.5 34.6c0 3.8-3.8 3.8-3.8 0s3.8-3.7 3.8 0m-6.6 14.1c-1 0-1.9-.8-1.9-1.9v-2.8h3.8v2.8c0 1.1-.8 1.9-1.9 1.9zm-13.1-5.6c0 .5.4.9.9.9h8.4v2.8c0 2.1 1.7 3.8 3.8 3.8s3.8-1.7 3.8-3.8v-3.8c0-.5-.4-.9-.9-.9h-15c-.6 0-1 .5-1 1zm-1.8-7.5H30c.5 0 .9-.4.9-.9s-.4-.9-.9-.9h-3.8c-.5 0-.9.4-.9.9s.4.9 1 .9z"/></svg>