<svg xmlns="http://www.w3.org/2000/svg" width="549" height="565"><path fill-rule="evenodd" d="M513.022 233.249c3.365 53.576 5.397 92.828 17.01 151.632 11.5 58.739 32.465 136.964 5.744 165.372-26.901 28.457-101.555 7.21-165.17.877-63.617-6.333-116.244 2.066-173.254-9.128-57.01-11.194-118.451-42.162-156.731-94.306-38.214-52.258-52.972-125.674-28.576-181.471 24.576-55.846 88.533-93.94 142.92-141.833C209.4 76.679 254.151 19.099 310.122 4.105 366.093-10.888 432.991 16.685 469 64.318c35.83 47.681 40.592 115.469 44.022 168.93z"/></svg>