<svg width="174" height="174" xmlns="http://www.w3.org/2000/svg"><g fill="none" fill-rule="evenodd"><path d="M0 0h174v174H0z"/><path d="M32.388 139.253c.898-2.133 2.185-4.107 3.366-6.11 1.434-2.432 2.953-4.818 4.399-7.244.164-.282.198-.74.102-1.055-.503-1.586-1.271-3.109-1.57-4.728-.853-4.576-1.435-9.19-1.243-13.873.215-5.27.751-10.489 2.287-15.55 2.13-7.018 5.625-13.213 10.758-18.55 3.891-4.046 7.528-8.35 11.114-12.678 4.416-5.326 8.996-10.403 15.253-13.687 3.276-1.72 6.517-3.464 10.148-4.367 2.293-.57 4.586-1.173 6.794-1.991 4.766-1.755 9.46-3.712 14.225-5.478 4.71-1.75 9.414-3.52 14.508-3.933 1.728-.14 3.473-.598 5.116-1.173 2.26-.779 4.371-2.02 6.658-2.669 2.485-.7 4.45-2.008 6.178-3.82.317-.332.576-.552.96-.056.12.152.441.147.65.209-.56 1.817-1.079 3.61-1.655 5.382-.768 2.37-1.411 4.801-2.428 7.064-1.333 2.967-2.858 5.833-3.563 9.055-.599 2.725-1.418 5.405-1.943 8.141-.977 5.083-2.112 10.121-4.721 14.647-2.649 4.592-4.93 9.365-6.946 14.245-1.378 3.335-3.044 6.494-5.342 9.197-5.038 5.924-10.307 11.656-15.48 17.461-4.043 4.536-9.04 7.831-14.355 10.624-4.36 2.285-8.82 4.39-13.321 6.392-2.756 1.225-5.597 2.302-8.697 2.483-3.355.192-6.692.575-10.04.818-2.215.158-4.434.395-6.58-.593-.949-.44-2.039-.609-3.078-.812-1.547-.3-2.247.056-3.044 1.405-1.632 2.742-3.286 5.472-4.896 8.226-1.62 2.77-3.055 5.602-3.094 8.936-.023 1.98.288 3.825 1.378 5.518.163.248.248.779.101.942-.22.243-.734.44-1.01.344-.39-.135-.791-.502-.983-.874-2.05-3.944-1.655-7.95-.006-11.848zM99.64 38.551c-4.553 2.035-9.422 3.105-14.133 4.655-1.725.564-3.4 1.578-4.813 2.728-2.72 2.226-5.384 4.559-7.805 7.1-3.608 3.799-6.51 8.144-9.071 12.714-.877 1.567-1.867 3.072-2.726 4.65-2.217 4.074-3.778 8.425-5.203 12.82-.798 2.469-1.63 4.932-2.229 7.445-1.13 4.745-2.177 9.524-2.38 14.422-.086 2 .13 4.012.208 6.018.125.012.244.029.362.04 2.065-2.198 4.118-4.413 6.205-6.594 1.216-1.273 2.516-2.462 3.704-3.759 1.097-1.2 2.11-2.48 3.133-3.747.136-.17.181-.463.17-.694-.057-1.115-.272-2.243-.21-3.347.267-4.914 1.25-9.67 3.207-14.213 1.001-2.322 1.844-4.711 2.924-6.988 1.861-3.923 4.429-7.41 7.075-10.826 2.302-2.964 4.434-6.103 7.03-8.792 3.501-3.623 7.364-6.897 11.085-10.307 1.193-1.093 2.438-2.142 3.71-3.263-.107-.034-.192-.085-.243-.062zm21.432-7.095c-1.425.253-2.907.349-4.27.794-4.342 1.408-8.69 2.827-12.932 4.494-1.52.597-2.833 1.83-4.1 2.935-5.066 4.398-10.364 8.56-14.747 13.686-3.704 4.33-6.877 9.04-10.02 13.776-3.343 5.03-5.3 10.633-7.216 16.254-1.187 3.475-1.555 7.124-1.668 10.79-.006.232 0 .463.023.693.01.09.079.175.186.395.48-.456.939-.856 1.369-1.296 5.762-5.896 11.501-11.816 17.297-17.68 1.702-1.717 2.72-3.79 3.659-5.947a496.005 496.005 0 0 1 3.76-8.358c1.6-3.498 3.88-6.567 6.18-9.625 3.472-4.613 7.38-8.809 11.841-12.487 2.585-2.134 5.146-4.303 7.77-6.387.9-.71 1.962-1.216 2.952-1.813-.034-.073-.057-.152-.085-.225h.001zm9.321-2.15c-2.068.7-4.153 1.35-6.232 2.026-.44.142-.91.26-1.288.509-4.809 3.07-9.08 6.785-13.318 10.595-4.492 4.042-8.34 8.587-11.764 13.515-2.153 3.099-3.752 6.503-5.074 10.042-.622 1.671-1.52 3.24-2.288 4.855.056.04.118.08.175.113 1.57-1.665 3.158-3.32 4.706-5.007 3.396-3.698 6.792-7.395 10.143-11.132 2.7-3.015 5.876-5.482 8.956-8.073 5.288-4.454 10.436-9.077 15.635-13.638 1.972-1.728 3.932-3.466 5.893-5.21.215-.193.384-.43.751-.836-2.271.813-4.277 1.552-6.294 2.241zm3.263 12.688c.123-2.365 1.582-4.214 2.37-6.324 1.026-2.738 2.028-5.487 3.042-8.23.321-.866.63-1.726.997-2.739-1.149 1.284-2.135 2.529-3.267 3.626-2.196 2.116-4.472 4.152-6.73 6.211-5.013 4.56-9.896 9.277-15.1 13.61-4.624 3.847-8.787 8.084-12.69 12.643-2.742 3.202-5.795 6.138-8.707 9.198-.89.933-1.769 1.884-2.805 2.998.963-.158 1.724-.26 2.478-.419 5.098-1.052 9.705-3.286 14.21-5.832 5.424-3.06 10.116-7.042 14.587-11.313 2.067-1.969 4.168-3.914 6.066-6.047 1.876-2.104 3.509-4.424 5.238-6.664.158-.198.299-.47.31-.718zm-.682 2.63c-.678.862-1.27 1.51-1.75 2.231-2.093 3.162-4.891 5.676-7.594 8.269-2.471 2.361-5.016 4.644-7.589 6.898-3.109 2.723-6.568 4.938-10.184 6.927-2.884 1.59-5.71 3.292-8.971 4.036-2.613.597-5.242 1.11-7.86 1.691-.288.068-.581.293-.796.518-2.155 2.255-4.282 4.549-6.449 6.798-3.205 3.32-6.443 6.611-9.66 9.925-1.342 1.381-2.657 2.79-3.977 4.193-.096.108-.164.243-.339.513 1.055-.287 1.924-.563 2.81-.766 2.494-.564 4.993-1.077 7.487-1.64a9.956 9.956 0 0 0 1.8-.564 406.909 406.909 0 0 0 6.026-2.649c6.698-2.993 12.82-6.944 18.947-10.951 5.642-3.686 10.844-7.863 15.787-12.394 2.692-2.463 5.236-5.084 7.815-7.665 1.4-1.398 2.251-3.033 2.55-5.062.514-3.376 1.259-6.707 1.947-10.308zm-14.046 37.123a107.239 107.239 0 0 1 7.15-13.82c1.443-2.36 2.79-4.772 3.52-7.771-1.11 1.112-2.015 2.078-2.982 2.982-3.643 3.4-7.298 6.794-10.97 10.172-5.114 4.698-10.867 8.562-16.616 12.402-4.594 3.067-9.453 5.738-14.635 7.754-.526.204-1.04.458-1.533.735-2.676 1.519-5.59 2.281-8.61 2.744a30.189 30.189 0 0 0-3.61.78c-1.408.4-2.772.88-4.288.78-.424-.03-.973.394-1.307.756a1095.021 1095.021 0 0 0-8.525 9.228c-1.098 1.198-2.161 2.418-3.236 3.632l.068.305c1.606.022 3.219.062 4.83.068.397 0 .799-.159 1.189-.142 3.027.175 5.906-.644 8.707-1.525 4.763-1.49 9.527-3.06 14.109-5.02 5.59-2.384 11.122-4.97 16.254-8.291 3.711-2.4 7.389-4.858 11.043-7.342 2.28-1.548 4.51-3.18 6.732-4.807 1.262-.92 2.094-2.168 2.71-3.62zm-75.43 42.981c2.006.624 3.973 1.287 5.98 1.825.716.193 1.522.114 2.277.057 4.402-.329 8.827-.488 13.19-1.111 2.457-.351 4.88-1.31 7.192-2.301a159.683 159.683 0 0 0 10.81-5.136c5.023-2.607 9.915-5.464 13.957-9.517 2.508-2.522 4.853-5.209 7.254-7.844 2.869-3.152 5.76-6.286 8.556-9.506 1.342-1.542 2.48-3.254 3.715-4.892-.057-.05-.119-.096-.175-.147-.784.595-1.55 1.219-2.356 1.785-4.295 3.056-8.55 6.179-12.92 9.115-2.8 1.887-5.748 3.576-8.702 5.22-2.294 1.27-4.667 2.398-7.068 3.458-2.79 1.236-5.665 2.273-8.455 3.497-4.227 1.86-8.669 3.021-13.173 3.798-3.33.573-6.775.93-10.19.232-.288-.056-.71.057-.925.255-.501.448-.873 1.032-1.364 1.497-2.965 2.823-4.966 6.422-7.547 9.55-.057.086-.068.193-.057.165zm-2.17-1.92c.056.236.226.456.418.828 1.597-2.125 3.082-4.166 4.646-6.145 1.044-1.324 2.19-2.57 3.325-3.822.474-.519.576-.992.407-1.697-.689-2.802-.695-5.666-.395-8.507 1.033-9.838 3.89-19.168 7.706-28.267 1.66-3.958 3.923-7.55 6.069-11.22 3.765-6.437 8.288-12.272 14.26-16.872.181-.14.34-.304.509-.457-5.002 2.52-9.078 6.128-12.534 10.458-4.748 5.96-9.67 11.755-14.971 17.234-4.218 4.358-7.08 9.567-8.92 15.301-2.823 8.783-3.438 17.77-1.982 26.88.328 2.12.954 4.195 1.462 6.286z" fill-rule="nonzero" fill="#F2EDE5"/></g></svg>