<svg xmlns="http://www.w3.org/2000/svg" width="146" height="96" viewBox="0 0 146 96"><defs><style>.cls-1{fill:#d8d8d8;}.cls-2,.cls-6{fill:#09090a;opacity:0.9;}.cls-3{fill:#fff;}.cls-4{fill:#b3b3b3;}.cls-5{fill:gray;}.cls-6{fill-opacity:0.7;}</style></defs><title>df</title><g id="blog-style-4-agnes"><path class="cls-1" d="M143,3V79H3V3H143m1-1H2V80H144V2Z"/><rect x="2" y="78" width="142" height="16"/><rect class="cls-2" x="16" y="5" width="36" height="33"/><path class="cls-3" d="M31.88,20l1.51,3H29.87l2-3M32,18l-4,6h7l-3-6Z"/><path class="cls-3" d="M36.88,20.75,38.23,23H35.08l1.8-2.25M37,19l-4,5h7l-3-5Z"/><rect class="cls-4" x="18" y="45" width="12" height="1"/><rect class="cls-4" x="18" y="49" width="32" height="1"/><rect class="cls-4" x="18" y="53" width="32" height="1"/><rect class="cls-5" x="18" y="40" width="21" height="3"/><rect class="cls-6" x="55" y="5" width="36" height="39"/><rect class="cls-6" x="16" y="57" width="36" height="19"/><rect class="cls-6" x="55" y="63" width="36" height="13"/><rect class="cls-6" x="94" y="52" width="36" height="24"/><path class="cls-3" d="M70.88,25l1.51,3H68.87l2-3M71,23l-4,6h7l-3-6Z"/><path class="cls-3" d="M75.88,25.75,77.23,28H74.08l1.8-2.25M76,24l-4,5h7l-3-5Z"/><rect class="cls-4" x="57" y="51" width="12" height="1"/><rect class="cls-4" x="57" y="55" width="32" height="1"/><rect class="cls-4" x="57" y="59" width="32" height="1"/><rect class="cls-5" x="57" y="46" width="21" height="3"/><rect class="cls-6" x="94" y="5" width="36" height="28"/><path class="cls-3" d="M109.88,18l1.51,3h-3.51l2-3m.12-2-4,6h7l-3-6Z"/><path class="cls-3" d="M114.88,18.75,116.23,21h-3.15l1.8-2.25M115,17l-4,5h7l-3-5Z"/><rect class="cls-4" x="96" y="40" width="12" height="1"/><rect class="cls-4" x="96" y="44" width="32" height="1"/><rect class="cls-4" x="96" y="48" width="32" height="1"/><rect class="cls-5" x="96" y="35" width="21" height="3"/><path class="cls-3" d="M58,84v.92H57V84Zm0,1v.92H57V85Zm0,4v.92H57V89Zm1-6v.92H58V83Zm0,3v.92H58V86Zm0,3v.92H58V89Zm1-6v.92H59V83Zm0,3v.92H59V86Zm0,3v.92H59V89Zm1-6v.92H60V83Zm0,3v.92H60V86Zm0,3v.92H60V89Zm1-6v.92H61V83Zm0,4v.92H61V87Zm0,1v.92H61V88Z"/><path class="cls-3" d="M64,83v.92H63V83Zm0,1v.92H63V84Zm0,1v.92H63V85Zm0,1v.92H63V86Zm0,1v.92H63V87Zm0,1v.92H63V88Zm1-3v.92H64V85Zm0,4v.92H64V89Zm1-4v.92H65V85Zm0,4v.92H65V89Zm1-4v.92H66V85Zm0,4v.92H66V89Z"/><path class="cls-3" d="M68,91v.92H67V91Zm1-6v.92H68V85Zm0,1v.92H68V86Zm0,1v.92H68V87Zm0,4v.92H68V91Zm1-3v.92H69V88Zm0,2v.92H69V90Zm1-1v.92H70V89Zm1-1v.92H71V88Zm1-3v.92H72V85Zm0,1v.92H72V86Zm0,1v.92H72V87Z"/><path class="cls-3" d="M75,82v.92H74V82Zm0,1v.92H74V83Zm0,1v.92H74V84Zm0,1v.92H74V85Zm0,1v.92H74V86Zm0,1v.92H74V87Zm0,1v.92H74V88Zm1,1v.92H75V89Zm1,0v.92H76V89Z"/><path class="cls-3" d="M78,86v.92H77V86Zm0,1v.92H77V87Zm0,1v.92H77V88Zm1-3v.92H78V85Zm0,2v.92H78V87Zm0,2v.92H78V89Zm1-4v.92H79V85Zm0,2v.92H79V87Zm0,2v.92H79V89Zm1-4v.92H80V85Zm0,2v.92H80V87Zm0,2v.92H80V89Zm1-3v.92H81V86Zm0,1v.92H81V87Zm0,2v.92H81V89Z"/><path class="cls-3" d="M86,86v.92H85V86Zm0,1v.92H85V87Zm1-2v.92H86V85Zm0,2v.92H86V87Zm1-3v.92H87V84Zm0,3v.92H87V87Zm1-4v.92H88V83Zm0,4v.92H88V87Zm1-4v.92H89V83Zm0,1v.92H89V84Zm0,1v.92H89V85Zm0,1v.92H89V86Zm0,1v.92H89V87Zm0,1v.92H89V88Zm0,1v.92H89V89Z"/></g></svg>