<svg xmlns="http://www.w3.org/2000/svg" width="146" height="96" viewBox="0 0 146 96"><defs><style>.cls-1{fill:#d8d8d8;}.cls-2,.cls-6{fill:#09090a;opacity:0.9;}.cls-3{fill:#fff;}.cls-4{fill:#b3b3b3;}.cls-5{fill:gray;}.cls-6{fill-opacity:0.7;}</style></defs><title>single-post</title><g id="Layer_2" data-name="Layer 2"><path class="cls-1" d="M143,3V79H3V3H143m1-1H2V80H144V2Z"/><rect x="2" y="78" width="142" height="16"/><rect class="cls-2" x="16" y="5" width="36" height="33"/><path class="cls-3" d="M31.88,20l1.51,3H29.87l2-3M32,18l-4,6h7l-3-6Z"/><path class="cls-3" d="M36.88,20.75,38.23,23H35.08l1.8-2.25M37,19l-4,5h7l-3-5Z"/><rect class="cls-4" x="18" y="45" width="12" height="1"/><rect class="cls-4" x="18" y="49" width="32" height="1"/><rect class="cls-4" x="18" y="53" width="32" height="1"/><rect class="cls-5" x="18" y="40" width="21" height="3"/><rect class="cls-6" x="55" y="5" width="36" height="39"/><rect class="cls-6" x="16" y="57" width="36" height="19"/><rect class="cls-6" x="55" y="63" width="36" height="13"/><rect class="cls-6" x="94" y="52" width="36" height="24"/><path class="cls-3" d="M70.88,25l1.51,3H68.87l2-3M71,23l-4,6h7l-3-6Z"/><path class="cls-3" d="M75.88,25.75,77.23,28H74.08l1.8-2.25M76,24l-4,5h7l-3-5Z"/><rect class="cls-4" x="57" y="51" width="12" height="1"/><rect class="cls-4" x="57" y="55" width="32" height="1"/><rect class="cls-4" x="57" y="59" width="32" height="1"/><rect class="cls-5" x="57" y="46" width="21" height="3"/><rect class="cls-6" x="94" y="5" width="36" height="28"/><path class="cls-3" d="M109.88,18l1.51,3h-3.51l2-3m.12-2-4,6h7l-3-6Z"/><path class="cls-3" d="M114.88,18.75,116.23,21h-3.15l1.8-2.25M115,17l-4,5h7l-3-5Z"/><rect class="cls-4" x="96" y="40" width="12" height="1"/><rect class="cls-4" x="96" y="44" width="32" height="1"/><rect class="cls-4" x="96" y="48" width="32" height="1"/><rect class="cls-5" x="96" y="35" width="21" height="3"/><path class="cls-3" d="M58,84V85h-.92V84Zm0,1V86h-.92V85Zm0,4V90h-.92V89Zm1-6V84h-.92V83Zm0,3V87h-.92V86Zm0,3V90h-.92V89Zm1-6V84h-.92V83Zm0,3V87h-.92V86Zm0,3V90h-.92V89Zm1-6V84h-.92V83Zm0,3V87h-.92V86Zm0,3V90h-.92V89Zm1-6V84h-.92V83Zm0,4V88h-.92V87Zm0,1V89h-.92V88Z"/><path class="cls-3" d="M64,83V84h-.92V83Zm0,1V85h-.92V84Zm0,1V86h-.92V85Zm0,1V87h-.92V86Zm0,1V88h-.92V87Zm0,1V89h-.92V88Zm1-3V86h-.92V85Zm0,4V90h-.92V89Zm1-4V86h-.92V85Zm0,4V90h-.92V89Zm1-4V86h-.92V85Zm0,4V90h-.92V89Z"/><path class="cls-3" d="M68,91V92h-.92V91Zm1-6V86h-.92V85Zm0,1V87h-.92V86Zm0,1V88h-.92V87Zm0,4V92h-.92V91Zm1-3V89h-.92V88Zm0,2V91h-.92V90Zm1-1V90h-.92V89Zm1-1V89h-.92V88Zm1-3V86h-.92V85Zm0,1V87h-.92V86Zm0,1V88h-.92V87Z"/><path class="cls-3" d="M75,82V83h-.92V82Zm0,1V84h-.92V83Zm0,1V85h-.92V84Zm0,1V86h-.92V85Zm0,1V87h-.92V86Zm0,1V88h-.92V87Zm0,1V89h-.92V88Zm1,1V90h-.92V89Zm1,0V90h-.92V89Z"/><path class="cls-3" d="M78,86V87h-.92V86Zm0,1V88h-.92V87Zm0,1V89h-.92V88Zm1-3V86h-.92V85Zm0,2V88h-.92V87Zm0,2V90h-.92V89Zm1-4V86h-.92V85Zm0,2V88h-.92V87Zm0,2V90h-.92V89Zm1-4V86h-.92V85Zm0,2V88h-.92V87Zm0,2V90h-.92V89Zm1-3V87h-.92V86Zm0,1V88h-.92V87Zm0,2V90h-.92V89Z"/><path class="cls-3" d="M86,83V84h-.92V83Zm0,5V89h-.92V88Zm0,1V90h-.92V89Zm1-6V84h-.92V83Zm0,4V88h-.92V87Zm0,2V90h-.92V89Zm1-6V84h-.92V83Zm0,3V87h-.92V86Zm0,3V90h-.92V89Zm1-6V84h-.92V83Zm0,3V87h-.92V86Zm0,3V90h-.92V89Zm1-5V85h-.92V84Zm0,1V86h-.92V85Zm0,4V90h-.92V89Z"/></g></svg>