<svg id="body-full" xmlns="http://www.w3.org/2000/svg" width="96" height="96" viewBox="0 0 96 96"><defs><style>.cls-1{fill:#d8d8d8;}.cls-2{fill:#fff;}</style></defs><title>df</title><path class="cls-1" d="M93,3V79H3V3H93m1-1H2V80H94V2Z"/><rect x="2" y="78" width="92" height="16"/><path class="cls-2" d="M28,83V84H27V83Zm0,1V85H27V84Zm0,1V86H27V85Zm0,1V87H27V86Zm0,1V88H27V87Zm0,1V89H27V88Zm0,1V90H27V89Zm1-6V84H28V83Zm0,3V87H28V86Zm1-3V84H29V83Zm0,3V87H29V86Zm1-3V84H30V83Zm0,3V87H30V86Zm1-3V84H31V83Z"/><path class="cls-2" d="M33,85V86H32V85Zm0,1V87H32V86Zm0,1V88H32V87Zm0,1V89H32V88Zm1,1V90H33V89Zm1,0V90H34V89Zm1,0V90H35V89Zm1-4V86H36V85Zm0,1V87H36V86Zm0,1V88H36V87Zm0,1V89H36V88Zm0,1V90H36V89Z"/><path class="cls-2" d="M39,82V83H38V82Zm0,1V84H38V83Zm0,1V85H38V84Zm0,1V86H38V85Zm0,1V87H38V86Zm0,1V88H38V87Zm0,1V89H38V88Zm1,1V90H39V89ZM41,90H40V89Z"/><path class="cls-2" d="M42,82V83H41V82Zm0,1V84H41V83Zm0,1V85H41V84Zm0,1V86H41V85Zm0,1V87H41V86Zm0,1V88H41V87Zm0,1V89H41V88Zm1,1V90H42V89ZM44,90H43V89Z"/><path class="cls-2" d="M45,85V86H44V85Zm0,1V87H44V86Zm0,1V88H44V87Zm0,1V89H44V88Zm1,1V90H45V89Zm1-1V89H46V88Zm1-2V87H47V86Zm0,1V88H47V87Zm1,1V89H48V88Zm1,1V90H49V89Zm1-4V86H50V85Zm0,1V87H50V86Zm0,1V88H50V87Zm0,1V89H50V88Z"/><path class="cls-2" d="M53,82V83H52V82Zm0,3V86H52V85Zm0,1V87H52V86Zm0,1V88H52V87Zm0,1V89H52V88Zm0,1V90H52V89Z"/><path class="cls-2" d="M55,86V87H54V86Zm0,1V88H54V87Zm0,1V89H54V88Zm1-3V86H55V85Zm0,4V90H55V89Zm1-4V86H56V85Zm0,4V90H56V89Zm1-4V86H57V85Zm0,4V90H57V89Zm1-7V83H58V82Zm0,1V84H58V83Zm0,1V85H58V84Zm0,1V86H58V85Zm0,1V87H58V86Zm0,1V88H58V87Zm0,1V89H58V88Zm0,1V90H58V89Z"/><path class="cls-2" d="M61,83V84H60V83Zm0,1V85H60V84Zm0,1V86H60V85Zm0,1V87H60V86Zm0,1V88H60V87Zm0,1V89H60V88Zm1-3V86H61V85Zm0,4V90H61V89Zm1-4V86H62V85Zm0,4V90H62V89Zm1-4V86H63V85Zm0,4V90H63V89Z"/><path class="cls-2" d="M66,82V83H65V82Zm0,1V84H65V83Zm0,1V85H65V84Zm0,1V86H65V85Zm0,1V87H65V86Zm0,1V88H65V87Zm0,1V89H65V88Zm0,1V90H65V89Zm1-4V86H66V85Zm1,0V86H67V85Zm1,0V86H68V85Zm1,1V87H69V86Zm0,1V88H69V87Zm0,1V89H69V88Zm0,1V90H69V89Z"/><rect class="cls-2" x="5" y="5" width="86" height="71"/></svg>