<svg xmlns="http://www.w3.org/2000/svg" width="96" height="96" viewBox="0 0 96 96"><defs><style>.cls-1{fill:#fff;}.cls-2{fill:#d8d8d8;}.cls-3{fill:#09090a;opacity:0.9;}</style></defs><title>df</title><g id="body-right-sidebar"><rect class="cls-1" x="5" y="5" width="59" height="71"/><path class="cls-2" d="M93,3V79H3V3H93m1-1H2V80H94V2Z"/><rect x="2" y="78" width="92" height="16"/><path class="cls-1" d="M18,83V84H17V83Zm0,1V85H17V84Zm0,1V86H17V85Zm0,1V87H17V86Zm0,1V88H17V87Zm0,1V89H17V88Zm0,1V90H17V89Zm1-6V84H18V83Zm0,3V87H18V86Zm1-3V84H19V83Zm0,3V87H19V86Zm0,1V88H19V87Zm1-4V84H20V83Zm0,3V87H20V86Zm0,2V89H20V88Zm1-4V85H21V84Zm0,1V86H21V85Zm0,4V90H21V89Z"/><path class="cls-1" d="M24,82V83H23V82Zm0,3V86H23V85Zm0,1V87H23V86Zm0,1V88H23V87Zm0,1V89H23V88Zm0,1V90H23V89Z"/><path class="cls-1" d="M26,86V87H25V86Zm0,1V88H25V87Zm0,1V89H25V88Zm0,3V92H25V91Zm1-6V86H26V85Zm0,4V90H26V89Zm0,2V92H26V91Zm1-6V86H27V85Zm0,4V90H27V89Zm0,2V92H27V91Zm1-6V86H28V85Zm0,4V90H28V89Zm0,2V92H28V91Zm1-6V86H29V85Zm0,1V87H29V86Zm0,1V88H29V87Zm0,1V89H29V88Zm0,1V90H29V89Zm0,1V91H29V90Z"/><path class="cls-1" d="M32,82V83H31V82Zm0,1V84H31V83Zm0,1V85H31V84Zm0,1V86H31V85Zm0,1V87H31V86Zm0,1V88H31V87Zm0,1V89H31V88Zm0,1V90H31V89Zm1-4V86H32V85Zm1,0V86H33V85Zm1,0V86H34V85Zm1,1V87H35V86Zm0,1V88H35V87Zm0,1V89H35V88Zm0,1V90H35V89Z"/><path class="cls-1" d="M38,83V84H37V83Zm0,1V85H37V84Zm0,1V86H37V85Zm0,1V87H37V86Zm0,1V88H37V87Zm0,1V89H37V88Zm1-3V86H38V85Zm0,4V90H38V89Zm1-4V86H39V85Zm0,4V90H39V89Zm1-4V86H40V85Zm0,4V90H40V89Z"/><path class="cls-1" d="M45,84V85H44V84Zm0,1V86H44V85Zm0,4V90H44V89Zm1-6V84H45V83Zm0,3V87H45V86Zm0,3V90H45V89Zm1-6V84H46V83Zm0,3V87H46V86Zm0,3V90H46V89Zm1-6V84H47V83Zm0,3V87H47V86Zm0,3V90H47V89Zm1-6V84H48V83Zm0,4V88H48V87Zm0,1V89H48V88Z"/><path class="cls-1" d="M51,82V83H50V82Zm0,3V86H50V85Zm0,1V87H50V86Zm0,1V88H50V87Zm0,1V89H50V88Zm0,1V90H50V89Z"/><path class="cls-1" d="M53,86V87H52V86Zm0,1V88H52V87Zm0,1V89H52V88Zm1-3V86H53V85Zm0,4V90H53V89Zm1-4V86H54V85Zm0,4V90H54V89Zm1-4V86H55V85Zm0,4V90H55V89Zm1-7V83H56V82Zm0,1V84H56V83Zm0,1V85H56V84Zm0,1V86H56V85Zm0,1V87H56V86Zm0,1V88H56V87Zm0,1V89H56V88Zm0,1V90H56V89Z"/><path class="cls-1" d="M59,86V87H58V86Zm0,1V88H58V87Zm0,1V89H58V88Zm1-3V86H59V85Zm0,2V88H59V87Zm0,2V90H59V89Zm1-4V86H60V85Zm0,2V88H60V87Zm0,2V90H60V89Zm1-4V86H61V85Zm0,2V88H61V87Zm0,2V90H61V89Zm1-3V87H62V86Zm0,1V88H62V87Zm0,2V90H62V89Z"/><path class="cls-1" d="M65,82V83H64V82Zm0,1V84H64V83Zm0,1V85H64V84Zm0,1V86H64V85Zm0,1V87H64V86Zm0,1V88H64V87Zm0,1V89H64V88Zm0,1V90H64V89Zm1-4V86H65V85Zm0,4V90H65V89Zm1-4V86H66V85Zm0,4V90H66V89Zm1-4V86H67V85Zm0,4V90H67V89Zm1-3V87H68V86Zm0,1V88H68V87Zm0,1V89H68V88Z"/><path class="cls-1" d="M71,88V89H70V88Zm1-3V86H71V85Zm0,2V88H71V87Zm0,2V90H71V89Zm1-4V86H72V85Zm0,2V88H72V87Zm0,2V90H72V89Zm1-4V86H73V85Zm0,2V88H73V87Zm0,2V90H73V89Zm1-3V87H74V86Zm0,1V88H74V87Zm0,1V89H74V88Zm0,1V90H74V89Z"/><path class="cls-1" d="M77,85V86H76V85Zm0,1V87H76V86Zm0,1V88H76V87Zm0,1V89H76V88Zm0,1V90H76V89Zm1-3V87H77V86Zm1-1V86H78V85Zm1,0V86H79V85Z"/><rect class="cls-3" x="66" y="5" width="25" height="71"/></g></svg>