<svg xmlns="http://www.w3.org/2000/svg" width="146" height="96" viewBox="0 0 146 96"><defs><style>.cls-1{fill:#d8d8d8;}.cls-2{fill:#09090a;opacity:0.9;}.cls-3{fill:gray;}.cls-4{fill:#fff;}</style></defs><title>df</title><g id="featured-style-4"><path class="cls-1" d="M143,3V79H3V3H143m1-1H2V80H144V2Z"/><rect x="2" y="78" width="142" height="16"/><rect class="cls-2" x="48" y="5" width="50" height="71"/><rect class="cls-3" x="51" y="57" width="19" height="3"/><rect class="cls-3" x="51" y="72" width="19" height="1"/><rect class="cls-3" x="51" y="63" width="44" height="6"/><rect class="cls-2" x="100" y="5" width="41" height="71"/><rect class="cls-3" x="103" y="57" width="19" height="3"/><rect class="cls-3" x="103" y="72" width="19" height="1"/><rect class="cls-3" x="103" y="63" width="35" height="6"/><rect class="cls-2" x="5" y="5" width="41" height="71"/><rect class="cls-3" x="8" y="57" width="19" height="3"/><rect class="cls-3" x="8" y="72" width="19" height="1"/><rect class="cls-3" x="8" y="63" width="35" height="6"/><path class="cls-4" d="M58,84v.92H57V84Zm0,1v.92H57V85Zm0,4v.92H57V89Zm1-6v.92H58V83Zm0,3v.92H58V86Zm0,3v.92H58V89Zm1-6v.92H59V83Zm0,3v.92H59V86Zm0,3v.92H59V89Zm1-6v.92H60V83Zm0,3v.92H60V86Zm0,3v.92H60V89Zm1-6v.92H61V83Zm0,4v.92H61V87Zm0,1v.92H61V88Z"/><path class="cls-4" d="M64,83v.92H63V83Zm0,1v.92H63V84Zm0,1v.92H63V85Zm0,1v.92H63V86Zm0,1v.92H63V87Zm0,1v.92H63V88Zm1-3v.92H64V85Zm0,4v.92H64V89Zm1-4v.92H65V85Zm0,4v.92H65V89Zm1-4v.92H66V85Zm0,4v.92H66V89Z"/><path class="cls-4" d="M68,91v.92H67V91Zm1-6v.92H68V85Zm0,1v.92H68V86Zm0,1v.92H68V87Zm0,4v.92H68V91Zm1-3v.92H69V88Zm0,2v.92H69V90Zm1-1v.92H70V89Zm1-1v.92H71V88Zm1-3v.92H72V85Zm0,1v.92H72V86Zm0,1v.92H72V87Z"/><path class="cls-4" d="M75,82v.92H74V82Zm0,1v.92H74V83Zm0,1v.92H74V84Zm0,1v.92H74V85Zm0,1v.92H74V86Zm0,1v.92H74V87Zm0,1v.92H74V88Zm1,1v.92H75V89Zm1,0v.92H76V89Z"/><path class="cls-4" d="M78,86v.92H77V86Zm0,1v.92H77V87Zm0,1v.92H77V88Zm1-3v.92H78V85Zm0,2v.92H78V87Zm0,2v.92H78V89Zm1-4v.92H79V85Zm0,2v.92H79V87Zm0,2v.92H79V89Zm1-4v.92H80V85Zm0,2v.92H80V87Zm0,2v.92H80V89Zm1-3v.92H81V86Zm0,1v.92H81V87Zm0,2v.92H81V89Z"/><path class="cls-4" d="M86,86v.92H85V86Zm0,1v.92H85V87Zm1-2v.92H86V85Zm0,2v.92H86V87Zm1-3v.92H87V84Zm0,3v.92H87V87Zm1-4v.92H88V83Zm0,4v.92H88V87Zm1-4v.92H89V83Zm0,1v.92H89V84Zm0,1v.92H89V85Zm0,1v.92H89V86Zm0,1v.92H89V87Zm0,1v.92H89V88Zm0,1v.92H89V89Z"/></g></svg>