<svg xmlns="http://www.w3.org/2000/svg" width="146" height="96" viewBox="0 0 146 96"><defs><style>.cls-1{fill:#d8d8d8;}.cls-2{fill:#09090a;opacity:0.9;}.cls-3{fill:gray;}.cls-4{fill:#fff;}</style></defs><title>df</title><g id="featured-style-5"><path class="cls-1" d="M143,3V79H3V3H143m1-1H2V80H144V2Z"/><rect x="2" y="78" width="142" height="16"/><rect class="cls-2" x="48" y="5" width="93" height="71"/><rect class="cls-3" x="16" y="31" width="19" height="3"/><rect class="cls-3" x="16" y="46" width="19" height="1"/><rect class="cls-3" x="16" y="37" width="44" height="6"/><path class="cls-4" d="M57,84V85H56V84Zm0,1V86H56V85Zm0,4V90H56V89Zm1-6V84H57V83Zm0,3V87H57V86Zm0,3V90H57V89Zm1-6V84H58V83Zm0,3V87H58V86Zm0,3V90H58V89Zm1-6V84H59V83Zm0,3V87H59V86Zm0,3V90H59V89Zm1-6V84H60V83Zm0,4V88H60V87Zm0,1V89H60V88Z"/><path class="cls-4" d="M63,83V84H62V83Zm0,1V85H62V84Zm0,1V86H62V85Zm0,1V87H62V86Zm0,1V88H62V87Zm0,1V89H62V88Zm1-3V86H63V85Zm0,4V90H63V89Zm1-4V86H64V85Zm0,4V90H64V89Zm1-4V86H65V85Zm0,4V90H65V89Z"/><path class="cls-4" d="M67,91V92H66V91Zm1-6V86H67V85Zm0,1V87H67V86Zm0,1V88H67V87Zm0,4V92H67V91Zm1-3V89H68V88Zm0,2V91H68V90Zm1-1V90H69V89Zm1-1V89H70V88Zm1-3V86H71V85Zm0,1V87H71V86Zm0,1V88H71V87Z"/><path class="cls-4" d="M74,82V83H73V82Zm0,1V84H73V83Zm0,1V85H73V84Zm0,1V86H73V85Zm0,1V87H73V86Zm0,1V88H73V87Zm0,1V89H73V88Zm1,1V90H74V89Zm1,0V90H75V89Z"/><path class="cls-4" d="M77,86V87H76V86Zm0,1V88H76V87Zm0,1V89H76V88Zm1-3V86H77V85Zm0,2V88H77V87Zm0,2V90H77V89Zm1-4V86H78V85Zm0,2V88H78V87Zm0,2V90H78V89Zm1-4V86H79V85Zm0,2V88H79V87Zm0,2V90H79V89Zm1-3V87H80V86Zm0,1V88H80V87Zm0,2V90H80V89Z"/><path class="cls-4" d="M85,83V84H84V83Zm0,1V85H84V84Zm0,1V86H84V85Zm0,1V87H84V86Zm0,3V90H84V89Zm1-6V84H85V83Zm0,3V87H85V86Zm0,3V90H85V89Zm1-6V84H86V83Zm0,3V87H86V86Zm0,3V90H86V89Zm1-6V84H87V83Zm0,3V87H87V86Zm0,3V90H87V89Zm1-6V84H88V83Zm0,4V88H88V87Zm0,1V89H88V88Z"/></g></svg>