<svg xmlns="http://www.w3.org/2000/svg" width="96" height="96" viewBox="0 0 96 96"><defs><style>.cls-1{fill:#d8d8d8;}.cls-2{fill:#09090a;opacity:0.9;}.cls-3{fill:gray;}.cls-4{fill:#fff;}</style></defs><title>featured-area</title><g id="Layer_4" data-name="Layer 4"><path class="cls-1" d="M93,3V79H3V3H93m1-1H2V80H94V2Z"/><rect x="2" y="78" width="92" height="16"/><rect class="cls-2" x="5" y="15.03" width="27" height="50.94"/><rect class="cls-2" x="34" y="15.03" width="28" height="50.94"/><rect class="cls-2" x="64" y="15.03" width="27" height="50.94"/><rect class="cls-3" x="8" y="47" width="16" height="3"/><rect class="cls-3" x="8" y="62" width="16" height="1"/><rect class="cls-3" x="8" y="53" width="22" height="6"/><rect class="cls-3" x="37" y="47" width="16" height="3"/><rect class="cls-3" x="37" y="62" width="16" height="1"/><rect class="cls-3" x="37" y="53" width="22" height="6"/><rect class="cls-3" x="67" y="47" width="16" height="3"/><rect class="cls-3" x="67" y="62" width="16" height="1"/><rect class="cls-3" x="67" y="53" width="22" height="6"/><path class="cls-4" d="M33,84v.92H32V84Zm0,1v.92H32V85Zm0,4v.92H32V89Zm1-6v.92H33V83Zm0,3v.92H33V86Zm0,3v.92H33V89Zm1-6v.92H34V83Zm0,3v.92H34V86Zm0,3v.92H34V89Zm1-6v.92H35V83Zm0,3v.92H35V86Zm0,3v.92H35V89Zm1-6v.92H36V83Zm0,4v.92H36V87Zm0,1v.92H36V88Z"/><path class="cls-4" d="M39,83v.92H38V83Zm0,1v.92H38V84Zm0,1v.92H38V85Zm0,1v.92H38V86Zm0,1v.92H38V87Zm0,1v.92H38V88Zm1-3v.92H39V85Zm0,4v.92H39V89Zm1-4v.92H40V85Zm0,4v.92H40V89Zm1-4v.92H41V85Zm0,4v.92H41V89Z"/><path class="cls-4" d="M43,91v.92H42V91Zm1-6v.92H43V85Zm0,1v.92H43V86Zm0,1v.92H43V87Zm0,4v.92H43V91Zm1-3v.92H44V88Zm0,2v.92H44V90Zm1-1v.92H45V89Zm1-1v.92H46V88Zm1-3v.92H47V85Zm0,1v.92H47V86Zm0,1v.92H47V87Z"/><path class="cls-4" d="M50,82v.92H49V82Zm0,1v.92H49V83Zm0,1v.92H49V84Zm0,1v.92H49V85Zm0,1v.92H49V86Zm0,1v.92H49V87Zm0,1v.92H49V88Zm1,1v.92H50V89Zm1,0v.92H51V89Z"/><path class="cls-4" d="M53,86v.92H52V86Zm0,1v.92H52V87Zm0,1v.92H52V88Zm1-3v.92H53V85Zm0,2v.92H53V87Zm0,2v.92H53V89Zm1-4v.92H54V85Zm0,2v.92H54V87Zm0,2v.92H54V89Zm1-4v.92H55V85Zm0,2v.92H55V87Zm0,2v.92H55V89Zm1-3v.92H56V86Zm0,1v.92H56V87Zm0,2v.92H56V89Z"/><path class="cls-4" d="M61,86v.92H60V86Zm0,1v.92H60V87Zm1-2v.92H61V85Zm0,2v.92H61V87Zm1-3v.92H62V84Zm0,3v.92H62V87Zm1-4v.92H63V83Zm0,4v.92H63V87Zm1-4v.92H64V83Zm0,1v.92H64V84Zm0,1v.92H64V85Zm0,1v.92H64V86Zm0,1v.92H64V87Zm0,1v.92H64V88Zm0,1v.92H64V89Z"/></g></svg>