<svg xmlns="http://www.w3.org/2000/svg" width="146" height="96" viewBox="0 0 146 96"><defs><style>.cls-1{fill:#d8d8d8;}.cls-2{fill:#fff;}.cls-3{fill:#09090a;opacity:0.9;}.cls-4{fill:#b3b3b3;}.cls-5{fill:#1a1a1a;}</style></defs><title>df</title><g id="single-post-style-1-stasya"><path class="cls-1" d="M143,3V79H3V3H143m1-1H2V80H144V2Z"/><rect x="2" y="78" width="142" height="16"/><path class="cls-2" d="M58,84v.92H57V84Zm0,1v.92H57V85Zm0,4v.92H57V89Zm1-6v.92H58V83Zm0,3v.92H58V86Zm0,3v.92H58V89Zm1-6v.92H59V83Zm0,3v.92H59V86Zm0,3v.92H59V89Zm1-6v.92H60V83Zm0,3v.92H60V86Zm0,3v.92H60V89Zm1-6v.92H61V83Zm0,4v.92H61V87Zm0,1v.92H61V88Z"/><path class="cls-2" d="M64,83v.92H63V83Zm0,1v.92H63V84Zm0,1v.92H63V85Zm0,1v.92H63V86Zm0,1v.92H63V87Zm0,1v.92H63V88Zm1-3v.92H64V85Zm0,4v.92H64V89Zm1-4v.92H65V85Zm0,4v.92H65V89Zm1-4v.92H66V85Zm0,4v.92H66V89Z"/><path class="cls-2" d="M68,91v.92H67V91Zm1-6v.92H68V85Zm0,1v.92H68V86Zm0,1v.92H68V87Zm0,4v.92H68V91Zm1-3v.92H69V88Zm0,2v.92H69V90Zm1-1v.92H70V89Zm1-1v.92H71V88Zm1-3v.92H72V85Zm0,1v.92H72V86Zm0,1v.92H72V87Z"/><path class="cls-2" d="M75,82v.92H74V82Zm0,1v.92H74V83Zm0,1v.92H74V84Zm0,1v.92H74V85Zm0,1v.92H74V86Zm0,1v.92H74V87Zm0,1v.92H74V88Zm1,1v.92H75V89Zm1,0v.92H76V89Z"/><path class="cls-2" d="M78,86v.92H77V86Zm0,1v.92H77V87Zm0,1v.92H77V88Zm1-3v.92H78V85Zm0,2v.92H78V87Zm0,2v.92H78V89Zm1-4v.92H79V85Zm0,2v.92H79V87Zm0,2v.92H79V89Zm1-4v.92H80V85Zm0,2v.92H80V87Zm0,2v.92H80V89Zm1-3v.92H81V86Zm0,1v.92H81V87Zm0,2v.92H81V89Z"/><path class="cls-2" d="M86,83v.92H85V83Zm0,6v.92H85V89Zm1-6v.92H86V83Zm0,6v.92H86V89Zm1-6v.92H87V83Zm0,1v.92H87V84Zm0,1v.92H87V85Zm0,1v.92H87V86Zm0,1v.92H87V87Zm0,1v.92H87V88Zm0,1v.92H87V89Zm1,0v.92H88V89Zm1,0v.92H89V89Z"/><rect class="cls-3" x="5" y="5" width="136" height="40"/><path class="cls-2" d="M70.88,24l1.51,3H68.87l2-3M71,22l-4,6h7l-3-6Z"/><path class="cls-2" d="M75.88,24.75,77.23,27H74.08l1.8-2.25M76,23l-4,5h7l-3-5Z"/><rect class="cls-4" x="17" y="60" width="12" height="1"/><rect class="cls-4" x="17" y="63" width="112" height="1"/><rect class="cls-4" x="17" y="66" width="112" height="1"/><rect class="cls-4" x="17" y="69" width="112" height="1"/><rect class="cls-4" x="17" y="72" width="112" height="1"/><rect class="cls-4" x="17" y="75" width="112" height="1"/><path class="cls-5" d="M18,49V50H17V49Zm0,1V51H17V50Zm0,1V52H17V51Zm0,1V53H17V52Zm0,1V54H17V53Zm0,1V55H17V54Zm0,1V56H17V55Zm1-6V50H18V49Zm0,3V53H18V52Zm1-3V50H19V49Zm0,3V53H19V52Zm1-3V50H20V49Zm0,3V53H20V52Zm1-2V51H21V50Zm0,1V52H21V51Z"/><path class="cls-5" d="M24,52V53H23V52Zm0,1V54H23V53Zm0,1V55H23V54Zm1-3V52H24V51Zm0,4V56H24V55Zm1-4V52H25V51Zm0,4V56H25V55Zm1-4V52H26V51Zm0,4V56H26V55Zm1-3V53H27V52Zm0,1V54H27V53Zm0,1V55H27V54Z"/><path class="cls-5" d="M30,52V53H29V52Zm0,3V56H29V55Zm1-4V52H30V51Zm0,2V54H30V53Zm0,2V56H30V55Zm1-4V52H31V51Zm0,2V54H31V53Zm0,2V56H31V55Zm1-4V52H32V51Zm0,3V55H32V54Z"/><path class="cls-5" d="M35,49V50H34V49Zm0,1V51H34V50Zm0,1V52H34V51Zm0,1V53H34V52Zm0,1V54H34V53Zm0,1V55H34V54Zm1-3V52H35V51Zm0,4V56H35V55Zm1-4V52H36V51Zm0,4V56H36V55Zm1-4V52H37V51Zm0,4V56H37V55Z"/><path class="cls-5" d="M41,49V50H40V49Zm1,0V50H41V49Zm1,0V50H42V49Zm0,1V51H42V50Zm0,1V52H42V51Zm0,1V53H42V52Zm0,1V54H42V53Zm0,1V55H42V54Zm0,1V56H42V55Zm1-6V50H43V49Zm1,0V50H44V49Z"/><path class="cls-5" d="M46,48V49H45V48Zm0,3V52H45V51Zm0,1V53H45V52Zm0,1V54H45V53Zm0,1V55H45V54Zm0,1V56H45V55Z"/><path class="cls-5" d="M48,49V50H47V49Zm0,1V51H47V50Zm0,1V52H47V51Zm0,1V53H47V52Zm0,1V54H47V53Zm0,1V55H47V54Zm1-3V52H48V51Zm0,4V56H48V55Zm1-4V52H49V51Zm0,4V56H49V55Zm1-4V52H50V51Zm0,4V56H50V55Z"/><path class="cls-5" d="M53,48V49H52V48Zm0,1V50H52V49Zm0,1V51H52V50Zm0,1V52H52V51Zm0,1V53H52V52Zm0,1V54H52V53Zm0,1V55H52V54Zm1,1V56H53V55Zm1,0V56H54V55Z"/><path class="cls-5" d="M56,52V53H55V52Zm0,1V54H55V53Zm0,1V55H55V54Zm1-3V52H56V51Zm0,2V54H56V53Zm0,2V56H56V55Zm1-4V52H57V51Zm0,2V54H57V53Zm0,2V56H57V55Zm1-4V52H58V51Zm0,2V54H58V53Zm0,2V56H58V55Zm1-3V53H59V52Zm0,1V54H59V53Zm0,2V56H59V55Z"/></g></svg>