<svg xmlns="http://www.w3.org/2000/svg" width="146" height="96" viewBox="0 0 146 96"><defs><style>.cls-1{fill:#d8d8d8;}.cls-2{fill:#fff;}.cls-3{fill:#09090a;opacity:0.9;}.cls-4{fill:#b3b3b3;}.cls-5{fill:#1a1a1a;}</style></defs><title>df</title><g id="single-post-style-2-stevie"><path class="cls-1" d="M143,3V79H3V3H143m1-1H2V80H144V2Z"/><rect x="2" y="78" width="142" height="16"/><path class="cls-2" d="M58,84v.92H57V84Zm0,1v.92H57V85Zm0,4v.92H57V89Zm1-6v.92H58V83Zm0,3v.92H58V86Zm0,3v.92H58V89Zm1-6v.92H59V83Zm0,3v.92H59V86Zm0,3v.92H59V89Zm1-6v.92H60V83Zm0,3v.92H60V86Zm0,3v.92H60V89Zm1-6v.92H61V83Zm0,4v.92H61V87Zm0,1v.92H61V88Z"/><path class="cls-2" d="M64,83v.92H63V83Zm0,1v.92H63V84Zm0,1v.92H63V85Zm0,1v.92H63V86Zm0,1v.92H63V87Zm0,1v.92H63V88Zm1-3v.92H64V85Zm0,4v.92H64V89Zm1-4v.92H65V85Zm0,4v.92H65V89Zm1-4v.92H66V85Zm0,4v.92H66V89Z"/><path class="cls-2" d="M68,91v.92H67V91Zm1-6v.92H68V85Zm0,1v.92H68V86Zm0,1v.92H68V87Zm0,4v.92H68V91Zm1-3v.92H69V88Zm0,2v.92H69V90Zm1-1v.92H70V89Zm1-1v.92H71V88Zm1-3v.92H72V85Zm0,1v.92H72V86Zm0,1v.92H72V87Z"/><path class="cls-2" d="M75,82v.92H74V82Zm0,1v.92H74V83Zm0,1v.92H74V84Zm0,1v.92H74V85Zm0,1v.92H74V86Zm0,1v.92H74V87Zm0,1v.92H74V88Zm1,1v.92H75V89Zm1,0v.92H76V89Z"/><path class="cls-2" d="M78,86v.92H77V86Zm0,1v.92H77V87Zm0,1v.92H77V88Zm1-3v.92H78V85Zm0,2v.92H78V87Zm0,2v.92H78V89Zm1-4v.92H79V85Zm0,2v.92H79V87Zm0,2v.92H79V89Zm1-4v.92H80V85Zm0,2v.92H80V87Zm0,2v.92H80V89Zm1-3v.92H81V86Zm0,1v.92H81V87Zm0,2v.92H81V89Z"/><path class="cls-2" d="M86,83v.92H85V83Zm0,5v.92H85V88Zm0,1v.92H85V89Zm1-6v.92H86V83Zm0,4v.92H86V87Zm0,2v.92H86V89Zm1-6v.92H87V83Zm0,3v.92H87V86Zm0,3v.92H87V89Zm1-6v.92H88V83Zm0,3v.92H88V86Zm0,3v.92H88V89Zm1-5v.92H89V84Zm0,1v.92H89V85Zm0,4v.92H89V89Z"/><rect class="cls-3" x="17" y="21" width="112" height="39"/><path class="cls-2" d="M70.88,40l1.51,3H68.87l2-3M71,38l-4,6h7l-3-6Z"/><path class="cls-2" d="M75.88,40.75,77.23,43H74.08l1.8-2.25M76,39l-4,5h7l-3-5Z"/><rect class="cls-4" x="17" y="16.96" width="12" height="1"/><rect class="cls-4" x="17" y="63" width="112" height="1"/><rect class="cls-4" x="17" y="66" width="112" height="1"/><rect class="cls-4" x="17" y="69" width="112" height="1"/><rect class="cls-4" x="17" y="72" width="112" height="1"/><rect class="cls-4" x="17" y="75" width="112" height="1"/><path class="cls-5" d="M18,6v.92H17V6Zm0,1v.92H17V7Zm0,1v.92H17V8Zm0,1v.92H17V9Zm0,1v.92H17V10Zm0,1v.92H17V11Zm0,1v.92H17V12Zm1-6v.92H18V6Zm0,3v.92H18V9Zm1-3v.92H19V6Zm0,3v.92H19V9Zm1-3v.92H20V6Zm0,3v.92H20V9Zm1-2v.92H21V7Zm0,1v.92H21V8Z"/><path class="cls-5" d="M24,9v.92H23V9Zm0,1v.92H23V10Zm0,1v.92H23V11Zm1-3v.92H24V8Zm0,4v.92H24V12Zm1-4v.92H25V8Zm0,4v.92H25V12Zm1-4v.92H26V8Zm0,4v.92H26V12Zm1-3v.92H27V9Zm0,1v.92H27V10Zm0,1v.92H27V11Z"/><path class="cls-5" d="M30,9v.92H29V9Zm0,3v.92H29V12Zm1-4v.92H30V8Zm0,2v.92H30V10Zm0,2v.92H30V12Zm1-4v.92H31V8Zm0,2v.92H31V10Zm0,2v.92H31V12Zm1-4v.92H32V8Zm0,3v.92H32V11Z"/><path class="cls-5" d="M35,6v.92H34V6Zm0,1v.92H34V7Zm0,1v.92H34V8Zm0,1v.92H34V9Zm0,1v.92H34V10Zm0,1v.92H34V11Zm1-3v.92H35V8Zm0,4v.92H35V12Zm1-4v.92H36V8Zm0,4v.92H36V12Zm1-4v.92H37V8Zm0,4v.92H37V12Z"/><path class="cls-5" d="M41,6v.92H40V6Zm1,0v.92H41V6Zm1,0v.92H42V6Zm0,1v.92H42V7Zm0,1v.92H42V8Zm0,1v.92H42V9Zm0,1v.92H42V10Zm0,1v.92H42V11Zm0,1v.92H42V12Zm1-6v.92H43V6Zm1,0v.92H44V6Z"/><path class="cls-5" d="M46,5v.92H45V5Zm0,3v.92H45V8Zm0,1v.92H45V9Zm0,1v.92H45V10Zm0,1v.92H45V11Zm0,1v.92H45V12Z"/><path class="cls-5" d="M48,6v.92H47V6Zm0,1v.92H47V7Zm0,1v.92H47V8Zm0,1v.92H47V9Zm0,1v.92H47V10Zm0,1v.92H47V11Zm1-3v.92H48V8Zm0,4v.92H48V12Zm1-4v.92H49V8Zm0,4v.92H49V12Zm1-4v.92H50V8Zm0,4v.92H50V12Z"/><path class="cls-5" d="M53,5v.92H52V5Zm0,1v.92H52V6Zm0,1v.92H52V7Zm0,1v.92H52V8Zm0,1v.92H52V9Zm0,1v.92H52V10Zm0,1v.92H52V11Zm1,1v.92H53V12Zm1,0v.92H54V12Z"/><path class="cls-5" d="M56,9v.92H55V9Zm0,1v.92H55V10Zm0,1v.92H55V11Zm1-3v.92H56V8Zm0,2v.92H56V10Zm0,2v.92H56V12Zm1-4v.92H57V8Zm0,2v.92H57V10Zm0,2v.92H57V12Zm1-4v.92H58V8Zm0,2v.92H58V10Zm0,2v.92H58V12Zm1-3v.92H59V9Zm0,1v.92H59V10Zm0,2v.92H59V12Z"/></g></svg>