<svg xmlns="http://www.w3.org/2000/svg" width="80" height="80" viewBox="0 0 80 80"><defs><style>.cls-1{fill:#fff;}.cls-2{fill:#d8d8d8;}.cls-3{fill:#f2f2f2;}</style></defs><title>df</title><g id="inherit"><rect class="cls-1" x="0.5" y="0.5" width="79" height="79"/><path class="cls-2" d="M79,1V79H1V1H79m1-1H0V80H80V0Z"/><rect y="64" width="80" height="16"/><rect class="cls-2" x="30" y="26" width="20" height="4"/><rect class="cls-2" x="30" y="35" width="20" height="4"/><path class="cls-3" d="M26,69V70H25V69Zm0,6V76H25V75Zm1-6V70H26V69Zm0,1V71H26V70Zm0,1V72H26V71Zm0,1V73H26V72Zm0,1V74H26V73Zm0,1V75H26V74Zm0,1V76H26V75Zm1-6V70H27V69Zm0,6V76H27V75Z"/><path class="cls-3" d="M30,71V72H29V71Zm0,1V73H29V72Zm0,1V74H29V73Zm0,1V75H29V74Zm0,1V76H29V75Zm1-4V72H30V71Zm1,0V72H31V71Zm1,0V72H32V71Zm1,1V73H33V72Zm0,1V74H33V73Zm0,1V75H33V74Zm0,1V76H33V75Z"/><path class="cls-3" d="M36,68V69H35V68Zm0,1V70H35V69Zm0,1V71H35V70Zm0,1V72H35V71Zm0,1V73H35V72Zm0,1V74H35V73Zm0,1V75H35V74Zm0,1V76H35V75Zm1-4V72H36V71Zm1,0V72H37V71Zm1,0V72H38V71Zm1,1V73H39V72Zm0,1V74H39V73Zm0,1V75H39V74Zm0,1V76H39V75Z"/><path class="cls-3" d="M42,72V73H41V72Zm0,1V74H41V73Zm0,1V75H41V74Zm1-3V72H42V71Zm0,2V74H42V73Zm0,2V76H42V75Zm1-4V72H43V71Zm0,2V74H43V73Zm0,2V76H43V75Zm1-4V72H44V71Zm0,2V74H44V73Zm0,2V76H44V75Zm1-3V73H45V72Zm0,1V74H45V73Zm0,2V76H45V75Z"/><path class="cls-3" d="M48,71V72H47V71Zm0,1V73H47V72Zm0,1V74H47V73Zm0,1V75H47V74Zm0,1V76H47V75Zm1-3V73H48V72Zm1-1V72H49V71Zm1,0V72H50V71Z"/><path class="cls-3" d="M52,68V69H51V68Zm0,3V72H51V71Zm0,1V73H51V72Zm0,1V74H51V73Zm0,1V75H51V74Zm0,1V76H51V75Z"/><path class="cls-3" d="M54,69V70H53V69Zm0,1V71H53V70Zm0,1V72H53V71Zm0,1V73H53V72Zm0,1V74H53V73Zm0,1V75H53V74Zm1-3V72H54V71Zm0,4V76H54V75Zm1-4V72H55V71Zm0,4V76H55V75Zm1-4V72H56V71Zm0,4V76H56V75Z"/></g></svg>