<svg id="Layer_1" data-name="Layer 1" xmlns="http://www.w3.org/2000/svg" width="207.97" height="23" viewBox="0 0 207.97 23"><defs><style>.cls-1{fill:#fff;}</style></defs><title>light-logo</title><path class="cls-1" d="M.51,23.13v-1h3V1.84h-3v-1H9.6v1H6.67v10l10.87-10h-3v-1h6.68a1.92,1.92,0,0,1,0,.37q-.11.59-.93.59a3.24,3.24,0,0,0-.7.07A6,6,0,0,0,17.5,3.39L10.9,9.55l9.68,12.61h1a1.89,1.89,0,0,1,.37,0q.59.11.59.93H17.39L8.6,11.7,6.67,13.52v8.64h2a1.89,1.89,0,0,1,.37,0q.59.11.59.93Zm34.92,0v-1h3V1.84h-3v-1h9.09v1H41.59V22.16h2a1.89,1.89,0,0,1,.37,0q.59.11.59.93Zm27.42,0v-1h3.52V1.84h-2q-2.86.22-4,3.86l-.59,2.49h-1L58.88.87H77.21l.19,7.31h-1l-.59-2.49a.52.52,0,0,1,0-.22q-1-3.64-4-3.64H69.57V22.16h2.52a1.89,1.89,0,0,1,.37,0q.59.11.59.93Zm28.72,0v-1h3V1.84h-3v-1h11a8.45,8.45,0,0,1,4.86,1.34,5.17,5.17,0,0,1,2.41,4.45,5.65,5.65,0,0,1-.48,2.26,6.66,6.66,0,0,1-4.82,3.67l6,9.57h1.41a2.31,2.31,0,0,1,.45,0q.45.11.45.93h-5.6l-5.94-10.2H97.73v9.24h2.93v1ZM97.73,1.84v10h3.82a4.58,4.58,0,0,0,2.93-1,5,5,0,0,0,1.85-4.15,5.48,5.48,0,0,0-.48-2.26,4.45,4.45,0,0,0-4.41-2.6Zm27.94,21.29v-1h3V1.84h-3v-1h9.09v1h-2.93V22.16h2a1.89,1.89,0,0,1,.37,0q.59.11.59.93ZM164.48.87h7.6v1h-3V22.94l-1.71.37L152.83,5V22.16H155a1.89,1.89,0,0,1,.37,0q.59.11.59.93h-7.6v-1h3V1.84h-3v-1h5.16l14.1,17.58V1.84h-3.15Zm44,12.24v1H205.7v9.05L202.55,22a2.75,2.75,0,0,1-.48.3,10.43,10.43,0,0,1-5,1.22,11,11,0,0,1-6.9-2.37,11.15,11.15,0,0,1-4.23-9.27A11,11,0,0,1,197,.5a11.11,11.11,0,0,1,5,1.15L205.22,1l.19,7.2h-1a14,14,0,0,0-2-4.53q-1.71-2.11-5.53-2.11a8.4,8.4,0,0,0-2,.22Q189.6,3.17,189.6,12q0,10.31,7.42,10.39a4.79,4.79,0,0,0,.59,0,6.94,6.94,0,0,0,5-2.49V14.08h-3.34v-1Z" transform="translate(-0.51 -0.5)"/></svg>