<svg xmlns="http://www.w3.org/2000/svg" width="80" height="80" viewBox="0 0 80 80"><defs><style>.cls-1{fill:#fff;}.cls-2{fill:#d8d8d8;}.cls-3{fill:#f2f2f2;}</style></defs><title>df</title><g id="layout-right"><rect class="cls-1" x="0.5" y="0.5" width="79" height="79"/><path class="cls-2" d="M79,1V79H1V1H79m1-1H0V80H80V0Z"/><rect y="64" width="80" height="16"/><path class="cls-3" d="M11,69V70H10V69Zm0,1V71H10V70Zm0,1V72H10V71Zm0,1V73H10V72Zm0,1V74H10V73Zm0,1V75H10V74Zm0,1V76H10V75Zm1-6V70H11V69Zm0,3V73H11V72Zm1-3V70H12V69Zm0,3V73H12V72Zm0,1V74H12V73Zm1-4V70H13V69Zm0,3V73H13V72Zm0,2V75H13V74Zm1-4V71H14V70Zm0,1V72H14V71Zm0,4V76H14V75Z"/><path class="cls-3" d="M17,68V69H16V68Zm0,3V72H16V71Zm0,1V73H16V72Zm0,1V74H16V73Zm0,1V75H16V74Zm0,1V76H16V75Z"/><path class="cls-3" d="M19,72V73H18V72Zm0,1V74H18V73Zm0,1V75H18V74Zm0,3V78H18V77Zm1-6V72H19V71Zm0,4V76H19V75Zm0,2V78H19V77Zm1-6V72H20V71Zm0,4V76H20V75Zm0,2V78H20V77Zm1-6V72H21V71Zm0,4V76H21V75Zm0,2V78H21V77Zm1-6V72H22V71Zm0,1V73H22V72Zm0,1V74H22V73Zm0,1V75H22V74Zm0,1V76H22V75Zm0,1V77H22V76Z"/><path class="cls-3" d="M25,68V69H24V68Zm0,1V70H24V69Zm0,1V71H24V70Zm0,1V72H24V71Zm0,1V73H24V72Zm0,1V74H24V73Zm0,1V75H24V74Zm0,1V76H24V75Zm1-4V72H25V71Zm1,0V72H26V71Zm1,0V72H27V71Zm1,1V73H28V72Zm0,1V74H28V73Zm0,1V75H28V74Zm0,1V76H28V75Z"/><path class="cls-3" d="M31,69V70H30V69Zm0,1V71H30V70Zm0,1V72H30V71Zm0,1V73H30V72Zm0,1V74H30V73Zm0,1V75H30V74Zm1-3V72H31V71Zm0,4V76H31V75Zm1-4V72H32V71Zm0,4V76H32V75Zm1-4V72H33V71Zm0,4V76H33V75Z"/><path class="cls-3" d="M38,70V71H37V70Zm0,1V72H37V71Zm0,4V76H37V75Zm1-6V70H38V69Zm0,3V73H38V72Zm0,3V76H38V75Zm1-6V70H39V69Zm0,3V73H39V72Zm0,3V76H39V75Zm1-6V70H40V69Zm0,3V73H40V72Zm0,3V76H40V75Zm1-6V70H41V69Zm0,4V74H41V73Zm0,1V75H41V74Z"/><path class="cls-3" d="M44,68V69H43V68Zm0,3V72H43V71Zm0,1V73H43V72Zm0,1V74H43V73Zm0,1V75H43V74Zm0,1V76H43V75Z"/><path class="cls-3" d="M46,72V73H45V72Zm0,1V74H45V73Zm0,1V75H45V74Zm1-3V72H46V71Zm0,4V76H46V75Zm1-4V72H47V71Zm0,4V76H47V75Zm1-4V72H48V71Zm0,4V76H48V75Zm1-7V69H49V68Zm0,1V70H49V69Zm0,1V71H49V70Zm0,1V72H49V71Zm0,1V73H49V72Zm0,1V74H49V73Zm0,1V75H49V74Zm0,1V76H49V75Z"/><path class="cls-3" d="M52,72V73H51V72Zm0,1V74H51V73Zm0,1V75H51V74Zm1-3V72H52V71Zm0,2V74H52V73Zm0,2V76H52V75Zm1-4V72H53V71Zm0,2V74H53V73Zm0,2V76H53V75Zm1-4V72H54V71Zm0,2V74H54V73Zm0,2V76H54V75Zm1-3V73H55V72Zm0,1V74H55V73Zm0,2V76H55V75Z"/><path class="cls-3" d="M58,68V69H57V68Zm0,1V70H57V69Zm0,1V71H57V70Zm0,1V72H57V71Zm0,1V73H57V72Zm0,1V74H57V73Zm0,1V75H57V74Zm0,1V76H57V75Zm1-4V72H58V71Zm0,4V76H58V75Zm1-4V72H59V71Zm0,4V76H59V75Zm1-4V72H60V71Zm0,4V76H60V75Zm1-3V73H61V72Zm0,1V74H61V73Zm0,1V75H61V74Z"/><path class="cls-3" d="M64,74V75H63V74Zm1-3V72H64V71Zm0,2V74H64V73Zm0,2V76H64V75Zm1-4V72H65V71Zm0,2V74H65V73Zm0,2V76H65V75Zm1-4V72H66V71Zm0,2V74H66V73Zm0,2V76H66V75Zm1-3V73H67V72Zm0,1V74H67V73Zm0,1V75H67V74Zm0,1V76H67V75Z"/><path class="cls-3" d="M70,71V72H69V71Zm0,1V73H69V72Zm0,1V74H69V73Zm0,1V75H69V74Zm0,1V76H69V75Zm1-3V73H70V72Zm1-1V72H71V71Zm1,0V72H72V71Z"/><path class="cls-2" d="M52,5V60H5V5H52m1-1H4V61H53V4Z"/><rect class="cls-2" x="56" y="4" width="20" height="57"/></g></svg>