<svg xmlns="http://www.w3.org/2000/svg" width="80" height="80" viewBox="0 0 80 80"><defs><style>.cls-1{fill:#fff;}.cls-2{fill:#d8d8d8;}.cls-3{fill:#f2f2f2;}</style></defs><title>df</title><g id="layout-left"><rect class="cls-1" x="0.5" y="0.5" width="79" height="79"/><path class="cls-2" d="M79,1V79H1V1H79m1-1H0V80H80V0Z"/><rect y="64" width="80" height="16"/><path class="cls-3" d="M13,69V70H12V69Zm0,1V71H12V70Zm0,1V72H12V71Zm0,1V73H12V72Zm0,1V74H12V73Zm0,1V75H12V74Zm0,1V76H12V75Zm1,0V76H13V75Zm1,0V76H14V75Zm1,0V76H15V75Zm1,0V76H16V75Z"/><path class="cls-3" d="M18,72V73H17V72Zm0,1V74H17V73Zm0,1V75H17V74Zm1-3V72H18V71Zm0,2V74H18V73Zm0,2V76H18V75Zm1-4V72H19V71Zm0,2V74H19V73Zm0,2V76H19V75Zm1-4V72H20V71Zm0,2V74H20V73Zm0,2V76H20V75Zm1-3V73H21V72Zm0,1V74H21V73Zm0,2V76H21V75Z"/><path class="cls-3" d="M23,71V72H22V71Zm1,0V72H23V71Zm1-2V70H24V69Zm0,1V71H24V70Zm0,1V72H24V71Zm0,1V73H24V72Zm0,1V74H24V73Zm0,1V75H24V74Zm0,1V76H24V75Zm1-7V69H25V68Zm0,3V72H25V71Zm1-3V69H26V68Zm0,3V72H26V71Zm1-3V69H27V68Z"/><path class="cls-3" d="M28,69V70H27V69Zm0,1V71H27V70Zm0,1V72H27V71Zm0,1V73H27V72Zm0,1V74H27V73Zm0,1V75H27V74Zm1-3V72H28V71Zm0,4V76H28V75Zm1-4V72H29V71Zm0,4V76H29V75Zm1-4V72H30V71Zm0,4V76H30V75Z"/><path class="cls-3" d="M35,70V71H34V70Zm0,1V72H34V71Zm0,4V76H34V75Zm1-6V70H35V69Zm0,3V73H35V72Zm0,3V76H35V75Zm1-6V70H36V69Zm0,3V73H36V72Zm0,3V76H36V75Zm1-6V70H37V69Zm0,3V73H37V72Zm0,3V76H37V75Zm1-6V70H38V69Zm0,4V74H38V73Zm0,1V75H38V74Z"/><path class="cls-3" d="M41,68V69H40V68Zm0,3V72H40V71Zm0,1V73H40V72Zm0,1V74H40V73Zm0,1V75H40V74Zm0,1V76H40V75Z"/><path class="cls-3" d="M43,72V73H42V72Zm0,1V74H42V73Zm0,1V75H42V74Zm1-3V72H43V71Zm0,4V76H43V75Zm1-4V72H44V71Zm0,4V76H44V75Zm1-4V72H45V71Zm0,4V76H45V75Zm1-7V69H46V68Zm0,1V70H46V69Zm0,1V71H46V70Zm0,1V72H46V71Zm0,1V73H46V72Zm0,1V74H46V73Zm0,1V75H46V74Zm0,1V76H46V75Z"/><path class="cls-3" d="M49,72V73H48V72Zm0,1V74H48V73Zm0,1V75H48V74Zm1-3V72H49V71Zm0,2V74H49V73Zm0,2V76H49V75Zm1-4V72H50V71Zm0,2V74H50V73Zm0,2V76H50V75Zm1-4V72H51V71Zm0,2V74H51V73Zm0,2V76H51V75Zm1-3V73H52V72Zm0,1V74H52V73Zm0,2V76H52V75Z"/><path class="cls-3" d="M55,68V69H54V68Zm0,1V70H54V69Zm0,1V71H54V70Zm0,1V72H54V71Zm0,1V73H54V72Zm0,1V74H54V73Zm0,1V75H54V74Zm0,1V76H54V75Zm1-4V72H55V71Zm0,4V76H55V75Zm1-4V72H56V71Zm0,4V76H56V75Zm1-4V72H57V71Zm0,4V76H57V75Zm1-3V73H58V72Zm0,1V74H58V73Zm0,1V75H58V74Z"/><path class="cls-3" d="M61,74V75H60V74Zm1-3V72H61V71Zm0,2V74H61V73Zm0,2V76H61V75Zm1-4V72H62V71Zm0,2V74H62V73Zm0,2V76H62V75Zm1-4V72H63V71Zm0,2V74H63V73Zm0,2V76H63V75Zm1-3V73H64V72Zm0,1V74H64V73Zm0,1V75H64V74Zm0,1V76H64V75Z"/><path class="cls-3" d="M67,71V72H66V71Zm0,1V73H66V72Zm0,1V74H66V73Zm0,1V75H66V74Zm0,1V76H66V75Zm1-3V73H67V72Zm1-1V72H68V71Zm1,0V72H69V71Z"/><path class="cls-2" d="M75,5V60H28V5H75m1-1H27V61H76V4Z"/><rect class="cls-2" x="4" y="4" width="20" height="57"/></g></svg>