<svg xmlns="http://www.w3.org/2000/svg" width="80" height="80" viewBox="0 0 80 80"><defs><style>.cls-1{fill:#fff;}.cls-2{fill:#d8d8d8;}.cls-3{fill:#f2f2f2;}</style></defs><title>df</title><g id="layout-full"><rect class="cls-1" x="0.5" y="0.5" width="79" height="79"/><path class="cls-2" d="M79,1V79H1V1H79m1-1H0V80H80V0Z"/><rect y="64" width="80" height="16"/><path class="cls-3" d="M20,69V70H19V69Zm0,1V71H19V70Zm0,1V72H19V71Zm0,1V73H19V72Zm0,1V74H19V73Zm0,1V75H19V74Zm0,1V76H19V75Zm1-6V70H20V69Zm0,3V73H20V72Zm1-3V70H21V69Zm0,3V73H21V72Zm1-3V70H22V69Zm0,3V73H22V72Zm1-3V70H23V69Z"/><path class="cls-3" d="M25,71V72H24V71Zm0,1V73H24V72Zm0,1V74H24V73Zm0,1V75H24V74Zm1,1V76H25V75Zm1,0V76H26V75Zm1,0V76H27V75Zm1-4V72H28V71Zm0,1V73H28V72Zm0,1V74H28V73Zm0,1V75H28V74Zm0,1V76H28V75Z"/><path class="cls-3" d="M31,68V69H30V68Zm0,1V70H30V69Zm0,1V71H30V70Zm0,1V72H30V71Zm0,1V73H30V72Zm0,1V74H30V73Zm0,1V75H30V74Zm1,1V76H31V75Zm1,0V76H32V75Z"/><path class="cls-3" d="M34,68V69H33V68Zm0,1V70H33V69Zm0,1V71H33V70Zm0,1V72H33V71Zm0,1V73H33V72Zm0,1V74H33V73Zm0,1V75H33V74Zm1,1V76H34V75Zm1,0V76H35V75Z"/><path class="cls-3" d="M37,71V72H36V71Zm0,1V73H36V72Zm0,1V74H36V73Zm0,1V75H36V74Zm1,1V76H37V75Zm1-1V75H38V74Zm1-2V73H39V72Zm0,1V74H39V73Zm1,1V75H40V74Zm1,1V76H41V75Zm1-4V72H42V71Zm0,1V73H42V72Zm0,1V74H42V73Zm0,1V75H42V74Z"/><path class="cls-3" d="M45,68V69H44V68Zm0,3V72H44V71Zm0,1V73H44V72Zm0,1V74H44V73Zm0,1V75H44V74Zm0,1V76H44V75Z"/><path class="cls-3" d="M47,72V73H46V72Zm0,1V74H46V73Zm0,1V75H46V74Zm1-3V72H47V71Zm0,4V76H47V75Zm1-4V72H48V71Zm0,4V76H48V75Zm1-4V72H49V71Zm0,4V76H49V75Zm1-7V69H50V68Zm0,1V70H50V69Zm0,1V71H50V70Zm0,1V72H50V71Zm0,1V73H50V72Zm0,1V74H50V73Zm0,1V75H50V74Zm0,1V76H50V75Z"/><path class="cls-3" d="M53,69V70H52V69Zm0,1V71H52V70Zm0,1V72H52V71Zm0,1V73H52V72Zm0,1V74H52V73Zm0,1V75H52V74Zm1-3V72H53V71Zm0,4V76H53V75Zm1-4V72H54V71Zm0,4V76H54V75Zm1-4V72H55V71Zm0,4V76H55V75Z"/><path class="cls-3" d="M58,68V69H57V68Zm0,1V70H57V69Zm0,1V71H57V70Zm0,1V72H57V71Zm0,1V73H57V72Zm0,1V74H57V73Zm0,1V75H57V74Zm0,1V76H57V75Zm1-4V72H58V71Zm1,0V72H59V71Zm1,0V72H60V71Zm1,1V73H61V72Zm0,1V74H61V73Zm0,1V75H61V74Zm0,1V76H61V75Z"/><rect class="cls-2" x="4" y="4" width="72" height="57"/></g></svg>