<svg xmlns="http://www.w3.org/2000/svg" width="80" height="80" viewBox="0 0 80 80"><defs><style>.cls-1{fill:#d8d8d8;}.cls-2{fill:#f2f2f2;}.cls-3,.cls-6{fill:#09090a;opacity:0.9;}.cls-4{fill:#b3b3b3;}.cls-5{fill:gray;}.cls-6{fill-opacity:0.7;}</style></defs><title>df</title><g id="portfolio-style-1"><rect y="64" width="80" height="16"/><path class="cls-1" d="M79,1V79H1V1H79m1-1H0V80H80V0Z"/><path class="cls-2" d="M25,69V70h-.92V69Zm0,1V71h-.92V70Zm0,4V75h-.92V74Zm1-6V69h-.92V68Zm0,3V72h-.92V71Zm0,3V75h-.92V74Zm1-6V69h-.92V68Zm0,3V72h-.92V71Zm0,3V75h-.92V74Zm1-6V69h-.92V68Zm0,3V72h-.92V71Zm0,3V75h-.92V74Zm1-6V69h-.92V68Zm0,4V73h-.92V72Zm0,1V74h-.92V73Z"/><path class="cls-2" d="M31,68V69h-.92V68Zm0,1V70h-.92V69Zm0,1V71h-.92V70Zm0,1V72h-.92V71Zm0,1V73h-.92V72Zm0,1V74h-.92V73Zm1-3V71h-.92V70Zm0,4V75h-.92V74Zm1-4V71h-.92V70Zm0,4V75h-.92V74Zm1-4V71h-.92V70Zm0,4V75h-.92V74Z"/><path class="cls-2" d="M35,76V77h-.92V76Zm1-6V71h-.92V70Zm0,1V72h-.92V71Zm0,1V73h-.92V72Zm0,4V77h-.92V76Zm1-3V74h-.92V73Zm0,2V76h-.92V75Zm1-1V75h-.92V74Zm1-1V74h-.92V73Zm1-3V71h-.92V70Zm0,1V72h-.92V71Zm0,1V73h-.92V72Z"/><path class="cls-2" d="M42,67V68h-.92V67Zm0,1V69h-.92V68Zm0,1V70h-.92V69Zm0,1V71h-.92V70Zm0,1V72h-.92V71Zm0,1V73h-.92V72Zm0,1V74h-.92V73Zm1,1V75h-.92V74Zm1,0V75h-.92V74Z"/><path class="cls-2" d="M45,71V72h-.92V71Zm0,1V73h-.92V72Zm0,1V74h-.92V73Zm1-3V71h-.92V70Zm0,2V73h-.92V72Zm0,2V75h-.92V74Zm1-4V71h-.92V70Zm0,2V73h-.92V72Zm0,2V75h-.92V74Zm1-4V71h-.92V70Zm0,2V73h-.92V72Zm0,2V75h-.92V74Zm1-3V72h-.92V71Zm0,1V73h-.92V72Zm0,2V75h-.92V74Z"/><path class="cls-2" d="M53,68V69h-.92V68Zm0,6V75h-.92V74Zm1-6V69h-.92V68Zm0,6V75h-.92V74Zm1-6V69h-.92V68Zm0,1V70h-.92V69Zm0,1V71h-.92V70Zm0,1V72h-.92V71Zm0,1V73h-.92V72Zm0,1V74h-.92V73Zm0,1V75h-.92V74Zm1,0V75h-.92V74Zm1,0V75h-.92V74Z"/><rect class="cls-3" x="12" y="3" width="27" height="31"/><rect class="cls-4" x="14" y="30" width="12" height="1"/><rect class="cls-5" x="14" y="25" width="15" height="3"/><rect class="cls-6" x="41" y="3" width="27" height="35"/><rect class="cls-6" x="12" y="36" width="27" height="26"/><rect class="cls-6" x="41" y="40" width="27" height="22"/></g></svg>