<svg xmlns="http://www.w3.org/2000/svg" width="80" height="80" viewBox="0 0 80 80"><defs><style>.cls-1{fill:#d8d8d8;}.cls-2{fill:#ccc;}.cls-3{fill:#f2f2f2;}</style></defs><title>df</title><g id="single-shop-style-1"><rect y="64" width="80" height="16"/><path class="cls-1" d="M79,1V79H1V1H79m1-1H0V80H80V0Z"/><rect class="cls-2" x="3" y="18" width="7" height="9"/><rect class="cls-2" x="3" y="28" width="7" height="9"/><rect class="cls-2" x="3" y="38" width="7" height="9"/><rect class="cls-2" x="34" y="18" width="22" height="31"/><rect class="cls-2" x="11" y="18" width="22" height="31"/><rect class="cls-2" x="58" y="41" width="9" height="1"/><rect class="cls-2" x="58" y="38" width="19" height="1"/><rect class="cls-2" x="58" y="35" width="19" height="1"/><rect class="cls-2" x="58" y="32" width="19" height="1"/><rect class="cls-2" x="58" y="29" width="19" height="1"/><rect class="cls-2" x="58" y="24" width="15" height="1"/><rect class="cls-2" x="58" y="19" width="16" height="3"/><rect class="cls-2" x="58" y="46" width="6" height="1"/><path class="cls-3" d="M25,69V70h-.92V69Zm0,1V71h-.92V70Zm0,4V75h-.92V74Zm1-6V69h-.92V68Zm0,3V72h-.92V71Zm0,3V75h-.92V74Zm1-6V69h-.92V68Zm0,3V72h-.92V71Zm0,3V75h-.92V74Zm1-6V69h-.92V68Zm0,3V72h-.92V71Zm0,3V75h-.92V74Zm1-6V69h-.92V68Zm0,4V73h-.92V72Zm0,1V74h-.92V73Z"/><path class="cls-3" d="M31,68V69h-.92V68Zm0,1V70h-.92V69Zm0,1V71h-.92V70Zm0,1V72h-.92V71Zm0,1V73h-.92V72Zm0,1V74h-.92V73Zm1-3V71h-.92V70Zm0,4V75h-.92V74Zm1-4V71h-.92V70Zm0,4V75h-.92V74Zm1-4V71h-.92V70Zm0,4V75h-.92V74Z"/><path class="cls-3" d="M35,76V77h-.92V76Zm1-6V71h-.92V70Zm0,1V72h-.92V71Zm0,1V73h-.92V72Zm0,4V77h-.92V76Zm1-3V74h-.92V73Zm0,2V76h-.92V75Zm1-1V75h-.92V74Zm1-1V74h-.92V73Zm1-3V71h-.92V70Zm0,1V72h-.92V71Zm0,1V73h-.92V72Z"/><path class="cls-3" d="M42,67V68h-.92V67Zm0,1V69h-.92V68Zm0,1V70h-.92V69Zm0,1V71h-.92V70Zm0,1V72h-.92V71Zm0,1V73h-.92V72Zm0,1V74h-.92V73Zm1,1V75h-.92V74Zm1,0V75h-.92V74Z"/><path class="cls-3" d="M45,71V72h-.92V71Zm0,1V73h-.92V72Zm0,1V74h-.92V73Zm1-3V71h-.92V70Zm0,2V73h-.92V72Zm0,2V75h-.92V74Zm1-4V71h-.92V70Zm0,2V73h-.92V72Zm0,2V75h-.92V74Zm1-4V71h-.92V70Zm0,2V73h-.92V72Zm0,2V75h-.92V74Zm1-3V72h-.92V71Zm0,1V73h-.92V72Zm0,2V75h-.92V74Z"/><path class="cls-3" d="M53,68V69h-.92V68Zm0,6V75h-.92V74Zm1-6V69h-.92V68Zm0,6V75h-.92V74Zm1-6V69h-.92V68Zm0,1V70h-.92V69Zm0,1V71h-.92V70Zm0,1V72h-.92V71Zm0,1V73h-.92V72Zm0,1V74h-.92V73Zm0,1V75h-.92V74Zm1,0V75h-.92V74Zm1,0V75h-.92V74Z"/></g></svg>