<svg id="shop-sidebar-none" xmlns="http://www.w3.org/2000/svg" width="80" height="80" viewBox="0 0 80 80"><defs><style>.cls-1{fill:#f2f2f2;}.cls-2{fill:#d8d8d8;}.cls-3{fill:#ccc;}</style></defs><title>df</title><rect y="64" width="80" height="16"/><path class="cls-1" d="M29,68v.92H28V68Zm0,1v.92H28V69Zm0,1v.92H28V70Zm0,1v.92H28V71Zm0,1v.92H28V72Zm0,1v.92H28V73Zm0,1v.92H28V74Zm1-4v.92H29V70Zm1,1v.92H30V71Zm1,1v.92H31V72Zm1-4v.92H32V68Zm0,1v.92H32V69Zm0,1v.92H32V70Zm0,1v.92H32V71Zm0,1v.92H32V72Zm0,1v.92H32V73Zm0,1v.92H32V74Z"/><path class="cls-1" d="M35,71v.92H34V71Zm0,1v.92H34V72Zm0,1v.92H34V73Zm1-3v.92H35V70Zm0,4v.92H35V74Zm1-4v.92H36V70Zm0,4v.92H36V74Zm1-4v.92H37V70Zm0,4v.92H37V74Zm1-3v.92H38V71Zm0,1v.92H38V72Zm0,1v.92H38V73Z"/><path class="cls-1" d="M41,70v.92H40V70Zm0,1v.92H40V71Zm0,1v.92H40V72Zm0,1v.92H40V73Zm0,1v.92H40V74Zm1-4v.92H41V70Zm1,0v.92H42V70Zm1,0v.92H43V70Zm1,1v.92H44V71Zm0,1v.92H44V72Zm0,1v.92H44V73Zm0,1v.92H44V74Z"/><path class="cls-1" d="M47,71v.92H46V71Zm0,1v.92H46V72Zm0,1v.92H46V73Zm1-3v.92H47V70Zm0,2v.92H47V72Zm0,2v.92H47V74Zm1-4v.92H48V70Zm0,2v.92H48V72Zm0,2v.92H48V74Zm1-4v.92H49V70Zm0,2v.92H49V72Zm0,2v.92H49V74Zm1-3v.92H50V71Zm0,1v.92H50V72Zm0,2v.92H50V74Z"/><path class="cls-2" d="M79,1V79H1V1H79m1-1H0V80H80V0Z"/><rect class="cls-3" x="3" y="58" width="74" height="1"/><rect class="cls-3" x="3" y="55" width="74" height="1"/><rect class="cls-3" x="3" y="61" width="74" height="1"/><rect class="cls-3" x="10" y="3" width="29" height="40.23"/><rect class="cls-3" x="10" y="44" width="6" height="8"/><rect class="cls-3" x="17" y="44" width="6" height="8"/><rect class="cls-3" x="24" y="44" width="6" height="8"/><rect class="cls-3" x="42" y="31" width="28" height="1"/><rect class="cls-3" x="42" y="34" width="9" height="1"/><rect class="cls-3" x="42" y="28" width="28" height="1"/><rect class="cls-3" x="42" y="25" width="28" height="1"/><rect class="cls-3" x="42" y="22" width="28" height="1"/><rect class="cls-3" x="42" y="19" width="28" height="1"/><rect class="cls-3" x="42" y="14" width="15" height="1"/><rect class="cls-3" x="42" y="9" width="26" height="3"/><rect class="cls-3" x="42" y="40" width="6" height="1"/></svg>