<svg xmlns="http://www.w3.org/2000/svg" width="80" height="80" viewBox="0 0 80 80"><defs><style>.cls-1{fill:#d8d8d8;}.cls-2{fill:#ccc;}.cls-3{fill:#fff;}</style></defs><title>df</title><g id="shop-sidebar-left"><rect y="64" width="80" height="16"/><path class="cls-1" d="M79,1V79H1V1H79m1-1H0V80H80V0Z"/><rect class="cls-2" x="3" y="58" width="74" height="1"/><rect class="cls-2" x="3" y="55" width="74" height="1"/><rect class="cls-2" x="3" y="61" width="74" height="1"/><rect class="cls-2" x="24" y="3" width="29" height="40.23"/><rect class="cls-2" x="24" y="44" width="6" height="8"/><rect class="cls-2" x="31" y="44" width="6" height="8"/><rect class="cls-2" x="38" y="44" width="6" height="8"/><rect class="cls-2" x="56" y="31" width="21" height="1"/><rect class="cls-2" x="56" y="34" width="9" height="1"/><rect class="cls-2" x="56" y="28" width="21" height="1"/><rect class="cls-2" x="56" y="25" width="21" height="1"/><rect class="cls-2" x="56" y="22" width="21" height="1"/><rect class="cls-2" x="56" y="19" width="21" height="1"/><rect class="cls-2" x="56" y="14" width="15" height="1"/><rect class="cls-2" x="56" y="9" width="17" height="3"/><rect class="cls-2" x="56" y="40" width="6" height="1"/><path class="cls-3" d="M32.95,69V70H32V69Zm0,1V71H32V70Zm0,4V75H32V74Zm1-6V69H33V68Zm0,3V72H33V71Zm0,3V75H33V74Zm1-6V69H34V68Zm0,3V72H34V71Zm0,3V75H34V74Zm1-6V69H35V68Zm0,3V72H35V71Zm0,3V75H35V74Zm1-6V69H36V68Zm0,4V73H36V72Zm0,1V74H36V73Z"/><path class="cls-3" d="M38.95,67V68H38V67Zm0,3V71H38V70Zm0,1V72H38V71Zm0,1V73H38V72Zm0,1V74H38V73Zm0,1V75H38V74Z"/><path class="cls-3" d="M40.95,71V72H40V71Zm0,1V73H40V72Zm0,1V74H40V73Zm1-3V71H41V70Zm0,4V75H41V74Zm1-4V71H42V70Zm0,4V75H42V74Zm1-4V71H43V70Zm0,4V75H43V74Zm1-7V68H44V67Zm0,1V69H44V68Zm0,1V70H44V69Zm0,1V71H44V70Zm0,1V72H44V71Zm0,1V73H44V72Zm0,1V74H44V73Zm0,1V75H44V74Z"/><path class="cls-3" d="M46.95,71V72H46V71Zm0,1V73H46V72Zm0,1V74H46V73Zm1-3V71H47V70Zm0,2V73H47V72Zm0,2V75H47V74Zm1-4V71H48V70Zm0,2V73H48V72Zm0,2V75H48V74Zm1-4V71H49V70Zm0,2V73H49V72Zm0,2V75H49V74Zm1-3V72H50V71Zm0,1V73H50V72Zm0,2V75H50V74Z"/><path class="cls-3" d="M52.95,67V68H52V67Zm0,1V69H52V68Zm0,1V70H52V69Zm0,1V71H52V70Zm0,1V72H52V71Zm0,1V73H52V72Zm0,1V74H52V73Zm0,1V75H52V74Zm1-4V71H53V70Zm0,4V75H53V74Zm1-4V71H54V70Zm0,4V75H54V74Zm1-4V71H55V70Zm0,4V75H55V74Zm1-3V72H56V71Zm0,1V73H56V72Zm0,1V74H56V73Z"/><path class="cls-3" d="M58.95,73V74H58V73Zm1-3V71H59V70Zm0,2V73H59V72Zm0,2V75H59V74Zm1-4V71H60V70Zm0,2V73H60V72Zm0,2V75H60V74Zm1-4V71H61V70Zm0,2V73H61V72Zm0,2V75H61V74Zm1-3V72H62V71Zm0,1V73H62V72Zm0,1V74H62V73Zm0,1V75H62V74Z"/><path class="cls-3" d="M64.95,70V71H64V70Zm0,1V72H64V71Zm0,1V73H64V72Zm0,1V74H64V73Zm0,1V75H64V74Zm1-3V72H65V71Zm1-1V71H66V70Zm1,0V71H67V70Z"/><path class="cls-3" d="M12,68V69H11V68Zm0,1V70H11V69Zm0,1V71H11V70Zm0,1V72H11V71Zm0,1V73H11V72Zm0,1V74H11V73Zm0,1V75H11V74Zm1,0V75H12V74Zm1,0V75H13V74Zm1,0V75H14V74Zm1,0V75H15V74Z"/><path class="cls-3" d="M17,71V72H16V71Zm0,1V73H16V72Zm0,1V74H16V73Zm1-3V71H17V70Zm0,2V73H17V72Zm0,2V75H17V74Zm1-4V71H18V70Zm0,2V73H18V72Zm0,2V75H18V74Zm1-4V71H19V70Zm0,2V73H19V72Zm0,2V75H19V74Zm1-3V72H20V71Zm0,1V73H20V72Zm0,2V75H20V74Z"/><path class="cls-3" d="M22,70V71H21V70Zm1,0V71H22V70Zm1-2V69H23V68Zm0,1V70H23V69Zm0,1V71H23V70Zm0,1V72H23V71Zm0,1V73H23V72Zm0,1V74H23V73Zm0,1V75H23V74Zm1-7V68H24V67Zm0,3V71H24V70Zm1-3V68H25V67Zm0,3V71H25V70Zm1-3V68H26V67Z"/><path class="cls-3" d="M27,68V69H26V68Zm0,1V70H26V69Zm0,1V71H26V70Zm0,1V72H26V71Zm0,1V73H26V72Zm0,1V74H26V73Zm1-3V71H27V70Zm0,4V75H27V74Zm1-4V71H28V70Zm0,4V75H28V74Zm1-4V71H29V70Zm0,4V75H29V74Z"/><rect x="3" y="3" width="19" height="40"/></g></svg>