<svg xmlns="http://www.w3.org/2000/svg" width="80" height="80" viewBox="0 0 80 80"><defs><style>.cls-1{fill:#d8d8d8;}.cls-2{fill:#ccc;}.cls-3{fill:#fff;}</style></defs><title>df</title><g id="shop-sidebar-right"><rect y="64" width="80" height="16"/><path class="cls-1" d="M79,1V79H1V1H79m1-1H0V80H80V0Z"/><rect class="cls-2" x="3" y="58" width="74" height="1"/><rect class="cls-2" x="3" y="55" width="74" height="1"/><rect class="cls-2" x="3" y="61" width="74" height="1"/><rect class="cls-2" x="3" y="3" width="29" height="40.23"/><rect class="cls-2" x="3" y="44" width="6" height="8"/><rect class="cls-2" x="10" y="44" width="6" height="8"/><rect class="cls-2" x="17" y="44" width="6" height="8"/><rect class="cls-2" x="35" y="31" width="21" height="1"/><rect class="cls-2" x="35" y="34" width="9" height="1"/><rect class="cls-2" x="35" y="28" width="21" height="1"/><rect class="cls-2" x="35" y="25" width="21" height="1"/><rect class="cls-2" x="35" y="22" width="21" height="1"/><rect class="cls-2" x="35" y="19" width="21" height="1"/><rect class="cls-2" x="35" y="14" width="15" height="1"/><rect class="cls-2" x="35" y="9" width="17" height="3"/><rect class="cls-2" x="35" y="40" width="6" height="1"/><path class="cls-3" d="M9,68V69H8.06V68Zm0,1V70H8.06V69Zm0,1V71H8.06V70Zm0,1V72H8.06V71Zm0,1V73H8.06V72Zm0,1V74H8.06V73Zm0,1V75H8.06V74Zm1-6V69H9.06V68Zm0,3V72H9.06V71Zm1-3V69h-.92V68Zm0,3V72h-.92V71Zm0,1V73h-.92V72Zm1-4V69h-.92V68Zm0,3V72h-.92V71Zm0,2V74h-.92V73Zm1-4V70h-.92V69Zm0,1V71h-.92V70Zm0,4V75h-.92V74Z"/><path class="cls-3" d="M15,67V68h-.92V67Zm0,3V71h-.92V70Zm0,1V72h-.92V71Zm0,1V73h-.92V72Zm0,1V74h-.92V73Zm0,1V75h-.92V74Z"/><path class="cls-3" d="M17,71V72h-.92V71Zm0,1V73h-.92V72Zm0,1V74h-.92V73Zm0,3V77h-.92V76Zm1-6V71h-.92V70Zm0,4V75h-.92V74Zm0,2V77h-.92V76Zm1-6V71h-.92V70Zm0,4V75h-.92V74Zm0,2V77h-.92V76Zm1-6V71h-.92V70Zm0,4V75h-.92V74Zm0,2V77h-.92V76Zm1-6V71h-.92V70Zm0,1V72h-.92V71Zm0,1V73h-.92V72Zm0,1V74h-.92V73Zm0,1V75h-.92V74Zm0,1V76h-.92V75Z"/><path class="cls-3" d="M23,67V68h-.92V67Zm0,1V69h-.92V68Zm0,1V70h-.92V69Zm0,1V71h-.92V70Zm0,1V72h-.92V71Zm0,1V73h-.92V72Zm0,1V74h-.92V73Zm0,1V75h-.92V74Zm1-4V71h-.92V70Zm1,0V71h-.92V70Zm1,0V71h-.92V70Zm1,1V72h-.92V71Zm0,1V73h-.92V72Zm0,1V74h-.92V73Zm0,1V75h-.92V74Z"/><path class="cls-3" d="M29,68V69h-.92V68Zm0,1V70h-.92V69Zm0,1V71h-.92V70Zm0,1V72h-.92V71Zm0,1V73h-.92V72Zm0,1V74h-.92V73Zm1-3V71h-.92V70Zm0,4V75h-.92V74Zm1-4V71h-.92V70Zm0,4V75h-.92V74Zm1-4V71h-.92V70Zm0,4V75h-.92V74Z"/><path class="cls-3" d="M36,69V70h-.92V69Zm0,1V71h-.92V70Zm0,4V75h-.92V74Zm1-6V69h-.92V68Zm0,3V72h-.92V71Zm0,3V75h-.92V74Zm1-6V69h-.92V68Zm0,3V72h-.92V71Zm0,3V75h-.92V74Zm1-6V69h-.92V68Zm0,3V72h-.92V71Zm0,3V75h-.92V74Zm1-6V69h-.92V68Zm0,4V73h-.92V72Zm0,1V74h-.92V73Z"/><path class="cls-3" d="M42,67V68h-.92V67Zm0,3V71h-.92V70Zm0,1V72h-.92V71Zm0,1V73h-.92V72Zm0,1V74h-.92V73Zm0,1V75h-.92V74Z"/><path class="cls-3" d="M44,71V72h-.92V71Zm0,1V73h-.92V72Zm0,1V74h-.92V73Zm1-3V71h-.92V70Zm0,4V75h-.92V74Zm1-4V71h-.92V70Zm0,4V75h-.92V74Zm1-4V71h-.92V70Zm0,4V75h-.92V74Zm1-7V68h-.92V67Zm0,1V69h-.92V68Zm0,1V70h-.92V69Zm0,1V71h-.92V70Zm0,1V72h-.92V71Zm0,1V73h-.92V72Zm0,1V74h-.92V73Zm0,1V75h-.92V74Z"/><path class="cls-3" d="M50,71V72h-.92V71Zm0,1V73h-.92V72Zm0,1V74h-.92V73Zm1-3V71h-.92V70Zm0,2V73h-.92V72Zm0,2V75h-.92V74Zm1-4V71h-.92V70Zm0,2V73h-.92V72Zm0,2V75h-.92V74Zm1-4V71h-.92V70Zm0,2V73h-.92V72Zm0,2V75h-.92V74Zm1-3V72h-.92V71Zm0,1V73h-.92V72Zm0,2V75h-.92V74Z"/><path class="cls-3" d="M56,67V68h-.92V67Zm0,1V69h-.92V68Zm0,1V70h-.92V69Zm0,1V71h-.92V70Zm0,1V72h-.92V71Zm0,1V73h-.92V72Zm0,1V74h-.92V73Zm0,1V75h-.92V74Zm1-4V71h-.92V70Zm0,4V75h-.92V74Zm1-4V71h-.92V70Zm0,4V75h-.92V74Zm1-4V71h-.92V70Zm0,4V75h-.92V74Zm1-3V72h-.92V71Zm0,1V73h-.92V72Zm0,1V74h-.92V73Z"/><path class="cls-3" d="M62,73V74h-.92V73Zm1-3V71h-.92V70Zm0,2V73h-.92V72Zm0,2V75h-.92V74Zm1-4V71h-.92V70Zm0,2V73h-.92V72Zm0,2V75h-.92V74Zm1-4V71h-.92V70Zm0,2V73h-.92V72Zm0,2V75h-.92V74Zm1-3V72h-.92V71Zm0,1V73h-.92V72Zm0,1V74h-.92V73Zm0,1V75h-.92V74Z"/><path class="cls-3" d="M68,70V71h-.92V70Zm0,1V72h-.92V71Zm0,1V73h-.92V72Zm0,1V74h-.92V73Zm0,1V75h-.92V74Zm1-3V72h-.92V71Zm1-1V71h-.92V70Zm1,0V71h-.92V70Z"/><rect x="58" y="3" width="19" height="40"/></g></svg>