<svg xmlns="http://www.w3.org/2000/svg" width="80" height="80" viewBox="0 0 80 80"><defs><style>.cls-1{fill:#d8d8d8;}.cls-2{fill:#ccc;}.cls-3{fill:#fff;}</style></defs><title>df</title><g id="shop-sidebar-right-full"><rect y="64" width="80" height="16"/><path class="cls-1" d="M79,1V79H1V1H79m1-1H0V80H80V0Z"/><rect class="cls-2" x="3" y="58" width="53" height="1"/><rect class="cls-2" x="3" y="55" width="53" height="1"/><rect class="cls-2" x="3" y="61" width="53" height="1"/><rect class="cls-2" x="3" y="3" width="29" height="40.23"/><rect class="cls-2" x="3" y="44" width="6" height="8"/><rect class="cls-2" x="10" y="44" width="6" height="8"/><rect class="cls-2" x="17" y="44" width="6" height="8"/><rect class="cls-2" x="35" y="31" width="21" height="1"/><rect class="cls-2" x="35" y="34" width="9" height="1"/><rect class="cls-2" x="35" y="28" width="21" height="1"/><rect class="cls-2" x="35" y="25" width="21" height="1"/><rect class="cls-2" x="35" y="22" width="21" height="1"/><rect class="cls-2" x="35" y="19" width="21" height="1"/><rect class="cls-2" x="35" y="14" width="15" height="1"/><rect class="cls-2" x="35" y="9" width="17" height="3"/><rect class="cls-2" x="35" y="40" width="6" height="1"/><rect x="58" y="3" width="19" height="59"/><path class="cls-3" d="M19,68v.92h-.92V68Zm0,1v.92h-.92V69Zm0,1v.92h-.92V70Zm0,1v.92h-.92V71Zm0,1v.92h-.92V72Zm0,1v.92h-.92V73Zm0,1v.92h-.92V74Zm1-6v.92h-.92V68Zm0,3v.92h-.92V71Zm1-3v.92h-.92V68Zm0,3v.92h-.92V71Zm1-3v.92h-.92V68Zm0,3v.92h-.92V71Zm1-3v.92h-.92V68Z"/><path class="cls-3" d="M24,70v.92h-.92V70Zm0,1v.92h-.92V71Zm0,1v.92h-.92V72Zm0,1v.92h-.92V73Zm1,1v.92h-.92V74Zm1,0v.92h-.92V74Zm1,0v.92h-.92V74Zm1-4v.92h-.92V70Zm0,1v.92h-.92V71Zm0,1v.92h-.92V72Zm0,1v.92h-.92V73Zm0,1v.92h-.92V74Z"/><path class="cls-3" d="M30,67v.92h-.92V67Zm0,1v.92h-.92V68Zm0,1v.92h-.92V69Zm0,1v.92h-.92V70Zm0,1v.92h-.92V71Zm0,1v.92h-.92V72Zm0,1v.92h-.92V73Zm1,1v.92h-.92V74Zm1,0v.92h-.92V74Z"/><path class="cls-3" d="M33,67v.92h-.92V67Zm0,1v.92h-.92V68Zm0,1v.92h-.92V69Zm0,1v.92h-.92V70Zm0,1v.92h-.92V71Zm0,1v.92h-.92V72Zm0,1v.92h-.92V73Zm1,1v.92h-.92V74Zm1,0v.92h-.92V74Z"/><path class="cls-3" d="M38,68v.92h-.92V68Zm0,1v.92h-.92V69Zm0,1v.92h-.92V70Zm0,1v.92h-.92V71Zm0,1v.92h-.92V72Zm0,1v.92h-.92V73Zm0,1v.92h-.92V74Zm1-6v.92h-.92V68Zm0,3v.92h-.92V71Zm1-3v.92h-.92V68Zm0,3v.92h-.92V71Zm0,1v.92h-.92V72Zm1-4v.92h-.92V68Zm0,3v.92h-.92V71Zm0,2v.92h-.92V73Zm1-4v.92h-.92V69Zm0,1v.92h-.92V70Zm0,4v.92h-.92V74Z"/><path class="cls-3" d="M44,67v.92h-.92V67Zm0,3v.92h-.92V70Zm0,1v.92h-.92V71Zm0,1v.92h-.92V72Zm0,1v.92h-.92V73Zm0,1v.92h-.92V74Z"/><path class="cls-3" d="M46,71v.92h-.92V71Zm0,1v.92h-.92V72Zm0,1v.92h-.92V73Zm0,3v.92h-.92V76Zm1-6v.92h-.92V70Zm0,4v.92h-.92V74Zm0,2v.92h-.92V76Zm1-6v.92h-.92V70Zm0,4v.92h-.92V74Zm0,2v.92h-.92V76Zm1-6v.92h-.92V70Zm0,4v.92h-.92V74Zm0,2v.92h-.92V76Zm1-6v.92h-.92V70Zm0,1v.92h-.92V71Zm0,1v.92h-.92V72Zm0,1v.92h-.92V73Zm0,1v.92h-.92V74Zm0,1v.92h-.92V75Z"/><path class="cls-3" d="M52,67v.92h-.92V67Zm0,1v.92h-.92V68Zm0,1v.92h-.92V69Zm0,1v.92h-.92V70Zm0,1v.92h-.92V71Zm0,1v.92h-.92V72Zm0,1v.92h-.92V73Zm0,1v.92h-.92V74Zm1-4v.92h-.92V70Zm1,0v.92h-.92V70Zm1,0v.92h-.92V70Zm1,1v.92h-.92V71Zm0,1v.92h-.92V72Zm0,1v.92h-.92V73Zm0,1v.92h-.92V74Z"/><path class="cls-3" d="M58,68v.92h-.92V68Zm0,1v.92h-.92V69Zm0,1v.92h-.92V70Zm0,1v.92h-.92V71Zm0,1v.92h-.92V72Zm0,1v.92h-.92V73Zm1-3v.92h-.92V70Zm0,4v.92h-.92V74Zm1-4v.92h-.92V70Zm0,4v.92h-.92V74Zm1-4v.92h-.92V70Zm0,4v.92h-.92V74Z"/></g></svg>